<svg width="309" height="197" viewBox="0 0 309 197" fill="none" xmlns="http://www.w3.org/2000/svg">
<path d="M199.245 66.6249C199.245 66.6249 199.671 59.8346 196.382 58.2309C193.094 56.6272 180.386 53.6329 180.386 60.1898C180.386 66.7467 188.506 72.9078 189.937 73.7705C191.368 74.6333 198.118 94.7201 198.118 94.7201L213.079 77.7899L199.245 66.6249Z" fill="white"/>
<path d="M198.118 95.2378H198.016C197.928 95.2221 197.845 95.1826 197.777 95.1236C197.709 95.0646 197.659 94.9883 197.631 94.9028C194.454 85.4227 190.587 74.9479 189.663 74.2171C188.069 73.2732 179.878 66.9903 179.878 60.2101C179.845 59.5087 180.004 58.8114 180.336 58.1929C180.669 57.5744 181.163 57.0578 181.766 56.6982C185.603 54.3028 194.048 56.5358 196.605 57.7944C199.813 59.3575 199.813 65.0821 199.762 66.4118L213.404 77.3941C213.509 77.484 213.574 77.6116 213.586 77.7493C213.592 77.8169 213.584 77.8849 213.564 77.9494C213.543 78.0139 213.509 78.0736 213.465 78.1249L198.493 95.0449C198.449 95.1032 198.393 95.1508 198.328 95.1841C198.263 95.2175 198.191 95.2359 198.118 95.2378V95.2378ZM186.496 56.6678C185.044 56.5847 183.596 56.8932 182.304 57.561C181.848 57.8304 181.476 58.2201 181.227 58.6874C180.978 59.1548 180.862 59.6816 180.893 60.2101C180.893 66.4321 188.749 72.4916 190.201 73.4051C191.652 74.3186 196.453 88.285 198.321 93.7965L212.358 77.9016L198.93 67.0309C198.865 66.9811 198.814 66.9162 198.78 66.8419C198.747 66.7675 198.732 66.6861 198.737 66.6046C198.737 66.5336 199.102 60.1289 196.169 58.6978C193.102 57.4145 189.82 56.7223 186.496 56.6576V56.6678Z" fill="#231F20"/>
<path d="M12.1496 148.403H67.5482V139.208H12.1496V148.403Z" fill="white"/>
<path d="M67.5381 148.911H12.1394C12.0048 148.911 11.8757 148.858 11.7805 148.762C11.6854 148.667 11.6319 148.538 11.6319 148.403V139.268C11.6319 139.134 11.6854 139.005 11.7805 138.91C11.8757 138.814 12.0048 138.761 12.1394 138.761H67.5381C67.6727 138.761 67.8018 138.814 67.897 138.91C67.9921 139.005 68.0456 139.134 68.0456 139.268V148.403C68.0456 148.538 67.9921 148.667 67.897 148.762C67.8018 148.858 67.6727 148.911 67.5381 148.911ZM12.6469 147.896H67.0813V139.776H12.6469V147.896Z" fill="#D1D3D4"/>
<path d="M35.6671 148.403H67.5381V139.208H35.6671V148.403Z" fill="#D1D3D4"/>
<path d="M67.5381 148.911H35.6671C35.5325 148.911 35.4034 148.858 35.3082 148.762C35.2131 148.667 35.1596 148.538 35.1596 148.403V139.268C35.1596 139.134 35.2131 139.005 35.3082 138.91C35.4034 138.814 35.5325 138.761 35.6671 138.761H67.5381C67.6727 138.761 67.8018 138.814 67.897 138.91C67.9921 139.005 68.0456 139.134 68.0456 139.268V148.403C68.0456 148.538 67.9921 148.667 67.897 148.762C67.8018 148.858 67.6727 148.911 67.5381 148.911ZM36.1746 147.896H67.0814V139.776H36.1746V147.896Z" fill="#D1D3D4"/>
<path d="M5.2171 138.862H60.6158V129.667H5.2171V138.862Z" fill="white"/>
<path d="M60.626 139.37H5.22726C5.09266 139.37 4.96357 139.317 4.8684 139.221C4.77323 139.126 4.71976 138.997 4.71976 138.862V129.667C4.71976 129.532 4.77323 129.403 4.8684 129.308C4.96357 129.213 5.09266 129.159 5.22726 129.159H60.626C60.7606 129.159 60.8896 129.213 60.9848 129.308C61.08 129.403 61.1335 129.532 61.1335 129.667V138.862C61.1309 138.996 61.0766 139.124 60.9819 139.218C60.8873 139.313 60.7597 139.367 60.626 139.37V139.37ZM5.73476 138.355H60.1185V130.174H5.73476V138.355Z" fill="#D1D3D4"/>
<path d="M28.755 138.862H60.6259V129.667H28.755V138.862Z" fill="#D1D3D4"/>
<path d="M60.626 139.37H28.7448C28.611 139.367 28.4834 139.313 28.3888 139.218C28.2942 139.124 28.2399 138.996 28.2373 138.862V129.667C28.2373 129.532 28.2908 129.403 28.3859 129.308C28.4811 129.213 28.6102 129.159 28.7448 129.159H60.626C60.7605 129.159 60.8896 129.213 60.9848 129.308C61.08 129.403 61.1335 129.532 61.1335 129.667V138.862C61.1309 138.996 61.0766 139.124 60.9819 139.218C60.8873 139.313 60.7597 139.367 60.626 139.37V139.37ZM29.2523 138.355H60.1185V130.174H29.2523V138.355Z" fill="#D1D3D4"/>
<path d="M12.1496 129.321H67.5482V120.126H12.1496V129.321Z" fill="white"/>
<path d="M67.5381 129.819H12.1394C12.0048 129.819 11.8757 129.765 11.7805 129.67C11.6854 129.575 11.6319 129.446 11.6319 129.311V120.115C11.6345 119.982 11.6888 119.854 11.7834 119.759C11.878 119.665 12.0056 119.611 12.1394 119.608H67.5381C67.6727 119.608 67.8018 119.661 67.897 119.757C67.9921 119.852 68.0456 119.981 68.0456 120.115V129.311C68.0456 129.446 67.9921 129.575 67.897 129.67C67.8018 129.765 67.6727 129.819 67.5381 129.819ZM12.6469 128.804H67.0813V120.623H12.6469V128.804Z" fill="#D1D3D4"/>
<path d="M35.6671 129.321H67.5381V120.126H35.6671V129.321Z" fill="#D1D3D4"/>
<path d="M67.5381 129.819H35.6671C35.5325 129.819 35.4034 129.765 35.3082 129.67C35.2131 129.575 35.1596 129.446 35.1596 129.311V120.115C35.1596 119.981 35.2131 119.852 35.3082 119.757C35.4034 119.661 35.5325 119.608 35.6671 119.608H67.5381C67.6727 119.608 67.8018 119.661 67.897 119.757C67.9921 119.852 68.0456 119.981 68.0456 120.115V129.311C68.0456 129.446 67.9921 129.575 67.897 129.67C67.8018 129.765 67.6727 129.819 67.5381 129.819ZM36.1746 128.804H67.0814V120.623H36.1746V128.804Z" fill="#D1D3D4"/>
<path d="M124.652 195.652H201.041V159.65H124.652V195.652Z" fill="#231F20"/>
<path d="M201.061 196.159H124.652C124.518 196.159 124.388 196.106 124.293 196.011C124.198 195.915 124.145 195.786 124.145 195.652V159.66C124.145 159.525 124.198 159.396 124.293 159.301C124.388 159.206 124.518 159.152 124.652 159.152H201.061C201.196 159.152 201.325 159.206 201.42 159.301C201.515 159.396 201.569 159.525 201.569 159.66V195.652C201.569 195.786 201.515 195.915 201.42 196.011C201.325 196.106 201.196 196.159 201.061 196.159ZM125.18 195.144H200.554V160.167H125.16L125.18 195.144Z" fill="#231F20"/>
<path d="M4.04985 159.66L222.031 159.66C223.982 159.66 225.563 158.078 225.563 156.128V152.057C225.563 150.107 223.982 148.525 222.031 148.525L4.04985 148.525C2.09906 148.525 0.51767 150.107 0.51767 152.057V156.128C0.51767 158.078 2.09906 159.66 4.04985 159.66Z" fill="white"/>
<path d="M222.031 160.167H4.06C2.98322 160.167 1.95054 159.74 1.18915 158.978C0.42775 158.217 0 157.184 0 156.107V152.047C0 150.971 0.42775 149.938 1.18915 149.176C1.95054 148.415 2.98322 147.987 4.06 147.987H222.031C223.108 147.987 224.141 148.415 224.902 149.176C225.664 149.938 226.091 150.971 226.091 152.047V156.107C226.091 157.184 225.664 158.217 224.902 158.978C224.141 159.74 223.108 160.167 222.031 160.167ZM4.06 149.002C3.25242 149.002 2.47791 149.323 1.90686 149.894C1.33581 150.465 1.015 151.24 1.015 152.047V156.107C1.015 156.915 1.33581 157.689 1.90686 158.26C2.47791 158.832 3.25242 159.152 4.06 159.152H222.031C222.839 159.152 223.613 158.832 224.184 158.26C224.755 157.689 225.076 156.915 225.076 156.107V152.047C225.076 151.24 224.755 150.465 224.184 149.894C223.613 149.323 222.839 149.002 222.031 149.002H4.06Z" fill="#231F20"/>
<path d="M3.00441 159.66L129.413 159.66C130.78 159.66 131.889 158.551 131.889 157.183V151.002C131.889 149.634 130.78 148.525 129.413 148.525L3.00441 148.525C1.63663 148.525 0.527802 149.634 0.527802 151.002V157.183C0.527802 158.551 1.63663 159.66 3.00441 159.66Z" fill="white"/>
<path d="M129.412 160.167H3.00439C2.21296 160.167 1.45394 159.853 0.894318 159.293C0.33469 158.734 0.0202942 157.975 0.0202942 157.183V151.002C0.0202942 150.21 0.33469 149.451 0.894318 148.892C1.45394 148.332 2.21296 148.018 3.00439 148.018H129.412C130.204 148.018 130.963 148.332 131.523 148.892C132.082 149.451 132.397 150.21 132.397 151.002V157.183C132.397 157.975 132.082 158.734 131.523 159.293C130.963 159.853 130.204 160.167 129.412 160.167V160.167ZM3.00439 149.002C2.48215 149.002 1.98131 149.21 1.61203 149.579C1.24275 149.948 1.03529 150.449 1.03529 150.971V157.153C1.03529 157.675 1.24275 158.176 1.61203 158.545C1.98131 158.914 2.48215 159.122 3.00439 159.122H129.412C129.935 159.122 130.436 158.914 130.805 158.545C131.174 158.176 131.382 157.675 131.382 157.153V150.971C131.382 150.449 131.174 149.948 130.805 149.579C130.436 149.21 129.935 149.002 129.412 149.002H3.00439Z" fill="#231F20"/>
<path d="M111.741 101.937C111.741 101.937 108.696 133.453 115.477 137.726C121.8 141.684 128.814 140.527 132.732 140.527C134.175 140.459 135.602 140.854 136.804 141.656C138.006 142.458 138.919 143.624 139.41 144.983L140.425 148.403H91.7052C88.0472 145.997 84.966 142.812 82.6819 139.076C79.4136 133.321 81.4436 103.409 81.4436 103.409L111.741 101.937Z" fill="white"/>
<path d="M140.395 148.911H91.6748C91.5922 148.907 91.5119 148.883 91.4413 148.84C87.7033 146.393 84.561 143.14 82.2454 139.319C78.9365 133.503 80.8447 104.606 80.9361 103.378C80.9454 103.255 80.9987 103.139 81.0862 103.051C81.1738 102.964 81.2897 102.91 81.4131 102.901L111.691 101.429C111.765 101.424 111.839 101.437 111.907 101.465C111.976 101.493 112.037 101.536 112.086 101.592C112.138 101.643 112.176 101.705 112.199 101.774C112.222 101.843 112.229 101.916 112.218 101.988C112.218 102.069 111.457 109.945 111.538 118.228C111.65 129.058 113.091 135.645 115.73 137.299C120.866 140.507 126.418 140.263 130.478 140.091C131.29 140.091 132.031 140.02 132.691 140.02C134.24 139.956 135.77 140.388 137.057 141.253C138.344 142.119 139.321 143.372 139.847 144.831L140.862 148.261C140.886 148.336 140.892 148.416 140.88 148.493C140.868 148.571 140.837 148.644 140.791 148.708C140.744 148.769 140.684 148.819 140.616 148.854C140.547 148.889 140.472 148.909 140.395 148.911V148.911ZM91.8473 147.896H139.705L138.872 145.125C138.403 143.88 137.551 142.816 136.438 142.086C135.325 141.356 134.01 140.999 132.681 141.065C132.031 141.065 131.3 141.065 130.509 141.136C126.55 141.309 120.582 141.573 115.182 138.182C108.615 134.072 110.747 106.981 111.122 102.505L81.88 103.926C81.6466 107.682 80.1444 133.676 83.0879 138.852C85.3146 142.469 88.304 145.555 91.8473 147.896V147.896Z" fill="#231F20"/>
<path d="M83.7578 131.92C83.7578 139.695 86.0923 142.07 89.2083 142.07H101.388C102.229 142.07 103.05 142.328 103.739 142.809C104.429 143.29 104.955 143.971 105.245 144.76L106.595 148.444H87.8076C82.9864 148.444 79.5658 141.136 79.4034 133.361C79.241 125.586 79.4034 103.449 79.4034 103.449H83.6055C83.6055 103.449 83.7578 124.135 83.7578 131.92Z" fill="#231F20"/>
<path d="M106.666 148.911H87.8076C82.4281 148.911 79.0482 140.994 78.8959 133.331C78.7437 125.667 78.8959 103.632 78.8959 103.409C78.8985 103.275 78.9528 103.147 79.0475 103.053C79.1421 102.958 79.2697 102.904 79.4034 102.901H83.6055C83.7401 102.901 83.8692 102.954 83.9644 103.05C84.0596 103.145 84.113 103.274 84.113 103.409C84.113 103.612 84.2653 124.226 84.2653 131.92C84.2653 141.522 87.9903 141.522 89.2083 141.522H101.388C102.335 141.526 103.258 141.82 104.033 142.365C104.808 142.909 105.397 143.678 105.722 144.567L107.072 148.251C107.098 148.329 107.106 148.411 107.096 148.492C107.085 148.573 107.056 148.65 107.011 148.718C106.97 148.772 106.918 148.817 106.859 148.85C106.8 148.883 106.734 148.904 106.666 148.911V148.911ZM79.9414 103.916C79.9414 107.266 79.7993 126.246 79.9414 133.351C80.1038 141.39 83.6461 147.937 87.8381 147.937H105.936L104.839 144.942C104.583 144.251 104.123 143.654 103.519 143.232C102.915 142.809 102.196 142.581 101.459 142.577H89.2794C85.2194 142.577 83.3213 139.106 83.3213 131.96C83.3213 124.815 83.1995 107.184 83.1792 103.957L79.9414 103.916Z" fill="#231F20"/>
<path d="M149.499 16.1084L156.868 100.353C156.991 101.292 156.912 102.247 156.637 103.153C156.363 104.059 155.898 104.897 155.276 105.61C154.653 106.323 153.885 106.896 153.024 107.29C152.163 107.683 151.228 107.89 150.281 107.895H49.8264C47.8155 107.818 45.9021 107.009 44.4459 105.62C42.9898 104.231 42.0913 102.358 41.9195 100.353L34.5506 16.1084C34.4281 15.1699 34.5069 14.216 34.7815 13.3103C35.0562 12.4046 35.5206 11.5677 36.1437 10.8553C36.7668 10.1429 37.5344 9.57126 38.3955 9.17846C39.2566 8.78566 40.1915 8.58066 41.138 8.57709H141.623C143.628 8.65655 145.535 9.46583 146.986 10.8527C148.436 12.2397 149.33 14.1087 149.499 16.1084V16.1084Z" fill="#231F20"/>
<path d="M150.311 108.412H49.8263C47.6883 108.334 45.6529 107.476 44.1031 106.001C42.5534 104.526 41.5963 102.536 41.412 100.404L34.0431 16.1591C33.9309 15.1099 34.041 14.0488 34.3663 13.0449C34.6916 12.0411 35.2247 11.117 35.931 10.333C36.5908 9.61064 37.3956 9.03563 38.2929 8.64559C39.1902 8.25555 40.1596 8.05928 41.1379 8.06958H141.623C143.76 8.14586 145.795 9.00128 147.345 10.4746C148.895 11.9479 149.853 13.9373 150.037 16.0678L157.406 100.313C157.516 101.362 157.405 102.422 157.079 103.426C156.754 104.429 156.222 105.353 155.518 106.139C154.857 106.861 154.053 107.436 153.156 107.827C152.259 108.219 151.29 108.418 150.311 108.412V108.412ZM41.1278 9.08458C40.2843 9.06816 39.447 9.23166 38.6717 9.56419C37.8964 9.89672 37.2008 10.3907 36.6313 11.0131C36.0187 11.6974 35.5567 12.5027 35.2752 13.377C34.9936 14.2512 34.8989 15.1749 34.9972 16.0881L42.3762 100.333C42.5264 102.218 43.3625 103.982 44.7262 105.291C46.0899 106.601 47.8864 107.365 49.7756 107.438H150.261C151.098 107.445 151.927 107.276 152.694 106.942C153.462 106.608 154.151 106.117 154.716 105.499C155.329 104.815 155.791 104.01 156.073 103.136C156.354 102.261 156.449 101.338 156.351 100.424L148.972 16.1794C148.824 14.294 147.988 12.5287 146.624 11.2188C145.26 9.90889 143.462 9.14578 141.572 9.07443L41.1278 9.08458Z" fill="#231F20"/>
<path d="M149.834 15.7734L156.878 96.2122C156.993 97.1093 156.917 98.0207 156.653 98.8859C156.389 99.7511 155.944 100.55 155.349 101.231C154.753 101.911 154.019 102.457 153.196 102.833C152.373 103.208 151.48 103.404 150.575 103.409H54.6578C52.7379 103.336 50.9107 102.565 49.5199 101.24C48.1291 99.9143 47.2707 98.1263 47.1062 96.2122L40.0621 15.7734C39.9453 14.876 40.021 13.964 40.2841 13.0981C40.5473 12.2322 40.9917 11.4322 41.588 10.7514C42.1843 10.0706 42.9187 9.52463 43.7424 9.14973C44.5661 8.77482 45.4602 8.57962 46.3652 8.57709H142.283C144.203 8.64709 146.032 9.41771 147.423 10.7435C148.814 12.0693 149.672 13.8585 149.834 15.7734V15.7734Z" fill="white"/>
<path d="M150.575 103.916H54.6577C52.6117 103.844 50.6625 103.027 49.1779 101.617C47.6933 100.207 46.7759 98.3026 46.5986 96.2629L39.5647 15.814C39.4575 14.8089 39.5629 13.7924 39.8742 12.8306C40.1854 11.8688 40.6956 10.9833 41.3714 10.2315C42.0066 9.54235 42.7792 8.9939 43.6393 8.62153C44.4994 8.24916 45.428 8.06114 46.3652 8.06959H142.283C144.323 8.14848 146.265 8.96956 147.743 10.3787C149.222 11.7878 150.135 13.688 150.311 15.7227L157.416 96.1716C157.524 97.1768 157.418 98.1933 157.107 99.155C156.796 100.117 156.285 101.002 155.61 101.754C154.969 102.448 154.19 102.999 153.323 103.371C152.455 103.744 151.519 103.93 150.575 103.916ZM46.3652 9.08459C45.5686 9.07519 44.7789 9.23396 44.0479 9.55052C43.3168 9.86709 42.6607 10.3343 42.1225 10.9217C41.5416 11.5684 41.1032 12.33 40.8357 13.1571C40.5681 13.9842 40.4775 14.8583 40.5695 15.7227L47.6136 96.1716C47.7636 97.9599 48.5627 99.6316 49.8604 100.871C51.158 102.111 52.8644 102.833 54.6577 102.901H150.575C151.372 102.91 152.162 102.752 152.893 102.435C153.624 102.119 154.28 101.651 154.818 101.064C155.402 100.418 155.844 99.6573 156.116 98.8306C156.389 98.0039 156.486 97.1293 156.401 96.2629L149.296 15.814C149.146 14.0257 148.347 12.354 147.05 11.1143C145.752 9.87465 144.046 9.15268 142.252 9.08459H46.3652Z" fill="#231F20"/>
<path d="M155.691 82.7025L156.878 96.2122C156.993 97.1093 156.917 98.0207 156.653 98.8859C156.389 99.7511 155.944 100.55 155.349 101.231C154.753 101.911 154.019 102.457 153.196 102.833C152.373 103.208 151.48 103.404 150.575 103.409H54.6577C52.7379 103.336 50.9107 102.565 49.5199 101.24C48.1291 99.9143 47.2707 98.1263 47.1061 96.2122L45.9186 82.7025H155.691Z" fill="white"/>
<path d="M150.575 103.916H54.6578C52.6117 103.844 50.6625 103.027 49.1779 101.617C47.6933 100.207 46.7759 98.3026 46.5986 96.2629L45.4213 82.7533C45.4119 82.6832 45.4189 82.6118 45.4418 82.5449C45.4647 82.478 45.5028 82.4172 45.5532 82.3676C45.5973 82.3133 45.653 82.2696 45.7163 82.2397C45.7795 82.2098 45.8487 82.1946 45.9186 82.195H155.691C155.819 82.1946 155.942 82.2425 156.036 82.329C156.13 82.4156 156.188 82.5345 156.198 82.6619L157.416 96.1716C157.524 97.1768 157.418 98.1933 157.107 99.155C156.796 100.117 156.285 101.002 155.61 101.754C154.969 102.448 154.19 102.999 153.323 103.371C152.455 103.744 151.519 103.93 150.575 103.916ZM46.4768 83.21L47.6136 96.1716C47.7636 97.9599 48.5627 99.6316 49.8604 100.871C51.158 102.111 52.8644 102.833 54.6578 102.901H150.575C151.372 102.91 152.162 102.752 152.893 102.435C153.624 102.119 154.28 101.651 154.818 101.064C155.402 100.418 155.844 99.6573 156.117 98.8306C156.389 98.0038 156.486 97.1293 156.401 96.2629L155.254 83.21H46.4768Z" fill="#231F20"/>
<path d="M104.386 97.0546C106.384 95.7158 106.807 92.8448 105.331 90.6423C103.855 88.4397 101.038 87.7395 99.0408 89.0784C97.0431 90.4172 96.6203 93.2881 98.0965 95.4907C99.5727 97.6933 102.389 98.3935 104.386 97.0546Z" fill="white"/>
<path d="M102.119 98.232C100.758 98.184 99.4607 97.6427 98.4691 96.709C97.4775 95.7753 96.8592 94.5129 96.7295 93.157C96.6552 92.4789 96.7253 91.7928 96.9352 91.1438C97.1452 90.4947 97.4902 89.8975 97.9475 89.3914C98.3731 88.9251 98.8924 88.5539 99.4713 88.302C100.05 88.0501 100.676 87.9233 101.307 87.9298C102.664 87.9874 103.954 88.5341 104.939 89.4688C105.924 90.4035 106.538 91.6631 106.666 93.0149V93.0149C106.741 93.693 106.671 94.3791 106.461 95.0282C106.251 95.6772 105.906 96.2745 105.448 96.7806C105.024 97.2402 104.51 97.6066 103.936 97.8565C103.363 98.1064 102.744 98.2343 102.119 98.232V98.232ZM101.307 88.894C100.817 88.8898 100.331 88.9888 99.8818 89.1846C99.4324 89.3805 99.0292 89.6688 98.6986 90.0308C98.3294 90.4291 98.0482 90.9006 97.8733 91.4148C97.6984 91.9289 97.6338 92.4741 97.6836 93.0149C97.7746 94.1302 98.2709 95.1736 99.0788 95.9478C99.8867 96.7221 100.95 97.1736 102.068 97.217C102.558 97.2232 103.043 97.1261 103.493 96.9319C103.942 96.7378 104.346 96.451 104.677 96.0904C105.037 95.6876 105.308 95.214 105.474 94.7002C105.64 94.1863 105.697 93.6434 105.641 93.1063V93.1063C105.552 91.9983 105.063 90.9604 104.266 90.1856C103.469 89.4109 102.417 88.9519 101.307 88.894V88.894Z" fill="#231F20"/>
<path d="M107.722 148.525H181.543V144.475H107.722V148.525Z" fill="white"/>
<path d="M181.543 149.033H107.681C107.547 149.033 107.418 148.979 107.322 148.884C107.227 148.789 107.174 148.66 107.174 148.525V144.465C107.174 144.331 107.227 144.202 107.322 144.106C107.418 144.011 107.547 143.958 107.681 143.958H181.502C181.637 143.958 181.766 144.011 181.861 144.106C181.956 144.202 182.01 144.331 182.01 144.465V148.525C182.01 148.653 181.962 148.776 181.876 148.871C181.789 148.965 181.67 149.023 181.543 149.033ZM108.229 148.018H181.035V144.973H108.229V148.018Z" fill="#231F20"/>
<path d="M191.926 164.065C191.926 164.065 157.833 172.672 157.833 195.702H247.954C247.954 195.702 262.286 181.868 258.744 160.614C222.437 161.812 191.926 164.065 191.926 164.065Z" fill="white"/>
<path d="M247.964 196.159H157.843C157.708 196.159 157.579 196.106 157.484 196.011C157.389 195.915 157.335 195.786 157.335 195.652C157.335 172.489 191.47 163.618 191.845 163.527H191.926C192.231 163.527 222.853 161.304 258.764 160.066C258.889 160.057 259.012 160.096 259.108 160.176C259.204 160.255 259.266 160.368 259.282 160.492C262.824 181.807 248.482 195.885 248.34 196.017C248.238 196.112 248.104 196.163 247.964 196.159V196.159ZM158.35 195.144H247.751C249.213 193.642 261.332 180.447 258.328 161.081C223.28 162.309 193.368 164.42 192.018 164.522C190.678 164.877 158.837 173.504 158.35 195.144V195.144Z" fill="#231F20"/>
<path d="M236.525 47.3399C236.525 47.3399 244.585 41.4631 246.868 37.8091C249.152 34.1551 254.258 8.61768 242.341 10.5665C230.628 -6.15056 206.563 0.934131 202.929 11.2567C199.732 20.3206 211.394 22.4217 215.434 23.6701C219.473 24.9186 223.818 44.163 229.339 47.3399C234.861 50.5169 236.525 47.3399 236.525 47.3399Z" fill="white"/>
<path d="M233.653 49.2278C232.029 49.1336 230.456 48.6233 229.085 47.7459C226.04 46.0001 223.523 40.0218 221.067 34.2464C219.037 29.5267 217.007 24.6445 215.282 24.0964C214.855 23.9645 214.348 23.8224 213.779 23.6701C210.359 22.716 204.644 21.1123 202.614 17.2249C202.152 16.2626 201.899 15.2135 201.871 14.1465C201.843 13.0795 202.041 12.0186 202.452 11.0334C204.299 5.78584 211.171 1.36044 219.149 0.264236C228.69 -1.03496 237.205 2.49724 242.575 9.96764C243.697 9.75271 244.857 9.88197 245.904 10.3384C246.951 10.7949 247.836 11.5573 248.442 12.5254C252.735 18.9707 249.071 35.1904 247.295 38.0324C245.082 41.5747 237.815 46.9745 236.911 47.6444C236.437 48.3233 235.74 48.8151 234.942 49.035C234.524 49.1622 234.09 49.2272 233.653 49.2278V49.2278ZM222.985 1.02549C221.749 1.02547 220.515 1.11026 219.291 1.27924C211.668 2.29424 205.131 6.47604 203.406 11.3785C203.045 12.2344 202.869 13.1566 202.888 14.0852C202.907 15.0138 203.122 15.9279 203.518 16.7681C205.334 20.2597 210.795 21.8431 214.053 22.6957L215.586 23.1423C217.748 23.8224 219.717 28.4711 222.001 33.8506C224.285 39.2301 226.852 45.2896 229.593 46.8629C231.623 48.02 233.348 48.4463 234.668 48.0809C235.266 47.9463 235.788 47.5817 236.119 47.0659C236.156 46.9975 236.208 46.9384 236.272 46.8933C236.353 46.8324 244.27 41.0368 246.483 37.5046C248.127 34.8554 251.639 19.1128 247.64 13.1446C247.1 12.3053 246.309 11.6574 245.38 11.293C244.45 10.9287 243.43 10.8662 242.463 11.1146C242.369 11.1296 242.272 11.1175 242.184 11.0798C242.096 11.0421 242.02 10.9803 241.966 10.9014C239.867 7.81253 237.034 5.29313 233.721 3.56939C230.408 1.84566 226.719 0.97153 222.985 1.02549V1.02549Z" fill="#231F20"/>
<path d="M211.272 30.227C211.272 30.227 205.456 37.9918 206.471 39.7274C207.486 41.4631 211.211 40.5699 211.211 40.5699" fill="white"/>
<path d="M209.181 41.321C208.587 41.3894 207.985 41.303 207.433 41.07C206.882 40.837 206.4 40.4654 206.035 39.9913C204.949 38.1034 209.466 31.8104 210.876 29.9225C210.957 29.8149 211.077 29.7437 211.211 29.7246C211.344 29.7056 211.479 29.7403 211.587 29.821C211.692 29.9034 211.762 30.0234 211.781 30.1558C211.8 30.2883 211.767 30.423 211.688 30.5315C208.989 34.1348 206.4 38.5805 206.918 39.4737C207.588 40.6308 210.166 40.306 211.1 40.0827C211.232 40.0519 211.37 40.074 211.486 40.1442C211.602 40.2144 211.685 40.3271 211.719 40.4582C211.749 40.5888 211.727 40.7261 211.657 40.8402C211.586 40.9543 211.474 41.0359 211.343 41.0672C210.634 41.2319 209.909 41.317 209.181 41.321Z" fill="#231F20"/>
<path d="M213.038 19.6101C209.476 22.1882 210.115 28.1158 209.922 31.9322C209.658 37.305 209.513 42.6777 209.486 48.0504C209.486 51.4608 218.266 52.0495 219.879 51.0954L217.718 64.4528L236.637 58.5049L236.525 47.3399C236.525 47.3399 230.537 47.0354 227.492 39.9C224.447 32.7645 225.827 17.7019 225.827 17.7019C225.827 17.7019 216.51 17.1031 213.038 19.6101Z" fill="white"/>
<path d="M217.717 64.9806C217.598 64.9803 217.483 64.9371 217.393 64.8588C217.326 64.8024 217.275 64.7298 217.245 64.648C217.215 64.5662 217.206 64.478 217.22 64.3919L219.25 51.8567C216.346 52.2942 213.378 51.856 210.724 50.5981C210.225 50.3773 209.796 50.0223 209.486 49.5726C209.176 49.1228 208.997 48.5959 208.968 48.0504C208.968 42.6912 209.151 37.261 209.415 31.9018C209.415 31.2623 209.415 30.5721 209.466 29.8718C209.516 26.1569 209.567 21.5386 212.734 19.2447C216.317 16.6463 225.472 17.2147 225.858 17.2147C225.995 17.2288 226.122 17.294 226.213 17.3974C226.257 17.4489 226.289 17.5088 226.308 17.5735C226.328 17.6381 226.333 17.7061 226.325 17.773C226.325 17.9252 225.005 32.7544 227.959 39.6868C230.831 46.4163 236.322 46.7918 236.556 46.7918C236.684 46.8019 236.804 46.8595 236.893 46.9534C236.981 47.0472 237.031 47.1706 237.033 47.2993L237.145 58.4643C237.145 58.5729 237.111 58.6787 237.047 58.7664C236.983 58.8541 236.893 58.919 236.789 58.9515L217.88 64.9705L217.717 64.9806ZM219.879 50.6082C219.984 50.6087 220.087 50.6405 220.174 50.6996C220.253 50.7539 220.314 50.8295 220.352 50.9175C220.39 51.0055 220.402 51.1024 220.387 51.1969L218.357 63.7423L236.13 58.0888L236.028 47.7561C234.495 47.5226 229.684 46.3046 227.025 40.0624C224.264 33.5664 225.056 20.9601 225.279 18.1891C223.3 18.1079 216.144 17.976 213.333 20.0263C210.521 22.0766 210.521 26.3599 210.481 29.8515C210.481 30.5924 210.481 31.3029 210.43 31.9525C210.166 37.2914 210.014 42.7115 209.983 48.0504C209.983 48.6797 210.399 49.238 211.232 49.7252C213.668 51.136 218.59 51.2781 219.626 50.6793C219.704 50.6371 219.791 50.6128 219.879 50.6082V50.6082Z" fill="#231F20"/>
<path d="M209.841 44.0513C212.036 43.8533 214.2 43.3933 216.286 42.6811Z" fill="white"/>
<path d="M209.841 44.5588C209.713 44.5593 209.59 44.5114 209.496 44.4248C209.402 44.3383 209.344 44.2194 209.334 44.0919C209.328 44.025 209.336 43.9576 209.357 43.8938C209.379 43.8301 209.413 43.7713 209.457 43.721C209.502 43.6707 209.556 43.63 209.617 43.6013C209.678 43.5726 209.743 43.5565 209.811 43.554C211.97 43.3482 214.098 42.8952 216.154 42.204C216.289 42.1596 216.436 42.1705 216.562 42.2343C216.689 42.298 216.785 42.4095 216.829 42.5441C216.874 42.6787 216.863 42.8254 216.799 42.952C216.735 43.0786 216.624 43.1746 216.489 43.219C214.35 43.9445 212.132 44.4114 209.882 44.6096L209.841 44.5588Z" fill="#231F20"/>
<path d="M221.361 34.2667C221.59 32.9334 222.183 31.6895 223.077 30.6736C223.649 29.7955 224.355 29.0114 225.168 28.3493C225.574 28.0183 226.049 27.7819 226.558 27.6573C227.067 27.5326 227.598 27.5228 228.111 27.6286C228.558 27.7654 228.971 27.9966 229.321 28.3065C229.671 28.6165 229.951 28.9979 230.141 29.4252C230.517 30.2739 230.694 31.1974 230.659 32.1251C230.631 34.1483 230.07 36.1284 229.033 37.8658C227.996 39.6033 226.519 41.0366 224.751 42.0213L225.066 41.7168" fill="white"/>
<path d="M224.721 42.5288C224.62 42.5274 224.523 42.4962 224.44 42.4391C224.357 42.3819 224.293 42.3015 224.256 42.208C224.219 42.1144 224.211 42.012 224.232 41.9137C224.253 41.8155 224.303 41.7257 224.376 41.6559L224.67 41.3717L224.741 41.4326C226.356 40.4672 227.697 39.1057 228.639 37.4769C229.58 35.8481 230.09 34.0061 230.121 32.1251C230.153 31.2717 229.993 30.422 229.654 29.6383C229.497 29.2825 229.267 28.9639 228.978 28.7032C228.689 28.4426 228.349 28.2459 227.979 28.126C227.539 28.039 227.085 28.0503 226.65 28.1591C226.215 28.2679 225.809 28.4715 225.462 28.7553C224.679 29.3875 223.994 30.1333 223.432 30.968C222.606 31.9133 222.048 33.063 221.818 34.2972C221.805 34.4318 221.741 34.5563 221.639 34.645C221.537 34.7338 221.405 34.78 221.27 34.7742C221.203 34.7691 221.138 34.7508 221.079 34.7205C221.019 34.6901 220.966 34.6483 220.923 34.5973C220.879 34.5464 220.846 34.4874 220.826 34.4236C220.805 34.3599 220.798 34.2928 220.803 34.2261C221.035 32.7955 221.664 31.4589 222.62 30.3691C223.222 29.4528 223.961 28.6345 224.812 27.9433C225.279 27.5641 225.825 27.295 226.411 27.1562C226.996 27.0174 227.605 27.0123 228.192 27.1414C228.702 27.2947 229.173 27.5551 229.574 27.9052C229.975 28.2553 230.296 28.687 230.517 29.1714C230.925 30.0903 231.119 31.0898 231.085 32.0946C231.049 34.2074 230.461 36.2739 229.378 38.0885C228.295 39.9031 226.756 41.4025 224.914 42.4375C224.857 42.4813 224.791 42.5124 224.721 42.5288Z" fill="#231F20"/>
<path d="M213.827 26.2211C213.946 25.1683 213.708 24.2771 213.296 24.2306C212.884 24.1841 212.453 24.9998 212.335 26.0526C212.216 27.1054 212.454 27.9966 212.866 28.0431C213.278 28.0896 213.708 27.2739 213.827 26.2211Z" fill="#231F20"/>
<path d="M240.179 61.9864L238.951 55.9674H215.21L212.165 64.6152C221.552 66.6358 231.333 65.7179 240.179 61.9864V61.9864Z" fill="white"/>
<path d="M221.666 66.1377C218.409 66.1937 215.157 65.8529 211.983 65.1227C211.85 65.0804 211.738 64.9899 211.668 64.869C211.641 64.8048 211.627 64.7357 211.627 64.666C211.627 64.5962 211.641 64.5272 211.668 64.463L214.713 55.8253C214.747 55.7253 214.811 55.6384 214.896 55.5765C214.982 55.5147 215.085 55.481 215.19 55.4802H238.931C239.048 55.4802 239.161 55.5206 239.252 55.5946C239.343 55.6686 239.405 55.7716 239.428 55.8862L240.657 61.9052C240.679 62.0205 240.662 62.1403 240.606 62.244C240.551 62.3476 240.461 62.4288 240.352 62.4736C234.422 64.9025 228.074 66.1473 221.666 66.1377ZM212.785 64.2397C221.793 66.006 231.121 65.1138 239.631 61.6717L238.535 56.4749H215.566L212.785 64.2397Z" fill="#231F20"/>
<path d="M258.754 160.563C258.754 160.563 267.747 86.9858 257.069 71.9435C246.391 56.9012 220.184 54.4754 208.055 64.1788C195.925 73.8822 189.896 168.653 189.896 168.653C189.896 168.653 222.589 172.672 258.754 160.563Z" fill="#FFBB00"/>
<path d="M117.07 125.008C118.085 122.135 128.012 119.334 131.158 119.334C133.188 119.334 138.751 121.77 142.323 123.455L176.752 127.058L195.357 94.7303L212.125 113.843C212.125 113.843 199.549 144.475 193.855 146.505C188.161 148.535 138.822 134.772 138.822 134.772L127.413 131.585C123.069 132.935 119.171 128.591 119.171 128.144C119.171 127.697 117.375 132.783 116.025 132.641C114.675 132.498 116.025 127.88 117.07 125.008Z" fill="white"/>
<path d="M192.129 147.196C181.594 147.196 140.537 135.787 138.669 135.269L127.413 132.153C126.268 132.412 125.08 132.408 123.937 132.141C122.794 131.873 121.727 131.35 120.815 130.611C120.237 130.185 119.703 129.702 119.222 129.169C118.207 131.291 117.192 133.3 115.964 133.178C115.808 133.162 115.658 133.109 115.526 133.024C115.394 132.94 115.283 132.826 115.203 132.691C114.391 131.382 115.73 127.21 116.593 124.835C117.801 121.536 128.123 118.837 131.158 118.837C133.239 118.837 138.436 121.07 142.465 122.957L176.478 126.51L194.91 94.4664C194.952 94.3966 195.009 94.338 195.078 94.2955C195.147 94.253 195.225 94.2281 195.306 94.2228C195.385 94.2121 195.466 94.2214 195.54 94.2497C195.615 94.2781 195.681 94.3247 195.733 94.3852L212.5 113.498C212.564 113.568 212.607 113.655 212.623 113.748C212.639 113.842 212.628 113.938 212.592 114.025C212.074 115.284 199.864 144.892 193.997 146.972C193.389 147.142 192.76 147.217 192.129 147.196V147.196ZM127.413 131.118H127.545L138.933 134.265C155.945 139.005 189.267 147.551 193.662 145.998C198.057 144.445 207.953 122.592 211.536 113.914L195.438 95.5829L177.168 127.291C177.118 127.377 177.045 127.446 176.957 127.491C176.869 127.536 176.769 127.555 176.671 127.545L142.242 123.932C142.188 123.942 142.133 123.942 142.08 123.932C136.507 121.313 132.61 119.872 131.128 119.872C127.839 119.872 118.4 122.775 117.517 125.201C115.954 129.474 115.72 131.91 116.055 132.204C116.238 132.204 116.816 131.92 118.308 128.662C118.694 127.829 118.806 127.586 119.242 127.647C119.342 127.673 119.431 127.728 119.501 127.803C119.571 127.878 119.619 127.972 119.638 128.073C119.953 128.712 123.434 132.306 127.23 131.118H127.413Z" fill="#231F20"/>
<path d="M208.055 64.1788L184.304 103.409L212.125 120.085L230.628 82.7025C230.628 82.7025 214.662 64.869 208.055 64.1788Z" fill="#FFBB00"/>
<path d="M195.875 171.271H210.085L226.954 95.1464C228.215 89.4523 231.381 84.3586 235.928 80.7065C240.475 77.0545 246.131 75.0625 251.964 75.0596H282.596C286.396 75.0592 290.149 75.9043 293.582 77.5335C297.015 79.1628 300.043 81.5354 302.446 84.4794C304.849 87.4235 306.567 90.8652 307.475 94.5552C308.383 98.2452 308.459 102.091 307.697 105.814L289.366 195.652L204.807 195.073H176.752V190.394C176.752 185.322 178.767 180.458 182.353 176.872C185.939 173.286 190.803 171.271 195.875 171.271V171.271Z" fill="#231F20"/>
<path d="M289.366 196.159L204.817 195.581H176.752C176.618 195.581 176.488 195.527 176.393 195.432C176.298 195.337 176.245 195.208 176.245 195.073V190.394C176.25 185.189 178.32 180.2 182 176.519C185.68 172.839 190.67 170.769 195.875 170.764H209.669L226.436 95.0449C227.695 89.224 230.916 84.0125 235.56 80.2835C240.204 76.5546 245.988 74.5347 251.943 74.5622H282.576C286.451 74.5637 290.277 75.4267 293.777 77.0888C297.277 78.7508 300.364 81.1704 302.814 84.1723C305.264 87.1742 307.016 90.6833 307.943 94.4456C308.87 98.2079 308.949 102.129 308.174 105.926L289.843 195.774C289.817 195.881 289.756 195.977 289.67 196.047C289.584 196.116 289.477 196.156 289.366 196.159ZM177.27 194.566H204.807L288.95 195.144L307.22 105.702C307.967 102.053 307.893 98.2835 307.002 94.6666C306.112 91.0496 304.428 87.676 302.073 84.7903C299.718 81.9045 296.75 79.5789 293.385 77.9819C290.02 76.3849 286.341 75.5566 282.617 75.5569H251.953C246.231 75.5346 240.675 77.4784 236.215 81.0629C231.755 84.6474 228.661 89.6551 227.451 95.2479L210.592 171.373C210.565 171.485 210.502 171.584 210.411 171.656C210.321 171.728 210.21 171.767 210.095 171.769H195.885C190.949 171.774 186.218 173.737 182.728 177.227C179.238 180.717 177.275 185.448 177.27 190.384V194.566Z" fill="#231F20"/>
<path d="M6.99335 195.652L124.53 195.652V159.65H6.99335V195.652Z" fill="white"/>
<path d="M124.53 196.159H7.0035C6.8689 196.159 6.73982 196.106 6.64465 196.011C6.54947 195.915 6.496 195.786 6.496 195.652V159.66C6.496 159.525 6.54947 159.396 6.64465 159.301C6.73982 159.206 6.8689 159.152 7.0035 159.152H124.53C124.665 159.152 124.794 159.206 124.889 159.301C124.984 159.396 125.038 159.525 125.038 159.66V195.652C125.038 195.786 124.984 195.915 124.889 196.011C124.794 196.106 124.665 196.159 124.53 196.159ZM7.511 195.144H124.023V160.167H7.511V195.144Z" fill="#231F20"/>
<path d="M124.54 195.652H133.625V159.65H124.54V195.652Z" fill="white"/>
<path d="M133.615 196.159H124.48C124.345 196.159 124.216 196.106 124.121 196.011C124.026 195.915 123.972 195.786 123.972 195.652V159.66C123.972 159.525 124.026 159.396 124.121 159.301C124.216 159.206 124.345 159.152 124.48 159.152H133.615C133.749 159.152 133.878 159.206 133.973 159.301C134.069 159.396 134.122 159.525 134.122 159.66V195.652C134.122 195.786 134.069 195.915 133.973 196.011C133.878 196.106 133.749 196.159 133.615 196.159ZM125.038 195.144H133.158V160.167H125.038V195.144Z" fill="#231F20"/>
<path d="M60.626 130.174H35.6671C35.5325 130.174 35.4034 130.121 35.3082 130.025C35.2131 129.93 35.1596 129.801 35.1596 129.667C35.1596 129.532 35.2131 129.403 35.3082 129.308C35.4034 129.213 35.5325 129.159 35.6671 129.159H60.626C60.7606 129.159 60.8896 129.213 60.9848 129.308C61.08 129.403 61.1335 129.532 61.1335 129.667C61.1335 129.801 61.08 129.93 60.9848 130.025C60.8896 130.121 60.7606 130.174 60.626 130.174Z" fill="#231F20"/>
<path d="M60.626 139.37H28.7448C28.611 139.367 28.4834 139.313 28.3888 139.218C28.2942 139.124 28.2399 138.996 28.2373 138.862C28.2373 138.728 28.2908 138.599 28.3859 138.504C28.4811 138.408 28.6102 138.355 28.7448 138.355H60.626C60.7605 138.355 60.8896 138.408 60.9848 138.504C61.08 138.599 61.1335 138.728 61.1335 138.862C61.1309 138.996 61.0766 139.124 60.9819 139.218C60.8873 139.313 60.7597 139.367 60.626 139.37V139.37Z" fill="#231F20"/>
<path d="M212.125 114.33C212.046 114.33 211.969 114.309 211.902 114.269C211.841 114.24 211.788 114.199 211.744 114.149C211.699 114.099 211.665 114.041 211.644 113.977C211.622 113.914 211.613 113.847 211.617 113.781C211.621 113.714 211.639 113.649 211.668 113.589C217.119 102.525 225.746 84.3671 225.655 82.7837C225.638 82.7197 225.634 82.653 225.644 82.5876C225.653 82.5221 225.676 82.4592 225.71 82.4025C225.744 82.3458 225.789 82.2964 225.842 82.2573C225.895 82.2182 225.956 82.1901 226.02 82.1747C226.153 82.1443 226.293 82.1677 226.409 82.24C226.525 82.3122 226.608 82.4274 226.639 82.5604C227.106 84.3468 215.992 107.103 212.582 114.025C212.541 114.113 212.477 114.188 212.396 114.242C212.315 114.295 212.222 114.326 212.125 114.33V114.33Z" fill="#231F20"/>
<path d="M226 188.313H225.898C225.832 188.301 225.77 188.276 225.714 188.239C225.658 188.202 225.61 188.154 225.573 188.098C225.536 188.042 225.511 187.98 225.498 187.914C225.486 187.848 225.488 187.78 225.503 187.714C225.635 187.065 238.982 122.013 245.803 88.2444C245.814 88.1786 245.838 88.1157 245.873 88.0594C245.909 88.003 245.956 87.9545 246.011 87.9166C246.066 87.8787 246.128 87.8523 246.193 87.8389C246.258 87.8254 246.326 87.8253 246.391 87.8384C246.524 87.8655 246.64 87.9432 246.716 88.0552C246.792 88.1671 246.821 88.3042 246.797 88.4373C240.017 122.267 226.67 187.319 226.497 187.968C226.462 188.072 226.395 188.161 226.306 188.223C226.216 188.285 226.109 188.317 226 188.313Z" fill="white"/>
<path d="M55.0434 29.0699C54.9089 29.0699 54.7798 29.0165 54.6846 28.9213C54.5894 28.8261 54.5359 28.697 54.5359 28.5624C54.5385 28.4286 54.5928 28.3011 54.6875 28.2064C54.7821 28.1118 54.9097 28.0575 55.0434 28.0549H65.3964C65.531 28.0549 65.6601 28.1084 65.7553 28.2036C65.8505 28.2987 65.9039 28.4278 65.9039 28.5624C65.9053 28.6286 65.8934 28.6944 65.869 28.7559C65.8447 28.8174 65.8082 28.8734 65.7619 28.9207C65.7156 28.968 65.6603 29.0055 65.5993 29.0311C65.5383 29.0568 65.4728 29.0699 65.4066 29.0699H55.0434V29.0699Z" fill="#D1D3D4"/>
<path d="M66.8885 29.0699C66.7539 29.0699 66.6248 29.0165 66.5296 28.9213C66.4345 28.8261 66.381 28.697 66.381 28.5624C66.381 28.4278 66.4345 28.2987 66.5296 28.2036C66.6248 28.1084 66.7539 28.0549 66.8885 28.0549H97.6329C97.7675 28.0549 97.8965 28.1084 97.9917 28.2036C98.0869 28.2987 98.1404 28.4278 98.1404 28.5624C98.1404 28.697 98.0869 28.8261 97.9917 28.9213C97.8965 29.0165 97.7675 29.0699 97.6329 29.0699H66.8885Z" fill="#FFBB00"/>
<path d="M52.6278 33.069C52.4932 33.069 52.3641 33.0156 52.2689 32.9204C52.1737 32.8252 52.1203 32.6961 52.1203 32.5615C52.1203 32.4269 52.1737 32.2979 52.2689 32.2027C52.3641 32.1075 52.4932 32.054 52.6278 32.054H62.9909C63.1247 32.0566 63.2523 32.1109 63.3469 32.2056C63.4415 32.3002 63.4958 32.4278 63.4984 32.5615C63.4984 32.6961 63.4449 32.8252 63.3498 32.9204C63.2546 33.0156 63.1255 33.069 62.9909 33.069H52.6379H52.6278Z" fill="#D1D3D4"/>
<path d="M65.1021 33.0487C64.9675 33.0487 64.8384 32.9953 64.7432 32.9001C64.6481 32.8049 64.5946 32.6758 64.5946 32.5412C64.5946 32.4066 64.6481 32.2775 64.7432 32.1824C64.8384 32.0872 64.9675 32.0337 65.1021 32.0337H81.7785C81.9114 32.0337 82.039 32.0858 82.1339 32.1788C82.2288 32.2718 82.2834 32.3983 82.286 32.5311C82.2861 32.6666 82.2329 32.7968 82.138 32.8936C82.0432 32.9904 81.9141 33.0461 81.7785 33.0487H65.1021V33.0487Z" fill="#FFBB00"/>
<path d="M88.1426 32.998C88.008 32.998 87.8789 32.9445 87.7838 32.8493C87.6886 32.7542 87.6351 32.6251 87.6351 32.4905C87.6351 32.3559 87.6886 32.2268 87.7838 32.1316C87.8789 32.0365 88.008 31.983 88.1426 31.983H104.819C104.954 31.983 105.083 32.0365 105.178 32.1316C105.273 32.2268 105.327 32.3559 105.327 32.4905C105.327 32.6251 105.273 32.7542 105.178 32.8493C105.083 32.9445 104.954 32.998 104.819 32.998H88.1426Z" fill="#FFBB00"/>
<path d="M52.9627 37.0377C52.8281 37.0377 52.699 36.9842 52.6039 36.889C52.5087 36.7939 52.4552 36.6648 52.4552 36.5302C52.4552 36.3956 52.5087 36.2665 52.6039 36.1713C52.699 36.0762 52.8281 36.0227 52.9627 36.0227H63.3157C63.4503 36.0227 63.5794 36.0762 63.6746 36.1713C63.7697 36.2665 63.8232 36.3956 63.8232 36.5302C63.8232 36.6648 63.7697 36.7939 63.6746 36.889C63.5794 36.9842 63.4503 37.0377 63.3157 37.0377H52.9627Z" fill="#D1D3D4"/>
<path d="M67.5482 37.0072C67.4136 37.0072 67.2846 36.9538 67.1894 36.8586C67.0942 36.7634 67.0407 36.6343 67.0407 36.4997C67.0407 36.3651 67.0942 36.2361 67.1894 36.1409C67.2846 36.0457 67.4136 35.9922 67.5482 35.9922H82.1033C82.2371 35.9948 82.3647 36.0491 82.4593 36.1437C82.5539 36.2384 82.6082 36.3659 82.6108 36.4997C82.6108 36.6343 82.5574 36.7634 82.4622 36.8586C82.367 36.9538 82.2379 37.0072 82.1033 37.0072H67.5381H67.5482Z" fill="#FFBB00"/>
<path d="M84.5597 36.9768C84.4259 36.9742 84.2983 36.9199 84.2037 36.8253C84.1091 36.7307 84.0548 36.6031 84.0522 36.4693C84.0522 36.3347 84.1056 36.2056 84.2008 36.1104C84.296 36.0153 84.4251 35.9618 84.5597 35.9618H90.5177C90.6523 35.9618 90.7814 36.0153 90.8766 36.1104C90.9717 36.2056 91.0252 36.3347 91.0252 36.4693C91.0252 36.6039 90.9717 36.733 90.8766 36.8281C90.7814 36.9233 90.6523 36.9768 90.5177 36.9768H84.5698H84.5597Z" fill="#D1D3D4"/>
<path d="M53.2976 40.9962C53.2315 40.9975 53.1657 40.9857 53.1042 40.9613C53.0427 40.9369 52.9866 40.9005 52.9394 40.8542C52.8921 40.8078 52.8546 40.7525 52.829 40.6915C52.8033 40.6305 52.7901 40.565 52.7901 40.4988C52.7901 40.3633 52.8433 40.2331 52.9382 40.1363C53.0331 40.0395 53.1621 39.9838 53.2976 39.9812H63.6507C63.7852 39.9812 63.9143 40.0347 64.0095 40.1298C64.1047 40.225 64.1582 40.3541 64.1582 40.4887C64.1582 40.6233 64.1047 40.7524 64.0095 40.8475C63.9143 40.9427 63.7852 40.9962 63.6507 40.9962H53.2976Z" fill="#D1D3D4"/>
<path d="M66.4013 40.9759C66.2667 40.9759 66.1376 40.9224 66.0424 40.8272C65.9473 40.7321 65.8938 40.603 65.8938 40.4684C65.8938 40.3338 65.9473 40.2047 66.0424 40.1095C66.1376 40.0143 66.2667 39.9609 66.4013 39.9609H87.7163C87.8509 39.9609 87.98 40.0143 88.0751 40.1095C88.1703 40.2047 88.2238 40.3338 88.2238 40.4684C88.2238 40.603 88.1703 40.7321 88.0751 40.8272C87.98 40.9224 87.8509 40.9759 87.7163 40.9759H66.4013V40.9759Z" fill="#FFBB00"/>
<path d="M90.1726 40.9251C90.038 40.9251 89.9089 40.8717 89.8138 40.7765C89.7186 40.6813 89.6651 40.5522 89.6651 40.4176C89.6651 40.283 89.7186 40.1539 89.8138 40.0588C89.9089 39.9636 90.038 39.9101 90.1726 39.9101H100.526C100.66 39.9101 100.789 39.9636 100.884 40.0588C100.98 40.1539 101.033 40.283 101.033 40.4176C101.033 40.5522 100.98 40.6813 100.884 40.7765C100.789 40.8717 100.66 40.9251 100.526 40.9251H90.1726Z" fill="#FFBB00"/>
<path d="M51.1966 44.975C51.0628 44.9724 50.9352 44.9181 50.8406 44.8235C50.746 44.7289 50.6917 44.6013 50.6891 44.4675C50.6891 44.3329 50.7426 44.2038 50.8377 44.1086C50.9329 44.0135 51.062 43.96 51.1966 43.96H56.6878C56.8215 43.9626 56.9491 44.0169 57.0437 44.1115C57.1383 44.2061 57.1927 44.3337 57.1953 44.4675C57.1953 44.6021 57.1418 44.7312 57.0466 44.8263C56.9514 44.9215 56.8224 44.975 56.6878 44.975H51.1864H51.1966Z" fill="#D1D3D4"/>
<path d="M61.2349 44.9547C61.1012 44.9521 60.9736 44.8978 60.879 44.8032C60.7844 44.7085 60.73 44.581 60.7274 44.4472C60.7274 44.3126 60.7809 44.1835 60.8761 44.0883C60.9713 43.9932 61.1004 43.9397 61.2349 43.9397L85.2296 43.8889C85.3642 43.8889 85.4932 43.9424 85.5884 44.0376C85.6836 44.1327 85.7371 44.2618 85.7371 44.3964C85.7371 44.531 85.6836 44.6601 85.5884 44.7553C85.4932 44.8505 85.3642 44.9039 85.2296 44.9039L61.2349 44.9547Z" fill="#FFBB00"/>
<path d="M51.5315 48.9335C51.397 48.9335 51.2679 48.88 51.1727 48.7848C51.0775 48.6897 51.024 48.5606 51.024 48.426C51.024 48.2914 51.0775 48.1623 51.1727 48.0671C51.2679 47.972 51.397 47.9185 51.5315 47.9185H61.8845C62.0191 47.9185 62.1482 47.972 62.2434 48.0671C62.3386 48.1623 62.392 48.2914 62.392 48.426C62.392 48.5606 62.3386 48.6897 62.2434 48.7848C62.1482 48.88 62.0191 48.9335 61.8845 48.9335H51.5315Z" fill="#D1D3D4"/>
<path d="M53.3991 52.892C53.2645 52.892 53.1355 52.8385 53.0403 52.7433C52.9451 52.6482 52.8916 52.5191 52.8916 52.3845C52.8916 52.2499 52.9451 52.1208 53.0403 52.0256C53.1355 51.9305 53.2645 51.877 53.3991 51.877H74.0544C74.189 51.877 74.3181 51.9305 74.4133 52.0256C74.5084 52.1208 74.5619 52.2499 74.5619 52.3845C74.5619 52.5191 74.5084 52.6482 74.4133 52.7433C74.3181 52.8385 74.189 52.892 74.0544 52.892H53.3991V52.892Z" fill="#D1D3D4"/>
<path d="M77.4851 52.8514C77.3505 52.8514 77.2214 52.7979 77.1262 52.7028C77.0311 52.6076 76.9776 52.4785 76.9776 52.3439C76.9776 52.2093 77.0311 52.0802 77.1262 51.985C77.2214 51.8899 77.3505 51.8364 77.4851 51.8364H91.8473C91.9811 51.839 92.1087 51.8933 92.2033 51.9879C92.2979 52.0825 92.3522 52.2101 92.3548 52.3439C92.3548 52.4785 92.3014 52.6076 92.2062 52.7028C92.111 52.7979 91.9819 52.8514 91.8473 52.8514H77.4851Z" fill="#FFBB00"/>
<path d="M93.9078 52.8108C93.7732 52.8108 93.6441 52.7573 93.5489 52.6621C93.4538 52.567 93.4003 52.4379 93.4003 52.3033C93.4003 52.1687 93.4538 52.0396 93.5489 51.9444C93.6441 51.8492 93.7732 51.7958 93.9078 51.7958H111.691C111.825 51.7958 111.954 51.8492 112.049 51.9444C112.145 52.0396 112.198 52.1687 112.198 52.3033C112.198 52.4379 112.145 52.567 112.049 52.6621C111.954 52.7573 111.825 52.8108 111.691 52.8108H93.918H93.9078Z" fill="#FFBB00"/>
<path d="M54.6273 56.8606C54.4927 56.8606 54.3636 56.8072 54.2684 56.712C54.1733 56.6168 54.1198 56.4877 54.1198 56.3531C54.1198 56.2185 54.1733 56.0894 54.2684 55.9943C54.3636 55.8991 54.4927 55.8456 54.6273 55.8456L84.7423 55.7847C84.8769 55.7847 85.006 55.8382 85.1012 55.9334C85.1964 56.0285 85.2498 56.1576 85.2498 56.2922C85.2498 56.4268 85.1964 56.5559 85.1012 56.6511C85.006 56.7463 84.8769 56.7997 84.7423 56.7997L54.6273 56.8606Z" fill="#D1D3D4"/>
<path d="M86.7927 56.7896C86.6581 56.7896 86.529 56.7361 86.4338 56.6409C86.3386 56.5458 86.2852 56.4167 86.2852 56.2821C86.2852 56.1475 86.3386 56.0184 86.4338 55.9232C86.529 55.8281 86.6581 55.7746 86.7927 55.7746H100.343C100.478 55.7746 100.607 55.8281 100.702 55.9232C100.797 56.0184 100.85 56.1475 100.85 56.2821C100.85 56.4167 100.797 56.5458 100.702 56.6409C100.607 56.7361 100.478 56.7896 100.343 56.7896H86.7927Z" fill="#FFBB00"/>
<path d="M102.606 56.7591C102.472 56.7591 102.343 56.7057 102.247 56.6105C102.152 56.5153 102.099 56.3862 102.099 56.2516C102.099 56.117 102.152 55.988 102.247 55.8928C102.343 55.7976 102.472 55.7441 102.606 55.7441L142.892 55.6629C143.026 55.6629 143.155 55.7164 143.251 55.8116C143.346 55.9068 143.399 56.0358 143.399 56.1704C143.399 56.305 143.346 56.4341 143.251 56.5293C143.155 56.6245 143.026 56.6779 142.892 56.6779L102.606 56.7591Z" fill="#FFBB00"/>
<path d="M54.8404 60.8191C54.7058 60.8191 54.5768 60.7657 54.4816 60.6705C54.3864 60.5753 54.3329 60.4462 54.3329 60.3116C54.3329 60.177 54.3864 60.048 54.4816 59.9528C54.5768 59.8576 54.7058 59.8041 54.8404 59.8041H69.0504C69.185 59.8041 69.3141 59.8576 69.4093 59.9528C69.5045 60.048 69.5579 60.177 69.5579 60.3116C69.5579 60.4462 69.5045 60.5753 69.4093 60.6705C69.3141 60.7657 69.185 60.8191 69.0504 60.8191H54.8404Z" fill="#D1D3D4"/>
<path d="M71.9127 60.7887C71.7781 60.7887 71.6491 60.7352 71.5539 60.64C71.4587 60.5449 71.4052 60.4158 71.4052 60.2812C71.4052 60.1466 71.4587 60.0175 71.5539 59.9223C71.6491 59.8271 71.7781 59.7737 71.9127 59.7737H82.3977C82.5323 59.7737 82.6614 59.8271 82.7566 59.9223C82.8517 60.0175 82.9052 60.1466 82.9052 60.2812C82.9052 60.4158 82.8517 60.5449 82.7566 60.64C82.6614 60.7352 82.5323 60.7887 82.3977 60.7887H71.9026H71.9127Z" fill="#FFBB00"/>
<path d="M85.2296 60.7582C85.095 60.7582 84.9659 60.7048 84.8707 60.6096C84.7755 60.5144 84.7221 60.3853 84.7221 60.2507C84.7221 60.1161 84.7755 59.987 84.8707 59.8919C84.9659 59.7967 85.095 59.7432 85.2296 59.7432H95.7145C95.8491 59.7432 95.9782 59.7967 96.0734 59.8919C96.1685 59.987 96.222 60.1161 96.222 60.2507C96.222 60.3853 96.1685 60.5144 96.0734 60.6096C95.9782 60.7048 95.8491 60.7582 95.7145 60.7582H85.2296Z" fill="#FFBB00"/>
<path d="M55.1754 64.7878C55.0408 64.7878 54.9117 64.7343 54.8165 64.6392C54.7214 64.544 54.6679 64.4149 54.6679 64.2803C54.6679 64.1457 54.7214 64.0166 54.8165 63.9214C54.9117 63.8263 55.0408 63.7728 55.1754 63.7728H80.3474C80.482 63.7728 80.6111 63.8263 80.7063 63.9214C80.8014 64.0166 80.8549 64.1457 80.8549 64.2803C80.8523 64.4141 80.798 64.5417 80.7034 64.6363C80.6088 64.7309 80.4812 64.7852 80.3474 64.7878H55.1652H55.1754Z" fill="#D1D3D4"/>
<path d="M83.4533 64.7269C83.3187 64.7269 83.1896 64.6734 83.0944 64.5782C82.9993 64.4831 82.9458 64.354 82.9458 64.2194C82.9458 64.0848 82.9993 63.9557 83.0944 63.8605C83.1896 63.7654 83.3187 63.7119 83.4533 63.7119H96.0494C96.184 63.7119 96.3131 63.7654 96.4083 63.8605C96.5035 63.9557 96.5569 64.0848 96.5569 64.2194C96.5569 64.354 96.5035 64.4831 96.4083 64.5782C96.3131 64.6734 96.184 64.7269 96.0494 64.7269H83.4634H83.4533Z" fill="#FFBB00"/>
<path d="M99.1452 64.6964C99.0106 64.6964 98.8815 64.643 98.7863 64.5478C98.6912 64.4526 98.6377 64.3235 98.6377 64.1889C98.6377 64.0543 98.6912 63.9252 98.7863 63.8301C98.8815 63.7349 99.0106 63.6814 99.1452 63.6814H118.319C118.453 63.6814 118.582 63.7349 118.677 63.8301C118.773 63.9252 118.826 64.0543 118.826 64.1889C118.826 64.3235 118.773 64.4526 118.677 64.5478C118.582 64.643 118.453 64.6964 118.319 64.6964H99.1452V64.6964Z" fill="#D1D3D4"/>
<path d="M120.338 64.6558C120.204 64.6558 120.075 64.6024 119.98 64.5072C119.884 64.412 119.831 64.2829 119.831 64.1483C119.831 64.0137 119.884 63.8846 119.98 63.7895C120.075 63.6943 120.204 63.6408 120.338 63.6408H139.512C139.579 63.6379 139.646 63.6491 139.709 63.6736C139.772 63.6981 139.829 63.7354 139.877 63.7831C139.925 63.8308 139.962 63.8879 139.986 63.9508C140.011 64.0136 140.022 64.0809 140.019 64.1483C140.019 64.2829 139.966 64.412 139.871 64.5072C139.775 64.6024 139.646 64.6558 139.512 64.6558H120.338V64.6558Z" fill="#FFBB00"/>
<path d="M61.8744 68.7361C61.7398 68.7361 61.6107 68.6827 61.5155 68.5875C61.4204 68.4923 61.3669 68.3632 61.3669 68.2286C61.3669 68.094 61.4204 67.9649 61.5155 67.8698C61.6107 67.7746 61.7398 67.7211 61.8744 67.7211H76.8964C77.031 67.7211 77.1601 67.7746 77.2552 67.8698C77.3504 67.9649 77.4039 68.094 77.4039 68.2286C77.4039 68.3632 77.3504 68.4923 77.2552 68.5875C77.1601 68.6827 77.031 68.7361 76.8964 68.7361H61.8744Z" fill="#D1D3D4"/>
<path d="M79.7181 68.7057C79.5835 68.7057 79.4544 68.6522 79.3592 68.557C79.2641 68.4619 79.2106 68.3328 79.2106 68.1982C79.2092 68.132 79.2211 68.0663 79.2455 68.0047C79.2699 67.9432 79.3063 67.8872 79.3526 67.8399C79.399 67.7927 79.4542 67.7551 79.5152 67.7295C79.5763 67.7039 79.6418 67.6907 79.708 67.6907H94.73C94.8646 67.6907 94.9936 67.7442 95.0888 67.8393C95.184 67.9345 95.2375 68.0636 95.2375 68.1982C95.2375 68.3328 95.184 68.4619 95.0888 68.557C94.9936 68.6522 94.8646 68.7057 94.73 68.7057H79.708H79.7181Z" fill="#FFBB00"/>
<path d="M97.6735 68.6549C97.5389 68.6549 97.4098 68.6015 97.3146 68.5063C97.2194 68.4111 97.166 68.282 97.166 68.1474C97.166 68.0128 97.2194 67.8837 97.3146 67.7886C97.4098 67.6934 97.5389 67.6399 97.6735 67.6399H112.695C112.83 67.6399 112.959 67.6934 113.054 67.7886C113.149 67.8837 113.203 68.0128 113.203 68.1474C113.203 68.282 113.149 68.4111 113.054 68.5063C112.959 68.6015 112.83 68.6549 112.695 68.6549H97.6735Z" fill="#FFBB00"/>
<path d="M116.309 69.0711C116.174 69.0711 116.045 69.0176 115.95 68.9224C115.855 68.8273 115.801 68.6982 115.801 68.5636C115.801 68.429 115.855 68.2999 115.95 68.2047C116.045 68.1096 116.174 68.0561 116.309 68.0561H131.331C131.465 68.0561 131.595 68.1096 131.69 68.2047C131.785 68.2999 131.838 68.429 131.838 68.5636C131.838 68.6982 131.785 68.8273 131.69 68.9224C131.595 69.0176 131.465 69.0711 131.331 69.0711H116.309Z" fill="#FFBB00"/>
<path d="M64.4423 72.7149C64.3077 72.7149 64.1787 72.6615 64.0835 72.5663C63.9883 72.4711 63.9348 72.342 63.9348 72.2074C63.9348 72.0728 63.9883 71.9438 64.0835 71.8486C64.1787 71.7534 64.3077 71.6999 64.4423 71.6999H74.7953C74.9299 71.6999 75.059 71.7534 75.1542 71.8486C75.2494 71.9438 75.3028 72.0728 75.3028 72.2074C75.3028 72.342 75.2494 72.4711 75.1542 72.5663C75.059 72.6615 74.9299 72.7149 74.7953 72.7149H64.4423Z" fill="#D1D3D4"/>
<path d="M77.2313 72.7149C77.0967 72.7149 76.9677 72.6615 76.8725 72.5663C76.7773 72.4711 76.7238 72.342 76.7238 72.2074C76.7225 72.1413 76.7344 72.0755 76.7587 72.014C76.7831 71.9525 76.8196 71.8964 76.8659 71.8492C76.9122 71.8019 76.9675 71.7644 77.0285 71.7387C77.0895 71.7131 77.155 71.6999 77.2212 71.6999H87.5843C87.7189 71.6999 87.848 71.7534 87.9432 71.8486C88.0384 71.9438 88.0918 72.0728 88.0918 72.2074C88.0892 72.3412 88.0349 72.4688 87.9403 72.5634C87.8457 72.658 87.7181 72.7123 87.5843 72.7149H77.2313Z" fill="#FFBB00"/>
<path d="M111.528 72.9991L90.1117 72.6439C89.9771 72.6439 89.848 72.5904 89.7528 72.4952C89.6577 72.4001 89.6042 72.271 89.6042 72.1364C89.6042 72.0018 89.6577 71.8727 89.7528 71.7775C89.848 71.6823 89.9771 71.6289 90.1117 71.6289L111.528 71.9841C111.595 71.9854 111.661 71.9999 111.722 72.0266C111.783 72.0533 111.838 72.0918 111.884 72.1399C111.93 72.188 111.967 72.2447 111.991 72.3068C112.015 72.3689 112.027 72.4351 112.026 72.5018C112.026 72.6337 111.973 72.7602 111.88 72.8535C111.787 72.9467 111.66 72.9991 111.528 72.9991V72.9991Z" fill="#D1D3D4"/>
<path d="M101.815 29.009C101.68 29.009 101.551 28.9556 101.456 28.8604C101.361 28.7652 101.307 28.6361 101.307 28.5015C101.307 28.3669 101.361 28.2379 101.456 28.1427C101.551 28.0475 101.68 27.994 101.815 27.994H115.812C115.946 27.994 116.075 28.0475 116.17 28.1427C116.266 28.2379 116.319 28.3669 116.319 28.5015C116.319 28.6361 116.266 28.7652 116.17 28.8604C116.075 28.9556 115.946 29.009 115.812 29.009H101.815Z" fill="#D1D3D4"/>
<path d="M124.936 28.9989C123.705 29.0489 122.471 29.032 121.242 28.9481C121.114 28.9082 121.007 28.8203 120.942 28.703C120.878 28.5857 120.862 28.448 120.897 28.3188C120.93 28.1973 121.008 28.0931 121.116 28.0271C121.223 27.9612 121.352 27.9385 121.475 27.9636C122.105 27.9636 131.28 27.9636 137.33 27.9636C137.464 27.9636 137.593 28.0171 137.688 28.1122C137.784 28.2074 137.837 28.3365 137.837 28.4711C137.837 28.6057 137.784 28.7348 137.688 28.8299C137.593 28.9251 137.464 28.9786 137.33 28.9786C131.026 28.9887 127.23 28.9989 124.936 28.9989Z" fill="#FFBB00"/>
<path d="M88.0005 44.8938C87.8659 44.8938 87.7368 44.8403 87.6416 44.7451C87.5465 44.65 87.493 44.5209 87.493 44.3863C87.493 44.2517 87.5465 44.1226 87.6416 44.0274C87.7368 43.9323 87.8659 43.8788 88.0005 43.8788H98.4753C98.6099 43.8788 98.739 43.9323 98.8342 44.0274C98.9293 44.1226 98.9828 44.2517 98.9828 44.3863C98.9828 44.5209 98.9293 44.65 98.8342 44.7451C98.739 44.8403 98.6099 44.8938 98.4753 44.8938H88.0005Z" fill="#FFBB00"/>
<path d="M67.0814 48.903C66.9468 48.903 66.8177 48.8496 66.7225 48.7544C66.6273 48.6592 66.5739 48.5301 66.5739 48.3955C66.5765 48.2617 66.6308 48.1342 66.7254 48.0395C66.82 47.9449 66.9476 47.8906 67.0814 47.888H74.7852C74.916 47.8995 75.0385 47.9566 75.1313 48.0494C75.2241 48.1422 75.2813 48.2648 75.2927 48.3955C75.294 48.4617 75.2822 48.5275 75.2578 48.589C75.2334 48.6505 75.197 48.7065 75.1507 48.7538C75.1044 48.8011 75.0491 48.8386 74.9881 48.8642C74.927 48.8899 74.8615 48.903 74.7954 48.903H67.0814V48.903Z" fill="#FFBB00"/>
<path d="M77.6983 48.8827C77.5637 48.8827 77.4346 48.8293 77.3394 48.7341C77.2442 48.6389 77.1908 48.5098 77.1908 48.3752C77.1908 48.2406 77.2442 48.1116 77.3394 48.0164C77.4346 47.9212 77.5637 47.8677 77.6983 47.8677H95.9683C96.1029 47.8677 96.2319 47.9212 96.3271 48.0164C96.4223 48.1116 96.4758 48.2406 96.4758 48.3752C96.4771 48.4414 96.4652 48.5072 96.4408 48.5687C96.4165 48.6302 96.38 48.6862 96.3337 48.7335C96.2874 48.7808 96.2321 48.8183 96.1711 48.8439C96.1101 48.8696 96.0446 48.8828 95.9784 48.8827H77.7084H77.6983Z" fill="#D1D3D4"/>
<path d="M99.6831 48.8421C99.5485 48.8421 99.4195 48.7887 99.3243 48.6935C99.2291 48.5983 99.1756 48.4692 99.1756 48.3346C99.1756 48.2 99.2291 48.071 99.3243 47.9758C99.4195 47.8806 99.5485 47.8271 99.6831 47.8271L135.208 47.7459C135.343 47.7459 135.472 47.7994 135.567 47.8946C135.662 47.9898 135.716 48.1188 135.716 48.2534C135.716 48.388 135.662 48.5171 135.567 48.6123C135.472 48.7075 135.343 48.7609 135.208 48.7609L99.6831 48.8421Z" fill="#FFBB00"/>
<path d="M61.7932 79.8199C61.6872 79.8159 61.5848 79.7805 61.4988 79.7184L59.3775 78.1553C59.3118 78.1083 59.2588 78.0456 59.2234 77.9729C59.188 77.9003 59.1711 77.8199 59.1745 77.7392C59.1734 77.6566 59.1933 77.5751 59.2323 77.5023C59.2714 77.4295 59.3283 77.3678 59.3978 77.323L61.174 76.1253C61.2859 76.0519 61.4223 76.0256 61.5535 76.0522C61.6846 76.0788 61.8 76.1562 61.8744 76.2674C61.9126 76.3218 61.9395 76.3832 61.9535 76.4482C61.9676 76.5131 61.9685 76.5802 61.9562 76.6455C61.9439 76.7107 61.9186 76.7729 61.8819 76.8282C61.8452 76.8836 61.7978 76.9311 61.7424 76.9678L60.5549 77.7696L62.0977 78.8963C62.2047 78.9772 62.2762 79.0964 62.2971 79.229C62.3179 79.3615 62.2864 79.497 62.2093 79.6068C62.1628 79.6737 62.1004 79.7281 62.0279 79.7653C61.9553 79.8025 61.8747 79.8212 61.7932 79.8199V79.8199Z" fill="#D1D3D4"/>
<path d="M64.2292 79.8199C64.0908 79.8158 63.9596 79.7575 63.8638 79.6575C63.7708 79.5627 63.7187 79.4351 63.7187 79.3023C63.7187 79.1694 63.7708 79.0419 63.8638 78.947L64.8788 77.9929L63.4071 76.9779C63.3522 76.9395 63.3054 76.8905 63.2696 76.8339C63.2337 76.7773 63.2094 76.7141 63.1981 76.6481C63.1868 76.582 63.1886 76.5144 63.2036 76.449C63.2186 76.3837 63.2463 76.322 63.2853 76.2674C63.3228 76.2129 63.3708 76.1664 63.4265 76.1306C63.4823 76.0949 63.5446 76.0706 63.6098 76.0593C63.6751 76.0479 63.7419 76.0497 63.8064 76.0646C63.871 76.0794 63.9319 76.107 63.9856 76.1456L66.0156 77.526C66.0771 77.5686 66.1282 77.6244 66.1651 77.6895C66.202 77.7545 66.2237 77.827 66.2288 77.9016C66.2337 78.0517 66.1789 78.1977 66.0765 78.3076L64.6454 79.688C64.5894 79.7384 64.5233 79.7763 64.4516 79.799C64.3798 79.8218 64.304 79.8289 64.2292 79.8199V79.8199Z" fill="#D1D3D4"/>
<path d="M170.723 52.2525C170.65 52.2519 170.579 52.2362 170.512 52.2065C170.446 52.1768 170.386 52.1338 170.337 52.08C170.25 51.9769 170.207 51.844 170.216 51.7093C170.226 51.5747 170.287 51.4491 170.388 51.3593C171.677 50.2428 173.758 48.0098 173.139 45.6449C172.66 44.3707 171.825 43.2609 170.733 42.4476C170.287 42.0416 169.82 41.6052 169.404 41.1484C167.99 39.5161 167.139 37.4715 166.978 35.3179C166.817 33.1643 167.355 31.0161 168.51 29.1917C168.59 29.0933 168.703 29.0279 168.828 29.0086C168.953 28.9892 169.08 29.0172 169.186 29.087C169.291 29.1569 169.367 29.2636 169.398 29.3862C169.429 29.5088 169.413 29.6386 169.353 29.75C168.319 31.3869 167.84 33.3131 167.986 35.2435C168.132 37.1739 168.896 39.0059 170.165 40.4684C170.55 40.8947 170.997 41.3108 171.423 41.7067C172.66 42.6488 173.597 43.9283 174.123 45.3911C174.874 48.2839 172.52 50.8518 171.078 52.1307C170.98 52.2162 170.853 52.2599 170.723 52.2525Z" fill="#D1D3D4"/>
<path d="M184.527 51.1766C184.445 51.1759 184.364 51.1552 184.291 51.1163C184.219 51.0774 184.157 51.0215 184.111 50.9533C184.072 50.8996 184.045 50.8387 184.03 50.7741C184.015 50.7096 184.013 50.6428 184.024 50.5775C184.036 50.5123 184.06 50.45 184.096 50.3943C184.132 50.3385 184.178 50.2905 184.233 50.253C184.818 49.8471 185.236 49.2436 185.412 48.5535C185.587 47.8635 185.507 47.1333 185.187 46.4975C184.99 46.2212 184.77 45.963 184.527 45.7261L184.243 45.4419C182.703 43.7928 181.869 41.6074 181.918 39.3519C181.889 38.1104 182.336 36.9047 183.167 35.9821C183.213 35.9348 183.268 35.8973 183.329 35.8716C183.39 35.846 183.456 35.8328 183.522 35.8328C183.588 35.8328 183.654 35.846 183.715 35.8716C183.776 35.8973 183.831 35.9348 183.877 35.9821C183.925 36.0293 183.963 36.0854 183.988 36.1472C184.014 36.2091 184.028 36.2754 184.028 36.3424C184.028 36.4094 184.014 36.4757 183.988 36.5376C183.963 36.5994 183.925 36.6556 183.877 36.7027C183.241 37.4396 182.904 38.3887 182.933 39.362C182.885 41.354 183.613 43.2868 184.963 44.7517L185.227 45.0156C185.52 45.2977 185.785 45.607 186.019 45.9392C186.486 46.7947 186.619 47.7925 186.394 48.7406C186.17 49.6887 185.602 50.5202 184.801 51.0751C184.723 51.1374 184.627 51.173 184.527 51.1766V51.1766Z" fill="#D1D3D4"/>
<path d="M177.93 52.2627C177.846 52.2636 177.763 52.2437 177.688 52.2048C177.614 52.1658 177.55 52.109 177.503 52.0394C177.429 51.9259 177.403 51.788 177.429 51.6551C177.456 51.5223 177.533 51.4052 177.645 51.3289C178.117 51.0127 178.502 50.583 178.764 50.0794C179.027 49.5757 179.159 49.0141 179.148 48.4463C178.959 47.1407 178.423 45.91 177.595 44.8836C177.361 44.5284 177.128 44.1731 176.904 43.8077C175.768 41.8402 175.148 39.6172 175.102 37.3457C175.056 35.0741 175.585 32.8278 176.64 30.8157C176.671 30.7561 176.714 30.7032 176.766 30.6602C176.817 30.6171 176.877 30.5847 176.941 30.5649C177.005 30.5451 177.073 30.5382 177.14 30.5447C177.206 30.5511 177.271 30.5708 177.331 30.6026C177.447 30.6689 177.534 30.7779 177.572 30.9067C177.61 31.0354 177.596 31.1739 177.534 31.2928C176.561 33.1497 176.074 35.2221 176.117 37.3176C176.159 39.4132 176.73 41.4641 177.777 43.2799C177.99 43.625 178.214 43.9701 178.447 44.2949C179.379 45.4654 179.969 46.8704 180.152 48.3549C180.173 49.0977 180.005 49.8337 179.665 50.494C179.324 51.1543 178.821 51.7174 178.204 52.1307C178.13 52.2047 178.033 52.2513 177.93 52.2627Z" fill="#D1D3D4"/>
<path d="M184.395 70.35C183.073 70.3319 181.771 70.0271 180.579 69.4568C180.518 69.4295 180.464 69.3904 180.418 69.3417C180.373 69.293 180.338 69.2357 180.315 69.1733C180.293 69.1108 180.283 69.0444 180.286 68.9781C180.29 68.9117 180.306 68.8467 180.335 68.7869C180.39 68.6646 180.492 68.5692 180.618 68.5216C180.743 68.4741 180.882 68.4782 181.005 68.5331C184.72 70.2383 187.836 68.9391 189.287 66.9091C189.821 66.2717 190.113 65.4668 190.113 64.6355C190.113 63.8042 189.821 62.9994 189.287 62.3619C189.24 62.3148 189.202 62.2586 189.176 62.1968C189.151 62.1349 189.137 62.0686 189.137 62.0016C189.137 61.9346 189.151 61.8683 189.176 61.8064C189.202 61.7446 189.24 61.6885 189.287 61.6413C189.335 61.5937 189.391 61.556 189.453 61.5302C189.514 61.5044 189.581 61.4912 189.648 61.4912C189.715 61.4912 189.781 61.5044 189.843 61.5302C189.905 61.556 189.961 61.5937 190.008 61.6413C190.71 62.4504 191.101 63.4824 191.112 64.5533C191.123 65.6242 190.753 66.6641 190.069 67.4877C189.418 68.3802 188.563 69.1051 187.577 69.6028C186.591 70.1004 185.5 70.3565 184.395 70.35V70.35Z" fill="#231F20"/>
<path d="M171.809 75.8107C156.949 75.8107 158.563 55.5107 158.563 55.5107H185.055C185.055 55.5107 186.669 75.8107 171.809 75.8107Z" fill="white"/>
<path d="M171.809 76.3182C170.107 76.387 168.41 76.088 166.833 75.4417C165.257 74.7954 163.838 73.8169 162.674 72.5728C157.203 66.6554 157.985 55.9065 158.025 55.4498C158.036 55.3223 158.094 55.2035 158.188 55.1169C158.282 55.0303 158.405 54.9825 158.533 54.9829H185.024C185.152 54.9825 185.275 55.0303 185.37 55.1169C185.464 55.2035 185.522 55.3223 185.532 55.4498C185.532 55.9065 186.354 66.6148 180.883 72.5728C179.726 73.8089 178.317 74.7828 176.752 75.4289C175.187 76.0749 173.501 76.3781 171.809 76.3182V76.3182ZM159.04 56.0182C158.959 58.1497 158.908 66.9903 163.456 71.9131C165.685 74.1013 168.685 75.3273 171.809 75.3273C174.933 75.3273 177.933 74.1013 180.162 71.9131C184.72 66.9903 184.659 58.1497 184.578 56.0283L159.04 56.0182Z" fill="white"/>
<path d="M171.809 75.8107C156.949 75.8107 158.563 55.5107 158.563 55.5107H185.055C185.055 55.5107 186.669 75.8107 171.809 75.8107Z" fill="white"/>
<path d="M171.809 76.3182C170.107 76.387 168.41 76.088 166.833 75.4417C165.257 74.7954 163.838 73.8169 162.674 72.5728C157.203 66.6554 157.985 55.9065 158.025 55.4498C158.036 55.3223 158.094 55.2035 158.188 55.1169C158.282 55.0303 158.405 54.9825 158.533 54.9829H185.024C185.152 54.9825 185.275 55.0303 185.37 55.1169C185.464 55.2035 185.522 55.3223 185.532 55.4498C185.532 55.9065 186.354 66.6148 180.883 72.5728C179.726 73.8089 178.317 74.7828 176.752 75.4289C175.187 76.0749 173.501 76.3781 171.809 76.3182V76.3182ZM159.04 56.0182C158.959 58.1497 158.908 66.9903 163.456 71.9131C165.685 74.1013 168.685 75.3273 171.809 75.3273C174.933 75.3273 177.933 74.1013 180.162 71.9131C184.72 66.9903 184.659 58.1497 184.578 56.0283L159.04 56.0182Z" fill="#D1D3D4"/>
<path d="M171.809 75.8107C156.949 75.8107 158.563 55.5107 158.563 55.5107H185.055C185.055 55.5107 186.669 75.8107 171.809 75.8107Z" stroke="#231F20" stroke-width="1.015" stroke-linecap="round" stroke-linejoin="round"/>
<path d="M171.809 76.3182C170.107 76.387 168.41 76.088 166.833 75.4417C165.257 74.7954 163.838 73.8169 162.674 72.5728C157.203 66.6554 157.985 55.9065 158.025 55.4498C158.036 55.3223 158.094 55.2035 158.188 55.1169C158.282 55.0303 158.405 54.9825 158.533 54.9829H185.024C185.152 54.9825 185.275 55.0303 185.37 55.1169C185.464 55.2035 185.522 55.3223 185.532 55.4498C185.532 55.9065 186.354 66.6148 180.883 72.5728C179.726 73.8089 178.317 74.7828 176.752 75.4289C175.187 76.0749 173.501 76.3781 171.809 76.3182V76.3182ZM159.04 56.0182C158.959 58.1497 158.908 66.9903 163.456 71.9131C165.685 74.1013 168.685 75.3273 171.809 75.3273C174.933 75.3273 177.933 74.1013 180.162 71.9131C184.72 66.9903 184.659 58.1497 184.578 56.0283L159.04 56.0182Z" stroke="#231F20" stroke-width="1.015" stroke-linecap="round" stroke-linejoin="round"/>
<path d="M187.166 57.7741C186.354 59.1241 184.182 63.6205 186.78 64.2498C188.384 64.6457 189.064 63.1333 189.693 62.0067C190.148 61.0474 190.437 60.0177 190.546 58.9617C191.622 60.2304 191.104 66.0667 193.672 66.5336" fill="white"/>
<path d="M193.672 67.0005H193.571C191.612 66.6148 191.175 63.9555 190.82 61.7834C190.82 61.4992 190.729 61.2048 190.678 60.9308C190.554 61.396 190.37 61.843 190.13 62.2604L189.988 62.5243C189.399 63.5393 188.516 65.2039 186.669 64.7573C186.353 64.6877 186.058 64.5436 185.809 64.3371C185.56 64.1305 185.364 63.8674 185.238 63.5698C184.365 61.4687 186.638 57.6828 186.74 57.4798C186.771 57.417 186.815 57.3614 186.869 57.3166C186.924 57.2717 186.986 57.2386 187.054 57.2193C187.121 57.2 187.192 57.1949 187.262 57.2043C187.331 57.2138 187.398 57.2376 187.458 57.2743C187.518 57.311 187.57 57.3596 187.61 57.4173C187.65 57.475 187.678 57.5403 187.691 57.6093C187.705 57.6782 187.704 57.7492 187.689 57.8178C187.673 57.8863 187.644 57.951 187.602 58.0076C186.73 59.4489 185.704 62.0067 186.171 63.1435C186.237 63.2932 186.337 63.4249 186.465 63.5274C186.592 63.6299 186.742 63.7001 186.902 63.7322C187.917 63.9758 188.435 63.2044 189.095 61.9965L189.247 61.7326C189.576 61.1287 189.786 60.4671 189.866 59.7838C189.917 59.4793 189.967 59.1545 190.059 58.7688C190.077 58.6748 190.122 58.588 190.188 58.5194C190.255 58.4508 190.341 58.4034 190.434 58.3831C190.527 58.3617 190.623 58.3664 190.713 58.3969C190.802 58.4274 190.882 58.4824 190.942 58.5557C191.462 59.4912 191.764 60.5321 191.825 61.6007C192.119 63.448 192.495 65.7317 193.763 65.9855C193.829 65.9964 193.892 66.0205 193.949 66.0563C194.005 66.0921 194.053 66.1388 194.091 66.1937C194.129 66.2487 194.156 66.3107 194.169 66.376C194.183 66.4414 194.183 66.5088 194.17 66.5742C194.148 66.6917 194.087 66.7983 193.997 66.876C193.906 66.9537 193.791 66.9977 193.672 67.0005Z" fill="#231F20"/>
<path d="M49.2478 18.3515L49.0854 17.1538L53.4397 14.322L54.5664 15.8749L51.4402 17.8136L55.084 19.7421L54.3634 21.2443L49.2478 18.3515Z" fill="#231F20"/>
<path d="M54.9724 22.7871H56.0483C56.4949 22.7871 56.6674 22.5942 56.6065 22.1781L55.7134 15.5704H57.8245L58.7177 22.1984C58.9613 24.0051 58.3016 24.7359 56.4949 24.7359H55.2363L54.9724 22.7871ZM55.3175 12.6371H57.4186L57.6824 14.6062H55.5814L55.3175 12.6371Z" fill="#231F20"/>
<path d="M59.276 20.209C59.1136 19.0214 59.885 18.4023 61.9049 18.179C63.0823 18.0064 63.4172 17.8339 63.3766 17.5192C63.336 17.2046 62.8792 16.9305 62.2601 16.9305C62.0974 16.9079 61.9318 16.9186 61.7735 16.9622C61.6151 17.0057 61.4673 17.0811 61.339 17.1837C61.2108 17.2863 61.1048 17.414 61.0275 17.5589C60.9503 17.7039 60.9035 17.8631 60.8899 18.0267L58.9613 17.641C59.0121 16.2809 60.2808 15.337 62.0063 15.337C64.0363 15.337 65.3762 16.352 65.5995 18.0064L66.1374 22.0664H64.2292L64.148 21.427C63.887 21.7166 63.5622 21.9416 63.1994 22.0843C62.8365 22.2269 62.4455 22.2834 62.0571 22.2491C61.4193 22.3373 60.7722 22.1736 60.253 21.7928C59.7338 21.4119 59.3834 20.8438 59.276 20.209V20.209ZM63.7724 19.5695L63.6811 18.9301C63.5695 19.1229 63.2853 19.2447 62.524 19.4071C61.5801 19.6 61.2755 19.7725 61.3161 20.0973C61.3567 20.4221 61.6714 20.5845 62.3311 20.5845C63.1634 20.5845 63.8435 20.1176 63.7724 19.5695V19.5695Z" fill="#231F20"/>
<path d="M65.1326 15.5704H67.4874L69.832 19.6304L71.0906 15.5704H73.4454L71.1414 22.0157H69.1114L65.1326 15.5704Z" fill="#231F20"/>
<path d="M74.0036 20.209C73.8412 19.0214 74.6126 18.4023 76.6325 18.179C77.8099 18.0064 78.1448 17.8339 78.1042 17.5192C78.0636 17.2046 77.6069 16.9305 76.9877 16.9305C76.8251 16.9079 76.6595 16.9187 76.5011 16.9622C76.3427 17.0057 76.1949 17.0811 76.0666 17.1837C75.9384 17.2863 75.8324 17.414 75.7552 17.5589C75.678 17.7039 75.6311 17.8631 75.6175 18.0267L73.6484 17.6918C73.6484 16.3317 74.9679 15.3877 76.6934 15.3877C78.7234 15.3877 80.0733 16.4027 80.2966 18.0572L80.8346 22.1172H78.9264L78.835 21.4777C78.573 21.7661 78.2481 21.9903 77.8855 22.1328C77.5229 22.2754 77.1324 22.3326 76.7441 22.2999C76.1052 22.3756 75.4619 22.1997 74.9504 21.8095C74.4389 21.4192 74.0994 20.8452 74.0036 20.209V20.209ZM78.4899 19.5695L78.4087 18.9301C78.3072 19.1229 78.0129 19.2447 77.2618 19.4071C76.3077 19.6 76.0032 19.7725 76.0539 20.0973C76.1047 20.4221 76.4092 20.5845 77.0689 20.5845C77.8911 20.5845 78.5711 20.1176 78.4899 19.5695Z" fill="#231F20"/>
<path d="M81.2203 20.0669L83.1184 19.5086C83.3009 19.8815 83.5934 20.1894 83.9564 20.3908C84.3194 20.5923 84.7354 20.6776 85.1484 20.6353C86.001 20.6353 86.4476 20.4729 86.4171 20.1887C86.3867 19.9045 85.9705 19.7218 84.6713 19.5289C82.3571 19.1838 81.3523 18.585 81.1899 17.4177C81.0275 16.2505 82.2048 15.3877 84.0826 15.3877C84.8325 15.3386 85.5817 15.4939 86.2502 15.8371C86.9188 16.1803 87.4816 16.6985 87.8787 17.3365L86.0618 17.8948C85.8589 17.5937 85.5806 17.3509 85.2548 17.1907C84.9289 17.0304 84.5668 16.9582 84.2044 16.9813C83.5243 16.9813 83.1894 17.1538 83.1894 17.4279C83.1894 17.7019 83.5548 17.8339 84.9859 18.0572C87.2494 18.4226 88.2745 18.991 88.4369 20.1988C88.5993 21.4067 87.4219 22.2999 85.2701 22.2999C84.4514 22.3594 83.6331 22.18 82.9142 21.7837C82.1954 21.3873 81.607 20.791 81.2203 20.0669V20.0669Z" fill="#231F20"/>
<path d="M88.7313 18.7981C88.6546 18.3485 88.6824 17.8872 88.8125 17.4499C88.9426 17.0127 89.1715 16.6113 89.4816 16.2767C89.7916 15.9421 90.1745 15.6833 90.6006 15.5204C91.0267 15.3574 91.4845 15.2947 91.9387 15.337C92.7246 15.3158 93.4996 15.5231 94.1699 15.9339C94.8402 16.3447 95.3768 16.9413 95.7145 17.6512L93.8368 18.25C93.7035 17.9255 93.475 17.6491 93.1815 17.457C92.888 17.2649 92.5432 17.1663 92.1925 17.1741C91.9872 17.1616 91.7818 17.1977 91.5931 17.2793C91.4043 17.361 91.2374 17.4859 91.106 17.6441C90.9745 17.8022 90.8821 17.9891 90.8364 18.1896C90.7906 18.3901 90.7927 18.5986 90.8425 18.7981C90.8855 19.2414 91.0925 19.6526 91.423 19.9512C91.7535 20.2497 92.1836 20.4141 92.6289 20.412C92.9406 20.4451 93.2532 20.3587 93.5038 20.1703C93.7543 19.982 93.9241 19.7056 93.9789 19.397L96.0089 19.9857C95.8663 20.6937 95.4649 21.3232 94.883 21.7511C94.3012 22.1791 93.5807 22.3747 92.8623 22.2999C91.8635 22.3268 90.8899 21.9845 90.1277 21.3384C89.3655 20.6923 88.8683 19.7879 88.7313 18.7981Z" fill="#231F20"/>
<path d="M96.222 15.5704H98.252L98.3332 16.1896C98.5472 15.931 98.8204 15.7277 99.1296 15.597C99.4387 15.4663 99.7748 15.4119 100.109 15.4385C100.507 15.4381 100.903 15.4893 101.287 15.5907L101.175 17.4685C100.844 17.3822 100.502 17.3412 100.16 17.3467C99.1452 17.3467 98.6377 17.9557 98.8001 19.2041L99.1858 22.0157H97.0746L96.222 15.5704Z" fill="#231F20"/>
<path d="M101.449 12.5965H103.56L103.824 14.5656H101.723L101.449 12.5965ZM101.865 15.5704H103.966L104.839 22.0157H102.738L101.865 15.5704Z" fill="#231F20"/>
<path d="M105.073 15.5704H107.103L107.184 16.149C107.429 15.9005 107.724 15.7069 108.05 15.581C108.375 15.455 108.723 15.3995 109.072 15.4182C110.009 15.4336 110.91 15.7838 111.612 16.4055C112.314 17.0273 112.77 17.8795 112.898 18.8083C112.989 19.2281 112.982 19.6631 112.878 20.0797C112.774 20.4964 112.575 20.8835 112.298 21.2112C112.02 21.5388 111.671 21.7983 111.277 21.9695C110.883 22.1407 110.455 22.219 110.026 22.1984C109.3 22.206 108.59 21.9859 107.996 21.5691V21.5691L108.422 24.7562H106.321L105.073 15.5704ZM110.777 18.7778C110.715 18.3431 110.493 17.9469 110.156 17.6657C109.819 17.3845 109.389 17.2383 108.95 17.2553C108.087 17.2553 107.478 17.8034 107.57 18.4632L107.661 19.1635C107.752 19.5403 107.978 19.8708 108.296 20.0932C108.613 20.3155 109.001 20.4144 109.387 20.3714C109.591 20.387 109.797 20.3547 109.987 20.2769C110.177 20.1991 110.346 20.078 110.481 19.9233C110.616 19.7685 110.713 19.5844 110.765 19.3856C110.816 19.1867 110.82 18.9786 110.777 18.7778V18.7778Z" fill="#231F20"/>
<path d="M116.37 17.2553L116.684 19.5797C116.684 19.9755 116.908 20.1176 117.364 20.1176H118.562L118.826 22.0157H117.304C116.976 22.0661 116.642 22.0466 116.323 21.9586C116.004 21.8706 115.707 21.716 115.452 21.5051C115.197 21.2942 114.99 21.0316 114.844 20.7348C114.697 20.4379 114.616 20.1134 114.604 19.7827L114.259 17.2553H112.756L112.533 15.5704H114.056L113.771 13.8957H115.872L116.096 15.5704H118.126L118.349 17.2553H116.37Z" fill="#231F20"/>
<path d="M119.486 19.6913L122.612 17.7628L118.968 15.8749L119.689 14.3727L124.764 17.2046L124.926 18.4023L120.572 21.2443L119.486 19.6913Z" fill="#231F20"/>
</svg>