<svg viewBox="0 0 30 12" fill="none" xmlns="http://www.w3.org/2000/svg">
    <path
        d="M4.72852 2.66016H6.13477V8.80664C6.13477 9.38086 6.00977 9.86719 5.75977 10.2656C5.51367 10.668 5.16797 10.9727 4.72266 11.1797C4.27734 11.3906 3.75977 11.4961 3.16992 11.4961C2.91602 11.4961 2.64062 11.4609 2.34375 11.3906C2.05078 11.3203 1.76758 11.209 1.49414 11.0566C1.22461 10.9082 1 10.7148 0.820312 10.4766L1.51758 9.5625C1.72852 9.80859 1.9668 9.99414 2.23242 10.1191C2.49805 10.248 2.78516 10.3125 3.09375 10.3125C3.40625 10.3125 3.67188 10.2539 3.89062 10.1367C4.11328 10.0234 4.2832 9.85547 4.40039 9.63281C4.52148 9.41406 4.58203 9.14453 4.58203 8.82422V4.10742L4.72852 2.66016ZM0.445312 5.90625V5.7832C0.445312 5.29883 0.503906 4.85938 0.621094 4.46484C0.738281 4.06641 0.90625 3.72461 1.125 3.43945C1.34766 3.1543 1.61523 2.93359 1.92773 2.77734C2.24414 2.62109 2.59961 2.54297 2.99414 2.54297C3.41211 2.54297 3.76367 2.61914 4.04883 2.77148C4.33789 2.92383 4.57617 3.14062 4.76367 3.42188C4.95508 3.70312 5.10352 4.03711 5.20898 4.42383C5.31836 4.80664 5.40234 5.22852 5.46094 5.68945V6.02344C5.40625 6.47266 5.31836 6.88477 5.19727 7.25977C5.08008 7.63477 4.92383 7.96289 4.72852 8.24414C4.5332 8.52148 4.29102 8.73633 4.00195 8.88867C3.71289 9.04102 3.37305 9.11719 2.98242 9.11719C2.5918 9.11719 2.24023 9.03711 1.92773 8.87695C1.61523 8.7168 1.34766 8.49219 1.125 8.20312C0.90625 7.91406 0.738281 7.57422 0.621094 7.18359C0.503906 6.79297 0.445312 6.36719 0.445312 5.90625ZM1.99219 5.7832V5.90625C1.99219 6.17969 2.01953 6.43555 2.07422 6.67383C2.12891 6.91211 2.21289 7.12305 2.32617 7.30664C2.43945 7.48633 2.58203 7.62695 2.75391 7.72852C2.92578 7.83008 3.13086 7.88086 3.36914 7.88086C3.68945 7.88086 3.95117 7.81445 4.1543 7.68164C4.36133 7.54492 4.51758 7.35938 4.62305 7.125C4.73242 6.88672 4.80273 6.61914 4.83398 6.32227V5.40234C4.81445 5.16797 4.77148 4.95117 4.70508 4.75195C4.64258 4.55273 4.55469 4.38086 4.44141 4.23633C4.32812 4.0918 4.18359 3.97852 4.00781 3.89648C3.83203 3.81445 3.62305 3.77344 3.38086 3.77344C3.14648 3.77344 2.94141 3.82617 2.76562 3.93164C2.58984 4.0332 2.44531 4.17578 2.33203 4.35938C2.21875 4.54297 2.13281 4.75586 2.07422 4.99805C2.01953 5.24023 1.99219 5.50195 1.99219 5.7832Z"
        fill="white" />
    <path
        d="M7.64648 0.46875H10.7461C11.3945 0.46875 11.9512 0.566406 12.416 0.761719C12.8809 0.957031 13.2383 1.24609 13.4883 1.62891C13.7383 2.01172 13.8633 2.48242 13.8633 3.04102C13.8633 3.48242 13.7852 3.86523 13.6289 4.18945C13.4727 4.51367 13.252 4.78516 12.9668 5.00391C12.6855 5.22266 12.3535 5.39453 11.9707 5.51953L11.4668 5.77734H8.73047L8.71875 4.50586H10.7637C11.0957 4.50586 11.3711 4.44727 11.5898 4.33008C11.8086 4.21289 11.9727 4.05078 12.082 3.84375C12.1953 3.63672 12.252 3.40039 12.252 3.13477C12.252 2.84961 12.1973 2.60352 12.0879 2.39648C11.9785 2.18555 11.8125 2.02344 11.5898 1.91016C11.3672 1.79688 11.0859 1.74023 10.7461 1.74023H9.25781V9H7.64648V0.46875ZM12.4629 9L10.4883 5.17969L12.1934 5.17383L14.1914 8.91797V9H12.4629Z"
        fill="white" />
    <path
        d="M18.5566 5.88867H16.3594V4.62305H18.5566C18.916 4.62305 19.207 4.56445 19.4297 4.44727C19.6562 4.32617 19.8223 4.16211 19.9277 3.95508C20.0332 3.74414 20.0859 3.50391 20.0859 3.23438C20.0859 2.97266 20.0332 2.72852 19.9277 2.50195C19.8223 2.27539 19.6562 2.0918 19.4297 1.95117C19.207 1.81055 18.916 1.74023 18.5566 1.74023H16.8867V9H15.2754V0.46875H18.5566C19.2207 0.46875 19.7871 0.587891 20.2559 0.826172C20.7285 1.06055 21.0879 1.38672 21.334 1.80469C21.584 2.21875 21.709 2.69141 21.709 3.22266C21.709 3.77344 21.584 4.24805 21.334 4.64648C21.0879 5.04492 20.7285 5.35156 20.2559 5.56641C19.7871 5.78125 19.2207 5.88867 18.5566 5.88867Z"
        fill="white" />
    <path
        d="M27.9668 6.19336H29.5781C29.5352 6.76367 29.377 7.26953 29.1035 7.71094C28.8301 8.14844 28.4492 8.49219 27.9609 8.74219C27.4727 8.99219 26.8809 9.11719 26.1855 9.11719C25.6504 9.11719 25.168 9.02344 24.7383 8.83594C24.3125 8.64453 23.9473 8.37305 23.6426 8.02148C23.3418 7.66602 23.1113 7.24023 22.9512 6.74414C22.791 6.24414 22.7109 5.68359 22.7109 5.0625V4.41211C22.7109 3.79102 22.793 3.23047 22.957 2.73047C23.1211 2.23047 23.3555 1.80469 23.6602 1.45312C23.9688 1.09766 24.3379 0.824219 24.7676 0.632812C25.2012 0.441406 25.6855 0.345703 26.2207 0.345703C26.916 0.345703 27.5039 0.474609 27.9844 0.732422C28.4648 0.986328 28.8379 1.33594 29.1035 1.78125C29.3691 2.22656 29.5293 2.73828 29.584 3.31641H27.9727C27.9414 2.95703 27.8633 2.65234 27.7383 2.40234C27.6172 2.15234 27.4336 1.96289 27.1875 1.83398C26.9453 1.70117 26.623 1.63477 26.2207 1.63477C25.9082 1.63477 25.6328 1.69336 25.3945 1.81055C25.1602 1.92773 24.9648 2.10352 24.8086 2.33789C24.6523 2.56836 24.5352 2.85742 24.457 3.20508C24.3789 3.54883 24.3398 3.94727 24.3398 4.40039V5.0625C24.3398 5.49609 24.375 5.88477 24.4453 6.22852C24.5156 6.57227 24.625 6.86328 24.7734 7.10156C24.9219 7.33984 25.1133 7.52148 25.3477 7.64648C25.582 7.77148 25.8613 7.83398 26.1855 7.83398C26.5801 7.83398 26.9004 7.77148 27.1465 7.64648C27.3965 7.52148 27.5859 7.33789 27.7148 7.0957C27.8477 6.85352 27.9316 6.55273 27.9668 6.19336Z"
        fill="white" />
</svg>