<svg viewBox="0 0 512 512" fill="none" xmlns="http://www.w3.org/2000/svg">
    <path
        d="M256 153.9C235.806 153.9 216.066 159.888 199.276 171.107C182.486 182.326 169.4 198.272 161.672 216.928C153.944 235.584 151.922 256.113 155.862 275.919C159.801 295.724 169.525 313.917 183.804 328.195C198.083 342.474 216.276 352.199 236.081 356.138C255.887 360.078 276.416 358.056 295.072 350.328C313.728 342.6 329.674 329.514 340.893 312.724C352.112 295.933 358.1 276.193 358.1 256C358.066 228.932 347.298 202.982 328.158 183.842C309.018 164.702 283.068 153.934 256 153.9V153.9Z"
        fill="#4582F1" />
    <path
        d="M402.59 162.97C428.282 162.97 449.11 142.142 449.11 116.45C449.11 90.7579 428.282 69.9302 402.59 69.9302C376.898 69.9302 356.07 90.7579 356.07 116.45C356.07 142.142 376.898 162.97 402.59 162.97Z"
        fill="#4582F1" />
    <path
        d="M459.86 163.2L457.91 158.92L454.8 162.44C447.18 171.093 437.542 177.729 426.74 181.76L423.74 182.86L424.96 185.79C434.257 208.028 439.03 231.896 439 256C439 356.92 356.9 439 256 439C155.1 439 73 356.92 73 256C73 155.08 155.08 73 256 73C283.14 72.9433 309.945 78.9926 334.43 90.7L337.3 92L338.55 89.08C343.109 78.4939 350.204 69.1934 359.21 62L362.88 59.07L358.71 57C326.991 40.5036 291.752 31.9263 256 32C132.49 32 32 132.49 32 256C32 379.51 132.49 480 256 480C379.51 480 480 379.51 480 256C480.053 223.977 473.182 192.321 459.86 163.2V163.2Z"
        fill="#4582F1" />
</svg>