<svg width="156" height="94" viewBox="0 0 156 94" fill="none" xmlns="http://www.w3.org/2000/svg">
<path class="logoFastRotate" d="M0.474915 47.908C0.809865 46.893 1.13466 45.9592 1.48991 44.9848C1.67261 44.4773 1.87562 43.9698 2.07862 43.4826C2.1954 43.1773 2.41315 42.9212 2.69568 42.7568C2.9782 42.5925 3.30847 42.5298 3.63157 42.5792C4.42326 42.6604 5.20482 42.833 5.99652 42.9548C6.41409 43.0464 6.83839 43.1041 7.26527 43.1273C7.58301 43.1332 7.89368 43.0333 8.14831 42.8431C9.05166 41.9804 9.91441 41.077 10.7772 40.1635C10.9199 39.9929 11.0186 39.7898 11.0646 39.5721C11.1106 39.3545 11.1025 39.1289 11.0411 38.9151C10.8381 37.961 10.6046 37.017 10.4118 36.0629C10.3228 35.6909 10.2886 35.308 10.3103 34.9261C10.3186 34.7874 10.3553 34.6518 10.4182 34.5279C10.481 34.4039 10.5687 34.2942 10.6757 34.2055C12.1352 33.2545 13.7297 32.5291 15.4056 32.0537C15.6511 31.9718 15.9171 31.9754 16.1603 32.0638C16.4036 32.1523 16.6098 32.3204 16.7454 32.5409C17.3544 33.363 17.9837 34.175 18.5622 35.0175C18.7497 35.3378 19.0256 35.5973 19.3568 35.7648C19.6881 35.9322 20.0607 36.0005 20.4298 35.9614C21.4448 35.8802 22.5207 35.8599 23.5662 35.8092C23.7579 35.7986 23.9442 35.7413 24.1087 35.6422C24.2733 35.5431 24.4111 35.4053 24.5101 35.2408C24.8857 34.6927 25.2308 34.1243 25.5962 33.566C25.9616 33.0078 26.2255 32.6119 26.5503 32.145C26.6971 31.9068 26.9221 31.727 27.1869 31.6363C27.4516 31.5456 27.7396 31.5496 28.0017 31.6477C29.443 32.145 30.8945 32.6627 32.3256 33.2108C32.5961 33.3201 32.8211 33.5186 32.9633 33.7733C33.1054 34.0281 33.1562 34.3239 33.1072 34.6115C33.026 35.4133 32.8433 36.205 32.7113 36.9967C32.7113 37.3723 32.5997 37.758 32.5692 38.1335C32.5408 38.3778 32.5701 38.6253 32.6547 38.8562C32.7394 39.0872 32.8769 39.295 33.0564 39.4632C33.8177 40.1838 34.5891 40.8943 35.3199 41.6353C35.5327 41.8641 35.8041 42.0304 36.1046 42.1163C36.4052 42.2022 36.7234 42.2043 37.0251 42.1225C38.0401 41.8992 39.0551 41.6454 40.1208 41.4221C40.4602 41.307 40.8311 41.3284 41.155 41.4819C41.479 41.6353 41.7305 41.9087 41.8565 42.2442C42.4452 43.4825 43.0136 44.7208 43.5617 45.9794C43.6628 46.1472 43.7292 46.3336 43.7569 46.5276C43.7845 46.7215 43.7729 46.919 43.7227 47.1084C43.6726 47.2978 43.5848 47.4751 43.4647 47.6299C43.3446 47.7847 43.1947 47.9138 43.0237 48.0094C42.4959 48.4357 41.9174 48.8011 41.3693 49.2071C40.9836 49.4914 40.5979 49.7959 40.2325 50.1207C40.0809 50.2429 39.9585 50.3975 39.8742 50.5731C39.7899 50.7487 39.7459 50.9409 39.7453 51.1357C39.7453 52.2217 39.7453 53.3077 39.8366 54.3836C39.8428 54.6794 39.9267 54.9683 40.08 55.2213C40.2332 55.4743 40.4503 55.6825 40.7095 55.825L42.4858 56.84C42.8549 57.059 43.2108 57.2996 43.5515 57.5606C43.8004 57.7226 43.9851 57.9662 44.074 58.2496C44.1629 58.5329 44.1504 58.8384 44.0387 59.1136C43.5617 60.4128 43.0745 61.7221 42.5771 63.0213C42.4883 63.2149 42.3795 63.3986 42.2523 63.5694C42.1352 63.781 41.9548 63.9507 41.7363 64.0544C41.5178 64.1582 41.2723 64.1909 41.0343 64.1479L38.2228 63.6811H38.0096C37.616 63.5776 37.2003 63.5949 36.8166 63.7306C36.4329 63.8664 36.0988 64.1143 35.8578 64.4423C35.33 65.0615 34.7312 65.6299 34.1526 66.2287C33.8899 66.488 33.7029 66.8141 33.6117 67.1718C33.5205 67.5295 33.5285 67.9052 33.635 68.2587C33.8684 69.1621 34.0917 70.0756 34.2744 70.9992C34.3493 71.1761 34.3855 71.3669 34.3807 71.5589C34.3759 71.7509 34.3302 71.9397 34.2466 72.1126C34.163 72.2856 34.0435 72.4387 33.896 72.5617C33.7485 72.6848 33.5765 72.775 33.3914 72.8262C32.1226 73.4352 30.8234 74.0138 29.5242 74.5619C29.2354 74.7209 28.8967 74.7632 28.5776 74.6802C28.2585 74.5971 27.9834 74.3949 27.8089 74.1152C27.3014 73.486 26.7939 72.8161 26.3777 72.1563C25.3627 70.7353 25.109 70.6135 23.3327 70.6947L21.3027 70.8165C20.9784 70.8189 20.6602 70.9052 20.3792 71.067C20.0981 71.2289 19.8638 71.4608 19.699 71.7402C19.293 72.4304 18.8972 73.1206 18.4607 73.7702C18.2346 74.1336 17.9727 74.4736 17.6792 74.7852C17.5458 74.9304 17.3731 75.0337 17.182 75.0823C16.9909 75.131 16.7898 75.123 16.6033 75.0592L12.5433 73.5266C12.3566 73.445 12.1795 73.3429 12.0155 73.2221C11.8057 73.1056 11.6373 72.9267 11.5337 72.7103C11.43 72.4939 11.3962 72.2507 11.4369 72.0142L11.8937 69.2229C11.8937 68.9388 11.9546 68.6546 11.9749 68.3704C12.0016 68.1386 11.9732 67.9039 11.8921 67.6852C11.811 67.4664 11.6793 67.27 11.508 67.1117C10.7569 66.4351 10.0159 65.7584 9.28512 65.0817C9.07453 64.8766 8.81279 64.7317 8.52717 64.6621C8.24155 64.5924 7.94248 64.6007 7.66112 64.6859C6.74762 64.9092 5.83412 65.1122 4.92062 65.3254H4.81911C3.61126 65.5487 3.22556 65.3964 2.70791 64.3104C2.19026 63.2243 1.60156 61.8642 1.07376 60.565C0.986468 60.4174 0.930771 60.2534 0.910196 60.0831C0.88962 59.9129 0.904611 59.7403 0.954227 59.5762C1.00384 59.4121 1.08701 59.26 1.19844 59.1297C1.30987 58.9994 1.44714 58.8937 1.60157 58.8192C2.33237 58.2711 3.07332 57.7332 3.84472 57.2358C4.21887 57.0222 4.52213 56.7035 4.71697 56.3192C4.91182 55.9349 4.98967 55.5019 4.94091 55.0738C4.88001 54.0588 4.84956 53.1149 4.79881 52.1405C4.79624 51.9373 4.7429 51.738 4.64362 51.5608C4.54435 51.3835 4.4023 51.2338 4.23041 51.1255C3.41841 50.6078 2.59627 50.1105 1.79442 49.5725C1.22019 49.2919 0.763616 48.8174 0.505363 48.2327L0.474915 47.908ZM31.5136 53.3585C31.5163 52.1352 31.2765 50.9234 30.8081 49.7933C30.3397 48.6632 29.6519 47.6372 28.7845 46.7746C27.9171 45.9119 26.8873 45.2297 25.7547 44.7674C24.6221 44.3052 23.4091 44.072 22.1858 44.0814C19.7591 44.1519 17.4535 45.1577 15.7511 46.8885C14.0487 48.6193 13.0812 50.9411 13.0508 53.3686C13.064 55.8036 14.0351 58.1355 15.754 59.8601C17.473 61.5848 19.8016 62.5635 22.2365 62.5849C23.4558 62.6039 24.6665 62.3786 25.7973 61.9223C26.9281 61.466 27.9561 60.788 28.8208 59.9281C29.6854 59.0682 30.3691 58.0439 30.8316 56.9156C31.2941 55.7873 31.526 54.5778 31.5136 53.3585Z" fill="#00E1FF"/>
<path class="logoFastRotate" d="M16.9788 75.6682C16.7985 75.6639 16.6201 75.6296 16.451 75.5667L15.3041 75.1404L12.3403 74.0442C12.1422 73.9621 11.9548 73.8565 11.782 73.7296C11.4754 73.5608 11.2281 73.3018 11.0738 72.9876C10.9194 72.6735 10.8655 72.3195 10.9192 71.9736L11.1121 70.7455C11.2035 70.2278 11.2847 69.7305 11.3659 69.1925C11.408 68.9236 11.4351 68.6525 11.4471 68.3805C11.4657 68.2245 11.448 68.0663 11.3951 67.9184C11.3423 67.7704 11.2558 67.6368 11.1425 67.5279C10.4625 66.9088 9.80275 66.2896 9.11255 65.6603L8.89941 65.4573C8.74939 65.3112 8.56252 65.2085 8.35875 65.1603C8.15497 65.112 7.94193 65.12 7.74231 65.1833C7.09271 65.3457 6.43296 65.4878 5.77321 65.64L4.99165 65.8227H4.85971C3.40826 66.0866 2.82971 65.8227 2.21056 64.4931C1.70306 63.4781 1.19556 62.2702 0.586556 60.7376C0.37611 60.3413 0.327263 59.879 0.450265 59.4476C0.573267 59.0161 0.858555 58.6491 1.2463 58.4234C2.0989 57.7839 2.81956 57.2663 3.51991 56.8197C3.81663 56.6531 4.0571 56.402 4.21073 56.0983C4.36436 55.7947 4.42422 55.4522 4.38266 55.1145C4.38266 54.5055 4.32175 53.8965 4.2913 53.2875C4.2913 52.9221 4.2913 52.5465 4.2913 52.1811C4.29307 52.0579 4.26321 51.9363 4.20457 51.8279C4.14593 51.7195 4.06048 51.6279 3.95636 51.562L2.94136 50.9327L1.48991 50.009C0.820345 49.6685 0.294698 49.0996 0.00799882 48.4053C-0.00266627 48.3517 -0.00266627 48.2965 0.00799882 48.2429V47.8877C-0.00170214 47.834 -0.00170214 47.779 0.00799882 47.7253L0.292213 46.8828L1.01285 44.7919C1.19555 44.2743 1.39855 43.7769 1.6117 43.2694C1.76099 42.8631 2.04197 42.5185 2.40986 42.2904C2.77775 42.0623 3.21139 41.9639 3.6417 42.0108C4.17965 42.0717 4.70746 42.1631 5.23526 42.2646L6.02696 42.3965L6.35175 42.4574C6.63271 42.5144 6.91787 42.5484 7.20436 42.5589C7.39341 42.5626 7.57973 42.5134 7.74231 42.4168C8.69641 41.5135 9.5896 40.5695 10.3509 39.7575C10.4387 39.6479 10.4977 39.518 10.5225 39.3797C10.5473 39.2414 10.5372 39.0992 10.493 38.9658C10.4016 38.5395 10.3103 38.1132 10.2088 37.6869C10.1073 37.2606 9.97531 36.6719 9.86366 36.1035C9.76807 35.6809 9.73051 35.2472 9.752 34.8145C9.77173 34.5994 9.83608 34.3909 9.94094 34.2022C10.0458 34.0134 10.1889 33.8486 10.361 33.7183C11.8607 32.7396 13.4999 31.9935 15.2229 31.5056C15.5678 31.4005 15.9374 31.4089 16.2772 31.5295C16.617 31.6501 16.9092 31.8765 17.1108 32.1755C17.3239 32.4698 17.5371 32.7642 17.7604 33.0484C18.1562 33.5863 18.5521 34.1243 18.9276 34.6724C19.0647 34.919 19.272 35.1192 19.5233 35.2475C19.7745 35.3759 20.0583 35.4265 20.3385 35.393C21.0287 35.393 21.7087 35.3118 22.3685 35.2915L23.4545 35.2408C23.5683 35.2373 23.6791 35.2034 23.7755 35.1427C23.8718 35.0821 23.9503 34.9968 24.0026 34.8957C24.2259 34.5709 24.4391 34.2461 24.6522 33.8807L25.2511 32.957C25.515 32.551 25.7789 32.145 26.0631 31.7593C26.2716 31.4297 26.5873 31.1821 26.9571 31.0582C27.3269 30.9344 27.7281 30.9418 28.0931 31.0793C29.849 31.6883 31.1381 32.1653 32.4373 32.6424C32.8109 32.7898 33.1231 33.0602 33.3224 33.409C33.5217 33.7577 33.5961 34.164 33.5335 34.5607C33.5335 35.119 33.3812 35.6671 33.2899 36.1949C33.2391 36.4588 33.1884 36.7227 33.1478 36.9866C33.1072 37.2505 33.0361 37.7174 33.0057 38.0828C32.9829 38.2514 33.0004 38.4231 33.0569 38.5837C33.1134 38.7442 33.2071 38.8891 33.3305 39.0064L33.838 39.4733C34.4368 40.0417 35.0357 40.6 35.6142 41.1887C35.7663 41.3551 35.962 41.4756 36.179 41.5366C36.3961 41.5976 36.6258 41.5966 36.8424 41.5338L38.3242 41.1988C38.8588 41.0703 39.3968 40.9484 39.9381 40.8334C40.3897 40.6972 40.8758 40.734 41.3018 40.9366C41.7278 41.1393 42.063 41.4933 42.2421 41.9296C42.8308 43.1679 43.4094 44.4265 43.9474 45.6851C44.2077 46.1284 44.2823 46.6567 44.155 47.1548C44.0276 47.6529 43.7085 48.0805 43.2673 48.3444C42.9425 48.6083 42.6076 48.8418 42.2523 49.0752L41.5824 49.5523C41.2069 49.8365 40.8313 50.1308 40.4659 50.4353C40.3681 50.5192 40.2901 50.6236 40.2375 50.7412C40.1848 50.8588 40.1588 50.9866 40.1614 51.1154V51.7751C40.1614 52.6379 40.1614 53.4905 40.2325 54.3532C40.2362 54.5634 40.2967 54.7686 40.4075 54.9473C40.5182 55.1259 40.6752 55.2714 40.8617 55.3682L41.5925 55.8047L42.6076 56.434C42.9927 56.6608 43.3654 56.9081 43.7241 57.1749C44.0564 57.4053 44.3013 57.741 44.4192 58.1278C44.5371 58.5146 44.5211 58.9299 44.3737 59.3064C43.8865 60.6158 43.3587 61.915 42.9019 63.2243C42.8152 63.4401 42.7028 63.6446 42.567 63.8333C42.3995 64.1395 42.1394 64.3849 41.824 64.5344C41.5087 64.6839 41.1541 64.7298 40.811 64.6656L38.1416 64.2596H37.8979C37.5951 64.1764 37.274 64.1882 36.9781 64.2935C36.6821 64.3988 36.4257 64.5925 36.2435 64.8483C35.8578 65.3051 35.4315 65.7314 35.0255 66.1374L34.518 66.655C34.3152 66.8544 34.1711 67.1055 34.1013 67.3812C34.0315 67.6568 34.0387 67.9463 34.1222 68.2181C34.3455 69.1012 34.5789 70.0451 34.7717 70.9891C34.8562 71.2214 34.8932 71.4684 34.8804 71.7152C34.8677 71.9621 34.8055 72.204 34.6976 72.4264C34.5897 72.6488 34.4383 72.8473 34.2523 73.0102C34.0662 73.173 33.8494 73.2968 33.6147 73.3743C32.4372 73.9326 31.1584 74.5111 29.7171 75.1201C29.3275 75.3256 28.8752 75.378 28.449 75.2672C28.0227 75.1564 27.6532 74.8904 27.413 74.5213C26.9968 73.9935 26.601 73.4454 26.2153 72.8973L25.9616 72.542C25.0481 71.2631 24.9466 71.2225 23.3936 71.2936L21.3636 71.4154C21.1234 71.4147 20.8873 71.4772 20.6789 71.5965C20.4704 71.7159 20.297 71.8879 20.1761 72.0954L19.7701 72.7755C19.496 73.2424 19.222 73.7093 18.9276 74.1559C18.6822 74.5221 18.4 74.8622 18.0852 75.1709C17.9463 75.3271 17.7759 75.4522 17.5852 75.5379C17.3945 75.6236 17.1879 75.668 16.9788 75.6682ZM8.1483 64.1074C8.69506 64.1082 9.21974 64.3232 9.60991 64.7062L9.82306 64.9092C10.493 65.5284 11.1527 66.1577 11.8531 66.7667C12.0793 66.9772 12.2545 67.2365 12.3653 67.525C12.4762 67.8135 12.5196 68.1234 12.4925 68.4313C12.4777 68.7338 12.4472 69.0353 12.4012 69.3346C12.32 69.8523 12.2388 70.3496 12.1474 70.8977L11.9444 72.1157C11.9184 72.2567 11.939 72.4022 12.0031 72.5304C12.0672 72.6586 12.1713 72.7624 12.2996 72.8262C12.4344 72.9226 12.577 73.0074 12.726 73.08L15.6898 74.1863L16.8367 74.6126C16.9291 74.6497 17.0312 74.6548 17.1268 74.6272C17.2224 74.5997 17.3061 74.5409 17.3645 74.4604C17.6349 74.1883 17.8764 73.889 18.0852 73.5672C18.3694 73.1206 18.6434 72.674 18.9073 72.2172L19.3235 71.5372C19.5324 71.1833 19.8289 70.889 20.1844 70.6828C20.5399 70.4766 20.9425 70.3654 21.3535 70.3598L23.3835 70.238C25.3018 70.1466 25.718 70.3496 26.8243 71.9127L27.0882 72.268C27.4638 72.8059 27.8393 73.3439 28.2453 73.8514C28.2968 73.9465 28.3672 74.0301 28.4523 74.097C28.5373 74.1639 28.6352 74.2127 28.7398 74.2402C28.8445 74.2678 28.9536 74.2737 29.0606 74.2574C29.1676 74.2412 29.2701 74.2031 29.3618 74.1457C30.793 73.5367 32.0516 72.9785 33.2087 72.4202C33.8786 72.0954 33.9699 71.9026 33.8177 71.1515C33.635 70.2278 33.4015 69.294 33.1782 68.4313C33.0505 67.992 33.0435 67.5265 33.1578 67.0836C33.2721 66.6407 33.5035 66.2367 33.8278 65.9141L34.3455 65.3863C34.7413 64.9803 35.1473 64.5844 35.5127 64.148C35.8145 63.7506 36.2268 63.451 36.698 63.2867C37.1692 63.1224 37.6784 63.1007 38.1619 63.2243H38.3446L41.1561 63.6912C41.2974 63.7204 41.4445 63.7025 41.5746 63.6402C41.7048 63.5778 41.8109 63.4745 41.8767 63.3461C41.9782 63.2021 42.0665 63.0492 42.1407 62.8894C42.6414 61.5902 43.1286 60.291 43.6023 58.9918C43.685 58.8137 43.6987 58.6112 43.6405 58.4236C43.5824 58.2361 43.4566 58.0768 43.2876 57.9768C42.9619 57.7317 42.6231 57.5047 42.2726 57.2967C41.9377 57.0836 41.5926 56.8907 41.2576 56.6877L40.5065 56.2411C40.1782 56.0541 39.9032 55.7862 39.7077 55.4628C39.5123 55.1395 39.4029 54.7714 39.39 54.3938C39.39 53.5209 39.3393 52.6582 39.319 51.7853V51.1255C39.3105 50.8478 39.3656 50.5717 39.4799 50.3185C39.5942 50.0652 39.7648 49.8413 39.9787 49.6639C40.3552 49.333 40.7481 49.0213 41.1561 48.7301C41.3794 48.5576 41.6129 48.3952 41.8463 48.2328C42.0798 48.0704 42.4858 47.7862 42.7903 47.5426C42.9172 47.4776 43.0291 47.3866 43.1186 47.2756C43.208 47.1645 43.2731 47.0358 43.3095 46.8979C43.3459 46.76 43.3528 46.616 43.3298 46.4752C43.3068 46.3344 43.2544 46.2001 43.176 46.081C42.6279 44.8325 42.0594 43.5841 41.4809 42.3661C41.4425 42.2507 41.381 42.1444 41.3001 42.0536C41.2192 41.9629 41.1206 41.8896 41.0103 41.8383C40.9001 41.7869 40.7806 41.7587 40.659 41.7552C40.5375 41.7517 40.4165 41.7731 40.3035 41.818L38.71 42.1732L37.1266 42.5792C36.7429 42.6774 36.3398 42.6708 35.9595 42.5601C35.5793 42.4494 35.2357 42.2387 34.9646 41.9499C34.3962 41.3714 33.7974 40.8233 33.2087 40.265L32.7012 39.788C32.4647 39.57 32.2834 39.299 32.1723 38.9972C32.0611 38.6954 32.0232 38.3716 32.0617 38.0523C32.0617 37.6565 32.1531 37.2708 32.214 36.8749C32.2749 36.4791 32.3053 36.337 32.3561 36.0629C32.4576 35.525 32.5489 35.0479 32.5997 34.5201C32.6372 34.3442 32.6122 34.1607 32.5288 34.0013C32.4454 33.8419 32.3089 33.7166 32.1429 33.6472C30.9046 33.1702 29.575 32.6931 27.8292 32.0841C27.6693 32.0291 27.495 32.0337 27.3383 32.0971C27.1816 32.1605 27.0531 32.2785 26.9766 32.4292C26.7025 32.8149 26.4488 33.2006 26.195 33.5965L25.5962 34.51C25.383 34.8449 25.1597 35.19 24.9364 35.525C24.7965 35.7579 24.6007 35.9523 24.3668 36.0905C24.1329 36.2288 23.8681 36.3065 23.5966 36.3167L22.5004 36.3674C21.8204 36.3674 21.1505 36.3674 20.4704 36.4588C20.0145 36.5064 19.5545 36.4228 19.1445 36.2178C18.7345 36.0129 18.3916 35.695 18.1562 35.3017C17.7908 34.7637 17.3949 34.2867 17.0092 33.7183L16.3495 32.8352C16.2692 32.6997 16.1443 32.5963 15.9962 32.5426C15.8481 32.4889 15.686 32.4883 15.5375 32.5409C13.9158 33.0053 12.3728 33.7101 10.9599 34.6318C10.8858 34.7329 10.8402 34.8521 10.8279 34.9769C10.8101 35.3178 10.8409 35.6596 10.9192 35.9919C11.0309 36.5095 11.1426 37.0069 11.2644 37.555C11.3862 38.1031 11.4572 38.4177 11.5486 38.844C11.6297 39.1371 11.636 39.4459 11.5668 39.742C11.4977 40.0382 11.3553 40.3122 11.1527 40.5391C10.3813 41.3612 9.46781 42.3255 8.50356 43.239C8.15473 43.5098 7.72712 43.6594 7.28556 43.6653C6.94434 43.6541 6.60473 43.6134 6.27056 43.5435H5.96606L5.15406 43.4014C4.64656 43.31 4.13906 43.2187 3.63156 43.1679C3.41421 43.1383 3.19338 43.1862 3.00779 43.3031C2.8222 43.42 2.68369 43.5985 2.61656 43.8074C2.41356 44.2946 2.2207 44.7818 2.038 45.269C1.7944 45.9592 1.56095 46.6595 1.3275 47.299L1.06361 48.0602V48.2531C1.28806 48.6888 1.64289 49.0436 2.07861 49.2681L3.51991 50.1917L4.53491 50.8312C4.77732 50.9814 4.9779 51.1904 5.11806 51.4388C5.25823 51.6872 5.33344 51.967 5.33675 52.2522C5.33675 52.6176 5.33675 52.9931 5.33675 53.3687C5.33675 53.9675 5.38751 54.5664 5.42811 55.1652C5.4836 55.685 5.3876 56.2097 5.15169 56.6761C4.91577 57.1425 4.55001 57.5308 4.09846 57.7941C3.42856 58.2305 2.71806 58.7279 1.88575 59.3572C1.3884 59.7327 1.33765 59.9357 1.5508 60.4838C2.16995 61.9962 2.6673 63.1431 3.15451 64.1886C3.57066 65.0513 3.71276 65.1325 4.71761 64.9397L5.58035 64.7468C6.22995 64.5946 6.8897 64.4525 7.52915 64.2901C7.72762 64.205 7.93544 64.1437 8.1483 64.1074ZM22.267 63.0924C19.695 63.079 17.2327 62.0493 15.4168 60.2277C13.601 58.4062 12.579 55.9406 12.5737 53.3687C12.5737 52.0892 12.8287 50.8227 13.3236 49.6428C13.8185 48.463 14.5435 47.3937 15.4563 46.4971C17.2471 44.7065 19.6544 43.6681 22.1858 43.5942C23.4759 43.5767 24.7567 43.8159 25.9536 44.2979C27.1505 44.7799 28.2397 45.495 29.1577 46.4017C30.0757 47.3084 30.8043 48.3885 31.3011 49.5794C31.7979 50.7702 32.053 52.0479 32.0516 53.3382C32.0874 54.5741 31.875 55.8047 31.427 56.9571C30.9789 58.1094 30.3043 59.1603 29.443 60.0474C28.522 61.023 27.4089 61.7972 26.1738 62.3213C24.9388 62.8454 23.6085 63.1079 22.267 63.0924ZM22.1452 44.6092C19.8816 44.68 17.7327 45.6217 16.1465 47.2381C15.3297 48.0406 14.6809 48.9979 14.2383 50.054C13.7956 51.1101 13.5679 52.2438 13.5684 53.389C13.5711 55.6926 14.4853 57.9015 16.1113 59.5333C17.7373 61.165 19.9431 62.0869 22.2467 62.0977C23.4447 62.1082 24.632 61.8711 25.7341 61.4012C26.8362 60.9314 27.8293 60.239 28.6513 59.3673C29.4203 58.5817 30.0234 57.6493 30.4245 56.6257C30.8255 55.6021 31.0164 54.5082 30.9858 53.4093C30.9953 52.251 30.7741 51.1024 30.3352 50.0305C29.8963 48.9585 29.2485 47.9846 28.4294 47.1656C27.6104 46.3465 26.6365 45.6987 25.5646 45.2598C24.4926 44.8209 23.344 44.5998 22.1858 44.6092H22.1452Z" fill="#231F20"/>
<path class="logoBlinking" d="M74.4177 80.1952C72.9155 80.1952 71.3727 80.1242 69.9009 80.1952C68.8354 80.3509 67.7513 80.0833 66.8806 79.4497C66.0098 78.8161 65.4217 77.8669 65.2421 76.8051C64.2677 73.3227 62.5346 70.099 60.1671 67.3656C56.8249 63.2854 55.2274 58.0514 55.7214 52.8004C56.7364 41.9297 65.4451 35.3424 76.6101 36.4284C93.0835 38.0118 97.7728 55.074 89.1555 66.8784C86.8311 70.0757 84.5981 73.1917 83.6136 77.0893C83.0655 79.2614 81.4516 80.2358 79.1882 80.1343C77.5845 80.1343 76.0011 80.1952 74.4177 80.1952Z" fill="#FFBB00"/>
<path d="M69.5456 80.7229C68.4207 80.7872 67.3113 80.436 66.4281 79.7362C65.545 79.0364 64.9495 78.0367 64.7548 76.9268C63.776 73.5217 62.0686 70.3701 59.7509 67.6903C56.3285 63.494 54.6918 58.121 55.1935 52.7292C55.3594 50.2963 56.0107 47.9212 57.1089 45.744C58.2071 43.5667 59.7301 41.6313 61.5881 40.0519C63.6988 38.4006 66.1157 37.1836 68.6992 36.4711C71.2827 35.7586 73.9817 35.5647 76.6405 35.9005C83.8673 36.6009 89.5614 40.4173 92.241 46.3753C95.1744 52.8916 94.1391 60.8695 89.5411 67.193C87.3487 70.238 85.0751 73.3439 84.0804 77.2415C83.4917 79.5557 81.7358 80.7635 79.1475 80.6824C78.0818 80.6824 76.9957 80.6824 75.93 80.6824H74.4177H73.0271C72.0121 80.6824 70.9463 80.6824 69.9212 80.6824L69.5456 80.7229ZM74.2654 36.8242C69.9049 36.7308 65.6494 38.1672 62.2377 40.8842C60.4796 42.3753 59.0398 44.2052 58.004 46.2646C56.9681 48.324 56.3575 50.5709 56.2085 52.8713C55.9632 55.4092 56.2206 57.9705 56.966 60.4088C57.7114 62.8471 58.9302 65.1145 60.5527 67.0813C62.9614 69.8768 64.7315 73.164 65.7394 76.7137C65.81 77.1852 65.973 77.6381 66.219 78.0465C66.465 78.4549 66.7892 78.8107 67.173 79.0935C67.5567 79.3764 67.9925 79.5808 68.4554 79.6949C68.9183 79.8091 69.3992 79.8307 69.8704 79.7587C70.8854 79.7587 72.002 79.7587 73.0373 79.7587H74.4177H75.93C76.9957 79.7587 78.0919 79.7587 79.1881 79.7587C81.3095 79.8399 82.629 78.9365 83.0959 77.0791C84.1109 73.0191 86.4657 69.7914 88.719 66.6957C93.1038 60.6666 94.0985 53.0743 91.3174 46.8828C88.7494 41.1785 83.5019 37.6768 76.539 36.9967C75.7777 36.8648 75.0165 36.8242 74.2654 36.8242Z" fill="#231F20"/>
<path d="M80.467 80.2155H68.2972C67.2041 80.2155 66.3179 81.1016 66.3179 82.1947V82.8139C66.3179 83.907 67.2041 84.7931 68.2972 84.7931H80.467C81.5601 84.7931 82.4463 83.907 82.4463 82.8139V82.1947C82.4463 81.1016 81.5601 80.2155 80.467 80.2155Z" fill="white"/>
<path d="M80.4772 85.3006H68.2972C67.6394 85.3006 67.0084 85.04 66.5424 84.5758C66.0763 84.1117 65.8131 83.4817 65.8104 82.824V82.1642C65.8131 81.5065 66.0763 80.8765 66.5424 80.4124C67.0084 79.9482 67.6394 79.6876 68.2972 79.6876H80.4772C81.135 79.6876 81.7659 79.9482 82.232 80.4124C82.6981 80.8765 82.9612 81.5065 82.9639 82.1642V82.8037C82.9653 83.1311 82.9019 83.4556 82.7776 83.7584C82.6532 84.0613 82.4702 84.3366 82.2392 84.5686C82.0081 84.8006 81.7335 84.9847 81.4312 85.1103C81.1288 85.2359 80.8046 85.3006 80.4772 85.3006ZM68.2972 80.7229C67.9086 80.7229 67.5358 80.8766 67.2601 81.1504C66.9844 81.4242 66.8281 81.796 66.8254 82.1845V82.824C66.8254 83.0168 66.8636 83.2077 66.9376 83.3857C67.0117 83.5637 67.1203 83.7252 67.2571 83.8611C67.3939 83.9969 67.5562 84.1044 67.7347 84.1772C67.9132 84.2501 68.1044 84.2869 68.2972 84.2856H80.4772C80.67 84.2869 80.8611 84.2501 81.0396 84.1772C81.2181 84.1044 81.3805 83.9969 81.5173 83.8611C81.6541 83.7252 81.7626 83.5637 81.8367 83.3857C81.9108 83.2077 81.9489 83.0168 81.9489 82.824V82.1642C81.9463 81.7757 81.79 81.4039 81.5143 81.1301C81.2386 80.8563 80.8658 80.7026 80.4772 80.7026L68.2972 80.7229Z" fill="#231F20"/>
<path d="M80.467 84.7931H68.2972C67.2041 84.7931 66.3179 85.6792 66.3179 86.7723V87.3915C66.3179 88.4846 67.2041 89.3707 68.2972 89.3707H80.467C81.5601 89.3707 82.4463 88.4846 82.4463 87.3915V86.7723C82.4463 85.6792 81.5601 84.7931 80.467 84.7931Z" fill="white"/>
<path d="M80.4772 89.8884H68.2972C67.6377 89.8884 67.0051 89.6265 66.5388 89.1601C66.0724 88.6937 65.8104 88.0612 65.8104 87.4017V86.7724C65.8104 86.1129 66.0724 85.4804 66.5388 85.014C67.0051 84.5476 67.6377 84.2856 68.2972 84.2856H80.4772C81.1367 84.2856 81.7692 84.5476 82.2356 85.014C82.7019 85.4804 82.9639 86.1129 82.9639 86.7724V87.4017C82.9639 88.0612 82.7019 88.6937 82.2356 89.1601C81.7692 89.6265 81.1367 89.8884 80.4772 89.8884ZM68.2972 85.3006C67.9069 85.3006 67.5325 85.4557 67.2565 85.7317C66.9805 86.0077 66.8254 86.3821 66.8254 86.7724V87.4017C66.8254 87.792 66.9805 88.1664 67.2565 88.4424C67.5325 88.7184 67.9069 88.8734 68.2972 88.8734H80.4772C80.8675 88.8734 81.2419 88.7184 81.5179 88.4424C81.7939 88.1664 81.9489 87.792 81.9489 87.4017V86.7724C81.9489 86.3821 81.7939 86.0077 81.5179 85.7317C81.2419 85.4557 80.8675 85.3006 80.4772 85.3006H68.2972Z" fill="#231F20"/>
<path d="M80.6396 89.3809C80.6396 91.1064 77.8382 92.5071 74.3872 92.5071C70.9362 92.5071 68.1348 91.1064 68.1348 89.3809H80.6396Z" fill="white"/>
<path d="M74.3872 93.0146C70.5911 93.0146 67.6273 91.4211 67.6273 89.3809C67.6273 89.2463 67.6808 89.1172 67.776 89.0221C67.8711 88.9269 68.0002 88.8734 68.1348 88.8734H80.6396C80.7742 88.8734 80.9033 88.9269 80.9985 89.0221C81.0937 89.1172 81.1471 89.2463 81.1471 89.3809C81.1471 91.4211 78.1833 93.0146 74.3872 93.0146ZM68.7641 89.8884C69.3021 90.9643 71.4539 91.9996 74.3872 91.9996C77.3206 91.9996 79.4622 90.9846 80.0103 89.8884H68.7641Z" fill="#231F20"/>
<path d="M71.6365 78.3986C71.5698 78.3934 71.5047 78.3752 71.4451 78.3448C71.3855 78.3144 71.3324 78.2726 71.289 78.2216C71.2456 78.1707 71.2127 78.1117 71.1923 78.048C71.1718 77.9843 71.1641 77.9171 71.1696 77.8505V77.4039C71.5854 73.8259 71.6568 70.2162 71.3828 66.6246C69.1197 66.2749 66.9747 65.3834 65.1304 64.0262C63.9888 63.2396 63.0806 62.1596 62.5015 60.9C62.193 60.2347 62.0616 59.501 62.1203 58.7701C62.179 58.0391 62.4257 57.3358 62.8365 56.7283C63.1966 56.2991 63.6416 55.9491 64.1436 55.7002C64.6456 55.4514 65.1937 55.3092 65.7533 55.2825C66.3129 55.2558 66.872 55.3452 67.3954 55.5451C67.9188 55.745 68.3952 56.0511 68.7945 56.4441C70.272 58.414 71.2915 60.6887 71.7786 63.1025C72.0008 63.9648 72.1737 64.8392 72.2963 65.7212C73.9998 65.8911 75.72 65.7466 77.3713 65.2949V65.031V64.6453C77.7164 61.6815 78.1427 57.9869 80.2843 55.6423C80.6396 55.2464 81.9083 53.9878 83.2684 54.1299C83.604 54.1755 83.9227 54.3044 84.1957 54.5047C84.4687 54.705 84.6873 54.9705 84.8315 55.2769C85.2749 56.1387 85.5062 57.0938 85.5062 58.063C85.5062 59.0322 85.2749 59.9874 84.8315 60.8492C83.9541 62.5153 82.6149 63.8932 80.9745 64.8179C80.1135 65.3339 79.1977 65.7527 78.2442 66.0663C77.9378 69.9494 78.1048 73.8554 78.7415 77.6982C78.7592 77.8311 78.7246 77.9656 78.6451 78.0735C78.5656 78.1814 78.4474 78.2543 78.3152 78.2768C78.1824 78.2944 78.0478 78.2599 77.9399 78.1804C77.832 78.1008 77.7591 77.9826 77.7367 77.8505C77.1279 74.0559 76.9677 70.2028 77.2596 66.3708C75.664 66.764 74.0144 66.8909 72.3775 66.7464C72.63 70.3221 72.5518 73.9135 72.144 77.4749V77.9317C72.1338 78.0591 72.0758 78.178 71.9818 78.2645C71.8877 78.3511 71.7644 78.399 71.6365 78.3986ZM65.9627 56.2919H65.8104C65.3976 56.292 64.99 56.383 64.6163 56.5584C64.2427 56.7338 63.9122 56.9893 63.6485 57.3069C63.3495 57.7761 63.1733 58.313 63.136 58.8681C63.0988 59.4232 63.2017 59.9788 63.4353 60.4838C63.9479 61.5737 64.7436 62.5061 65.7394 63.1837C67.3706 64.3846 69.2565 65.1938 71.2508 65.5487C71.129 64.8077 70.9869 64.0668 70.7941 63.336C70.3501 61.0756 69.4068 58.9429 68.0333 57.0937C67.757 56.8198 67.4264 56.607 67.0627 56.4688C66.6991 56.3307 66.3105 56.2704 65.9221 56.2919H65.9627ZM83.1365 55.1348C82.3369 55.2678 81.6142 55.6905 81.1065 56.3223C79.1881 58.4335 78.7821 61.9454 78.4573 64.7671V64.9498C79.1897 64.6821 79.8935 64.3421 80.5584 63.9348C82.0267 63.1134 83.2281 61.8873 84.0195 60.4026C84.3882 59.6851 84.5805 58.89 84.5805 58.0833C84.5805 57.2766 84.3882 56.4816 84.0195 55.7641C83.9549 55.6004 83.849 55.4564 83.7119 55.3461C83.5749 55.2357 83.4116 55.1629 83.238 55.1348H83.1365Z" fill="#231F20"/>
<path class="logoSlowRotate" d="M129.42 56.7892C122.813 56.7892 117.636 44.3251 117.636 28.3693C117.636 12.4135 122.813 0 129.42 0C136.028 0 141.205 12.4642 141.205 28.3693C141.205 44.2743 136.028 56.7892 129.42 56.7892ZM129.42 1.0556C123.483 1.0556 118.651 13.327 118.651 28.4099C118.651 43.4928 123.483 55.8148 129.42 55.8148C135.358 55.8148 140.19 43.5435 140.19 28.4099C140.19 13.2762 135.358 1.06575 129.42 1.06575V1.0556Z" fill="#FFBB00"/>
<path class="logoSlowRotate" d="M145.498 44.7107C144.92 44.7107 144.321 44.7107 143.691 44.6498C137.967 44.2844 131.085 42.295 124.315 39.047C117.545 35.799 111.699 31.6679 107.831 27.4252C103.964 23.1825 102.442 19.0515 103.843 16.1384C105.243 13.2254 109.252 11.8247 115.15 12.2002C120.874 12.5656 127.756 14.555 134.526 17.803C141.296 21.051 147.142 25.1821 151.01 29.3842C154.877 33.5863 156.389 37.758 154.988 40.671C153.74 43.31 150.401 44.7107 145.498 44.7107ZM113.373 13.1442C108.917 13.1442 105.822 14.3622 104.766 16.5749C103.568 19.0515 104.959 22.7562 108.583 26.7249C112.358 30.8762 118.103 34.9159 124.762 38.1132C131.42 41.3104 138.16 43.2592 143.762 43.6145C149.122 43.9596 152.897 42.7314 154.075 40.2447C155.252 37.7579 153.882 34.0633 150.258 30.0947C146.483 25.9433 140.738 21.9036 134.079 18.7064C127.421 15.5091 120.681 13.5603 115.079 13.2051C114.49 13.1645 113.921 13.1442 113.373 13.1442Z" fill="#FFBB00"/>
<path class="logoSlowRotate" d="M113.343 44.7108C108.44 44.7108 105.101 43.3101 103.842 40.7117C102.442 37.7986 103.842 33.7894 107.831 29.4249C111.82 25.0604 117.555 21.0511 124.315 17.8031C131.075 14.5551 137.967 12.5657 143.691 12.2003C149.578 11.8248 153.598 13.2153 154.998 16.1385C156.389 19.0516 154.999 23.0608 151.01 27.4253C147.021 31.7898 141.286 35.7991 134.567 39.0471C127.847 42.2951 120.874 44.2845 115.15 44.6093C114.52 44.6905 113.921 44.7108 113.343 44.7108ZM145.468 13.1443C144.92 13.1443 144.351 13.1646 143.762 13.2052C138.16 13.5604 131.41 15.5092 124.762 18.7065C118.113 21.9037 112.358 25.9434 108.583 30.0948C104.959 34.0736 103.568 37.7783 104.756 40.2448C105.944 42.7112 109.719 43.9597 115.079 43.6146C120.681 43.2593 127.431 41.3105 134.079 38.1133C140.728 34.916 146.483 30.8763 150.258 26.725C153.882 22.7462 155.273 19.0414 154.075 16.575C153.019 14.3724 149.923 13.1443 145.468 13.1443Z" fill="#FFBB00"/>
<path d="M129.42 34.5608C132.812 34.5608 135.561 31.8115 135.561 28.42C135.561 25.0286 132.812 22.2793 129.42 22.2793C126.029 22.2793 123.28 25.0286 123.28 28.42C123.28 31.8115 126.029 34.5608 129.42 34.5608Z" fill="#FFBB00"/>
<path class="logoBlinking" d="M42.6583 31.1808C42.5791 31.1792 42.5013 31.1595 42.4309 31.123C42.3606 31.0866 42.2995 31.0345 42.2524 30.9708C42.2053 30.9071 42.1735 30.8334 42.1594 30.7554C42.1453 30.6774 42.1493 30.5973 42.1711 30.5211L48.8396 8.36364C48.8702 8.26939 48.9261 8.18539 49.0014 8.12091C49.0766 8.05643 49.1681 8.01399 49.266 7.99824L52.514 7.62269C52.6117 7.60942 52.7111 7.62549 52.7997 7.66886C52.8882 7.71223 52.9619 7.78096 53.0113 7.86629L64.5925 27.8719C64.6324 27.9451 64.6534 28.0271 64.6534 28.1105C64.6534 28.1938 64.6324 28.2758 64.5925 28.349C64.5575 28.4243 64.5036 28.4891 64.436 28.5372C64.3683 28.5853 64.2893 28.6148 64.2067 28.623L59.9133 29.1407C59.8133 29.1536 59.7117 29.1351 59.6226 29.0879C59.5336 29.0406 59.4614 28.9668 59.416 28.8768L57.0408 24.5833L48.5859 25.5983L47.3375 30.3181C47.3084 30.415 47.2515 30.5012 47.174 30.5662C47.0964 30.6311 47.0015 30.6719 46.901 30.6835L42.7091 31.1808H42.6583ZM49.7633 8.97264L43.4094 30.0745L46.4544 29.7091L47.7029 24.9995C47.7271 24.9009 47.7809 24.812 47.8571 24.7449C47.9333 24.6777 48.0282 24.6355 48.1291 24.6239L57.2641 23.5379C57.3656 23.5243 57.4688 23.5423 57.5596 23.5896C57.6505 23.6368 57.7245 23.7109 57.7717 23.8018L60.1467 28.0851L63.3237 27.7095L52.3516 8.66814L49.7633 8.97264ZM49.0833 22.2793C49.0118 22.2798 48.9412 22.2646 48.8763 22.2348C48.8114 22.205 48.7538 22.1613 48.7077 22.1067C48.6535 22.0433 48.6151 21.9679 48.5957 21.8867C48.5763 21.8056 48.5764 21.7209 48.5961 21.6398L50.89 12.6774C50.9142 12.5788 50.968 12.4899 51.0442 12.4228C51.1204 12.3556 51.2153 12.3134 51.3162 12.3018C51.4179 12.2867 51.5217 12.3041 51.6128 12.3515C51.704 12.3989 51.7778 12.4739 51.8237 12.5657L56.0867 20.7568C56.1267 20.8299 56.1477 20.912 56.1477 20.9953C56.1477 21.0787 56.1267 21.1607 56.0867 21.2338C56.047 21.3045 55.9916 21.365 55.9247 21.4108C55.8578 21.4566 55.7813 21.4863 55.7011 21.4977L49.1442 22.2691L49.0833 22.2793ZM51.5396 14.1593L49.7633 21.1323L54.8383 20.5233L51.5396 14.1593Z" fill="#FA0085"/>
<path class="logoBlinking" d="M103.985 66.6956L104.624 66.8174C104.96 66.8796 105.299 66.9237 105.639 66.9494C105.96 66.9687 106.283 66.9344 106.593 66.8479C106.88 66.7544 107.138 66.5903 107.344 66.3708C107.581 66.0794 107.732 65.728 107.781 65.3558C107.837 65.1017 107.837 64.8383 107.781 64.584C107.725 64.3298 107.614 64.0909 107.456 63.8841C107.116 63.442 106.617 63.1505 106.065 63.0721C105.592 62.9796 105.101 63.04 104.665 63.2446C104.231 63.4723 103.877 63.8263 103.65 64.2596L101.173 63.0822C101.406 62.627 101.715 62.2151 102.087 61.8642C102.448 61.5295 102.867 61.2646 103.325 61.0827C103.793 60.9041 104.286 60.798 104.786 60.768C105.928 60.7083 107.067 60.9388 108.095 61.4379C108.602 61.6884 109.057 62.0328 109.435 62.4529C109.801 62.8506 110.071 63.3261 110.227 63.8435C110.395 64.4175 110.419 65.0239 110.298 65.6096C110.176 66.3537 109.821 67.0398 109.283 67.5685C108.734 68.0932 108.012 68.3999 107.253 68.4313C107.654 68.5481 108.027 68.7463 108.348 69.0135C108.67 69.2806 108.932 69.6111 109.12 69.9842C109.482 70.7532 109.582 71.6196 109.405 72.4507C109.307 73.0927 109.056 73.7018 108.674 74.2269C108.316 74.698 107.863 75.0887 107.344 75.3739C106.81 75.6536 106.228 75.8326 105.629 75.9017C104.993 75.9724 104.351 75.9519 103.721 75.8408C103.148 75.7361 102.59 75.5658 102.056 75.3333C101.568 75.1171 101.119 74.8222 100.726 74.4604C100.34 74.1045 100.026 73.6771 99.8028 73.2018C99.5543 72.672 99.4063 72.1007 99.3663 71.5169L102.117 71.3037C102.131 71.8631 102.323 72.4034 102.665 72.8465C103.043 73.2734 103.562 73.5506 104.127 73.6281C104.462 73.6956 104.807 73.6956 105.142 73.6281C105.447 73.5788 105.739 73.4721 106.004 73.3134C106.269 73.157 106.498 72.946 106.674 72.6943C106.861 72.4274 106.986 72.1223 107.04 71.8011C107.126 71.4015 107.095 70.9852 106.948 70.6034C106.812 70.2832 106.595 70.0036 106.319 69.7914C106.011 69.5667 105.668 69.3952 105.304 69.2839C104.94 69.1587 104.566 69.0603 104.188 68.9895L103.589 68.888L103.985 66.6956Z" fill="white"/>
<path class="logoBlinking" d="M104.888 76.4803C104.466 76.4779 104.045 76.4406 103.629 76.3687C103.019 76.2536 102.423 76.0697 101.853 75.8206C101.313 75.5872 100.815 75.2647 100.381 74.8665C99.9599 74.462 99.6159 73.9838 99.3664 73.4556C99.0928 72.8711 98.9278 72.2417 98.8792 71.5982C98.8728 71.5306 98.8803 71.4624 98.9012 71.3978C98.9222 71.3332 98.9561 71.2736 99.001 71.2226C99.0895 71.1228 99.2131 71.061 99.3461 71.0501L102.097 70.8268C102.233 70.8203 102.366 70.8636 102.472 70.9486C102.573 71.0408 102.634 71.1678 102.645 71.3038C102.66 71.7577 102.812 72.1965 103.081 72.5624C103.386 72.8936 103.801 73.1028 104.249 73.1511C104.507 73.1966 104.772 73.1966 105.03 73.1511C105.274 73.1093 105.508 73.0233 105.72 72.8974C105.918 72.7712 106.09 72.6094 106.228 72.4203C106.373 72.2144 106.47 71.9785 106.512 71.7301C106.578 71.4294 106.557 71.1159 106.451 70.8268C106.351 70.5838 106.186 70.3731 105.974 70.2178C105.725 70.0287 105.448 69.8813 105.152 69.7813C104.818 69.6733 104.48 69.5818 104.137 69.5073L103.538 69.4058C103.406 69.3811 103.29 69.3053 103.214 69.1951C103.138 69.0848 103.108 68.9489 103.132 68.8171L103.538 66.5942C103.563 66.4625 103.638 66.346 103.749 66.2699C103.859 66.1939 103.995 66.1645 104.127 66.1882L104.766 66.31C105.102 66.3712 105.441 66.4118 105.781 66.4318C106.041 66.4529 106.303 66.4253 106.553 66.3506C106.758 66.2937 106.941 66.1771 107.08 66.0157C107.256 65.801 107.365 65.5401 107.395 65.2646C107.439 65.0792 107.44 64.8863 107.4 64.7002C107.36 64.5141 107.278 64.3393 107.162 64.1887C107.032 64.0196 106.87 63.8778 106.686 63.7715C106.501 63.6652 106.297 63.5966 106.086 63.5695C105.714 63.4984 105.33 63.5482 104.989 63.7116C104.63 63.8868 104.335 64.171 104.147 64.5236C104.083 64.6344 103.979 64.7169 103.857 64.7546C103.735 64.7922 103.603 64.7822 103.487 64.7266L101.021 63.5594C100.958 63.5304 100.901 63.4882 100.856 63.4357C100.81 63.3832 100.777 63.3215 100.757 63.2549C100.727 63.1931 100.712 63.1255 100.712 63.0569C100.712 62.9884 100.727 62.9208 100.757 62.859C101.01 62.336 101.354 61.8618 101.772 61.4583C102.178 61.0801 102.654 60.7837 103.173 60.5854C103.689 60.3838 104.233 60.2639 104.786 60.2302C105.354 60.1934 105.923 60.2275 106.482 60.3317C107.13 60.4486 107.759 60.6571 108.349 60.9508C108.909 61.2306 109.415 61.6088 109.841 62.0673C110.258 62.5198 110.567 63.0613 110.745 63.6507C110.934 64.3111 110.962 65.0073 110.826 65.6807C110.678 66.5325 110.262 67.3148 109.638 67.9137C109.341 68.1995 108.998 68.4329 108.623 68.6039C109.054 68.915 109.402 69.3261 109.638 69.8016C110.047 70.6683 110.164 71.6438 109.973 72.5827C109.858 73.3149 109.573 74.0101 109.141 74.6127C108.741 75.1441 108.233 75.5837 107.649 75.9018C107.057 76.211 106.414 76.4104 105.751 76.4905C105.463 76.5049 105.175 76.5016 104.888 76.4803ZM99.9449 72.0143C100 72.3661 100.106 72.708 100.26 73.0293C100.456 73.4474 100.732 73.8232 101.072 74.1357C101.424 74.4615 101.829 74.7257 102.269 74.9172C102.763 75.1347 103.281 75.2914 103.812 75.3841C104.391 75.495 104.983 75.5155 105.568 75.445C106.108 75.3901 106.631 75.2316 107.111 74.9781C107.562 74.7231 107.956 74.3775 108.268 73.9631C108.601 73.4995 108.82 72.964 108.907 72.4C109.067 71.6756 108.982 70.9185 108.664 70.2482C108.5 69.9352 108.273 69.6597 107.997 69.4395C107.721 69.2193 107.402 69.0591 107.06 68.9693C106.945 68.928 106.848 68.8473 106.787 68.7414C106.725 68.6354 106.704 68.5112 106.725 68.3908C106.749 68.2763 106.808 68.172 106.893 68.0921C106.978 68.0121 107.086 67.9605 107.202 67.9442C107.848 67.9227 108.463 67.6623 108.928 67.2134C109.402 66.769 109.716 66.1802 109.821 65.5386C109.925 65.0338 109.904 64.511 109.76 64.0161C109.629 63.5666 109.396 63.1532 109.08 62.8083C108.74 62.4414 108.333 62.1418 107.882 61.9252C106.938 61.459 105.889 61.2457 104.837 61.3061C104.392 61.3309 103.953 61.4268 103.538 61.5903C103.133 61.7462 102.761 61.9769 102.442 62.2703C102.229 62.4727 102.038 62.6973 101.873 62.9402L103.447 63.6913C103.716 63.3366 104.063 63.0484 104.462 62.8489C104.996 62.5967 105.597 62.522 106.177 62.6357C106.859 62.7378 107.475 63.102 107.892 63.6507C108.089 63.9151 108.227 64.2186 108.297 64.5406C108.367 64.8627 108.368 65.1961 108.298 65.5183C108.237 65.9826 108.043 66.4195 107.74 66.7769C107.466 67.0717 107.114 67.2828 106.725 67.3859C106.361 67.4991 105.978 67.5405 105.598 67.5077C105.227 67.4888 104.857 67.4447 104.492 67.3758H104.35L104.127 68.5836H104.228C104.628 68.6552 105.021 68.757 105.406 68.8881C105.81 69.0224 106.191 69.2212 106.532 69.4768C106.913 69.7597 107.202 70.1479 107.365 70.5935C107.527 71.039 107.555 71.5224 107.446 71.9839C107.383 72.3674 107.237 72.7324 107.017 73.0533C106.798 73.3743 106.511 73.6432 106.177 73.8413C105.863 74.0257 105.52 74.1561 105.162 74.227C104.783 74.293 104.395 74.293 104.015 74.227C103.321 74.1194 102.691 73.7577 102.249 73.212C101.947 72.8313 101.745 72.3813 101.66 71.9027L99.9449 72.0143Z" fill="#FA0085"/>
<path class="logoBlinking" d="M112.714 74.3386L115.21 74.7954L112.48 79.8704L110.288 79.4644L112.714 74.3386Z" fill="white"/>
<path class="logoBlinking" d="M112.48 80.3981H112.389L110.196 79.9921C110.118 79.9816 110.044 79.9521 109.981 79.906C109.917 79.86 109.865 79.7989 109.831 79.7282C109.796 79.6589 109.778 79.5824 109.778 79.5049C109.778 79.4274 109.796 79.3509 109.831 79.2816L112.257 74.1356C112.303 74.0334 112.382 73.9497 112.481 73.8981C112.581 73.8465 112.695 73.8301 112.805 73.8514L115.302 74.3081C115.382 74.3206 115.457 74.3532 115.521 74.4029C115.585 74.4526 115.636 74.5178 115.667 74.5923C115.702 74.6634 115.72 74.7415 115.72 74.8207C115.72 74.8999 115.702 74.978 115.667 75.0491L112.927 80.1241C112.883 80.2053 112.819 80.2736 112.741 80.3218C112.662 80.3699 112.572 80.3963 112.48 80.3981ZM111.029 79.1192L112.206 79.3324L114.439 75.181L113.008 74.9171L111.029 79.1192Z" fill="#FA0085"/>
<path class="logoBlinking" d="M123.686 67.2031L120.499 69.2331L119.342 67.2539L124.417 64.4119L126.65 64.828L123.99 79.3324L121.534 78.8858L123.686 67.2031Z" fill="white"/>
<path class="logoBlinking" d="M124 79.84H123.909L121.453 79.3832C121.387 79.3722 121.323 79.3481 121.267 79.3125C121.21 79.2769 121.161 79.2303 121.122 79.1756C121.083 79.1209 121.056 79.059 121.041 78.9936C121.027 78.9282 121.025 78.8605 121.037 78.7945L122.975 68.2487L120.773 69.6494C120.715 69.6864 120.649 69.7109 120.581 69.7214C120.513 69.7319 120.443 69.7281 120.377 69.7103C120.309 69.6965 120.245 69.6686 120.189 69.6284C120.133 69.5882 120.087 69.5365 120.052 69.4768L118.936 67.5077C118.908 67.4471 118.894 67.3814 118.894 67.3149C118.894 67.2483 118.908 67.1826 118.936 67.122C118.951 67.0564 118.981 66.9951 119.023 66.9424C119.065 66.8898 119.119 66.8471 119.179 66.8175L124.254 63.9755C124.355 63.9156 124.474 63.894 124.589 63.9146L126.822 64.3206C126.953 64.3477 127.069 64.4235 127.146 64.5328C127.224 64.6421 127.256 64.7767 127.238 64.9093L124.569 79.4238C124.546 79.5394 124.484 79.6437 124.393 79.7194C124.303 79.7951 124.189 79.8376 124.071 79.84H124ZM122.133 78.4799L123.594 78.7437L126.071 65.2341L124.518 64.9093L120.062 67.4062L120.671 68.4212L123.412 66.6754C123.495 66.6232 123.592 66.5956 123.691 66.5956C123.79 66.5956 123.886 66.6232 123.97 66.6754C124.052 66.7313 124.116 66.8101 124.154 66.9022C124.192 66.9942 124.202 67.0954 124.183 67.1931L122.133 78.4799Z" fill="#FA0085"/>
<path class="logoBlinking" d="M135.582 78.4087L129.41 77.2821L129.857 74.8359L137.368 66.787L140.159 67.3046L138.444 76.6528L140.555 77.0385L140.149 79.2512L138.038 78.8655L137.5 81.8191L135.033 81.3624L135.582 78.4087ZM137.063 70.2887L132.354 75.4855L136.028 76.1554L137.063 70.2887Z" fill="white"/>
<path class="logoBlinking" d="M137.51 82.3267H137.419L134.952 81.8699C134.821 81.8453 134.704 81.7695 134.628 81.6593C134.552 81.549 134.523 81.4131 134.546 81.2812L134.993 78.8249L129.329 77.8099C129.263 77.7992 129.2 77.7747 129.144 77.7379C129.088 77.7012 129.041 77.6531 129.004 77.5968C128.964 77.5439 128.936 77.4828 128.922 77.418C128.908 77.3531 128.909 77.286 128.923 77.2212L129.37 74.7751C129.389 74.6796 129.434 74.5915 129.502 74.5213L137.013 66.4724C137.072 66.4139 137.144 66.3698 137.223 66.3434C137.303 66.317 137.387 66.3091 137.469 66.3201L140.261 66.8378C140.392 66.8625 140.509 66.9382 140.585 67.0485C140.661 67.1588 140.69 67.2947 140.667 67.4265L139.043 76.2773L140.657 76.5716C140.788 76.5963 140.905 76.6721 140.981 76.7823C141.057 76.8926 141.086 77.0285 141.063 77.1603L140.657 79.373C140.646 79.4391 140.621 79.5022 140.585 79.5581C140.548 79.6141 140.5 79.6617 140.443 79.6978C140.389 79.7356 140.328 79.7622 140.264 79.7762C140.199 79.7901 140.133 79.7911 140.068 79.779L138.454 79.4847L138.007 81.941C137.978 82.0717 137.903 82.1872 137.794 82.2658C137.707 82.3108 137.609 82.3319 137.51 82.3267ZM135.642 80.9564L137.104 81.2203L137.551 78.7742C137.575 78.6425 137.651 78.526 137.761 78.4499C137.872 78.3738 138.008 78.3445 138.139 78.3682L139.753 78.6625L139.977 77.4445L138.363 77.1502C138.297 77.1383 138.234 77.1133 138.179 77.0766C138.123 77.04 138.075 76.9925 138.038 76.937C138 76.883 137.973 76.8219 137.96 76.7574C137.946 76.693 137.945 76.6264 137.957 76.5615L139.581 67.7107L137.551 67.3453L130.344 75.0593L130.009 76.8558L135.683 77.8708C135.815 77.8955 135.931 77.9713 136.007 78.0815C136.083 78.1918 136.113 78.3277 136.089 78.4595L135.642 80.9564ZM135.998 76.7036H135.906L132.232 76.0743C132.144 76.0586 132.061 76.0191 131.993 75.9601C131.925 75.9011 131.874 75.8248 131.846 75.7393C131.817 75.6533 131.811 75.5611 131.829 75.472C131.847 75.3829 131.888 75.3001 131.948 75.2318L136.657 69.9843C136.715 69.9231 136.787 69.8771 136.867 69.8506C136.946 69.824 137.031 69.8176 137.114 69.832C137.255 69.8559 137.382 69.932 137.469 70.0452C137.547 70.158 137.583 70.2944 137.571 70.4309L136.495 76.2874C136.472 76.4031 136.41 76.5074 136.32 76.5831C136.229 76.6587 136.116 76.7013 135.998 76.7036ZM133.318 75.1912L135.592 75.6074L136.262 71.9331L133.318 75.1912Z" fill="#FA0085"/>
<path class="logoScaleObject" d="M49.3979 81.0071C48.5046 81.0071 47.6313 80.7422 46.8885 80.2459C46.1458 79.7496 45.5668 79.0442 45.225 78.2189C44.8831 77.3935 44.7937 76.4854 44.968 75.6092C45.1422 74.733 45.5724 73.9282 46.2041 73.2966C46.8358 72.6649 47.6406 72.2347 48.5167 72.0604C49.3929 71.8861 50.3011 71.9756 51.1264 72.3175C51.9517 72.6593 52.6571 73.2382 53.1535 73.981C53.6498 74.7238 53.9147 75.5971 53.9147 76.4904C53.912 77.6875 53.4352 78.8348 52.5888 79.6813C51.7423 80.5277 50.595 81.0045 49.3979 81.0071V81.0071ZM49.3979 72.9886C48.7053 72.9886 48.0283 73.194 47.4524 73.5788C46.8766 73.9636 46.4278 74.5105 46.1627 75.1503C45.8977 75.7902 45.8283 76.4943 45.9634 77.1735C46.0986 77.8528 46.4321 78.4768 46.9218 78.9665C47.4115 79.4562 48.0355 79.7897 48.7148 79.9249C49.394 80.06 50.0981 79.9906 50.738 79.7256C51.3778 79.4605 51.9247 79.0117 52.3095 78.4359C52.6943 77.86 52.8997 77.183 52.8997 76.4904C52.8864 75.5696 52.5119 74.6908 51.8569 74.0434C51.2019 73.396 50.3188 73.0318 49.3979 73.0292V72.9886Z" fill="#FFBB00"/>
<path class="logoSlowRotate" d="M13.0609 25.8927C12.9271 25.8901 12.7996 25.8358 12.7049 25.7412C12.6103 25.6466 12.556 25.519 12.5534 25.3852V19.2343C12.556 19.1005 12.6103 18.9729 12.7049 18.8783C12.7996 18.7837 12.9271 18.7294 13.0609 18.7268C13.1955 18.7268 13.3246 18.7803 13.4198 18.8754C13.5149 18.9706 13.5684 19.0997 13.5684 19.2343V25.436C13.5558 25.5616 13.4968 25.678 13.403 25.7624C13.3091 25.8469 13.1872 25.8933 13.0609 25.8927Z" fill="#FA0085"/>
<path class="logoSlowRotate" d="M16.1668 22.7867H9.96514C9.83054 22.7867 9.70145 22.7333 9.60628 22.6381C9.5111 22.5429 9.45764 22.4138 9.45764 22.2792C9.45764 22.1446 9.5111 22.0155 9.60628 21.9204C9.70145 21.8252 9.83054 21.7717 9.96514 21.7717H16.1668C16.3006 21.7743 16.4281 21.8286 16.5228 21.9232C16.6174 22.0179 16.6717 22.1454 16.6743 22.2792C16.6743 22.4138 16.6208 22.5429 16.5256 22.6381C16.4305 22.7333 16.3014 22.7867 16.1668 22.7867Z" fill="#FA0085"/>
<path class="logoSlowRotate" d="M100.605 53.2266C100.534 53.2405 100.462 53.2405 100.391 53.2266C100.331 53.1993 100.276 53.1602 100.231 53.1115C100.186 53.0628 100.151 53.0055 100.128 52.9431C100.106 52.8806 100.096 52.8143 100.099 52.7479C100.102 52.6815 100.119 52.6165 100.148 52.5567L102.3 47.9283C102.322 47.8603 102.359 47.7978 102.407 47.745C102.456 47.6922 102.515 47.6502 102.58 47.6218C102.646 47.5934 102.717 47.5793 102.789 47.5804C102.861 47.5814 102.931 47.5976 102.996 47.6279C103.061 47.6582 103.119 47.7019 103.166 47.7562C103.212 47.8104 103.247 47.8739 103.268 47.9425C103.288 48.0112 103.294 48.0834 103.285 48.1544C103.275 48.2254 103.251 48.2937 103.213 48.3546L101.072 52.9323C101.028 53.0196 100.962 53.0934 100.88 53.1453C100.797 53.1973 100.702 53.2254 100.605 53.2266Z" fill="#00E1FF"/>
<path class="logoSlowRotate" d="M103.995 51.9882C103.924 52.0022 103.852 52.0022 103.782 51.9882L99.1532 49.8364C99.0474 49.7711 98.9693 49.6691 98.9337 49.55C98.8981 49.4309 98.9075 49.3028 98.9601 49.1901C99.0127 49.0774 99.1048 48.988 99.219 48.9387C99.3332 48.8895 99.4614 48.8839 99.5795 48.9229L104.208 51.0646C104.269 51.0929 104.324 51.133 104.369 51.1827C104.414 51.2323 104.449 51.2904 104.472 51.3537C104.494 51.417 104.504 51.4841 104.501 51.5512C104.497 51.6183 104.481 51.6841 104.451 51.7446C104.405 51.8233 104.338 51.8876 104.257 51.9305C104.177 51.9735 104.086 51.9935 103.995 51.9882Z" fill="#00E1FF"/>
<path class="logoScaleObject" d="M52.3617 40.8436C53.0288 40.8436 53.5696 40.3028 53.5696 39.6357C53.5696 38.9686 53.0288 38.4279 52.3617 38.4279C51.6946 38.4279 51.1539 38.9686 51.1539 39.6357C51.1539 40.3028 51.6946 40.8436 52.3617 40.8436Z" fill="#FA0085"/>
<path class="logoScaleObject" d="M33.4928 15.2454C30.8741 15.2454 30.8741 19.3054 33.4928 19.3054C36.1115 19.3054 36.1115 15.2454 33.4928 15.2454Z" fill="#FA0085"/>
<path class="logoScaleObject" d="M37.8675 88.3658C37.5983 88.3658 37.3401 88.4728 37.1498 88.6631C36.9594 88.8535 36.8525 89.1116 36.8525 89.3808C36.8525 89.65 36.9594 89.9082 37.1498 90.0986C37.3401 90.2889 37.5983 90.3958 37.8675 90.3958C38.1367 90.3958 38.3948 90.2889 38.5852 90.0986C38.7755 89.9082 38.8825 89.65 38.8825 89.3808C38.8825 89.1116 38.7755 88.8535 38.5852 88.6631C38.3948 88.4728 38.1367 88.3658 37.8675 88.3658Z" fill="#00E1FF"/>
<path class="logoScaleObject" d="M98.3209 82.824C95.7123 82.824 95.7123 86.884 98.3209 86.884C100.929 86.884 100.94 82.824 98.3209 82.824Z" fill="#FA0085"/>
<path class="logoSlowRotate" d="M81.3342 16.5996L73.4384 19.0664L75.9052 26.9623L83.8011 24.4954L81.3342 16.5996Z" fill="#00E1FF"/>
<path class="logoFastRotate" d="M131.212 87.1978L124.505 84.8215L122.129 91.5282L128.835 93.9044L131.212 87.1978Z" fill="#00E1FF"/>
<path class="logoScaleObject" d="M86.9123 5.65351C86.6252 5.65351 86.3446 5.56838 86.1059 5.4089C85.8672 5.24941 85.6812 5.02272 85.5713 4.75751C85.4614 4.49229 85.4327 4.20045 85.4887 3.9189C85.5447 3.63734 85.6829 3.37872 85.8859 3.17573C86.0889 2.97274 86.3476 2.8345 86.6291 2.7785C86.9107 2.7225 87.2025 2.75124 87.4677 2.8611C87.7329 2.97095 87.9596 3.15699 88.1191 3.39568C88.2786 3.63437 88.3637 3.91499 88.3637 4.20206C88.3637 4.58701 88.2108 4.95619 87.9386 5.22839C87.6664 5.50059 87.2972 5.65351 86.9123 5.65351ZM86.9123 3.76561C86.8259 3.76561 86.7416 3.79121 86.6698 3.83917C86.598 3.88712 86.5421 3.95529 86.509 4.03504C86.476 4.11479 86.4674 4.20255 86.4842 4.28721C86.501 4.37187 86.5426 4.44964 86.6036 4.51068C86.6647 4.57172 86.7425 4.61328 86.8271 4.63012C86.9118 4.64697 86.9995 4.63832 87.0793 4.60529C87.159 4.57225 87.2272 4.51631 87.2752 4.44454C87.3231 4.37277 87.3487 4.28838 87.3487 4.20206C87.3487 4.08631 87.3027 3.97529 87.2209 3.89344C87.139 3.81159 87.028 3.76561 86.9123 3.76561Z" fill="#FA0085"/>
</svg>