<svg viewBox="0 0 886 655" fill="none" xmlns="http://www.w3.org/2000/svg">
    <g clip-path="url(#clip0_304_297-815611)">
        <path
            d="M377.697 443.685C377.697 443.685 495.36 429.565 536.542 407.209C577.724 384.854 883.647 374.264 883.647 443.685C883.647 513.106 531.835 543.698 531.835 543.698L347.105 533.109L377.697 443.685Z"
            fill="#FBBEBE" />
        <path opacity="0.1"
            d="M377.697 443.685C377.697 443.685 495.36 429.565 536.542 407.209C577.724 384.854 883.647 374.264 883.647 443.685C883.647 513.106 531.835 543.698 531.835 543.698L347.105 533.109L377.697 443.685Z"
            fill="black" />
        <path
            d="M411.819 430.742L387.11 502.516L0 507.223V401.326C0 401.326 148.255 367.204 265.918 440.155C265.918 440.155 404.76 423.682 411.819 430.742Z"
            fill="#FFBB00" />
        <path opacity="0.1"
            d="M411.819 430.387L387.11 502.161L0 506.868V400.971C0 400.971 148.255 366.849 265.918 439.8C265.918 439.8 404.76 423.327 411.819 430.387Z"
            fill="black" />
        <path
            d="M854.404 400.738C854.404 404.748 845.411 407.725 844.527 411.594C843.65 415.431 848.993 421.265 847.302 424.929C845.555 428.676 843.49 432.267 841.131 435.662C838.916 438.834 832.074 438.37 829.268 441.345C826.522 444.046 823.612 446.576 820.556 448.921C817.579 451.396 813.546 451.916 810.161 454.195C806.943 456.362 807.332 464.311 803.772 466.284C800.37 468.169 795.162 466.653 791.471 468.348C787.929 469.974 786.061 475.858 782.274 477.297C778.622 478.685 774.101 478.088 770.24 479.29C766.503 480.453 762.322 480.264 758.406 481.243C754.604 482.194 751.7 487.894 747.744 488.663C743.89 489.412 739.373 487.415 735.388 487.982C731.497 488.536 726.971 483.61 722.967 483.983C719.049 484.348 715.356 486.628 711.344 486.812C707.409 486.993 703.519 488.726 699.505 488.726C695.491 488.726 691.35 492.491 687.415 492.31C683.403 492.126 679.77 486.419 675.851 486.054C671.848 485.681 667.072 491.643 663.18 491.089C659.195 490.522 656.039 484.687 652.185 483.938C648.228 483.169 643.118 487.34 639.315 486.388C635.398 485.409 633.074 478.621 629.336 477.457C625.475 476.255 620.689 477.883 617.037 476.496C613.249 475.056 608.636 475.288 605.093 473.66C601.402 471.965 598.753 467.955 595.351 466.069C591.791 464.096 590.149 459.202 586.931 457.035C583.545 454.755 578.388 455.046 575.411 452.57C572.268 449.956 566.379 449.82 563.727 447.008C560.921 444.033 559.786 439.039 557.571 435.867C555.239 432.527 559.817 425.464 558.188 421.934C556.498 418.27 549.433 416.781 548.556 412.945C547.652 408.939 547.188 404.845 547.172 400.738C547.172 396.728 553.215 393.663 554.099 389.794C554.976 385.957 550.528 380.447 552.219 376.782C553.848 373.251 553.64 367.824 555.973 364.483C558.188 361.311 563.716 360.068 566.521 357.094C569.173 354.282 573.921 353.498 577.063 350.884C580.04 348.408 579.661 340.942 583.046 338.663C586.265 336.496 590.758 335.508 594.319 333.535C597.721 331.649 602.535 331.967 606.226 330.272C609.768 328.645 615.316 331.85 619.103 330.412C622.756 329.024 625.718 325.991 629.579 324.789C633.316 323.626 635.072 314.754 638.988 313.775C642.79 312.824 647.469 314.402 651.425 313.634C655.279 312.885 660.464 319.885 664.449 319.317C668.341 318.764 671.252 309.42 675.255 309.047C679.174 308.682 683.592 313.522 687.605 313.337C691.539 313.157 695.49 315.992 699.505 315.992C703.518 315.992 707.517 312.101 711.451 312.281C715.463 312.465 719.002 317.608 722.92 317.973C726.924 318.346 731.839 310.523 735.731 311.077C739.716 311.644 742.795 317.691 746.649 318.44C750.606 319.209 755.561 315.454 759.365 316.406C763.281 317.385 765.637 323.812 769.375 324.976C773.236 326.178 775.615 330.712 779.267 332.1C783.054 333.539 790.09 326.806 793.633 328.433C797.323 330.128 800.511 333.061 803.913 334.947C807.473 336.92 813.133 335.928 816.352 338.095C819.737 340.374 820.569 346.492 823.546 348.968C826.689 351.582 831.873 352.369 834.526 355.182C837.331 358.156 837.721 363.486 839.936 366.658C842.268 369.998 842.195 374.626 843.824 378.157C845.514 381.821 850.026 384.592 850.902 388.428C851.786 392.295 854.404 396.729 854.404 400.738Z"
            fill="#3F3D56" />
        <path
            d="M430.645 474.277C430.645 474.277 563.604 406.033 649.498 431.919C735.392 457.804 855.408 413.093 869.527 428.389C883.647 443.685 903.649 608.413 734.215 617.826C564.781 627.239 420.056 589.587 420.056 589.587L430.645 474.277Z"
            fill="#FBBEBE" />
        <path
            d="M645.24 114.179C640.224 114.463 635.386 116.137 631.269 119.016C627.152 121.895 623.919 125.863 621.931 130.477C616.102 144.565 623.607 161.115 634.872 171.388C646.138 181.662 660.609 187.534 673.758 195.253C691.419 205.621 707.288 220.013 716.125 238.487C724.961 256.961 725.901 279.845 715.514 297.495C705.873 313.876 688.343 323.68 671.623 332.722"
            stroke="#3F3D56" stroke-miterlimit="10" />
        <path
            d="M692.304 28.2856C687.289 28.569 682.451 30.2438 678.334 33.1224C674.217 36.001 670.984 39.9695 668.996 44.5831C663.167 58.6718 670.672 75.2211 681.937 85.4947C693.203 95.7683 707.674 101.641 720.823 109.359C738.483 119.727 754.353 134.119 763.19 152.593C772.026 171.068 772.966 193.952 762.579 211.601C752.938 227.982 735.408 237.787 718.688 246.829"
            stroke="#3F3D56" stroke-miterlimit="10" />
        <path
            d="M847.051 48.0404C842.911 45.194 838.061 43.5569 833.043 43.3127C828.025 43.0686 823.039 44.2269 818.643 46.658C805.409 54.2302 801.212 71.9102 803.831 86.9303C806.45 101.95 814.298 115.453 819.969 129.605C827.587 148.615 831.325 169.71 827.003 189.727C822.681 209.745 809.415 228.415 790.397 236.012C772.745 243.063 752.882 240.084 734.126 236.999"
            stroke="#3F3D56" stroke-miterlimit="10" />
        <g class="naturehubLeaves">
            <path
                d="M710.682 225.606C726.278 225.606 738.921 219.465 738.921 211.889C738.921 204.314 726.278 198.173 710.682 198.173C695.086 198.173 682.443 204.314 682.443 211.889C682.443 219.465 695.086 225.606 710.682 225.606Z"
                fill="#32CD32" />
            <path
                d="M707.153 223.252C722.749 223.252 735.392 217.111 735.392 209.536C735.392 201.961 722.749 195.82 707.153 195.82C691.557 195.82 678.914 201.961 678.914 209.536C678.914 217.111 691.557 223.252 707.153 223.252Z"
                stroke="#3F3D56" stroke-miterlimit="10" />
        </g>
        <g class="naturehubLeaves">
            <path
                d="M771.867 213.839C787.463 213.839 800.106 207.699 800.106 200.123C800.106 192.548 787.463 186.407 771.867 186.407C756.271 186.407 743.628 192.548 743.628 200.123C743.628 207.699 756.271 213.839 771.867 213.839Z"
                fill="#32CD32" />
            <path
                d="M768.337 211.486C783.933 211.486 796.576 205.345 796.576 197.77C796.576 190.195 783.933 184.054 768.337 184.054C752.741 184.054 740.098 190.195 740.098 197.77C740.098 205.345 752.741 211.486 768.337 211.486Z"
                stroke="#3F3D56" stroke-miterlimit="10" />
        </g>
        <g class="naturehubLeaves">
            <path
                d="M781.28 265.611C796.876 265.611 809.519 259.47 809.519 251.895C809.519 244.32 796.876 238.179 781.28 238.179C765.684 238.179 753.041 244.32 753.041 251.895C753.041 259.47 765.684 265.611 781.28 265.611Z"
                fill="#32CD32" />
            <path
                d="M777.75 263.257C793.346 263.257 805.989 257.117 805.989 249.541C805.989 241.966 793.346 235.825 777.75 235.825C762.154 235.825 749.511 241.966 749.511 249.541C749.511 257.117 762.154 263.257 777.75 263.257Z"
                stroke="#3F3D56" stroke-miterlimit="10" />
        </g>
        <g class="naturehubLeaves">
            <path
                d="M775.397 136.182C790.993 136.182 803.636 130.041 803.636 122.466C803.636 114.89 790.993 108.75 775.397 108.75C759.801 108.75 747.158 114.89 747.158 122.466C747.158 130.041 759.801 136.182 775.397 136.182Z"
                fill="#32CD32" />
            <path
                d="M771.867 133.829C787.463 133.829 800.106 127.688 800.106 120.113C800.106 112.537 787.463 106.396 771.867 106.396C756.271 106.396 743.628 112.537 743.628 120.113C743.628 127.688 756.271 133.829 771.867 133.829Z"
                stroke="#3F3D56" stroke-miterlimit="10" />
        </g>
        <g class="naturehubLeaves">
            <path
                d="M704.8 127.945C720.396 127.945 733.039 121.804 733.039 114.229C733.039 106.654 720.396 100.513 704.8 100.513C689.204 100.513 676.561 106.654 676.561 114.229C676.561 121.804 689.204 127.945 704.8 127.945Z"
                fill="#32CD32" />
            <path
                d="M701.27 125.592C716.866 125.592 729.509 119.451 729.509 111.876C729.509 104.301 716.866 98.1602 701.27 98.1602C685.674 98.1602 673.031 104.301 673.031 111.876C673.031 119.451 685.674 125.592 701.27 125.592Z"
                stroke="#3F3D56" stroke-miterlimit="10" />
        </g>
        <g class="naturehubLeaves">
            <path
                d="M736.568 98.5299C752.164 98.5299 764.807 92.389 764.807 84.8138C764.807 77.2386 752.164 71.0977 736.568 71.0977C720.972 71.0977 708.329 77.2386 708.329 84.8138C708.329 92.389 720.972 98.5299 736.568 98.5299Z"
                fill="#32CD32" />
            <path
                d="M733.038 96.1764C748.634 96.1764 761.277 90.0354 761.277 82.4603C761.277 74.8851 748.634 68.7441 733.038 68.7441C717.442 68.7441 704.799 74.8851 704.799 82.4603C704.799 90.0354 717.442 96.1764 733.038 96.1764Z"
                stroke="#3F3D56" stroke-miterlimit="10" />
        </g>
        <g class="naturehubLeaves">
            <path
                d="M805.99 104.413C821.585 104.413 834.229 98.2723 834.229 90.6971C834.229 83.1219 821.585 76.981 805.99 76.981C790.394 76.981 777.75 83.1219 777.75 90.6971C777.75 98.2723 790.394 104.413 805.99 104.413Z"
                fill="#32CD32" />
            <path
                d="M802.46 102.06C818.056 102.06 830.699 95.9188 830.699 88.3436C830.699 80.7684 818.056 74.6274 802.46 74.6274C786.864 74.6274 774.221 80.7684 774.221 88.3436C774.221 95.9188 786.864 102.06 802.46 102.06Z"
                stroke="#3F3D56" stroke-miterlimit="10" />
        </g>
        <g class="naturehubLeaves">
            <path
                d="M857.761 143.242C873.357 143.242 886 137.101 886 129.526C886 121.95 873.357 115.81 857.761 115.81C842.165 115.81 829.522 121.95 829.522 129.526C829.522 137.101 842.165 143.242 857.761 143.242Z"
                fill="#32CD32" />
            <path
                d="M854.231 140.888C869.827 140.888 882.47 134.747 882.47 127.172C882.47 119.597 869.827 113.456 854.231 113.456C838.635 113.456 825.992 119.597 825.992 127.172C825.992 134.747 838.635 140.888 854.231 140.888Z"
                stroke="#3F3D56" stroke-miterlimit="10" />
        </g>
        <g class="naturehubLeaves">
            <path
                d="M675.384 74.9972C690.98 74.9972 703.623 68.8563 703.623 61.2811C703.623 53.7059 690.98 47.5649 675.384 47.5649C659.788 47.5649 647.145 53.7059 647.145 61.2811C647.145 68.8563 659.788 74.9972 675.384 74.9972Z"
                fill="#32CD32" />
            <path
                d="M671.854 72.6441C687.45 72.6441 700.093 66.5032 700.093 58.928C700.093 51.3528 687.45 45.2119 671.854 45.2119C656.258 45.2119 643.615 51.3528 643.615 58.928C643.615 66.5032 656.258 72.6441 671.854 72.6441Z"
                stroke="#3F3D56" stroke-miterlimit="10" />
        </g>
        <g class="naturehubLeaves">
            <path
                d="M693.033 30.2852C708.629 30.2852 721.272 24.1443 721.272 16.5691C721.272 8.99394 708.629 2.85303 693.033 2.85303C677.437 2.85303 664.794 8.99394 664.794 16.5691C664.794 24.1443 677.437 30.2852 693.033 30.2852Z"
                fill="#32CD32" />
            <path
                d="M689.503 27.9322C705.099 27.9322 717.742 21.7913 717.742 14.2161C717.742 6.64091 705.099 0.5 689.503 0.5C673.907 0.5 661.264 6.64091 661.264 14.2161C661.264 21.7913 673.907 27.9322 689.503 27.9322Z"
                stroke="#3F3D56" stroke-miterlimit="10" />
        </g>
        <g class="naturehubLeaves">
            <path
                d="M856.584 63.231C872.18 63.231 884.823 57.0901 884.823 49.5149C884.823 41.9397 872.18 35.7988 856.584 35.7988C840.988 35.7988 828.345 41.9397 828.345 49.5149C828.345 57.0901 840.988 63.231 856.584 63.231Z"
                fill="#32CD32" />
            <path
                d="M853.054 60.8775C868.65 60.8775 881.294 54.7366 881.294 47.1614C881.294 39.5862 868.65 33.4453 853.054 33.4453C837.458 33.4453 824.815 39.5862 824.815 47.1614C824.815 54.7366 837.458 60.8775 853.054 60.8775Z"
                stroke="#3F3D56" stroke-miterlimit="10" />
        </g>
        <g class="naturehubLeaves">
            <path
                d="M596.55 171.481C612.146 171.481 624.789 165.34 624.789 157.764C624.789 150.189 612.146 144.048 596.55 144.048C580.954 144.048 568.311 150.189 568.311 157.764C568.311 165.34 580.954 171.481 596.55 171.481Z"
                fill="#32CD32" />
            <path
                d="M593.02 169.128C608.616 169.128 621.259 162.987 621.259 155.411C621.259 147.836 608.616 141.695 593.02 141.695C577.424 141.695 564.781 147.836 564.781 155.411C564.781 162.987 577.424 169.128 593.02 169.128Z"
                stroke="#3F3D56" stroke-miterlimit="10" />
        </g>
        <g class="naturehubLeaves">
            <path
                d="M694.21 164.421C709.806 164.421 722.449 158.28 722.449 150.705C722.449 143.13 709.806 136.989 694.21 136.989C678.614 136.989 665.971 143.13 665.971 150.705C665.971 158.28 678.614 164.421 694.21 164.421Z"
                fill="#32CD32" />
            <path
                d="M690.68 162.067C706.276 162.067 718.919 155.927 718.919 148.351C718.919 140.776 706.276 134.635 690.68 134.635C675.084 134.635 662.441 140.776 662.441 148.351C662.441 155.927 675.084 162.067 690.68 162.067Z"
                stroke="#3F3D56" stroke-miterlimit="10" />
        </g>
        <g class="naturehubLeaves">
            <path
                d="M822.462 175.01C838.058 175.01 850.701 168.869 850.701 161.294C850.701 153.719 838.058 147.578 822.462 147.578C806.866 147.578 794.223 153.719 794.223 161.294C794.223 168.869 806.866 175.01 822.462 175.01Z"
                fill="#32CD32" />
            <path
                d="M818.932 173.657C834.528 173.657 847.171 167.516 847.171 159.941C847.171 152.366 834.528 146.225 818.932 146.225C803.336 146.225 790.693 152.366 790.693 159.941C790.693 167.516 803.336 173.657 818.932 173.657Z"
                stroke="#3F3D56" stroke-miterlimit="10" />
        </g>
        <g class="naturehubLeaves">
            <path
                d="M754.218 181.717C769.814 181.717 782.457 175.576 782.457 168.001C782.457 160.426 769.814 154.285 754.218 154.285C738.622 154.285 725.979 160.426 725.979 168.001C725.979 175.576 738.622 181.717 754.218 181.717Z"
                fill="#32CD32" />
            <path
                d="M750.688 177.364C766.284 177.364 778.927 171.223 778.927 163.648C778.927 156.073 766.284 149.932 750.688 149.932C735.092 149.932 722.449 156.073 722.449 163.648C722.449 171.223 735.092 177.364 750.688 177.364Z"
                stroke="#3F3D56" stroke-miterlimit="10" />
        </g>
        <g class="naturehubLeaves">
            <path
                d="M758.924 62.0543C774.52 62.0543 787.163 55.9134 787.163 48.3382C787.163 40.763 774.52 34.6221 758.924 34.6221C743.328 34.6221 730.685 40.763 730.685 48.3382C730.685 55.9134 743.328 62.0543 758.924 62.0543Z"
                fill="#32CD32" />
            <path
                d="M755.394 59.7013C770.99 59.7013 783.633 53.5604 783.633 45.9852C783.633 38.41 770.99 32.269 755.394 32.269C739.798 32.269 727.155 38.41 727.155 45.9852C727.155 53.5604 739.798 59.7013 755.394 59.7013Z"
                stroke="#3F3D56" stroke-miterlimit="10" />
        </g>
        <g class="naturehubLeaves">
            <path
                d="M637.732 135.005C653.328 135.005 665.971 128.865 665.971 121.289C665.971 113.714 653.328 107.573 637.732 107.573C622.136 107.573 609.493 113.714 609.493 121.289C609.493 128.865 622.136 135.005 637.732 135.005Z"
                fill="#32CD32" />
            <path
                d="M634.202 133.652C649.798 133.652 662.441 127.511 662.441 119.936C662.441 112.361 649.798 106.22 634.202 106.22C618.606 106.22 605.963 112.361 605.963 119.936C605.963 127.511 618.606 133.652 634.202 133.652Z"
                stroke="#3F3D56" stroke-miterlimit="10" />
        </g>
        <g class="naturehubLeaves">
            <path
                d="M654.204 187.954C669.8 187.954 682.443 181.813 682.443 174.238C682.443 166.662 669.8 160.521 654.204 160.521C638.608 160.521 625.965 166.662 625.965 174.238C625.965 181.813 638.608 187.954 654.204 187.954Z"
                fill="#32CD32" />
            <path
                d="M650.675 185.6C666.271 185.6 678.914 179.459 678.914 171.884C678.914 164.309 666.271 158.168 650.675 158.168C635.079 158.168 622.436 164.309 622.436 171.884C622.436 179.459 635.079 185.6 650.675 185.6Z"
                stroke="#3F3D56" stroke-miterlimit="10" />
        </g>
        <g opacity="0.3">
            <path opacity="0.3"
                d="M654.861 267.891C658.848 260.759 659.575 253.577 656.486 251.851C653.398 250.125 647.662 254.507 643.676 261.64C639.69 268.772 638.962 275.953 642.051 277.679C645.14 279.406 650.875 275.023 654.861 267.891Z"
                fill="#57B894" />
            <path opacity="0.3"
                d="M653 268.969C656.986 261.837 657.713 254.656 654.625 252.929C651.536 251.203 645.801 255.585 641.814 262.718C637.828 269.85 637.101 277.031 640.189 278.758C643.278 280.484 649.013 276.101 653 268.969Z"
                stroke="#3F3D56" stroke-miterlimit="10" />
        </g>
        <g opacity="0.3">
            <path opacity="0.3"
                d="M802.056 302.083C804.416 299.446 801.393 292.891 795.305 287.443C789.217 281.994 782.368 279.714 780.008 282.35C777.649 284.987 780.671 291.542 786.76 296.991C792.848 302.44 799.697 304.719 802.056 302.083Z"
                fill="#57B894" />
            <path opacity="0.3"
                d="M801.411 300.031C803.771 297.394 800.749 290.839 794.66 285.39C788.572 279.941 781.723 277.662 779.364 280.298C777.004 282.935 780.026 289.49 786.115 294.938C792.203 300.387 799.052 302.667 801.411 300.031Z"
                stroke="#3F3D56" stroke-miterlimit="10" />
        </g>
        <g opacity="0.3">
            <path opacity="0.3"
                d="M670.274 227.955C672.634 225.319 669.611 218.764 663.523 213.315C657.435 207.866 650.586 205.586 648.226 208.223C645.867 210.86 648.889 217.414 654.978 222.863C661.066 228.312 667.914 230.592 670.274 227.955Z"
                fill="#57B894" />
            <path opacity="0.3"
                d="M669.629 225.903C671.989 223.266 668.966 216.712 662.878 211.263C656.79 205.814 649.941 203.534 647.581 206.171C645.222 208.807 648.244 215.362 654.333 220.811C660.421 226.26 667.269 228.54 669.629 225.903Z"
                stroke="#3F3D56" stroke-miterlimit="10" />
        </g>
        <path
            d="M392.334 457.42C392.334 457.42 444.825 454.098 442.471 472.924C440.118 491.75 437.765 637.652 423.645 641.182C409.526 644.712 297.746 644.712 251.858 644.712H-7V419.137C-7 419.137 176.554 408.21 268.331 454.098C268.331 454.098 378.672 452.505 392.334 457.42Z"
            fill="#FFBB00" />
    </g>
    <defs>
        <clipPath id="clip0_304_297-815611">
            <rect width="886" height="654.301" fill="white" />
        </clipPath>
    </defs>
</svg>