<svg width="147" height="219" viewBox="0 0 147 219" fill="none" xmlns="http://www.w3.org/2000/svg">
<path d="M126.166 197.172L126.339 210.813L121.934 214.609L118.392 212.011L116.808 199.212L126.166 197.182V197.172ZM126.166 196.167C126.096 196.157 126.024 196.157 125.953 196.167L116.595 198.197C116.348 198.251 116.129 198.395 115.983 198.602C115.836 198.808 115.772 199.062 115.803 199.313L117.387 212.113C117.404 212.249 117.449 212.381 117.519 212.499C117.589 212.618 117.682 212.721 117.793 212.803L121.335 215.401C121.508 215.531 121.718 215.602 121.934 215.604C122.181 215.604 122.419 215.514 122.604 215.35L126.999 211.564C127.111 211.468 127.202 211.348 127.263 211.213C127.324 211.078 127.355 210.931 127.354 210.783L127.181 197.141C127.181 196.872 127.075 196.614 126.884 196.424C126.694 196.233 126.436 196.126 126.166 196.126V196.167Z" fill="#231F20"/>
<path d="M127.121 210.001C127.121 210.001 121.629 213.869 117.661 210.692C117.661 210.692 104.598 209.524 103.116 218.456H127.273L127.121 210.001Z" fill="#231F20"/>
<path d="M127.222 218.964H103.065C102.991 218.966 102.917 218.951 102.85 218.919C102.783 218.887 102.724 218.84 102.679 218.781C102.63 218.727 102.595 218.662 102.575 218.591C102.556 218.521 102.553 218.447 102.568 218.375C104.11 209.088 117.519 210.184 117.651 210.194C117.75 210.206 117.845 210.244 117.925 210.306C121.548 213.199 126.725 209.626 126.786 209.585C126.861 209.534 126.948 209.504 127.039 209.499C127.13 209.493 127.221 209.512 127.302 209.554C127.382 209.595 127.451 209.658 127.499 209.735C127.548 209.812 127.575 209.9 127.577 209.991L127.73 218.446C127.731 218.514 127.718 218.582 127.692 218.645C127.666 218.708 127.627 218.765 127.577 218.812C127.532 218.86 127.477 218.899 127.416 218.925C127.355 218.951 127.289 218.965 127.222 218.964ZM103.684 217.949H126.704L126.583 210.895C124.877 211.91 120.736 213.716 117.448 211.189C116.047 211.108 105.44 210.692 103.684 217.949Z" fill="#FA0085"/>
<path d="M81.2121 210.813L77.3551 214.61L73.8128 212.011L72.2294 199.212L82.6433 197.172L81.2121 210.813Z" fill="white"/>
<path d="M82.6432 197.172L81.2121 210.793L77.3551 214.589L73.8127 211.991L72.2293 199.192L82.6432 197.162V197.172ZM82.6432 196.147H82.4402L72.0365 198.177C71.7853 198.226 71.562 198.369 71.4114 198.576C71.2608 198.783 71.1941 199.039 71.2245 199.293L72.7977 212.092C72.8163 212.23 72.8628 212.362 72.9344 212.48C73.0059 212.599 73.1011 212.702 73.2139 212.783L76.7562 215.381C76.9291 215.511 77.1389 215.582 77.3551 215.584C77.6214 215.583 77.8765 215.477 78.0656 215.29L81.9226 211.504C82.0933 211.339 82.201 211.12 82.2271 210.884L83.6481 197.243C83.6643 197.085 83.6433 196.926 83.5869 196.778C83.5305 196.63 83.4402 196.497 83.3233 196.39C83.1387 196.217 82.8961 196.12 82.6432 196.116V196.147Z" fill="#231F20"/>
<path d="M122.796 125L128 205L114.264 204.901L95.5066 151.257L84.9882 204.695L69.7701 204.588L65 125.909L122.796 125Z" fill="#00E1FF"/>
<path d="M128.525 204L114.789 203.908C114.678 203.906 114.571 203.879 114.483 203.831C114.396 203.782 114.334 203.716 114.305 203.641L96.1529 152.241L85.9976 203.429C85.9785 203.513 85.9173 203.59 85.825 203.645C85.7327 203.701 85.6152 203.731 85.4934 203.732L70.2655 203.626C70.1369 203.625 70.0141 203.589 69.9223 203.526C69.8304 203.463 69.7764 203.378 69.7713 203.288L65.0013 125.267C64.9964 125.221 65.0056 125.175 65.0282 125.131C65.0508 125.087 65.0862 125.047 65.1323 125.014C65.1769 124.979 65.2312 124.951 65.292 124.932C65.3527 124.912 65.4185 124.902 65.4853 124.901L123.291 124C123.419 124.002 123.542 124.038 123.634 124.1C123.726 124.163 123.78 124.248 123.785 124.338L128.999 203.662C129.004 203.71 128.994 203.758 128.969 203.803C128.945 203.848 128.907 203.888 128.858 203.922C128.764 203.976 128.646 204.004 128.525 204V204ZM115.183 203.204L128 203.295L122.837 124.683L66.04 125.563L70.7798 202.901L85.0799 203L95.5377 150.312C95.5521 150.231 95.6077 150.155 95.6946 150.1C95.7815 150.044 95.894 150.012 96.0117 150.009C96.1286 150.005 96.2438 150.03 96.3377 150.079C96.4315 150.128 96.4981 150.198 96.526 150.277L115.183 203.204Z" fill="#231F20"/>
<path d="M90.1441 30.1453C98.2836 30.1453 104.882 23.5469 104.882 15.4075C104.882 7.26801 98.2836 0.669678 90.1441 0.669678C82.0047 0.669678 75.4063 7.26801 75.4063 15.4075C75.4063 23.5469 82.0047 30.1453 90.1441 30.1453Z" fill="#FA0085"/>
<path d="M90.1441 30.6731H89.9919C85.931 30.653 82.0438 29.023 79.183 26.1409C76.3222 23.2587 74.7213 19.3595 74.7314 15.2986C74.7414 11.2377 76.3617 7.3465 79.2368 4.47855C82.1119 1.6106 86.007 0 90.068 0C94.1289 0 98.0241 1.6106 100.899 4.47855C103.774 7.3465 105.394 11.2377 105.405 15.2986C105.415 19.3595 103.814 23.2587 100.953 26.1409C98.0921 29.023 94.205 30.653 90.1441 30.6731ZM90.1441 1.23811C88.278 1.22945 86.4285 1.58842 84.7012 2.29454C82.9738 3.00065 81.4024 4.04008 80.0768 5.35347C78.7512 6.66687 77.6972 8.2285 76.9751 9.94923C76.2529 11.6699 75.8768 13.5161 75.8681 15.3821C75.8595 17.2482 76.2184 19.0977 76.9245 20.8251C77.6307 22.5524 78.6701 24.1238 79.9835 25.4494C81.2969 26.7751 82.8585 27.8291 84.5792 28.5512C86.3 29.2733 88.1461 29.6494 90.0122 29.6581H90.1542C93.923 29.677 97.5448 28.1979 100.223 25.5463C102.901 22.8948 104.416 19.2879 104.435 15.5192C104.454 11.7504 102.975 8.12858 100.324 5.45036C97.672 2.77215 94.0651 1.25696 90.2964 1.23811H90.1441Z" fill="#231F20"/>
<path d="M109.428 20.8528C110.54 15.8053 102.689 9.78609 91.8935 7.40854C81.0978 5.031 71.445 7.19542 70.3334 12.2429C69.2218 17.2904 77.0723 23.3096 87.868 25.6871C98.6637 28.0647 108.317 25.9002 109.428 20.8528Z" fill="#231F20"/>
<path d="M96.4777 27.1815C93.5469 27.1547 90.6274 26.8144 87.769 26.1665C76.533 23.6899 68.6566 17.5187 69.8441 12.1189C71.0317 6.71914 80.7757 4.42524 92.0117 6.89169C103.248 9.35814 111.124 15.5496 109.926 20.9494C109.064 24.8978 103.674 27.1815 96.4777 27.1815ZM83.2827 6.94244C76.604 6.94244 71.5595 8.97244 70.8084 12.3524C69.7934 17.1229 77.4465 22.8881 87.9517 25.2023C98.457 27.5165 107.866 25.5169 108.911 20.7464C109.926 15.9861 102.273 10.2209 91.7681 7.90669C88.9928 7.28169 86.158 6.9584 83.3132 6.94244H83.2827Z" fill="#231F20"/>
<path d="M75.0511 15.8338C75.183 15.4583 75.3353 15.0827 75.4875 14.7173C77.2942 10.5761 84.3485 10.3224 88.1446 10.5863C91.7127 10.7219 95.1864 11.7703 98.2337 13.6313C100.619 15.2045 103.136 18.0567 103.39 21.0509C103.644 24.0452 102.537 27.8311 101.583 30.6021C101.094 32.2937 100.194 33.8383 98.9645 35.0985C97.6235 36.1836 96.0442 36.935 94.3564 37.2909C90.7836 38.2552 86.9367 38.7119 83.4045 37.5853C79.8723 36.4586 76.127 33.3121 75.0612 29.5262C73.6659 25.0692 73.6624 20.2928 75.0511 15.8338V15.8338Z" fill="white"/>
<path d="M87.9009 38.7932C86.3258 38.804 84.7582 38.5747 83.2522 38.1131C79.1922 36.8139 75.5788 33.3528 74.5537 29.6886C73.5285 26.0245 72.747 20.8581 74.5537 15.712C74.6856 15.3263 74.8379 14.9407 75.0003 14.5651C77.1013 9.72355 85.6172 9.9367 88.1953 10.1194C91.8517 10.2208 95.4192 11.2701 98.5483 13.1644C100.852 14.6869 103.623 17.6406 103.938 20.9698C104.141 23.3347 103.522 26.6233 102.091 30.7442C101.574 32.516 100.629 34.1334 99.34 35.4538C97.9291 36.601 96.2664 37.3975 94.4883 37.7782C92.3467 38.4046 90.1318 38.7459 87.9009 38.7932ZM75.5484 16.0571C73.833 20.9494 74.6044 26.0143 75.5484 29.4044C76.4923 32.7945 79.7809 35.9106 83.5567 37.1083C86.5002 38.0421 89.9918 37.9406 94.2041 36.8038C95.8088 36.4743 97.3162 35.7797 98.6092 34.7738C99.7717 33.571 100.619 32.0996 101.076 30.4905C102.456 26.5117 103.055 23.3855 102.862 21.1525C102.629 18.3815 100.213 15.6309 97.9393 14.1287C94.9675 12.3145 91.574 11.307 88.0938 11.2055C85.7085 11.0329 77.7915 10.8096 75.9645 15.0219C75.8123 15.3771 75.6702 15.7324 75.5382 16.0978L75.5484 16.0571Z" fill="#231F20"/>
<path d="M120.371 76.7947L129.354 66.3605C123.193 55.7436 116.757 49.6841 112.494 47.4714C106.963 43.6448 94.2244 44.4264 82.4301 45.076C78.6691 45.1737 74.9465 45.8586 71.3971 47.106C58.0701 52.0896 47.1385 72.9885 47.1385 72.9885L60.0088 79.1901C60.0088 79.1901 59.7347 120.216 62.3128 129.159C62.3128 129.159 99.1268 135.025 125.08 125.19C125.091 125.231 120.361 80.2965 120.371 76.7947Z" fill="#FFBB00"/>
<path d="M82.0546 39.6355L82.8564 48.6081C82.8564 48.6081 86.4292 53.6831 91.9305 51.3283C93.5487 50.631 94.9909 49.5812 96.1516 48.2554C97.3123 46.9296 98.1624 45.3613 98.6396 43.6651L95.9499 27.5469C95.9499 27.5469 91.3418 25.9736 91.088 16.5646C86.7404 19.336 81.7267 20.8856 76.5735 21.0509C76.5735 21.0509 75.5586 31.4546 77.01 35.7684C78.4615 40.0821 82.0546 39.6355 82.0546 39.6355Z" fill="white"/>
<path d="M89.0783 52.4652C85.0183 52.4652 82.4606 48.9533 82.4301 48.9127C82.3804 48.8363 82.3492 48.7495 82.3388 48.659L81.5775 40.1634C80.4204 40.1634 77.7002 39.5747 76.5025 35.9309C75.0714 31.5664 75.995 21.4265 76.0356 21.0002C76.0499 20.8734 76.1088 20.7558 76.2017 20.6685C76.2947 20.5811 76.4157 20.5296 76.5431 20.5232C81.585 20.3487 86.4896 18.8353 90.7531 16.1384C90.8342 16.0891 90.9272 16.063 91.0221 16.063C91.1169 16.063 91.21 16.0891 91.2911 16.1384C91.3763 16.1815 91.4484 16.2466 91.5001 16.3268C91.5519 16.4071 91.5813 16.4997 91.5854 16.5951C91.8188 25.4561 96.0514 27.0801 96.092 27.0902C96.1809 27.1202 96.26 27.1739 96.3208 27.2454C96.3816 27.3169 96.4218 27.4036 96.4371 27.4962L99.1269 43.6246C99.1418 43.6914 99.1418 43.7607 99.1269 43.8276C98.6369 45.6071 97.7518 47.2532 96.5374 48.6433C95.3231 50.0334 93.8108 51.1316 92.1132 51.8562C91.1518 52.2577 90.1203 52.4647 89.0783 52.4652V52.4652ZM83.374 48.4052C83.9221 49.1157 87.0686 52.8002 91.7173 50.8412C93.2428 50.1785 94.6048 49.19 95.7077 47.9451C96.8107 46.7002 97.6278 45.229 98.1017 43.6347L95.483 27.9022C94.468 27.3846 91.0576 25.1211 90.611 17.4883C86.4856 19.9181 81.8325 21.3113 77.0506 21.5483C76.8882 23.5783 76.3096 31.9521 77.5073 35.6061C78.7558 39.4428 81.8617 39.1383 81.9937 39.118C82.1351 39.1024 82.277 39.1424 82.3895 39.2296C82.4944 39.3252 82.5626 39.4545 82.5823 39.595L83.374 48.4052Z" fill="#231F20"/>
<path d="M92.5496 27.8108C92.6203 26.9945 92.9512 26.2224 93.4936 25.6082C94.0269 25.0623 94.6479 24.6094 95.3307 24.2684C95.6879 24.0468 96.0902 23.908 96.5081 23.8624C96.8039 23.8561 97.0977 23.9114 97.3709 24.0248C98.0354 24.2283 98.6068 24.6596 98.9847 25.2428C99.2236 25.7499 99.3384 26.3066 99.3197 26.8668C99.3506 27.4732 99.2994 28.0809 99.1674 28.6735C99.0205 29.2627 98.7584 29.817 98.3962 30.3044C98.0339 30.7917 97.5787 31.2025 97.0569 31.513C96.535 31.8234 95.9568 32.0275 95.3557 32.1133C94.7545 32.1991 94.1423 32.1649 93.5545 32.0129" fill="white"/>
<path d="M94.7014 32.7031C94.2666 32.7044 93.8333 32.6498 93.4124 32.5407C93.3462 32.5231 93.2841 32.4925 93.2298 32.4507C93.1756 32.4089 93.1301 32.3568 93.0961 32.2973C93.0621 32.2378 93.0403 32.1722 93.0318 32.1042C93.0234 32.0362 93.0285 31.9672 93.047 31.9012C93.0828 31.7671 93.1699 31.6525 93.2896 31.5822C93.4093 31.512 93.5519 31.4916 93.6864 31.5257C94.2057 31.6611 94.7466 31.6923 95.278 31.6174C95.8094 31.5425 96.3206 31.363 96.7822 31.0892C97.7324 30.5308 98.4223 29.6182 98.7005 28.5517C98.8182 28.0017 98.866 27.439 98.8426 26.877C98.8529 26.4024 98.7594 25.9313 98.5686 25.4966C98.2515 25.0147 97.7785 24.6564 97.2288 24.4816C97.02 24.3934 96.7956 24.3485 96.569 24.3496C96.2317 24.3956 95.909 24.517 95.6251 24.7049C94.9942 25.0103 94.4207 25.4224 93.93 25.9229C93.4595 26.45 93.1743 27.1166 93.118 27.8209C93.1027 27.9582 93.0351 28.0844 92.9293 28.1732C92.8234 28.262 92.6875 28.3067 92.5496 28.298C92.4816 28.2929 92.4152 28.2743 92.3543 28.2435C92.2935 28.2126 92.2393 28.17 92.195 28.1181C92.1507 28.0662 92.117 28.0061 92.096 27.9411C92.075 27.8762 92.067 27.8078 92.0726 27.7397C92.1477 26.8059 92.5254 25.9221 93.1485 25.2225C93.719 24.6303 94.3889 24.1425 95.1277 23.7812C95.5466 23.5136 96.0233 23.35 96.5183 23.3042C96.8822 23.3043 97.2431 23.3696 97.584 23.497C98.3713 23.7412 99.0449 24.2598 99.4821 24.9586C99.7601 25.5414 99.8991 26.1807 99.8881 26.8262C99.9162 27.4806 99.8582 28.1358 99.7155 28.775C99.4454 29.8876 98.807 30.8761 97.9041 31.58C97.0012 32.2839 95.8868 32.6618 94.742 32.6523L94.7014 32.7031Z" fill="#231F20"/>
<path d="M82.6635 44.061C83.7373 44.0087 84.7875 43.7271 85.7434 43.2351C86.6993 42.7431 87.5388 42.0522 88.2054 41.2088C90.3268 38.3668 89.8802 36.9966 89.8802 36.9966C89.8802 36.9966 86.1856 39.8792 82.3083 39.7371L82.6635 44.061Z" fill="#231F20"/>
<path d="M82.6636 44.5684C82.5357 44.5689 82.4124 44.521 82.3183 44.4344C82.2242 44.3479 82.1663 44.229 82.1561 44.1015L81.8109 39.8081C81.8063 39.7383 81.8155 39.6682 81.8382 39.602C81.8608 39.5358 81.8964 39.4747 81.9429 39.4224C81.9906 39.3678 82.0502 39.3248 82.117 39.2966C82.1838 39.2685 82.2562 39.256 82.3286 39.26C85.9623 39.3919 89.5351 36.6514 89.5757 36.621C89.6391 36.5706 89.714 36.5367 89.7938 36.5225C89.8735 36.5084 89.9556 36.5143 90.0324 36.5398C90.1094 36.5646 90.1797 36.6069 90.2378 36.6632C90.2958 36.7195 90.3402 36.7884 90.3674 36.8646C90.3674 37.0371 90.8241 38.5698 88.6114 41.5336C87.8982 42.44 86.9974 43.1814 85.9707 43.707C84.9441 44.2326 83.8159 44.5299 82.6636 44.5786V44.5684ZM82.8564 40.2445L83.1203 43.523C84.034 43.4152 84.9176 43.1285 85.7204 42.6792C86.5233 42.2299 87.2298 41.6267 87.7995 40.9043C88.501 40.0462 89.0223 39.0554 89.3321 37.9912C87.4028 39.2859 85.1726 40.0619 82.8564 40.2445V40.2445Z" fill="#231F20"/>
<path d="M83.2827 25.4763C83.2827 25.4763 80.8467 30.3483 81.6587 31.0385C82.4707 31.7287 84.4094 30.9675 84.4094 30.9675" fill="white"/>
<path d="M82.6635 31.8404C82.1863 31.8658 81.7155 31.722 81.3339 31.4344C80.4102 30.6427 81.6384 27.6383 82.8361 25.253C82.8599 25.1854 82.8979 25.1235 82.9474 25.0716C82.997 25.0197 83.057 24.9788 83.1235 24.9518C83.19 24.9248 83.2614 24.9121 83.3332 24.9148C83.4049 24.9174 83.4752 24.9352 83.5395 24.967C83.6039 24.9988 83.6607 25.0439 83.7064 25.0993C83.752 25.1547 83.7854 25.2191 83.8043 25.2884C83.8231 25.3576 83.8271 25.4301 83.8159 25.501C83.8048 25.5718 83.7787 25.6396 83.7394 25.6996C82.6229 27.9326 81.8211 30.2671 82.0241 30.6934C82.3793 30.9878 83.5364 30.7645 84.2266 30.4904C84.2886 30.4658 84.3548 30.4536 84.4215 30.4545C84.4882 30.4554 84.5541 30.4695 84.6153 30.4959C84.6766 30.5223 84.7321 30.5605 84.7786 30.6083C84.8251 30.6561 84.8617 30.7127 84.8864 30.7746C84.911 30.8366 84.9233 30.9028 84.9223 30.9695C84.9214 31.0362 84.9073 31.1021 84.8809 31.1634C84.8545 31.2246 84.8163 31.2801 84.7685 31.3266C84.7207 31.3731 84.6641 31.4097 84.6022 31.4344C83.9837 31.679 83.3281 31.8163 82.6635 31.8404V31.8404Z" fill="#231F20"/>
<path d="M84.1759 34.2763C84.1759 34.2763 87.6675 34.9361 88.1648 31.5764Z" fill="white"/>
<path d="M84.8661 34.8346C84.6044 34.8335 84.3432 34.8131 84.0845 34.7738C84.0179 34.7611 83.9544 34.7354 83.8976 34.6982C83.8409 34.661 83.7921 34.613 83.7539 34.5569C83.7157 34.5008 83.689 34.4378 83.6752 34.3714C83.6614 34.305 83.6608 34.2365 83.6734 34.1698C83.6861 34.1032 83.7118 34.0397 83.749 33.983C83.7862 33.9262 83.8342 33.8774 83.8903 33.8392C83.9464 33.801 84.0094 33.7743 84.0758 33.7605C84.1422 33.7467 84.2107 33.7461 84.2774 33.7588C85.1048 33.9012 85.9558 33.7389 86.6728 33.302C86.9594 33.0868 87.1977 32.8139 87.3726 32.501C87.5474 32.1881 87.6547 31.8421 87.6878 31.4851C87.7079 31.3506 87.7808 31.2295 87.8902 31.1486C87.9997 31.0677 88.1368 31.0336 88.2714 31.0538C88.406 31.074 88.527 31.1468 88.6079 31.2562C88.6888 31.3657 88.7229 31.5028 88.7028 31.6374C88.6547 32.1301 88.5033 32.6071 88.2584 33.0373C88.0136 33.4676 87.6808 33.8413 87.2818 34.1343C86.5692 34.6138 85.7246 34.8586 84.8661 34.8346V34.8346Z" fill="#231F20"/>
<path d="M89.1082 24.768C89.1594 24.1872 88.8659 23.6869 88.4527 23.6505C88.0395 23.614 87.663 24.0553 87.6118 24.636C87.5606 25.2167 87.854 25.717 88.2672 25.7535C88.6805 25.7899 89.057 25.3487 89.1082 24.768Z" fill="#231F20"/>
<path d="M81.2812 25.8141C81.3324 25.2334 81.039 24.733 80.6257 24.6966C80.2125 24.6601 79.836 25.1014 79.7848 25.6821C79.7336 26.2629 80.0271 26.7632 80.4403 26.7996C80.8535 26.8361 81.23 26.3948 81.2812 25.8141Z" fill="#231F20"/>
<path d="M88.3171 64.4219L65.439 71.1311L43.7383 65.5486L23.3774 70.7048L1.01697 64.3306L25.0623 120.044L44.1342 125.088L60.0697 118.897L76.9999 125.413L91.1388 120.704L88.3171 64.4219Z" fill="#FA0085"/>
<path d="M1.01694 64.3306L23.3469 70.7048L43.7078 65.5485L65.4085 71.131L88.2866 64.4219L91.1083 120.704L76.9694 125.413L60.0392 118.897L44.1037 125.088L25.0318 120.013L1.01694 64.3306ZM1.01694 63.3156C0.872822 63.3157 0.730399 63.3466 0.599142 63.4061C0.467884 63.4656 0.350803 63.5524 0.255687 63.6606C0.127614 63.805 0.043371 63.9829 0.0128095 64.1735C-0.0177519 64.364 0.00663733 64.5594 0.083139 64.7365L24.1285 120.45C24.1902 120.592 24.2836 120.718 24.4015 120.818C24.5194 120.918 24.6586 120.99 24.8085 121.028L43.8905 126.083C43.9748 126.093 44.06 126.093 44.1443 126.083C44.273 126.085 44.4007 126.061 44.5198 126.012L60.0696 119.993L76.6344 126.367C76.7521 126.407 76.8755 126.428 76.9998 126.428C77.1103 126.432 77.2206 126.415 77.3246 126.377L91.4636 121.668C91.6737 121.597 91.8549 121.46 91.9795 121.277C92.1041 121.093 92.1653 120.874 92.1538 120.653L89.3321 64.3711C89.3236 64.2188 89.2808 64.0703 89.207 63.9368C89.1332 63.8032 89.0303 63.688 88.9058 63.5998C88.733 63.4786 88.5281 63.4115 88.3171 63.4069C88.2226 63.3963 88.1273 63.3963 88.0329 63.4069L65.4187 70.0348L43.992 64.5741C43.9077 64.5652 43.8226 64.5652 43.7383 64.5741C43.6544 64.5587 43.5684 64.5587 43.4845 64.5741L23.3875 69.6491L1.26054 63.3561C1.16946 63.3463 1.07757 63.3463 0.986488 63.3561L1.01694 63.3156Z" fill="#231F20"/>
<path d="M76.8578 125.261C76.7408 125.261 76.6274 125.221 76.5367 125.147C76.4461 125.073 76.3838 124.97 76.3604 124.855L65.0432 71.7197C65.0282 71.6544 65.0263 71.5867 65.0376 71.5207C65.0489 71.4546 65.0732 71.3914 65.1091 71.3348C65.145 71.2782 65.1917 71.2292 65.2466 71.1908C65.3014 71.1523 65.3634 71.1251 65.4289 71.1107C65.5617 71.0862 65.699 71.1136 65.8123 71.1872C65.9256 71.2608 66.0063 71.3751 66.0379 71.5066L77.3856 124.642C77.4005 124.707 77.4024 124.775 77.3911 124.841C77.3798 124.907 77.3555 124.97 77.3196 125.027C77.2838 125.083 77.237 125.132 77.1822 125.171C77.1273 125.209 77.0653 125.236 76.9999 125.251L76.8578 125.261Z" fill="#D1D3D4"/>
<path d="M59.8666 118.775C59.7572 118.773 59.6511 118.737 59.5636 118.672C59.4761 118.606 59.4116 118.514 59.3794 118.41L43.4642 66.4011C43.4258 66.2718 43.4393 66.1327 43.5018 66.0133C43.5644 65.8939 43.6711 65.8036 43.7992 65.7616C43.927 65.7235 44.0648 65.7373 44.1825 65.8C44.3003 65.8627 44.3887 65.9692 44.4285 66.0966L60.3538 118.115C60.3922 118.245 60.3788 118.384 60.3162 118.503C60.2537 118.622 60.147 118.713 60.0189 118.755L59.8666 118.775Z" fill="#D1D3D4"/>
<path d="M43.8906 125.007C43.7885 125.009 43.6886 124.978 43.6048 124.92C43.521 124.862 43.4577 124.779 43.4237 124.682L23.1237 71.537C23.0766 71.4105 23.0816 71.2704 23.1378 71.1477C23.1939 71.0249 23.2966 70.9294 23.4231 70.8823C23.5496 70.8352 23.6897 70.8403 23.8125 70.8965C23.9352 70.9526 24.0307 71.0552 24.0778 71.1818L44.3778 124.327C44.424 124.452 44.419 124.591 44.3639 124.712C44.3088 124.834 44.2081 124.929 44.0834 124.977C44.0213 124.998 43.9561 125.008 43.8906 125.007Z" fill="#D1D3D4"/>
<path d="M7.86815 86.1225C8.02014 87.2095 8.31714 88.2712 8.75122 89.2792L10.7 94.3542C11.1872 95.6128 11.9688 97.0947 13.3187 97.1048C13.7773 97.0417 14.2185 96.887 14.6161 96.6499C15.0137 96.4127 15.3595 96.098 15.6329 95.7244C17.6629 93.6944 19.6929 91.4208 20.2004 88.6194C20.2816 88.2134 20.2004 87.6653 19.8249 87.6044C19.6446 87.5811 19.4618 87.6206 19.3072 87.7161C17.8628 88.4048 16.5849 89.3987 15.5619 90.6292C16.9735 89.1238 18.194 87.4499 19.1956 85.6455C19.4189 85.2497 19.5914 84.6305 19.1956 84.3869C19.0579 84.3204 18.9069 84.2858 18.754 84.2858C18.6011 84.2858 18.4502 84.3204 18.3125 84.3869C17.2487 84.7853 16.2754 85.3927 15.4502 86.1733C16.5896 85.3778 17.4857 84.2815 18.0385 83.0065C18.2415 82.5396 18.3328 81.8596 17.8761 81.616C17.4193 81.3724 17.0945 81.6769 16.7799 81.9306C15.989 82.5394 15.2552 83.2188 14.5875 83.9606C15.0936 83.2894 15.4406 82.5119 15.6025 81.687C15.6736 81.5112 15.6736 81.3147 15.6025 81.1389C15.369 80.7938 14.8311 81.0273 14.4961 81.281L9.82711 84.9248C10.0403 84.7624 8.89331 83.4328 8.44671 83.5546C7.78696 83.6967 7.8174 85.6658 7.86815 86.1225Z" fill="white"/>
<path d="M13.3391 97.6631C11.4309 97.6631 10.5478 95.3388 10.2941 94.6181L8.34525 89.5431C7.88196 88.4966 7.57093 87.3892 7.42161 86.2545C7.42161 85.9602 7.19831 83.4328 8.35541 83.108C8.98471 82.9355 9.71551 83.6663 10.0809 84.123L14.2323 80.8852C14.5756 80.5914 15.0195 80.4422 15.4706 80.469C15.5941 80.4887 15.7122 80.534 15.8171 80.6022C15.922 80.6704 16.0114 80.7599 16.0796 80.8649C16.1605 81.0029 16.2122 81.1562 16.2314 81.3151C16.2506 81.474 16.2369 81.6351 16.1912 81.7885C16.196 81.8051 16.196 81.8227 16.1912 81.8393L16.5668 81.5449C16.7741 81.3284 17.0415 81.1788 17.3345 81.1155C17.6275 81.0522 17.9328 81.078 18.2111 81.1897C18.9419 81.5652 18.9317 82.4889 18.6069 83.2197C18.5041 83.4557 18.3889 83.686 18.2618 83.9099C18.473 83.8147 18.7039 83.7716 18.9353 83.7839C19.1666 83.7963 19.3916 83.8638 19.5915 83.9809C20.1091 84.3666 20.1599 85.0771 19.7031 85.8993C19.4088 86.4271 19.1043 86.9143 18.7693 87.4522L19.155 87.2594C19.4134 87.1126 19.7144 87.0589 20.0076 87.1071C20.6268 87.2492 20.9313 87.8988 20.7689 88.7413C20.2005 91.7863 17.9167 94.1918 16.0796 96.1102C15.756 96.5455 15.3451 96.9084 14.8732 97.1758C14.4013 97.4432 13.8788 97.6092 13.3391 97.6631V97.6631ZM8.36556 86.0718C8.5154 87.1209 8.80558 88.1451 9.22831 89.1168L11.1771 94.1918C11.8064 95.8158 12.5068 96.6075 13.3188 96.6177C14.0991 96.4665 14.7945 96.0283 15.2676 95.3895C17.0134 93.5625 19.1855 91.3295 19.7031 88.5383C19.746 88.3856 19.746 88.224 19.7031 88.0714L19.5509 88.1526C18.4468 88.6823 17.4411 89.3962 16.5769 90.2638C16.3739 90.4972 16.1608 90.7307 15.9476 90.954C15.8544 91.0345 15.735 91.0784 15.6118 91.0774C15.4886 91.0764 15.37 91.0307 15.278 90.9487C15.1861 90.8667 15.1271 90.754 15.1121 90.6317C15.0971 90.5094 15.1271 90.3859 15.1965 90.2841C15.3995 90.0405 15.6127 89.807 15.836 89.5736C16.9565 88.2818 17.9396 86.8769 18.7693 85.3816C18.896 85.2049 18.957 84.9895 18.9419 84.7726V84.7726C18.9419 84.7726 18.8607 84.7726 18.5359 84.8538C17.8857 85.112 17.2716 85.4532 16.7089 85.8688C16.4203 86.138 16.1152 86.3888 15.7954 86.6199C15.6904 86.7047 15.556 86.7443 15.4218 86.73C15.2876 86.7158 15.1646 86.6488 15.0798 86.5438C14.995 86.4388 14.9554 86.3044 14.9696 86.1702C14.9839 86.036 15.0509 85.913 15.1559 85.8282C15.4406 85.5619 15.7424 85.3144 16.0593 85.0873C16.7245 84.4472 17.2558 83.6813 17.6224 82.834C17.7848 82.4787 17.7746 82.1438 17.6934 82.1032C17.6122 82.0626 17.4701 82.1032 17.1352 82.3569C16.3755 82.9506 15.666 83.6058 15.0138 84.3159C14.9712 84.3672 14.9188 84.4096 14.8598 84.4407C14.8007 84.4718 14.7361 84.4909 14.6697 84.4971C14.5355 84.5094 14.4019 84.468 14.2982 84.3818C14.1946 84.2957 14.1294 84.1719 14.117 84.0377C14.1047 83.9035 14.1461 83.7699 14.2323 83.6663C14.6869 83.0665 15.0024 82.373 15.1559 81.6363C15.1598 81.6025 15.1598 81.5685 15.1559 81.5348C15.0258 81.5795 14.9053 81.6484 14.8007 81.7378L10.1317 85.3715C10.0252 85.4533 9.89071 85.4897 9.75754 85.4725C9.62438 85.4554 9.50341 85.3862 9.42115 85.2801C9.34338 85.1712 9.30737 85.0379 9.31966 84.9046C9.11598 84.5962 8.85391 84.3307 8.54825 84.123C8.36982 84.7839 8.31138 85.4715 8.3757 86.153L8.36556 86.0718Z" fill="#231F20"/>
<path d="M127.953 63.4271C127.953 63.4271 156.434 104.829 140.955 108.889C130.186 111.721 107.907 108.595 99.34 105.113C90.7734 101.632 87.16 98.8506 87.16 98.8506C87.16 98.8506 78.025 98.9826 78.8878 96.709C79.1334 96.0669 79.5891 95.5269 80.1807 95.1768C80.7722 94.8266 81.4649 94.687 82.1459 94.7805C82.1459 94.7805 77.7611 94.7805 78.0859 92.6693C78.4107 90.5581 82.0343 90.9539 82.0343 90.9539C82.0343 90.9539 75.7311 89.3198 77.2536 87.9089C78.7761 86.4981 81.9835 87.2086 81.9835 87.2086C81.9835 87.2086 77.6901 86.8229 77.6799 84.9959C77.6799 81.8798 91.149 84.0722 93.9199 86.2849C96.6909 88.4976 116.554 90.6088 119.427 90.6291L111.459 71.8922" fill="white"/>
<path d="M129.993 110.513C118.919 110.513 105.501 108.158 99.1878 105.58C94.9099 103.964 90.8248 101.877 87.0078 99.3582C85.4345 99.3582 79.6693 99.3582 78.5528 97.7037C78.4341 97.534 78.3606 97.3368 78.3393 97.1308C78.318 96.9248 78.3495 96.7167 78.431 96.5263C78.6665 95.887 79.087 95.3322 79.6389 94.9328C79.0176 94.7804 78.4514 94.4569 78.0047 93.999C77.8421 93.8062 77.7248 93.5793 77.6616 93.3351C77.5983 93.0909 77.5907 92.8356 77.6393 92.5881C77.7349 92.1212 77.9643 91.6922 78.2996 91.3533C78.6348 91.0145 79.0613 90.7805 79.5272 90.6799C78.1468 90.1623 76.7867 89.4619 76.5837 88.6499C76.5512 88.4617 76.5698 88.2682 76.6376 88.0896C76.7055 87.9111 76.8201 87.754 76.9694 87.6349C77.4043 87.2659 77.9183 87.0019 78.4716 86.8635C78.1197 86.7175 77.816 86.4754 77.5952 86.1648C77.3744 85.8543 77.2455 85.4879 77.2232 85.1076C77.23 84.7779 77.3364 84.4579 77.5284 84.1898C77.7205 83.9217 77.9891 83.718 78.2991 83.6054C81.3441 82.1032 91.7072 83.9302 94.3158 86.0008C96.6807 87.8785 113.844 89.9491 118.676 90.2029L111.023 72.2069C110.996 72.1464 110.982 72.0811 110.98 72.0149C110.979 71.9488 110.991 71.883 111.016 71.8216C111.041 71.7602 111.077 71.7042 111.124 71.6571C111.17 71.61 111.225 71.5726 111.287 71.5472C111.348 71.5203 111.414 71.5058 111.481 71.5045C111.548 71.5033 111.614 71.5152 111.676 71.5398C111.739 71.5643 111.795 71.6009 111.844 71.6474C111.892 71.694 111.93 71.7496 111.956 71.8111L120.016 90.4769C120.049 90.5543 120.063 90.6389 120.056 90.723C120.049 90.8071 120.021 90.8881 119.975 90.9586C119.928 91.0292 119.865 91.0871 119.791 91.127C119.716 91.1669 119.633 91.1877 119.549 91.1874C117.265 91.1874 96.7619 89.1574 93.7271 86.7316C91.4129 84.8944 81.5471 83.1385 78.7863 84.458C78.2889 84.7016 78.2889 84.9452 78.2889 85.0365C78.2889 85.8688 79.9332 86.3966 81.2426 86.6301C81.5592 86.6582 81.8743 86.7022 82.1865 86.762C82.3143 86.789 82.4267 86.8642 82.5004 86.972C82.5741 87.0797 82.6035 87.2117 82.5824 87.3406C82.5646 87.4691 82.4974 87.5856 82.395 87.6652C82.2926 87.7448 82.1632 87.7813 82.0343 87.7669C81.9125 87.7669 81.5572 87.7669 81.0802 87.6349C79.9025 87.4455 78.6963 87.6947 77.6901 88.3353L77.619 88.4165C77.7002 88.8732 79.9129 89.8476 82.2677 90.4465C82.3919 90.48 82.4987 90.5595 82.5665 90.6688C82.6343 90.778 82.6582 90.909 82.6331 91.0352C82.6085 91.1588 82.5388 91.2689 82.4375 91.344C82.3361 91.419 82.2105 91.4537 82.085 91.4412C82.085 91.4412 78.9588 91.1773 78.6848 92.7505C78.6619 92.8521 78.6638 92.9577 78.6903 93.0584C78.7168 93.1591 78.7671 93.2519 78.837 93.3291C79.6713 93.9347 80.6787 94.2551 81.7095 94.2426C81.8986 94.2266 82.0887 94.2266 82.2779 94.2426C82.4061 94.2626 82.5221 94.33 82.6029 94.4316C82.6837 94.5331 82.7235 94.6612 82.7143 94.7907C82.7041 94.9181 82.6461 95.037 82.552 95.1236C82.458 95.2101 82.3347 95.258 82.2068 95.2576C82.0483 95.2755 81.8883 95.2755 81.7298 95.2576C81.2272 95.2661 80.7387 95.4255 80.3279 95.7151C79.917 96.0047 79.6027 96.4111 79.4257 96.8816C79.4017 96.9158 79.3888 96.9565 79.3888 96.9983C79.3888 97.0401 79.4017 97.0808 79.4257 97.115C80.0449 98.0184 84.3282 98.3736 87.1905 98.333C87.3044 98.3264 87.4166 98.3626 87.5051 98.4345C87.5051 98.4345 91.22 101.216 99.5633 104.636C107.907 108.057 130.226 111.173 140.813 108.392C141.664 108.211 142.455 107.815 143.109 107.241C143.763 106.667 144.259 105.934 144.548 105.113C148.527 94.4151 127.74 64.0159 127.527 63.7012C127.469 63.5911 127.454 63.4637 127.484 63.3433C127.515 63.2228 127.588 63.1176 127.69 63.0475C127.793 62.9775 127.918 62.9475 128.041 62.9632C128.164 62.9789 128.277 63.0393 128.359 63.1328C129.232 64.4016 149.674 94.2832 145.502 105.468C145.155 106.44 144.567 107.307 143.793 107.989C143.019 108.67 142.084 109.144 141.077 109.366C137.443 110.201 133.721 110.586 129.993 110.513V110.513Z" fill="#231F20"/>
<path d="M81.953 210.001C81.953 210.001 76.9897 213.869 73.021 210.692C73.021 210.692 59.9681 209.524 58.4761 218.456H81.5775L81.953 210.001Z" fill="#231F20"/>
<path d="M81.5775 218.964H58.4761C58.4023 218.964 58.3294 218.948 58.2627 218.916C58.1959 218.884 58.1371 218.838 58.0904 218.781C58.0449 218.725 58.0115 218.66 57.9923 218.59C57.9731 218.52 57.9685 218.447 57.9788 218.375C59.5317 209.088 72.9399 210.184 73.0718 210.194C73.1717 210.206 73.2665 210.244 73.3459 210.306C76.9491 213.189 81.4659 209.748 81.6384 209.606C81.7152 209.545 81.8078 209.508 81.905 209.499C82.0022 209.49 82.1 209.51 82.1865 209.555C82.2701 209.601 82.3397 209.668 82.3879 209.751C82.4362 209.833 82.4613 209.926 82.4606 210.022L82.085 218.477C82.0798 218.608 82.024 218.732 81.9294 218.823C81.8347 218.913 81.7087 218.964 81.5775 218.964ZM59.0952 217.949H81.1005L81.405 210.966C79.7505 211.981 76.0255 213.615 72.8384 211.189C71.4681 211.108 60.8512 210.692 59.1156 217.949H59.0952Z" fill="#FA0085"/>
</svg>