<svg width="332" height="261" viewBox="0 0 332 261" fill="none" xmlns="http://www.w3.org/2000/svg">
    <path
        d="M170.545 257.75L324.825 166.573C329.737 163.812 333.96 159.285 329.159 156.321L174.32 67.0721C171.996 65.6308 168.474 64.6869 166.109 66.0571L4.15558 160.056C-0.757022 162.908 -1.64007 170.876 3.27253 173.728L150.204 257.608C153.289 259.398 156.788 260.353 160.355 260.378C163.922 260.403 167.434 259.497 170.545 257.75V257.75Z"
        fill="#2C9135" />
    <path style="mix-blend-mode:multiply" opacity="0.5"
        d="M174.919 184.031L149.209 199.053C148.631 200.931 128.909 208.949 128.554 210.878L166.353 236.354L219.701 206.046L174.919 184.031Z"
        fill="url(#paint0_linear_310_297-784154)" />
    <path style="mix-blend-mode:multiply" opacity="0.5"
        d="M54.4486 166.39L28.7386 181.412C28.1613 183.281 27.7103 185.187 27.3887 187.116L64.4768 208.502L101.565 188.142L54.4486 166.39Z"
        fill="url(#paint1_linear_310_297-156141)" />
    <path
        d="M197.868 212.217C213.245 212.217 225.71 204.915 225.71 195.906C225.71 186.898 213.245 179.595 197.868 179.595C182.492 179.595 170.027 186.898 170.027 195.906C170.027 204.915 182.492 212.217 197.868 212.217Z"
        fill="#FCD11A" />
    <path d="M170.017 195.906V191.197L173.051 194.962L170.017 195.906Z" fill="#FCD11A" />
    <path d="M225.71 191.197V195.906H222.178L224.766 192.12L225.71 191.197Z" fill="#FCD11A" />
    <path
        d="M197.868 207.701C213.245 207.701 225.71 200.398 225.71 191.39C225.71 182.381 213.245 175.079 197.868 175.079C182.492 175.079 170.027 182.381 170.027 191.39C170.027 200.398 182.492 207.701 197.868 207.701Z"
        fill="#FEDE17" />
    <path
        d="M197.909 205.082C210.819 205.082 221.285 198.952 221.285 191.39C221.285 183.828 210.819 177.697 197.909 177.697C184.999 177.697 174.534 183.828 174.534 191.39C174.534 198.952 184.999 205.082 197.909 205.082Z"
        fill="#FEA500" />
    <path
        d="M211.55 186.66C211.745 187.041 211.823 187.472 211.774 187.898L211.662 188.334H206.587C206.632 188.192 206.662 188.046 206.678 187.898C206.659 187.569 206.554 187.251 206.374 186.974C206.089 186.482 205.661 186.089 205.146 185.848C204.408 185.462 203.593 185.247 202.761 185.218C201.986 185.16 201.209 185.278 200.487 185.563C199.776 185.868 199.502 186.267 199.665 186.761C199.905 187.366 200.276 187.91 200.751 188.355C201.301 188.915 201.816 189.508 202.294 190.131C202.519 190.399 202.665 190.724 202.713 191.071C202.762 191.418 202.711 191.771 202.568 192.09C202.012 193.015 201.133 193.702 200.101 194.018C198.392 194.728 196.563 195.107 194.712 195.135C192.716 195.2 190.724 194.919 188.825 194.303L185.901 195.561L182.471 193.897L185.313 192.679C184.804 192.34 184.346 191.929 183.953 191.461C183.661 191.126 183.434 190.741 183.283 190.324C183.187 190.024 183.129 189.714 183.11 189.4C183.076 189.188 183.076 188.973 183.11 188.761L183.212 188.517H188.287C188.235 188.687 188.194 188.86 188.165 189.035C188.186 189.452 188.327 189.853 188.571 190.192C188.979 190.825 189.565 191.323 190.256 191.623C191.174 192.088 192.181 192.351 193.209 192.394C194.137 192.456 195.068 192.307 195.93 191.958C196.606 191.653 196.87 191.258 196.721 190.77C196.47 190.162 196.085 189.617 195.595 189.177C195.035 188.626 194.516 188.036 194.042 187.411C193.821 187.138 193.683 186.807 193.645 186.458C193.607 186.108 193.671 185.756 193.829 185.442C194.434 184.504 195.35 183.811 196.417 183.483C198.059 182.82 199.812 182.476 201.583 182.468C203.458 182.406 205.328 182.699 207.095 183.33L210.008 182.082L213.195 183.818L210.272 185.076C210.822 185.49 211.262 186.034 211.55 186.66V186.66Z"
        fill="#FFF039" />
    <path
        d="M197.868 203.306C213.245 203.306 225.71 196.003 225.71 186.995C225.71 177.986 213.245 170.684 197.868 170.684C182.492 170.684 170.027 177.986 170.027 186.995C170.027 196.003 182.492 203.306 197.868 203.306Z"
        fill="#FCD11A" />
    <path d="M170.017 186.995V182.285L173.051 186.051L170.017 186.995Z" fill="#FCD11A" />
    <path d="M225.71 182.285V186.995H222.178L224.766 183.209L225.71 182.285Z" fill="#FCD11A" />
    <path
        d="M197.868 198.789C213.245 198.789 225.71 191.486 225.71 182.478C225.71 173.47 213.245 166.167 197.868 166.167C182.492 166.167 170.027 173.47 170.027 182.478C170.027 191.486 182.492 198.789 197.868 198.789Z"
        fill="#FEDE17" />
    <path
        d="M197.909 196.17C210.819 196.17 221.285 190.04 221.285 182.478C221.285 174.916 210.819 168.786 197.909 168.786C184.999 168.786 174.534 174.916 174.534 182.478C174.534 190.04 184.999 196.17 197.909 196.17Z"
        fill="#FEA500" />
    <path
        d="M211.55 177.748C211.745 178.13 211.823 178.561 211.774 178.986L211.662 179.423H206.587C206.632 179.281 206.662 179.134 206.678 178.986C206.659 178.657 206.554 178.339 206.374 178.063C206.089 177.57 205.661 177.177 205.146 176.936C204.408 176.55 203.593 176.335 202.761 176.307C201.986 176.249 201.209 176.367 200.487 176.652C199.776 176.956 199.502 177.356 199.665 177.85C199.905 178.454 200.276 178.999 200.751 179.443C201.301 180.003 201.816 180.597 202.294 181.219C202.519 181.487 202.665 181.813 202.713 182.159C202.762 182.506 202.711 182.859 202.568 183.178C202.012 184.103 201.133 184.79 200.101 185.107C198.392 185.817 196.563 186.196 194.712 186.223C192.716 186.289 190.724 186.007 188.825 185.391L185.901 186.65L182.471 184.985L185.313 183.767C184.804 183.428 184.346 183.018 183.953 182.549C183.661 182.214 183.434 181.829 183.283 181.412C183.187 181.113 183.129 180.802 183.11 180.489C183.076 180.277 183.076 180.061 183.11 179.849L183.212 179.606H188.287C188.235 179.775 188.194 179.948 188.165 180.123C188.186 180.54 188.327 180.942 188.571 181.28C188.979 181.913 189.565 182.411 190.256 182.711C191.174 183.176 192.181 183.439 193.209 183.483C194.137 183.545 195.068 183.396 195.93 183.046C196.606 182.742 196.87 182.346 196.721 181.859C196.47 181.25 196.085 180.705 195.595 180.265C195.035 179.715 194.516 179.125 194.042 178.499C193.821 178.226 193.683 177.895 193.645 177.546C193.607 177.197 193.671 176.844 193.829 176.53C194.434 175.593 195.35 174.899 196.417 174.571C198.059 173.909 199.812 173.564 201.583 173.556C203.458 173.495 205.328 173.787 207.095 174.419L210.008 173.17L213.195 174.906L210.272 176.165C210.822 176.578 211.262 177.123 211.55 177.748V177.748Z"
        fill="#FFF039" />
    <path
        d="M197.868 193.643C213.245 193.643 225.71 186.34 225.71 177.332C225.71 168.323 213.245 161.021 197.868 161.021C182.492 161.021 170.027 168.323 170.027 177.332C170.027 186.34 182.492 193.643 197.868 193.643Z"
        fill="#FCD11A" />
    <path d="M170.017 177.332V172.622L173.051 176.388L170.017 177.332Z" fill="#FCD11A" />
    <path d="M225.71 172.622V177.332H222.178L224.766 173.556L225.71 172.622Z" fill="#FCD11A" />
    <path
        d="M197.868 189.136C213.245 189.136 225.71 181.834 225.71 172.825C225.71 163.817 213.245 156.514 197.868 156.514C182.492 156.514 170.027 163.817 170.027 172.825C170.027 181.834 182.492 189.136 197.868 189.136Z"
        fill="#FEDE17" />
    <path
        d="M197.909 186.518C210.819 186.518 221.285 180.387 221.285 172.825C221.285 165.263 210.819 159.133 197.909 159.133C184.999 159.133 174.534 165.263 174.534 172.825C174.534 180.387 184.999 186.518 197.909 186.518Z"
        fill="#FEA500" />
    <path
        d="M211.55 168.085C211.745 168.467 211.823 168.898 211.774 169.323L211.662 169.76H206.587C206.632 169.618 206.662 169.471 206.678 169.323C206.659 168.994 206.554 168.676 206.374 168.4C206.089 167.907 205.661 167.514 205.146 167.273C204.408 166.887 203.593 166.672 202.761 166.644C201.986 166.586 201.209 166.704 200.487 166.989C199.776 167.293 199.502 167.693 199.665 168.186C199.905 168.791 200.276 169.336 200.751 169.78C201.301 170.34 201.816 170.933 202.294 171.556C202.519 171.824 202.665 172.15 202.713 172.496C202.762 172.843 202.711 173.196 202.568 173.515C202.012 174.44 201.133 175.127 200.101 175.444C198.392 176.154 196.563 176.532 194.712 176.56C192.716 176.626 190.724 176.344 188.825 175.728L185.901 176.987L182.471 175.322L185.313 174.104C184.804 173.765 184.346 173.355 183.953 172.886C183.661 172.551 183.434 172.166 183.283 171.749C183.187 171.45 183.129 171.139 183.11 170.825C183.076 170.614 183.076 170.398 183.11 170.186L183.212 169.942H188.287C188.235 170.112 188.194 170.285 188.165 170.46C188.186 170.877 188.327 171.279 188.571 171.617C188.979 172.25 189.565 172.748 190.256 173.048C191.174 173.513 192.181 173.776 193.209 173.82C194.137 173.882 195.068 173.733 195.93 173.383C196.606 173.079 196.87 172.683 196.721 172.196C196.47 171.587 196.085 171.042 195.595 170.602C195.035 170.052 194.516 169.462 194.042 168.836C193.821 168.563 193.683 168.232 193.645 167.883C193.607 167.534 193.671 167.181 193.829 166.867C194.434 165.93 195.35 165.236 196.417 164.908C198.059 164.246 199.812 163.901 201.583 163.893C203.458 163.832 205.328 164.124 207.095 164.756L210.008 163.507L213.195 165.243L210.343 166.461C210.873 166.895 211.288 167.453 211.55 168.085Z"
        fill="#FFF039" />
    <path
        d="M197.868 184.853C213.245 184.853 225.71 177.55 225.71 168.542C225.71 159.534 213.245 152.231 197.868 152.231C182.492 152.231 170.027 159.534 170.027 168.542C170.027 177.55 182.492 184.853 197.868 184.853Z"
        fill="#FCD11A" />
    <path d="M170.017 168.542V163.832L173.051 167.598L170.017 168.542Z" fill="#FCD11A" />
    <path d="M225.71 163.832V168.542H222.178L224.766 164.756L225.71 163.832Z" fill="#FCD11A" />
    <path
        d="M197.868 180.336C213.245 180.336 225.71 173.033 225.71 164.025C225.71 155.017 213.245 147.714 197.868 147.714C182.492 147.714 170.027 155.017 170.027 164.025C170.027 173.033 182.492 180.336 197.868 180.336Z"
        fill="#FEDE17" />
    <path
        d="M197.909 177.718C210.819 177.718 221.285 171.587 221.285 164.025C221.285 156.463 210.819 150.333 197.909 150.333C184.999 150.333 174.534 156.463 174.534 164.025C174.534 171.587 184.999 177.718 197.909 177.718Z"
        fill="#FEA500" />
    <path
        d="M211.55 159.295C211.745 159.677 211.823 160.108 211.774 160.534L211.662 160.97H206.587C206.632 160.828 206.662 160.682 206.678 160.534C206.659 160.205 206.554 159.886 206.374 159.61C206.089 159.118 205.661 158.725 205.146 158.483C204.408 158.098 203.593 157.883 202.761 157.854C201.986 157.796 201.209 157.914 200.487 158.199C199.776 158.504 199.502 158.903 199.665 159.397C199.905 160.002 200.276 160.546 200.751 160.99C201.301 161.551 201.816 162.144 202.294 162.767C202.519 163.034 202.665 163.36 202.713 163.707C202.762 164.053 202.711 164.406 202.568 164.726C202.012 165.651 201.133 166.338 200.101 166.654C198.392 167.364 196.563 167.743 194.712 167.771C192.716 167.836 190.724 167.554 188.825 166.938L185.901 168.197L182.471 166.532L185.313 165.314C184.804 164.975 184.346 164.565 183.953 164.096C183.661 163.762 183.434 163.376 183.283 162.96C183.187 162.66 183.129 162.35 183.11 162.036C183.076 161.824 183.076 161.608 183.11 161.396L183.212 161.153H188.287C188.235 161.323 188.194 161.496 188.165 161.671C188.186 162.087 188.327 162.489 188.571 162.828C188.979 163.46 189.565 163.958 190.256 164.259C191.174 164.723 192.181 164.986 193.209 165.03C194.137 165.092 195.068 164.943 195.93 164.594C196.606 164.289 196.87 163.893 196.721 163.406C196.47 162.797 196.085 162.253 195.595 161.813C195.035 161.262 194.516 160.672 194.042 160.047C193.821 159.774 193.683 159.443 193.645 159.093C193.607 158.744 193.671 158.391 193.829 158.077C194.434 157.14 195.35 156.446 196.417 156.118C198.059 155.456 199.812 155.112 201.583 155.103C203.458 155.042 205.328 155.335 207.095 155.966L210.008 154.718L213.195 156.453L210.272 157.712C210.822 158.126 211.262 158.67 211.55 159.295V159.295Z"
        fill="#FFF039" />
    <path
        d="M219.802 49.2185C219.802 49.2185 210.972 46.2344 211.956 29.7812C211.967 29.7813 226.999 35.3231 219.802 49.2185Z"
        fill="#89DB5B" />
    <path
        d="M220.066 48.7213C220.071 48.6842 220.071 48.6467 220.066 48.6096C218.251 42.2157 215.813 36.0149 212.789 30.096L211.957 29.8423C211.957 30.0554 211.957 30.2787 211.896 30.4919C211.835 30.705 211.896 30.6847 211.896 30.7761C214.842 36.5546 217.222 42.6052 219.001 48.8431L219.285 48.9953L219.833 49.1679L220.066 48.7213Z"
        fill="#6AAF3E" />
    <path
        d="M212.018 62.0683C212.018 62.0683 205.684 59.886 206.394 48.1323C206.394 48.1323 217.164 52.1111 212.018 62.0683Z"
        fill="#89DB5B" />
    <path
        d="M212.2 61.7232C212.204 61.6963 212.204 61.669 212.2 61.642C210.895 57.0565 209.145 52.6099 206.973 48.3658L206.374 48.1831C206.374 48.3354 206.374 48.4978 206.374 48.65C206.374 48.8023 206.374 48.782 206.374 48.853C208.48 52.9961 210.18 57.3335 211.449 61.8044L211.652 61.9059L212.048 62.0277L212.2 61.7232Z"
        fill="#6AAF3E" />
    <path
        d="M218.087 58.4448C218.087 58.4448 220.015 49.3098 236.469 48.376C236.479 48.376 232.723 63.9461 218.087 58.4448Z"
        fill="#89DB5B" />
    <path
        d="M218.605 58.6478C218.642 58.6528 218.679 58.6528 218.716 58.6478C224.856 56.0918 230.73 52.9404 236.255 49.2387C236.316 48.9545 236.367 48.6602 236.418 48.376H235.758H235.474C230.078 51.9666 224.347 55.0259 218.361 57.511L218.249 57.8053C218.249 57.9982 218.178 58.1809 218.138 58.3737L218.605 58.6478Z"
        fill="#6AAF3E" />
    <path
        d="M211.256 76.3191C211.256 76.3191 212.535 67.0826 228.887 64.9917C228.897 64.9613 226.238 80.775 211.256 76.3191Z"
        fill="#89DB5B" />
    <path
        d="M211.774 76.4816C211.774 76.4816 211.845 76.4816 211.886 76.4816C217.832 73.5044 223.471 69.9519 228.725 65.8749C228.725 65.5805 228.796 65.2963 228.826 65.002L228.176 65.0629H227.892C222.765 69.0331 217.265 72.4969 211.47 75.4057C211.47 75.5072 211.409 75.6087 211.378 75.7102C211.348 75.8117 211.378 76.0959 211.307 76.2888L211.774 76.4816Z"
        fill="#6AAF3E" />
    <path
        d="M173.651 54.0398C173.651 54.0398 164.82 51.0557 165.805 34.6025C165.805 34.6025 180.827 40.1444 173.651 54.0398Z"
        fill="#89DB5B" />
    <path
        d="M173.915 53.5527C173.92 53.5157 173.92 53.4781 173.915 53.4411C172.096 47.0433 169.655 40.839 166.627 34.9173L165.795 34.6636C165.795 34.8767 165.795 35.1 165.734 35.3132C165.673 35.5263 165.734 35.506 165.734 35.5974C168.68 41.3759 171.06 47.4265 172.839 53.6644L173.123 53.8166L173.671 53.9892L173.915 53.5527Z"
        fill="#6AAF3E" />
    <path
        d="M190.571 54.4559C190.571 54.4559 188.541 45.3209 203.157 37.6982C203.157 37.6982 206.171 53.4206 190.571 54.4559Z"
        fill="#89DB5B" />
    <path
        d="M191.119 54.4358C191.119 54.4358 191.19 54.4358 191.21 54.3749C195.75 49.5149 199.802 44.2217 203.309 38.5713C203.248 38.2871 203.167 38.0029 203.096 37.7188L202.507 38.0029L202.253 38.1349C198.829 43.6398 194.879 48.7998 190.459 53.5426C190.459 53.6441 190.459 53.7557 190.459 53.8572L190.591 54.4155L191.119 54.4358Z"
        fill="#6AAF3E" />
    <path
        d="M178.208 64.1796C178.208 64.1796 172.879 68.2396 163.521 60.9823C163.521 60.9722 172.869 54.3138 178.208 64.1796Z"
        fill="#89DB5B" />
    <path
        d="M178.025 63.8246C178.025 63.8246 178.025 63.8246 177.964 63.8246C173.448 62.3045 168.794 61.2303 164.069 60.6172L163.582 61.013L163.947 61.3074L164.109 61.4292C168.721 62.0035 173.265 63.0233 177.68 64.4742L177.883 64.3625L178.208 64.1088L178.025 63.8246Z"
        fill="#6AAF3E" />
    <path
        d="M187.099 80.9778C187.099 80.9778 181.851 85.1088 172.351 78.0749C172.351 78.0749 181.577 71.2338 187.099 80.9778Z"
        fill="#89DB5B" />
    <path
        d="M186.917 80.6326C186.917 80.6326 186.917 80.6326 186.846 80.6326C182.292 79.2176 177.611 78.2521 172.869 77.75L172.382 78.156L172.747 78.4504L172.91 78.5722C177.534 79.0699 182.099 80.0149 186.541 81.3939L186.744 81.2822L187.069 81.0183L186.917 80.6326Z"
        fill="#6AAF3E" />
    <path d="M219.955 45.8081L221.041 47.9904L221.294 46.275" fill="#FCD11A" />
    <path
        d="M236.018 48.0514C242.735 44.8147 246.82 39.3702 245.143 35.8909C243.466 32.4115 236.663 32.2148 229.946 35.4515C223.23 38.6881 219.144 44.1326 220.821 47.612C222.498 51.0913 229.302 51.2881 236.018 48.0514Z"
        fill="#FCD11A" />
    <path d="M244.284 34.0747L245.147 35.8713H244.284V34.0747Z" fill="#FCD11A" />
    <path
        d="M235.155 46.2584C241.872 43.0217 245.957 37.5773 244.28 34.0979C242.604 30.6185 235.8 30.4218 229.083 33.6585C222.367 36.8952 218.282 42.3396 219.958 45.819C221.635 49.2984 228.439 49.4951 235.155 46.2584Z"
        fill="#FEDE17" />
    <path
        d="M242.701 34.8361C244.162 37.8811 240.468 42.2557 234.581 45.0774C228.694 47.8991 222.939 48.0717 221.487 45.0774C220.036 42.0832 223.69 37.4548 229.536 34.6331C235.383 31.8114 241.209 31.8114 242.701 34.8361Z"
        fill="#FEA500" />
    <path
        d="M232.673 38.571C233.535 39.6469 233.515 40.5502 232.064 41.6972C231.477 42.2243 230.76 42.5842 229.987 42.7396C229.214 42.8949 228.413 42.8399 227.669 42.5802L226.522 43.4937L225.679 43.0065L226.846 42.0829C226.519 41.8256 226.257 41.495 226.08 41.1177C225.904 40.7404 225.819 40.327 225.831 39.9108L228.115 39.0886C228.09 39.3817 228.127 39.6768 228.223 39.9548C228.319 40.2328 228.473 40.4875 228.673 40.7025L230.044 39.586C229.171 38.4999 229.14 37.6067 230.592 36.4598C231.18 35.9222 231.905 35.5565 232.687 35.4026C233.47 35.2487 234.279 35.3124 235.027 35.5869L235.697 35.0591L236.55 35.5361L235.849 36.0944C236.103 36.2976 236.307 36.5558 236.446 36.8495C236.585 37.1432 236.655 37.4646 236.651 37.7894L234.418 38.6623C234.427 38.2374 234.291 37.8221 234.033 37.4849L232.673 38.571ZM230.511 41.0273C230.825 40.7735 230.876 40.5705 230.632 40.1848L229.343 41.1998C229.529 41.2829 229.734 41.3117 229.935 41.283C230.136 41.2542 230.325 41.1691 230.48 41.0374V41.0374L230.511 41.0273ZM232.074 37.9924L233.342 36.9774C233.158 36.893 232.953 36.8625 232.752 36.8894C232.551 36.9164 232.361 36.9997 232.206 37.1297V37.1297C231.901 37.3733 231.84 37.5763 232.104 37.962"
        fill="#FFF039" />
    <path d="M168.17 38.1045L167.134 40.2969L168.626 39.4341" fill="#FCD11A" />
    <path
        d="M191.277 51.6071C192.956 48.1786 188.95 42.7713 182.33 39.5294C175.709 36.2876 168.981 36.4389 167.303 39.8674C165.624 43.2959 169.63 48.7032 176.25 51.9451C182.87 55.1869 189.598 55.0356 191.277 51.6071Z"
        fill="#FCD11A" />
    <path d="M192.154 49.8477L191.281 51.6138L190.763 50.9439L192.154 49.8477Z" fill="#FCD11A" />
    <path
        d="M192.131 49.8425C193.809 46.414 189.803 41.0066 183.183 37.7648C176.563 34.5229 169.835 34.6742 168.156 38.1027C166.477 41.5312 170.483 46.9386 177.103 50.1804C183.724 53.4223 190.452 53.271 192.131 49.8425Z"
        fill="#FEDE17" />
    <path
        d="M190.601 49.0864C189.139 52.0705 183.496 51.8878 177.7 49.0864C171.905 46.285 168.261 41.8697 169.722 38.8856C171.184 35.9015 176.99 35.9421 182.755 38.7638C188.52 41.5855 192.063 46.1023 190.601 49.0864Z"
        fill="#FEA500" />
    <path
        d="M181.537 43.6461C181.222 44.9758 180.522 45.5137 178.736 45.0874C177.968 44.9519 177.25 44.613 176.657 44.106C176.065 43.5991 175.619 42.9426 175.366 42.2048L173.955 41.8699L173.813 40.9158L175.244 41.2609C175.235 40.8511 175.323 40.4449 175.499 40.0748C175.675 39.7047 175.935 39.3809 176.259 39.1294L178.289 40.4083C178.046 40.5681 177.839 40.7772 177.682 41.0219C177.524 41.2667 177.42 41.5417 177.376 41.8293L179.101 42.2353C179.406 40.8955 180.116 40.3271 181.872 40.7534C182.655 40.8733 183.389 41.2068 183.994 41.7172C184.6 42.2276 185.052 42.895 185.303 43.6461L186.125 43.839L186.267 44.7931L185.404 44.5901C185.402 44.9127 185.326 45.2305 185.181 45.519C185.037 45.8076 184.829 46.0593 184.572 46.2547L182.542 45.0468C182.877 44.7954 183.117 44.4375 183.222 44.0318L181.537 43.6461ZM178.279 43.4127C178.665 43.504 178.858 43.4127 179 42.9965L177.457 42.6311C177.5 42.8285 177.602 43.0082 177.749 43.1475C177.895 43.2867 178.08 43.3791 178.279 43.4127V43.4127ZM181.618 42.7935L183.171 43.1589C183.13 42.9611 183.031 42.7802 182.886 42.6391C182.742 42.4981 182.558 42.4034 182.359 42.3672V42.3672C181.984 42.2759 181.791 42.3672 181.649 42.7935"
        fill="#FFF039" />
    <path
        d="M205.055 105.815L204.04 90.7726L223.325 46.3156L221.142 44.2856L198.985 87.1897L189.556 69.5084L190.966 47.3509L188.429 46.2141L186.226 65.9762L175.234 50.8628H172.331L193.027 91.2294L191.88 106.718L166.322 92.2139V94.8326L190.956 119.193L187.658 163.853C201.553 172.155 208.891 164.045 208.891 164.045L205.501 113.092L222.858 94.8225L205.055 105.815Z"
        fill="#FF8C00" />
    <path opacity="0.18"
        d="M248.732 106.529L247.717 91.487L267.002 47.03L264.82 45L242.663 87.9041L233.233 70.2228L234.644 48.0653L232.107 46.9285L229.904 66.6906L218.912 51.5772H216.009L236.705 91.9437L235.558 107.433L210 92.9283V95.547L234.634 119.907L231.335 164.567C245.231 172.87 252.569 164.76 252.569 164.76L249.179 113.807L266.536 95.5368L248.732 106.529Z"
        fill="#606060" />
    <path d="M210.911 98.8721L211.987 101.034L212.241 99.3288" fill="#FCD11A" />
    <path
        d="M226.806 101.098C233.452 97.8957 237.494 92.5075 235.834 89.0635C234.174 85.6195 227.441 85.4238 220.796 88.6264C214.15 91.8291 210.108 97.2172 211.768 100.661C213.428 104.105 220.16 104.301 226.806 101.098Z"
        fill="#FCD11A" />
    <path d="M234.987 87.2607L235.839 89.037H234.987V87.2607Z" fill="#FCD11A" />
    <path
        d="M225.957 99.3205C232.603 96.1179 236.645 90.7297 234.985 87.2857C233.325 83.8417 226.592 83.646 219.947 86.8486C213.301 90.0512 209.259 95.4394 210.919 98.8834C212.578 102.327 219.311 102.523 225.957 99.3205Z"
        fill="#FEDE17" />
    <path
        d="M233.424 88.0219C234.865 91.0669 231.221 95.3705 225.436 98.1719C219.65 100.973 213.926 101.136 212.474 98.1719C211.023 95.2081 214.646 90.6305 220.432 87.8392C226.217 85.048 231.972 85.0175 233.424 88.0219Z"
        fill="#FEA500" />
    <path
        d="M223.497 91.7468C224.35 92.8125 224.329 93.7057 222.898 94.8425C222.317 95.3644 221.606 95.7207 220.84 95.8742C220.074 96.0278 219.281 95.9729 218.544 95.7154L217.407 96.6188L216.575 96.1417L217.732 95.2282C217.407 94.9757 217.146 94.6503 216.969 94.2783C216.793 93.9063 216.706 93.4981 216.717 93.0866L218.98 92.2746C218.954 92.5654 218.989 92.8585 219.084 93.1348C219.178 93.4111 219.33 93.6644 219.528 93.8783L220.919 92.7719C220.056 91.696 220.026 90.8231 221.467 89.6762C222.049 89.1447 222.765 88.7832 223.539 88.6311C224.312 88.4789 225.112 88.542 225.852 88.8134L226.512 88.2856L227.354 88.7627L226.664 89.3108C226.916 89.5124 227.118 89.7692 227.255 90.0613C227.393 90.3534 227.461 90.673 227.456 90.9957L225.243 91.8584C225.249 91.4402 225.113 91.0323 224.857 90.7013L223.497 91.7468ZM221.355 94.1726C221.67 93.9189 221.721 93.7159 221.477 93.3403L220.208 94.3553C220.391 94.444 220.596 94.4759 220.797 94.4469C220.997 94.418 221.185 94.3295 221.335 94.1929L221.355 94.1726ZM222.918 91.1479L224.167 90.1329C223.985 90.043 223.781 90.0094 223.58 90.0365C223.379 90.0637 223.191 90.1503 223.04 90.2852V90.2852C222.736 90.5186 222.685 90.7216 222.939 91.1073"
        fill="#FFF039" />
    <path d="M147.342 82.8149L146.134 85.3423L147.859 84.3577" fill="#FCD11A" />
    <path
        d="M174.125 98.4561C176.072 94.4788 171.427 88.2069 163.75 84.4473C156.072 80.6878 148.269 80.8643 146.322 84.8415C144.374 88.8188 149.019 95.0907 156.697 98.8503C164.375 102.61 172.177 102.433 174.125 98.4561Z"
        fill="#FCD11A" />
    <path d="M175.143 96.4365L174.148 98.4767L173.529 97.7053L175.143 96.4365Z" fill="#FCD11A" />
    <path
        d="M175.136 96.4224C177.083 92.4451 172.438 86.1732 164.76 82.4137C157.083 78.6541 149.28 78.8306 147.333 82.8078C145.385 86.7851 150.03 93.057 157.708 96.8166C165.385 100.576 173.188 100.4 175.136 96.4224Z"
        fill="#FEDE17" />
    <path
        d="M173.346 95.5531C171.651 99.0142 165.074 98.8011 158.395 95.5531C151.716 92.3051 147.453 87.1793 149.148 83.7182C150.844 80.257 157.573 80.2976 164.262 83.5761C170.951 86.8545 175.041 92.0919 173.346 95.5531Z"
        fill="#FEA500" />
    <path
        d="M162.84 89.1788C162.475 90.7216 161.663 91.3408 159.592 90.8536C158.703 90.6953 157.872 90.3023 157.185 89.7152C156.498 89.1282 155.98 88.3683 155.685 87.5142L154.051 87.1184L153.888 86.012L155.553 86.4079C155.548 85.93 155.656 85.4577 155.867 85.0293C156.079 84.6008 156.388 84.2281 156.771 83.9414L159.126 85.4233C158.852 85.6128 158.621 85.8566 158.447 86.1395C158.272 86.4225 158.158 86.7384 158.111 87.0676L160.141 87.5447C160.496 85.9816 161.277 85.332 163.348 85.8293C164.249 85.9794 165.092 86.3739 165.785 86.9699C166.477 87.5659 166.993 88.3404 167.276 89.2093L168.22 89.4326L168.393 90.5389L167.378 90.2953C167.374 90.6689 167.285 91.0368 167.118 91.371C166.951 91.7052 166.71 91.9969 166.413 92.2238L164.048 90.8231C164.435 90.5304 164.71 90.1153 164.83 89.6457L162.84 89.1788ZM159.095 88.9657C159.542 89.0672 159.765 88.9657 159.938 88.4785L158.111 88.042C158.166 88.2693 158.285 88.4761 158.454 88.6379C158.623 88.7998 158.835 88.91 159.065 88.9555L159.095 88.9657ZM162.942 88.2349L164.739 88.6612C164.684 88.4338 164.567 88.2264 164.4 88.063C164.233 87.8995 164.023 87.7867 163.795 87.7375V87.7375C163.358 87.636 163.135 87.7375 162.972 88.2349"
        fill="#FFF039" />
    <path
        d="M76.3018 195.409C93.4721 195.409 107.391 187.256 107.391 177.2C107.391 167.143 93.4721 158.991 76.3018 158.991C59.1316 158.991 45.2124 167.143 45.2124 177.2C45.2124 187.256 59.1316 195.409 76.3018 195.409Z"
        fill="#FCD11A" />
    <path d="M45.2124 177.2V171.932L48.6025 176.144L45.2124 177.2Z" fill="#FCD11A" />
    <path d="M107.391 171.932V177.2H103.453L106.346 172.978L107.391 171.932Z" fill="#FCD11A" />
    <path
        d="M76.3018 190.364C93.4721 190.364 107.391 182.212 107.391 172.155C107.391 162.099 93.4721 153.946 76.3018 153.946C59.1316 153.946 45.2124 162.099 45.2124 172.155C45.2124 182.212 59.1316 190.364 76.3018 190.364Z"
        fill="#FEDE17" />
    <path
        d="M76.3627 187.441C90.775 187.441 102.458 180.597 102.458 172.155C102.458 163.713 90.775 156.869 76.3627 156.869C61.9505 156.869 50.2671 163.713 50.2671 172.155C50.2671 180.597 61.9505 187.441 76.3627 187.441Z"
        fill="#FEA500" />
    <path
        d="M91.5875 166.867C91.8028 167.293 91.8875 167.774 91.8311 168.248L91.7093 168.735H86.0355C86.0849 168.576 86.1189 168.413 86.137 168.248C86.1107 167.885 85.9919 167.536 85.7919 167.233C85.4745 166.683 84.9963 166.244 84.4216 165.974C83.5956 165.543 82.6833 165.304 81.7522 165.274C80.8881 165.209 80.0206 165.341 79.2147 165.659C78.423 165.998 78.1185 166.444 78.3012 166.999C78.5678 167.673 78.9803 168.28 79.509 168.775C80.1238 169.4 80.7 170.061 81.2345 170.755C81.492 171.051 81.6578 171.417 81.7119 171.806C81.7659 172.195 81.7059 172.591 81.539 172.947C80.9156 173.98 79.9324 174.747 78.7782 175.099C76.869 175.892 74.8265 176.316 72.7593 176.347C70.53 176.422 68.3046 176.11 66.1821 175.424L62.9239 176.824L59.1177 174.987L62.2946 173.627C61.7248 173.249 61.2121 172.791 60.7721 172.267C60.4464 171.894 60.1919 171.464 60.021 170.998C59.9148 170.669 59.8501 170.328 59.8282 169.983C59.8057 169.742 59.8228 169.499 59.8789 169.263L59.9906 168.989H65.6644C65.6044 169.178 65.5569 169.371 65.5223 169.567C65.5472 170.032 65.7058 170.48 65.9791 170.856C66.4331 171.564 67.0864 172.122 67.8568 172.46C68.8837 172.974 70.0081 173.265 71.1556 173.313C72.1944 173.383 73.2357 173.217 74.2006 172.825C74.9855 172.487 75.2799 172.044 75.0836 171.496C74.8025 170.817 74.3724 170.21 73.825 169.719C73.1998 169.106 72.6197 168.448 72.0894 167.75C71.8397 167.446 71.6838 167.076 71.6405 166.685C71.5973 166.294 71.6686 165.899 71.8458 165.548C72.5212 164.499 73.5458 163.722 74.7385 163.355C76.5742 162.614 78.5341 162.228 80.5139 162.219C82.6059 162.147 84.6926 162.471 86.6648 163.173L89.9229 161.772L93.4856 163.711L90.2274 165.111C90.816 165.578 91.2827 166.181 91.5875 166.867V166.867Z"
        fill="#FFF039" />
    <path
        d="M67.3799 174.104L70.5467 131.2L58.3667 107.368H60.0313L66.507 116.31L67.7961 104.617L69.3287 105.318L68.4964 118.401L74.0688 128.845L87.1521 103.47L88.4411 104.648L77.0325 130.936L79.9151 174.226C79.9151 174.226 75.5811 179.007 67.3799 174.104Z"
        fill="#FF8C00" />
    <path
        d="M86.3402 106.393C86.3402 106.393 81.1231 104.637 81.7118 94.9136C81.7017 94.9136 90.5728 98.192 86.3402 106.393Z"
        fill="#89DB5B" />
    <path
        d="M86.4924 106.099C86.4949 106.079 86.4949 106.059 86.4924 106.038C85.4182 102.263 83.9768 98.6014 82.1888 95.1068L81.6914 94.9546C81.6914 95.0865 81.6914 95.2083 81.6914 95.3403C81.6914 95.4722 81.6914 95.4519 81.6914 95.5128C83.4302 98.9249 84.8341 102.497 85.8834 106.18L86.0458 106.272L86.3706 106.373L86.4924 106.099Z"
        fill="#6AAF3E" />
    <path
        d="M81.7323 113.975C81.7323 113.975 77.9971 112.717 78.4132 105.744C78.4132 105.754 84.7773 108.098 81.7323 113.975Z"
        fill="#89DB5B" />
    <path
        d="M85.3252 111.834C85.3252 111.834 86.462 106.444 96.1755 105.886C96.1755 105.886 93.9628 115.082 85.3252 111.834Z"
        fill="#89DB5B" />
    <path
        d="M85.6299 111.956H85.6908C89.3148 110.447 92.7823 108.588 96.0438 106.403C96.0438 106.231 96.1047 106.069 96.1351 105.896H95.5769C92.377 108.024 88.9777 109.836 85.4269 111.306L85.3558 111.478L85.2949 111.813L85.6299 111.956Z"
        fill="#6AAF3E" />
    <path
        d="M81.2856 122.39C81.2856 122.39 82.0469 116.939 91.6995 115.701C91.6995 115.711 90.1364 125.029 81.2856 122.39Z"
        fill="#89DB5B" />
    <path
        d="M81.6 122.491H81.6609C85.1697 120.733 88.4979 118.635 91.5978 116.229C91.5978 116.056 91.5978 115.883 91.6587 115.711H91.273H91.1106C88.0805 118.05 84.8308 120.089 81.4072 121.801L81.3564 121.984V122.319L81.6 122.491Z"
        fill="#6AAF3E" />
    <path
        d="M59.0771 109.236C59.0771 109.236 53.86 107.48 54.4487 97.7559C54.4487 97.7559 63.3198 101.034 59.0771 109.236Z"
        fill="#89DB5B" />
    <path
        d="M59.2394 108.951C59.242 108.931 59.242 108.911 59.2394 108.89C58.1653 105.115 56.7239 101.453 54.9358 97.9589L54.4385 97.8066C54.4385 97.9386 54.4385 98.0604 54.4385 98.1923C54.4385 98.3243 54.4385 98.304 54.4385 98.3649C56.1773 101.777 57.5812 105.35 58.6304 109.033L58.7928 109.124L59.1176 109.225L59.2394 108.951Z"
        fill="#6AAF3E" />
    <path
        d="M69.075 109.489C69.075 109.489 67.8874 104.12 76.5048 99.5928C76.5048 99.5928 78.281 108.87 69.075 109.489Z"
        fill="#89DB5B" />
    <path
        d="M69.3999 109.469H69.4608C72.128 106.596 74.5077 103.468 76.5658 100.131C76.5658 99.9586 76.4846 99.7962 76.444 99.6338L76.0989 99.8063L75.9467 99.8875C73.9239 103.151 71.5885 106.211 68.9736 109.023C68.9736 109.083 68.9736 109.144 68.9736 109.205L69.0548 109.54L69.3999 109.469Z"
        fill="#6AAF3E" />
    <path
        d="M61.7667 115.224C61.7667 115.224 58.6202 117.599 53.0986 113.336C53.0986 113.336 58.6202 109.398 61.7667 115.224Z"
        fill="#89DB5B" />
    <path
        d="M61.6653 115.011C58.9924 114.121 56.2387 113.495 53.4438 113.143L53.1494 113.377L53.3626 113.549L53.4539 113.62C56.1761 113.969 58.8581 114.581 61.4623 115.447L61.5841 115.386L61.7769 115.234L61.6653 115.011Z"
        fill="#6AAF3E" />
    <path
        d="M67.0246 125.14C67.0246 125.14 63.9289 127.587 58.3159 123.425C58.3159 123.425 63.7563 119.385 67.0246 125.14Z"
        fill="#89DB5B" />
    <path
        d="M66.9131 124.938C64.2248 124.101 61.4609 123.53 58.6612 123.232L58.377 123.466L58.6002 123.638L58.7018 123.709C61.4322 124.003 64.1278 124.56 66.7507 125.374L66.8725 125.303L67.0654 125.151L66.9131 124.938Z"
        fill="#6AAF3E" />
    <path d="M86.4214 104.374L87.0608 105.663L87.2131 104.648" fill="#FCD11A" />
    <path
        d="M95.9036 105.702C99.8728 103.789 102.288 100.573 101.297 98.5172C100.307 96.4619 96.286 96.3464 92.3168 98.2592C88.3476 100.172 85.9328 103.389 86.9233 105.444C87.9138 107.499 91.9344 107.615 95.9036 105.702Z"
        fill="#FCD11A" />
    <path d="M100.784 97.4512L101.301 98.5068H100.784V97.4512Z" fill="#FCD11A" />
    <path
        d="M95.3938 104.646C99.3631 102.734 101.778 99.5168 100.787 97.4615C99.7968 95.4062 95.7762 95.2907 91.807 97.2035C87.8378 99.1164 85.4231 102.333 86.4135 104.388C87.404 106.444 91.4246 106.559 95.3938 104.646Z"
        fill="#FEDE17" />
    <path
        d="M99.8598 97.898C100.723 99.6844 98.5403 102.283 95.0893 103.988C91.6383 105.693 88.2177 105.754 87.355 103.988C86.4922 102.222 88.6542 99.4916 92.1052 97.827C95.5562 96.1624 98.997 96.1116 99.8598 97.898Z"
        fill="#FEA500" />
    <path
        d="M93.9324 100.121C94.4399 100.76 94.4298 101.288 93.5772 101.968C93.2338 102.282 92.8128 102.498 92.3577 102.594C91.9026 102.691 91.43 102.664 90.9889 102.516L90.3089 103.054L89.8115 102.77L90.5017 102.222C90.3073 102.071 90.1509 101.877 90.0452 101.655C89.9394 101.433 89.8872 101.189 89.8927 100.943L91.2427 100.456C91.2275 100.628 91.2486 100.803 91.3045 100.967C91.3604 101.131 91.45 101.282 91.5675 101.41L92.3998 100.75C91.8821 100.11 91.872 99.5827 92.7246 98.9026C93.0717 98.5846 93.4995 98.3681 93.9614 98.2768C94.4232 98.1855 94.9013 98.2229 95.3433 98.385L95.7391 98.0703L96.2365 98.3545L95.8203 98.6793C95.9729 98.8001 96.0954 98.9546 96.1781 99.1307C96.2609 99.3069 96.3017 99.4998 96.2974 99.6943L94.9779 100.212C94.9802 99.9621 94.8979 99.7189 94.7444 99.5218L93.9324 100.121ZM92.6535 101.572C92.8362 101.42 92.8667 101.298 92.7246 101.075L91.9633 101.674C92.0721 101.724 92.1929 101.742 92.3116 101.725C92.4303 101.709 92.5418 101.66 92.6332 101.582L92.6535 101.572ZM93.5772 99.7857L94.3283 99.197C94.2192 99.1481 94.0987 99.1307 93.9803 99.1469C93.8619 99.163 93.7504 99.212 93.6584 99.2883V99.2883C93.4757 99.4304 93.4452 99.5522 93.5975 99.7755"
        fill="#FFF039" />
    <path d="M55.8497 99.8262L55.2407 101.125L56.1136 100.618" fill="#FCD11A" />
    <path
        d="M69.5023 107.797C70.4934 105.773 68.1256 102.58 64.2138 100.664C60.302 98.7487 56.3275 98.8365 55.3364 100.86C54.3454 102.884 56.7131 106.078 60.6249 107.993C64.5367 109.909 68.5113 109.821 69.5023 107.797Z"
        fill="#FCD11A" />
    <path d="M70.0087 106.769L69.5012 107.804L69.1865 107.408L70.0087 106.769Z" fill="#FCD11A" />
    <path
        d="M70.0043 106.76C70.9953 104.736 68.6276 101.542 64.7158 99.6266C60.804 97.7111 56.8294 97.7989 55.8384 99.8228C54.8473 101.847 57.2151 105.04 61.1269 106.956C65.0387 108.871 69.0132 108.783 70.0043 106.76Z"
        fill="#FEDE17" />
    <path
        d="M69.0853 106.312C68.2226 108.078 64.8731 107.967 61.4728 106.312C58.0726 104.658 55.9005 102.049 56.7632 100.293C57.626 98.5374 61.0567 98.5577 64.4569 100.222C67.8572 101.887 69.9481 104.546 69.0853 106.312Z"
        fill="#FEA500" />
    <path
        d="M63.7464 103.074C63.5637 103.856 63.1475 104.17 62.0919 103.927C61.6309 103.853 61.1985 103.655 60.841 103.355C60.4834 103.055 60.2142 102.663 60.0619 102.222L59.2296 102.019L59.1484 101.46L59.9909 101.663C59.9881 101.42 60.0427 101.179 60.1503 100.96C60.2578 100.742 60.4153 100.551 60.61 100.405L61.8077 101.156C61.664 101.251 61.5419 101.375 61.4492 101.52C61.3565 101.665 61.2954 101.828 61.2698 101.998L62.2848 102.242C62.4675 101.45 62.8633 101.115 63.9189 101.369C64.3828 101.439 64.8181 101.637 65.1765 101.94C65.5348 102.243 65.8022 102.639 65.9489 103.084L66.4361 103.196L66.5275 103.754L66.02 103.632C66.024 103.828 65.9819 104.022 65.8973 104.198C65.8127 104.374 65.6878 104.528 65.5328 104.647L64.3249 103.937C64.521 103.788 64.6605 103.577 64.7208 103.338L63.7464 103.074ZM61.8382 102.963C62.0716 103.013 62.1833 102.963 62.2645 102.719L61.3307 102.496C61.3592 102.612 61.4201 102.717 61.5064 102.8C61.5927 102.883 61.7007 102.939 61.8179 102.963H61.8382ZM63.787 102.597L64.7005 102.81C64.6728 102.696 64.6133 102.591 64.529 102.508C64.4446 102.426 64.3387 102.369 64.2234 102.343V102.343C64.0001 102.293 63.8885 102.343 63.8073 102.597"
        fill="#FFF039" />
    <path d="M54.7734 131.778L70.9221 140.944L71.795 150.17L54.7734 133.321" fill="#FF8C00" />
    <path d="M73.3784 142.416L88.1568 133.332L75.7637 146.384" fill="#FF8C00" />
    <path d="M81.0825 135.707L81.722 136.985L81.8641 135.981" fill="#FCD11A" />
    <path
        d="M90.4701 137.033C94.3939 135.142 96.7797 131.96 95.7989 129.925C94.8182 127.89 90.8423 127.773 86.9186 129.664C82.9948 131.555 80.609 134.737 81.5898 136.772C82.5705 138.807 86.5464 138.924 90.4701 137.033Z"
        fill="#FCD11A" />
    <path d="M95.2925 128.855L95.8 129.901H95.2925V128.855Z" fill="#FCD11A" />
    <path
        d="M89.9501 135.978C93.8739 134.087 96.2597 130.905 95.2789 128.87C94.2982 126.834 90.3223 126.718 86.3985 128.608C82.4748 130.499 80.089 133.682 81.0697 135.717C82.0505 137.752 86.0264 137.869 89.9501 135.978Z"
        fill="#FEDE17" />
    <path
        d="M94.3791 129.302C95.2317 131.068 93.0799 133.636 89.6593 135.29C86.2388 136.945 82.8588 137.036 82.0062 135.29C81.1536 133.545 83.2953 130.835 86.7057 129.2C90.1161 127.566 93.5265 127.526 94.3791 129.302Z"
        fill="#FEA500" />
    <path
        d="M88.5123 131.494C89.0198 132.124 89.0097 132.651 88.1571 133.321C87.8143 133.629 87.3954 133.84 86.9437 133.931C86.4921 134.022 86.0244 133.99 85.5891 133.839L84.9192 134.367L84.4219 134.083L85.1019 133.545C84.9077 133.396 84.7513 133.204 84.6455 132.983C84.5396 132.763 84.4874 132.52 84.4929 132.276L85.8327 131.799C85.8178 131.97 85.8389 132.143 85.8949 132.305C85.9508 132.468 86.0403 132.617 86.1575 132.743L86.9797 132.093C86.4722 131.464 86.4519 130.936 87.3045 130.266C87.6485 129.953 88.0716 129.741 88.5278 129.651C88.984 129.562 89.4561 129.599 89.8927 129.759L90.2784 129.454L90.7758 129.738L90.3698 130.063C90.5211 130.184 90.6421 130.339 90.7231 130.515C90.8041 130.692 90.843 130.884 90.8367 131.078L89.5273 131.586C89.5334 131.337 89.4546 131.093 89.304 130.895L88.5123 131.494ZM87.2537 132.966C87.4364 132.814 87.4669 132.702 87.3248 132.479L86.5737 133.078C86.6825 133.128 86.8033 133.146 86.9219 133.13C87.0406 133.113 87.1522 133.064 87.2436 132.986V132.986L87.2537 132.966ZM88.1774 131.21L88.9183 130.621C88.8095 130.571 88.6887 130.553 88.5701 130.569C88.4514 130.586 88.3398 130.635 88.2484 130.713V130.713C88.0657 130.855 88.0353 130.977 88.1875 131.2"
        fill="#FFF039" />
    <path d="M43.5479 126.227L42.8374 127.719L43.8524 127.14" fill="#FCD11A" />
    <path
        d="M59.7192 135.336C60.8686 132.985 58.1154 129.277 53.5697 127.055C49.024 124.833 44.4073 124.937 43.2579 127.288C42.1085 129.639 44.8617 133.346 49.4074 135.569C53.953 137.791 58.5698 137.687 59.7192 135.336Z"
        fill="#FCD11A" />
    <path d="M59.9702 134.265L59.3714 135.473L59.0161 135.016L59.9702 134.265Z" fill="#FCD11A" />
    <path
        d="M59.9667 134.257C61.1155 131.911 58.3696 128.208 53.8335 125.987C49.2974 123.766 44.6889 123.867 43.5401 126.213C42.3913 128.559 45.1372 132.262 49.6733 134.483C54.2093 136.704 58.8179 136.603 59.9667 134.257Z"
        fill="#FEDE17" />
    <path
        d="M58.9048 133.748C57.8898 135.778 54.0227 135.666 50.0743 133.748C46.126 131.829 43.6087 128.805 44.6136 126.765C45.6184 124.724 49.5871 124.735 53.5354 126.683C57.4838 128.632 59.8995 131.708 58.9048 133.748Z"
        fill="#FEA500" />
    <path
        d="M52.7031 129.982C52.4899 130.895 52.0027 131.261 50.7847 130.997C50.258 130.906 49.7653 130.675 49.3582 130.329C48.9511 129.982 48.6445 129.533 48.4705 129.028L47.4555 128.794L47.354 128.145L48.369 128.378C48.3654 128.095 48.4288 127.815 48.5541 127.561C48.6793 127.307 48.8628 127.086 49.0897 126.917L50.4802 127.789C50.3079 127.903 50.1624 128.052 50.0537 128.228C49.9451 128.403 49.8759 128.6 49.8509 128.804L51.0283 129.089C51.2414 128.165 51.6982 127.779 52.9264 128.074C53.4637 128.164 53.9655 128.401 54.3759 128.76C54.7863 129.118 55.0891 129.583 55.2507 130.104L55.8089 130.236L55.9105 130.885L55.3218 130.743C55.3194 130.963 55.2671 131.18 55.1686 131.377C55.0701 131.574 54.9281 131.746 54.7534 131.88L53.3831 130.936C53.6139 130.762 53.7786 130.515 53.85 130.236L52.7031 129.982ZM50.4904 129.86C50.7543 129.921 50.8862 129.86 50.9877 129.576L49.9016 129.322C49.9349 129.455 50.0048 129.576 50.1036 129.671C50.2023 129.766 50.3258 129.832 50.4599 129.86V129.86H50.4904ZM52.7437 129.434L53.7587 129.687C53.7271 129.553 53.6579 129.429 53.559 129.332C53.4602 129.235 53.3358 129.168 53.2004 129.139V129.139C52.9466 129.078 52.8147 129.139 52.7132 129.434"
        fill="#FFF039" />
    <path
        d="M127.762 210.685C127.762 210.685 129.376 199.093 149.889 196.475C149.859 196.464 146.57 216.287 127.762 210.685Z"
        fill="#89DB5B" />
    <path
        d="M128.422 210.898C128.422 210.898 128.513 210.898 128.564 210.898C136.026 207.16 143.104 202.7 149.696 197.581C149.696 197.216 149.778 196.85 149.818 196.485L148.996 196.566H148.641C142.205 201.546 135.301 205.89 128.026 209.538C128.026 209.66 127.945 209.792 127.915 209.923C127.884 210.055 127.854 210.401 127.823 210.644L128.422 210.898Z"
        fill="#6AAF3E" />
    <path
        d="M122.393 146.161C122.393 146.161 131.122 138.376 148.468 149.663C148.468 149.693 133.101 162.634 122.393 146.161Z"
        fill="#89DB5B" />
    <path
        d="M122.768 146.78C122.768 146.78 122.839 146.841 122.89 146.851C130.996 148.837 139.278 150.023 147.616 150.393C147.89 150.15 148.154 149.896 148.417 149.642L147.737 149.175L147.443 148.983C139.315 148.61 131.241 147.451 123.337 145.521L123.002 145.735L122.464 146.232C122.565 146.408 122.667 146.591 122.768 146.78Z"
        fill="#6AAF3E" />
    <path
        d="M133.771 49.7363C133.906 49.7363 134.035 49.7898 134.13 49.885C134.225 49.9801 134.279 50.1092 134.279 50.2438C134.279 50.3784 134.225 50.5075 134.13 50.6027C134.035 50.6979 133.906 50.7513 133.771 50.7513C133.637 50.7513 133.507 50.6979 133.412 50.6027C133.317 50.5075 133.264 50.3784 133.264 50.2438C133.264 50.1092 133.317 49.9801 133.412 49.885C133.507 49.7898 133.637 49.7363 133.771 49.7363Z"
        fill="#631303" />
    <path
        d="M271.395 175.068C271.395 175.068 269.781 163.477 249.268 160.858C249.268 160.848 252.597 180.671 271.395 175.068Z"
        fill="#89DB5B" />
    <path
        d="M270.735 175.271C270.735 175.271 270.644 175.271 270.593 175.271C263.131 171.533 256.053 167.073 249.461 161.955C249.461 161.589 249.379 161.224 249.339 160.858L250.161 160.94H250.516C256.953 165.919 263.856 170.264 271.131 173.911C271.131 174.033 271.212 174.165 271.243 174.297C271.273 174.429 271.303 174.774 271.334 175.018L270.735 175.271Z"
        fill="#6AAF3E" />
    <path
        d="M252.282 124.034C252.282 124.034 243.553 116.249 226.207 127.536C226.217 127.526 241.584 140.477 252.282 124.034Z"
        fill="#89DB5B" />
    <path
        d="M251.917 124.612C251.917 124.612 251.846 124.673 251.795 124.684C243.689 126.669 235.408 127.856 227.07 128.226C226.796 127.982 226.532 127.729 226.268 127.475L226.948 127.008L227.242 126.815C235.375 126.44 243.451 125.278 251.359 123.344L251.694 123.557L252.232 124.054C252.123 124.237 252.019 124.423 251.917 124.612Z"
        fill="#6AAF3E" />
    <g class="waterBox">
        <path opacity="0.55"
            d="M48.8999 2.24293C47.9973 1.6962 47.0375 1.25031 46.0376 0.913283C42.343 -0.325017 37.9176 -0.558467 34.6087 1.83693C30.7314 4.64848 30.0716 9.84528 29.351 14.2402L29.2901 14.5853C28.2965 21.4509 27.862 28.3859 27.9909 35.3218C27.9909 40.5186 28.1566 45.712 28.4882 50.902C28.4882 51.5618 28.5694 52.2215 28.6303 52.8813L33.7764 49.5419C33.3602 46.1112 33.1166 42.6602 32.9339 39.2092C32.4781 32.3076 32.6242 25.3795 33.3704 18.5032C33.658 15.1994 34.3395 11.9419 35.4004 8.79983C36.4154 6.14053 38.0901 2.34443 41.2569 1.80648C43.4696 1.43093 45.1038 2.82148 46.5248 4.27293C47.7803 5.63309 48.793 7.19861 49.519 8.90133C50.5145 11.1562 51.1482 13.554 51.3968 16.0063C51.3968 16.0672 51.3968 16.1383 51.3968 16.1992L58.6337 16.5138C56.9488 11.0531 53.8937 5.24733 48.8999 2.24293ZM41.3077 1.10613H41.4092H41.3077Z"
            fill="#631303" />
        <path
            d="M83.1257 27.5874L74.153 72.3388C74.153 72.3388 66.2158 84.7624 44.9312 76.5917C23.6467 68.4209 24.1136 53.3583 28.2548 48.872L50.4528 13.8951C50.4528 13.8951 58.5728 3.7451 71.6967 9.7539C85.6631 16.0773 83.1257 27.5874 83.1257 27.5874Z"
            fill="#FFBB00" />
        <path opacity="0.55"
            d="M83.3388 19.488C84.0487 20.9691 84.3567 22.6107 84.232 24.2484C83.9275 28.5215 80.4359 30.6429 76.4571 31.1301C71.0974 31.673 65.698 30.5945 60.9581 28.0343C56.5733 25.7506 50.4427 21.5485 50.8081 15.8543C51.0618 11.368 55.1929 8.74932 59.2427 8.08957C60.8731 7.8262 62.5286 7.75466 64.1756 7.87642C71.24 8.38392 80.172 12.7687 83.3388 19.488Z"
            fill="#631303" />
        <path opacity="0.55"
            d="M84.6176 11.3473C84.5283 10.7523 84.3926 10.1652 84.2116 9.59134C83.5646 7.6541 82.3642 5.94884 80.7588 4.68617C79.1534 3.4235 77.2133 2.65874 75.1782 2.48634C59.5675 -0.619558 50.3208 23.8521 50.3208 23.8521L53.3658 27.8512C52.6858 26.958 57.5476 19.65 58.0551 18.8481C61.1001 13.8949 65.1601 8.69814 70.6309 6.25199C72.8335 5.23699 75.8277 4.45544 78.2637 5.02384C82.2222 5.94749 81.3087 10.4642 79.6746 13.1438C79.5495 13.2944 79.4591 13.4707 79.41 13.6602C79.3608 13.8497 79.3542 14.0477 79.3904 14.24C79.4863 14.4346 79.6293 14.6021 79.8066 14.7272C81.3927 16.0816 82.5907 17.833 83.2779 19.8022C84.5373 17.1742 85.0029 14.2359 84.6176 11.3473V11.3473Z"
            fill="#631303" />
        <path
            d="M52.6452 24.847C53.1609 24.847 53.579 24.1927 53.579 23.3854C53.579 22.5782 53.1609 21.9238 52.6452 21.9238C52.1295 21.9238 51.7114 22.5782 51.7114 23.3854C51.7114 24.1927 52.1295 24.847 52.6452 24.847Z"
            fill="#631303" />
        <path
            d="M95.0623 45.4717L65.5461 56.4032C65.5461 56.4032 57.4972 65.3758 63.3639 70.8974C63.3639 70.8974 65.3228 72.6229 74.4071 66.066C83.4913 59.5091 96.0976 50.0696 96.0976 50.0696L95.0623 45.4717Z"
            fill="#FFBB00" />
        <path opacity="0.46"
            d="M94.4808 45.8159L64.9646 56.7475C64.9646 56.7475 56.9156 65.7201 62.7823 71.2417C62.7823 71.2417 64.7413 72.9672 73.8255 66.4103C82.9098 59.8534 95.5161 50.4139 95.5161 50.4139L94.4808 45.8159Z"
            fill="#606060" />
        <path
            d="M102.178 53.9913C106.491 53.2068 109.077 47.5678 107.954 41.3963C106.832 35.2248 102.425 30.8579 98.1124 31.6424C93.7995 32.427 91.2133 38.066 92.336 44.2374C93.4586 50.4089 97.865 54.7759 102.178 53.9913Z"
            fill="#FFBB00" />
        <path d="M85.1761 49.8463L72.2856 34.4285L76.0818 33.7383L88.2617 47.9889L85.1761 49.8463Z" fill="#FFBB00" />
        <path opacity="0.46"
            d="M102.432 53.7697C106.745 52.9851 109.331 47.3461 108.208 41.1746C107.086 35.0031 102.679 30.6362 98.3663 31.4207C94.0534 32.2053 91.4672 37.8443 92.5899 44.0158C93.7125 50.1873 98.1189 54.5542 102.432 53.7697Z"
            fill="#606060" />
        <path
            d="M103.63 54.1251C107.942 53.3406 110.529 47.7016 109.406 41.5301C108.283 35.3586 103.877 30.9916 99.564 31.7762C95.2512 32.5608 92.665 38.1998 93.7876 44.3712C94.9103 50.5427 99.3167 54.9097 103.63 54.1251Z"
            fill="#FFBB00" />
        <path
            d="M105.07 35.8394C105.205 35.8394 105.334 35.8928 105.429 35.988C105.524 36.0832 105.577 36.2123 105.577 36.3469C105.577 36.4815 105.524 36.6105 105.429 36.7057C105.334 36.8009 105.205 36.8544 105.07 36.8544C104.935 36.8544 104.806 36.8009 104.711 36.7057C104.616 36.6105 104.562 36.4815 104.562 36.3469C104.562 36.2123 104.616 36.0832 104.711 35.988C104.806 35.8928 104.935 35.8394 105.07 35.8394Z"
            fill="#631303" />
        <path
            d="M101.842 34.5503C101.977 34.5503 102.106 34.6038 102.201 34.6989C102.297 34.7941 102.35 34.9232 102.35 35.0578C102.35 35.1924 102.297 35.3215 102.201 35.4167C102.106 35.5118 101.977 35.5653 101.842 35.5653C101.708 35.5653 101.579 35.5118 101.484 35.4167C101.388 35.3215 101.335 35.1924 101.335 35.0578C101.335 34.9232 101.388 34.7941 101.484 34.6989C101.579 34.6038 101.708 34.5503 101.842 34.5503Z"
            fill="#631303" />
        <path
            d="M99.6603 39.6763C99.7949 39.6763 99.924 39.7297 100.019 39.8249C100.114 39.9201 100.168 40.0492 100.168 40.1838C100.168 40.3184 100.114 40.4475 100.019 40.5426C99.924 40.6378 99.7949 40.6913 99.6603 40.6913C99.5257 40.6913 99.3966 40.6378 99.3015 40.5426C99.2063 40.4475 99.1528 40.3184 99.1528 40.1838C99.1528 40.0492 99.2063 39.9201 99.3015 39.8249C99.3966 39.7297 99.5257 39.6763 99.6603 39.6763Z"
            fill="#631303" />
        <path
            d="M102.593 38.5493C102.728 38.5493 102.857 38.6028 102.952 38.698C103.047 38.7931 103.101 38.9222 103.101 39.0568C103.101 39.1914 103.047 39.3205 102.952 39.4157C102.857 39.5108 102.728 39.5643 102.593 39.5643C102.459 39.5643 102.33 39.5108 102.235 39.4157C102.139 39.3205 102.086 39.1914 102.086 39.0568C102.086 38.9222 102.139 38.7931 102.235 38.698C102.33 38.6028 102.459 38.5493 102.593 38.5493Z"
            fill="#631303" />
        <path
            d="M99.6603 34.043C99.7949 34.043 99.924 34.0964 100.019 34.1916C100.114 34.2868 100.168 34.4159 100.168 34.5505C100.168 34.6851 100.114 34.8142 100.019 34.9093C99.924 35.0045 99.7949 35.058 99.6603 35.058C99.5257 35.058 99.3966 35.0045 99.3015 34.9093C99.2063 34.8142 99.1528 34.6851 99.1528 34.5505C99.1528 34.4159 99.2063 34.2868 99.3015 34.1916C99.3966 34.0964 99.5257 34.043 99.6603 34.043Z"
            fill="#631303" />
        <path
            d="M95.8337 38.8843C95.9683 38.8843 96.0974 38.9377 96.1925 39.0329C96.2877 39.1281 96.3412 39.2572 96.3412 39.3918C96.3412 39.5264 96.2877 39.6555 96.1925 39.7506C96.0974 39.8458 95.9683 39.8993 95.8337 39.8993C95.6991 39.8993 95.57 39.8458 95.4748 39.7506C95.3796 39.6555 95.3262 39.5264 95.3262 39.3918C95.3262 39.2572 95.3796 39.1281 95.4748 39.0329C95.57 38.9377 95.6991 38.8843 95.8337 38.8843Z"
            fill="#631303" />
        <path
            d="M96.8993 45.2487V45.3604C96.8993 45.495 96.8458 45.624 96.7506 45.7192C96.6555 45.8144 96.5264 45.8679 96.3918 45.8679C96.2572 45.8679 96.1281 45.8144 96.0329 45.7192C95.9378 45.624 95.8843 45.495 95.8843 45.3604V45.2487C95.8843 45.1141 95.9378 44.985 96.0329 44.8899C96.1281 44.7947 96.2572 44.7412 96.3918 44.7412C96.5264 44.7412 96.6555 44.7947 96.7506 44.8899C96.8458 44.985 96.8993 45.1141 96.8993 45.2487Z"
            fill="#631303" />
        <path
            d="M97.7521 48.0093C97.8867 48.0093 98.0158 48.0627 98.111 48.1579C98.2062 48.2531 98.2596 48.3822 98.2596 48.5168C98.2596 48.6514 98.2062 48.7805 98.111 48.8756C98.0158 48.9708 97.8867 49.0243 97.7521 49.0243C97.6175 49.0243 97.4885 48.9708 97.3933 48.8756C97.2981 48.7805 97.2446 48.6514 97.2446 48.5168C97.2446 48.3822 97.2981 48.2531 97.3933 48.1579C97.4885 48.0627 97.6175 48.0093 97.7521 48.0093Z"
            fill="#631303" />
        <path
            d="M101.578 50.3643C101.713 50.3643 101.842 50.4177 101.937 50.5129C102.032 50.6081 102.086 50.7372 102.086 50.8718C102.086 51.0064 102.032 51.1354 101.937 51.2306C101.842 51.3258 101.713 51.3793 101.578 51.3793C101.444 51.3793 101.315 51.3258 101.219 51.2306C101.124 51.1354 101.071 51.0064 101.071 50.8718C101.071 50.7372 101.124 50.6081 101.219 50.5129C101.315 50.4177 101.444 50.3643 101.578 50.3643Z"
            fill="#631303" />
        <path
            d="M104.725 50.8413C104.859 50.8413 104.988 50.8948 105.084 50.99C105.179 51.0851 105.232 51.2142 105.232 51.3488C105.232 51.4834 105.179 51.6125 105.084 51.7077C104.988 51.8028 104.859 51.8563 104.725 51.8563C104.59 51.8563 104.461 51.8028 104.366 51.7077C104.271 51.6125 104.217 51.4834 104.217 51.3488C104.217 51.2142 104.271 51.0851 104.366 50.99C104.461 50.8948 104.59 50.8413 104.725 50.8413Z"
            fill="#631303" />
        <path
            d="M107.161 47.7959C107.295 47.7959 107.424 47.8494 107.52 47.9445C107.615 48.0397 107.668 48.1688 107.668 48.3034C107.668 48.438 107.615 48.5671 107.52 48.6623C107.424 48.7574 107.295 48.8109 107.161 48.8109C107.026 48.8109 106.897 48.7574 106.802 48.6623C106.707 48.5671 106.653 48.438 106.653 48.3034C106.653 48.1688 106.707 48.0397 106.802 47.9445C106.897 47.8494 107.026 47.7959 107.161 47.7959Z"
            fill="#631303" />
        <path
            d="M107.323 39.1079C107.458 39.1079 107.587 39.1614 107.682 39.2566C107.777 39.3517 107.831 39.4808 107.831 39.6154C107.831 39.75 107.777 39.8791 107.682 39.9743C107.587 40.0694 107.458 40.1229 107.323 40.1229C107.189 40.1229 107.06 40.0694 106.965 39.9743C106.869 39.8791 106.816 39.75 106.816 39.6154C106.816 39.4808 106.869 39.3517 106.965 39.2566C107.06 39.1614 107.189 39.1079 107.323 39.1079Z"
            fill="#631303" />
        <path
            d="M96.737 35.5044C96.8716 35.5044 97.0007 35.5579 97.0959 35.653C97.191 35.7482 97.2445 35.8773 97.2445 36.0119C97.2445 36.1465 97.191 36.2756 97.0959 36.3708C97.0007 36.4659 96.8716 36.5194 96.737 36.5194C96.6024 36.5194 96.4733 36.4659 96.3781 36.3708C96.283 36.2756 96.2295 36.1465 96.2295 36.0119C96.2295 35.8773 96.283 35.7482 96.3781 35.653C96.4733 35.5579 96.6024 35.5044 96.737 35.5044Z"
            fill="#631303" />
        <path
            d="M95.7219 41.5845C95.8565 41.5845 95.9855 41.6379 96.0807 41.7331C96.1759 41.8283 96.2294 41.9574 96.2294 42.092C96.2294 42.2266 96.1759 42.3557 96.0807 42.4508C95.9855 42.546 95.8565 42.5995 95.7219 42.5995C95.5873 42.5995 95.4582 42.546 95.363 42.4508C95.2678 42.3557 95.2144 42.2266 95.2144 42.092C95.2144 41.9574 95.2678 41.8283 95.363 41.7331C95.4582 41.6379 95.5873 41.5845 95.7219 41.5845Z"
            fill="#631303" />
        <path
            d="M104.39 40.6909C104.524 40.6909 104.653 40.7444 104.749 40.8396C104.844 40.9347 104.897 41.0638 104.897 41.1984C104.897 41.333 104.844 41.4621 104.749 41.5573C104.653 41.6524 104.524 41.7059 104.39 41.7059C104.255 41.7059 104.126 41.6524 104.031 41.5573C103.936 41.4621 103.882 41.333 103.882 41.1984C103.882 41.0638 103.936 40.9347 104.031 40.8396C104.126 40.7444 104.255 40.6909 104.39 40.6909Z"
            fill="#631303" />
        <path
            d="M104.958 43.6143C105.093 43.6143 105.222 43.6677 105.317 43.7629C105.412 43.8581 105.466 43.9872 105.466 44.1218C105.466 44.2564 105.412 44.3854 105.317 44.4806C105.222 44.5758 105.093 44.6293 104.958 44.6293C104.824 44.6293 104.694 44.5758 104.599 44.4806C104.504 44.3854 104.451 44.2564 104.451 44.1218C104.451 43.9872 104.504 43.8581 104.599 43.7629C104.694 43.6677 104.824 43.6143 104.958 43.6143Z"
            fill="#631303" />
        <path
            d="M104.116 46.7812C104.25 46.7812 104.38 46.8347 104.475 46.9299C104.57 47.0251 104.623 47.1542 104.623 47.2887C104.623 47.4233 104.57 47.5524 104.475 47.6476C104.38 47.7428 104.25 47.7962 104.116 47.7962C103.981 47.7962 103.852 47.7428 103.757 47.6476C103.662 47.5524 103.608 47.4233 103.608 47.2887C103.608 47.1542 103.662 47.0251 103.757 46.9299C103.852 46.8347 103.981 46.7812 104.116 46.7812Z"
            fill="#631303" />
        <path
            d="M100.675 46.9941C100.81 46.9941 100.939 47.0476 101.034 47.1428C101.129 47.238 101.182 47.367 101.182 47.5016C101.182 47.6362 101.129 47.7653 101.034 47.8605C100.939 47.9557 100.81 48.0091 100.675 48.0091C100.54 48.0091 100.411 47.9557 100.316 47.8605C100.221 47.7653 100.167 47.6362 100.167 47.5016C100.167 47.367 100.221 47.238 100.316 47.1428C100.411 47.0476 100.54 46.9941 100.675 46.9941Z"
            fill="#631303" />
        <path
            d="M98.0871 43.7363C98.2217 43.7363 98.3508 43.7898 98.446 43.885C98.5411 43.9801 98.5946 44.1092 98.5946 44.2438C98.5946 44.3784 98.5411 44.5075 98.446 44.6027C98.3508 44.6979 98.2217 44.7513 98.0871 44.7513C97.9525 44.7513 97.8234 44.6979 97.7282 44.6027C97.6331 44.5075 97.5796 44.3784 97.5796 44.2438C97.5796 44.1092 97.6331 43.9801 97.7282 43.885C97.8234 43.7898 97.9525 43.7363 98.0871 43.7363Z"
            fill="#631303" />
        <path
            d="M101.071 43.0866L101.183 42.9749C101.278 42.8794 101.408 42.8257 101.543 42.8257C101.678 42.8257 101.808 42.8794 101.903 42.9749C101.999 43.0705 102.053 43.2001 102.053 43.3353C102.053 43.4704 101.999 43.6 101.903 43.6956L101.792 43.8072C101.696 43.9028 101.567 43.9565 101.431 43.9565C101.296 43.9565 101.167 43.9028 101.071 43.8072C100.976 43.7117 100.922 43.5821 100.922 43.4469C100.922 43.3118 100.976 43.1822 101.071 43.0866Z"
            fill="#631303" />
        <path opacity="0.46" d="M85.4476 50.108L72.5571 34.6902L76.3532 34L88.5332 48.2506L85.4476 50.108Z"
            fill="#606060" />
        <path
            d="M130.772 51.5319C129.56 50.9608 128.384 50.3167 127.25 49.6034C125.585 48.5884 124.053 51.1868 125.717 52.2323C126.851 52.9456 128.028 53.5896 129.239 54.1608C129.59 54.3533 130.002 54.4037 130.389 54.3017C130.776 54.1998 131.109 53.9531 131.32 53.6127C131.52 53.2634 131.575 52.8493 131.473 52.46C131.37 52.0706 131.118 51.7372 130.772 51.5319V51.5319Z"
            fill="#68E1FD" />
        <path
            d="M117.303 63.661L113.568 61.631C111.852 60.6769 110.309 63.3058 112.035 64.2599L115.77 66.2899C117.486 67.244 119.018 64.6151 117.303 63.661Z"
            fill="#68E1FD" />
        <path
            d="M121.363 53.4499L118.724 51.359C118.432 51.0857 118.048 50.9336 117.648 50.9336C117.248 50.9336 116.864 51.0857 116.572 51.359C116.289 51.6458 116.131 52.0322 116.131 52.4349C116.131 52.8375 116.289 53.224 116.572 53.5108L119.16 55.6017C119.452 55.875 119.836 56.0271 120.236 56.0271C120.636 56.0271 121.02 55.875 121.312 55.6017C121.602 55.3217 121.769 54.9389 121.779 54.5362C121.788 54.1335 121.639 53.7433 121.363 53.4499V53.4499Z"
            fill="#68E1FD" />
        <path
            d="M129.798 65.3865C128.745 63.69 127.506 62.117 126.103 60.6972C125.814 60.4283 125.433 60.2819 125.038 60.2888C124.644 60.2958 124.267 60.4556 123.988 60.7345C123.709 61.0135 123.55 61.3898 123.543 61.7842C123.536 62.1786 123.682 62.5604 123.951 62.849C125.173 64.077 126.252 65.439 127.169 66.909C128.204 68.5838 130.833 67.0511 129.798 65.3865Z"
            fill="#68E1FD" />
        <path
            d="M142.921 54.5868C141.469 54.1201 139.982 53.7638 138.476 53.5211C138.092 53.4232 137.686 53.4733 137.338 53.6614C136.99 53.8495 136.726 54.1618 136.598 54.5361C136.49 54.9196 136.535 55.3302 136.725 55.6807C136.914 56.0312 137.233 56.2942 137.613 56.4138C139.124 56.6726 140.614 57.0459 142.069 57.5303C143.987 58.1292 144.789 55.1857 142.921 54.5868Z"
            fill="#68E1FD" />
        <path
            d="M141.45 63.0521C140.178 62.8232 138.972 62.3173 137.917 61.5702C137.568 61.37 137.154 61.3152 136.765 61.4177C136.375 61.5203 136.042 61.772 135.837 62.1183C135.642 62.4688 135.59 62.8812 135.692 63.269C135.794 63.6569 136.042 63.9902 136.385 64.1991C137.655 65.1072 139.105 65.7335 140.638 66.0362C141.021 66.1366 141.428 66.0876 141.777 65.8991C142.125 65.7107 142.389 65.3969 142.515 65.0212C142.582 64.8221 142.607 64.6115 142.589 64.4024C142.571 64.1932 142.51 63.99 142.41 63.8054C142.31 63.6208 142.173 63.4587 142.008 63.3291C141.843 63.1995 141.653 63.1052 141.45 63.0521V63.0521Z"
            fill="#68E1FD" />
        <path
            d="M129.889 75.4857L126.915 72.2884C125.575 70.8471 123.423 73.0091 124.763 74.4402L127.737 77.6375C129.077 79.0788 131.229 76.9168 129.889 75.4857Z"
            fill="#68E1FD" />
        <path
            d="M126.58 42.8131L123.22 40.9455C121.505 39.9914 119.972 42.6202 121.688 43.5743L125.047 45.4419C126.763 46.396 128.295 43.7672 126.58 42.8131Z"
            fill="#68E1FD" />
    </g>
    <defs>
        <linearGradient id="paint0_linear_310_297-784154" x1="159.075" y1="224.854" x2="179.893" y2="202.077"
            gradientUnits="userSpaceOnUse">
            <stop stop-color="white" stop-opacity="0" />
            <stop offset="1" />
        </linearGradient>
        <linearGradient id="paint1_linear_310_297-156141" x1="6793.74" y1="9842.55" x2="7031.32" y2="9082.61"
            gradientUnits="userSpaceOnUse">
            <stop stop-color="white" stop-opacity="0" />
            <stop offset="1" />
        </linearGradient>
    </defs>
</svg>