<svg viewBox="0 0 276 100" fill="none" xmlns="http://www.w3.org/2000/svg">
    <g class="cloudsSvg">
        <path
            d="M159.173 28.7458C159.173 28.7458 152.667 18.474 146.272 23.6708C146.272 23.6708 144.242 14.8606 137.736 18.1492C131.23 21.4378 134.001 26.8376 134.001 26.8376C134.001 26.8376 125.678 25.9444 124.815 30.2074C124.815 30.2074 117.568 30.2074 116.827 36.2974H160.878L159.173 28.7458Z"
            fill="white" />
        <path
            d="M160.878 37.3024H116.827C116.683 37.3022 116.541 37.2713 116.409 37.2118C116.278 37.1523 116.161 37.0655 116.066 36.9573C115.97 36.8507 115.898 36.725 115.854 36.5886C115.81 36.4521 115.796 36.308 115.812 36.1656C116.441 31.0906 121.11 29.4869 124.064 29.2534C125.353 26.0968 130.154 25.7517 132.57 25.772C132.293 24.5412 132.349 23.259 132.732 22.0571C133.128 20.9934 133.735 20.0207 134.517 19.1974C135.298 18.3742 136.238 17.7173 137.279 17.2663C138.095 16.784 139.013 16.5022 139.959 16.4439C140.905 16.3857 141.851 16.5527 142.72 16.9313C144.983 17.9463 146.232 20.5041 146.78 22.0875C148.103 21.3158 149.655 21.0354 151.165 21.2958C156.057 22.0875 159.823 27.9542 159.985 28.1978C160.043 28.2996 160.088 28.4088 160.117 28.5226L161.822 36.0641C161.855 36.2116 161.855 36.3647 161.822 36.5122C161.789 36.6597 161.723 36.7979 161.629 36.9167C161.539 37.0311 161.425 37.1248 161.296 37.1913C161.166 37.2579 161.024 37.2957 160.878 37.3024V37.3024ZM118.086 35.2724H159.609L158.229 29.1824C157.661 28.3399 154.514 23.9044 150.88 23.3258C150.172 23.2178 149.449 23.2683 148.763 23.4737C148.076 23.6791 147.444 24.0341 146.912 24.5134C146.778 24.6232 146.619 24.6971 146.448 24.728C146.278 24.7589 146.103 24.7457 145.939 24.6898C145.775 24.6339 145.629 24.537 145.513 24.4084C145.397 24.2798 145.316 24.1238 145.278 23.9551C145.278 23.9551 144.313 19.8951 141.857 18.7888C141.264 18.5506 140.623 18.4559 139.986 18.5124C139.349 18.5688 138.735 18.7748 138.193 19.1136C137.393 19.4467 136.668 19.9374 136.061 20.5564C135.454 21.1754 134.978 21.9101 134.661 22.7168C134.298 23.9447 134.384 25.2617 134.904 26.4317C134.988 26.5949 135.026 26.7777 135.014 26.9606C135.002 27.1436 134.941 27.3199 134.837 27.4709C134.732 27.6218 134.589 27.7417 134.423 27.8179C134.256 27.8941 134.072 27.9236 133.889 27.9035C133.818 27.9035 126.47 27.2133 125.82 30.4714C125.773 30.7041 125.645 30.9128 125.46 31.0612C125.274 31.2096 125.042 31.2882 124.805 31.2834C124.582 31.253 119.405 31.3037 118.086 35.2724Z"
            fill="#093F68" />
    </g>
    <path
        d="M74.9483 90.9349C77.5346 88.8742 80.7641 87.7905 84.0699 87.8741C87.3757 87.9576 90.5465 89.203 93.0254 91.3916C92.792 91.1683 95.3904 89.1079 95.6441 88.9556C96.7801 88.2373 98.0455 87.7477 99.3692 87.5143C101.886 87.0677 104.881 87.5955 106.637 89.6052C106.665 89.3252 106.777 89.0603 106.958 88.8448C107.139 88.6294 107.381 88.4735 107.652 88.3974C107.927 88.3372 108.213 88.36 108.475 88.463C108.737 88.566 108.963 88.7445 109.123 88.9759C108.291 87.697 110.889 85.8802 111.691 85.4336C113.05 84.7774 114.501 84.3357 115.995 84.1242C119.475 83.4568 123.026 83.2385 126.561 83.4746C133.663 83.9098 140.52 86.2329 146.425 90.2041C147.064 90.6507 147.693 91.1074 148.302 91.5845C151.54 88.1132 155.001 86.1948 159.894 86.7125C160.934 86.7749 161.946 87.0733 162.853 87.5851C163.761 88.0968 164.54 88.8085 165.131 89.6661C165.385 89.0589 165.826 88.5484 166.39 88.2089C166.954 87.8694 167.612 87.7186 168.267 87.7782C168.921 87.8556 169.552 88.0678 170.12 88.4015C170.688 88.7352 171.18 89.1831 171.566 89.7169C170.257 88.0218 176.225 84.9565 177.21 84.7738C180.305 84.2156 183.3 86.2456 185.725 87.9914C187.939 85.6247 190.856 84.0338 194.044 83.4543C197.232 82.8747 200.522 83.3374 203.427 84.7738C205.639 83.244 208.354 82.6217 211.011 83.0353C213.668 83.4489 216.066 84.8669 217.708 86.9967C218.571 86.2703 219.573 85.7291 220.654 85.4068C221.735 85.0845 222.87 84.9879 223.989 85.1231C225.109 85.2583 226.189 85.6223 227.162 86.1926C228.134 86.7629 228.98 87.5272 229.644 88.438C229.452 88.1436 233.39 86.6516 233.857 86.682C234.65 86.7621 235.406 87.058 236.043 87.5376C236.68 88.0171 237.174 88.662 237.47 89.4022C238.056 88.9049 238.793 88.619 239.561 88.5902C240.013 88.6463 240.427 88.8752 240.714 89.2289C241.002 89.5827 241.141 90.0339 241.104 90.4883C241.613 90.0341 242.222 89.7057 242.881 89.5294C243.54 89.3531 244.232 89.3339 244.9 89.4733C248.351 90.2244 249.315 95.8576 249.305 98.8113H53.1156C52.8111 98.791 64.9201 84.3475 74.9483 90.9349Z"
        fill="#70CC40" />
    <path
        d="M249.315 99.8059H53.1156C52.8942 99.8175 52.6752 99.7563 52.4919 99.6316C52.3086 99.507 52.1712 99.3258 52.1006 99.1157C51.6134 97.6744 57.5207 93.0257 57.5714 92.9648C63.8847 88.0725 69.9747 86.8748 74.8264 89.6965C77.4658 87.8298 80.6281 86.8461 83.8607 86.8862C87.0932 86.9263 90.2302 87.9882 92.8224 89.9198C93.5182 89.2538 94.2648 88.643 95.0554 88.0928C96.2961 87.3144 97.6741 86.7804 99.1154 86.5196C100.35 86.2674 101.623 86.2669 102.857 86.518C104.092 86.7692 105.264 87.2668 106.302 87.9812C106.591 87.7154 106.939 87.5207 107.317 87.4128C107.582 87.3501 107.857 87.3329 108.129 87.362C108.89 86.1617 109.95 85.1791 111.204 84.5099C112.625 83.8044 114.15 83.3315 115.721 83.1092C119.316 82.404 122.987 82.172 126.642 82.419C133.925 82.8616 140.956 85.2485 147.003 89.3311C147.409 89.6052 147.815 89.8894 148.211 90.1939C151.824 86.5805 155.509 85.1798 160.005 85.6568C161.904 85.8081 163.695 86.603 165.08 87.9101C165.512 87.4894 166.029 87.1657 166.596 86.9609C167.163 86.7561 167.768 86.6748 168.369 86.7226C169.294 86.8002 170.181 87.1264 170.937 87.6665C172.368 85.6974 176.276 83.8806 177.027 83.7385C180.143 83.1701 183.056 84.8245 185.604 86.6211C187.918 84.4023 190.843 82.9266 194.003 82.384C197.163 81.8413 200.413 82.2565 203.336 83.5761C205.614 82.18 208.305 81.6135 210.954 81.9722C213.602 82.331 216.045 83.5931 217.87 85.5452C219.722 84.3317 221.944 83.8146 224.141 84.086C226.338 84.3574 228.367 85.3996 229.868 87.0271C231.15 86.3775 232.516 85.9095 233.928 85.6365C234.718 85.6983 235.484 85.9387 236.168 86.3396C236.852 86.7404 237.436 87.2913 237.876 87.9507C238.425 87.6507 239.048 87.5101 239.673 87.5447C240.034 87.5829 240.384 87.6922 240.703 87.8664C241.022 88.0406 241.303 88.2763 241.53 88.5597C241.607 88.6536 241.678 88.7519 241.743 88.8541C242.803 88.3434 244.002 88.1971 245.154 88.4379C249.264 89.3413 250.361 95.3602 250.35 98.7706C250.353 98.9074 250.328 99.0432 250.277 99.1701C250.226 99.2969 250.15 99.4122 250.053 99.5089C249.957 99.6055 249.841 99.6817 249.715 99.7328C249.588 99.7838 249.452 99.8087 249.315 99.8059ZM55.2775 97.7759H248.27C248.077 94.8629 247.041 90.9551 244.697 90.4476C244.187 90.3436 243.66 90.36 243.158 90.4957C242.656 90.6314 242.192 90.8826 241.804 91.2292C241.652 91.37 241.461 91.461 241.256 91.4901C241.051 91.5191 240.842 91.4847 240.657 91.3916C240.474 91.298 240.323 91.1508 240.225 90.9695C240.127 90.7882 240.087 90.5814 240.109 90.3766C240.116 90.2878 240.104 90.1987 240.074 90.1148C240.044 90.0309 239.998 89.9541 239.936 89.8894C239.887 89.8123 239.824 89.7456 239.749 89.6934C239.674 89.6411 239.589 89.6042 239.5 89.5849C238.967 89.6563 238.466 89.8821 238.059 90.2345C237.932 90.3213 237.787 90.3782 237.635 90.4009C237.483 90.4237 237.328 90.4116 237.182 90.3657C237.035 90.3197 236.901 90.2411 236.789 90.1358C236.677 90.0304 236.591 89.901 236.536 89.7574C236.31 89.2195 235.948 88.7496 235.485 88.3937C235.022 88.0379 234.475 87.8083 233.897 87.7274C232.729 88.066 231.591 88.5041 230.497 89.0368C230.425 89.1485 230.332 89.2451 230.223 89.321C230.111 89.3948 229.986 89.4458 229.854 89.471C229.723 89.4962 229.587 89.495 229.456 89.4677C229.325 89.4403 229.201 89.3873 229.09 89.3116C228.979 89.2359 228.885 89.139 228.812 89.0266C228.229 88.2405 227.492 87.5814 226.646 87.0895C225.8 86.5976 224.862 86.2831 223.891 86.1654C222.919 86.0476 221.934 86.129 220.995 86.4045C220.056 86.68 219.183 87.144 218.429 87.768C218.323 87.8688 218.196 87.9454 218.058 87.9927C217.919 88.04 217.772 88.0569 217.627 88.0421C217.483 88.0264 217.345 87.9802 217.22 87.9067C217.096 87.8332 216.989 87.734 216.906 87.6158C215.427 85.7022 213.273 84.4262 210.884 84.0489C208.496 83.6715 206.053 84.2213 204.056 85.5858C203.904 85.7007 203.722 85.7702 203.531 85.7864C203.341 85.8026 203.15 85.7647 202.98 85.6771C200.274 84.3551 197.216 83.9326 194.252 84.4712C191.289 85.0099 188.575 86.4815 186.507 88.6714C186.339 88.8603 186.106 88.9796 185.854 89.0059C185.603 89.0321 185.35 88.9635 185.147 88.8135C182.782 87.0981 180.072 85.3016 177.412 85.7685C176.337 85.9918 172.52 88.2654 172.419 89.1789C172.499 89.2802 172.558 89.3969 172.592 89.5218C172.626 89.6467 172.635 89.7772 172.616 89.9054C172.598 90.0336 172.554 90.1568 172.487 90.2674C172.42 90.3781 172.331 90.4739 172.226 90.5491C172.118 90.6296 171.995 90.6878 171.864 90.7202C171.733 90.7525 171.597 90.7585 171.463 90.7377C171.33 90.7169 171.202 90.6698 171.088 90.5991C170.973 90.5284 170.873 90.4355 170.795 90.3258C170.495 89.9046 170.111 89.5501 169.667 89.2846C169.223 89.0191 168.73 88.8483 168.217 88.783C167.783 88.7406 167.347 88.834 166.968 89.0504C166.59 89.2668 166.289 89.5955 166.105 89.9909C166.042 90.1729 165.928 90.3332 165.778 90.4529C165.627 90.5727 165.445 90.6471 165.253 90.6673C165.061 90.6875 164.868 90.6528 164.695 90.5672C164.523 90.4815 164.378 90.3485 164.278 90.1837C163.769 89.4605 163.103 88.8619 162.33 88.433C161.556 88.0041 160.695 87.7559 159.812 87.7071C155.671 87.2707 152.454 88.6308 149.074 92.2746C148.9 92.4602 148.662 92.5737 148.408 92.5925C148.155 92.6113 147.903 92.5341 147.703 92.3761C147.105 91.9092 146.485 91.4525 145.866 91.0363C140.113 87.1703 133.43 84.9166 126.51 84.5099C123.059 84.2819 119.593 84.5003 116.198 85.1595C114.789 85.3402 113.419 85.7445 112.138 86.3572C111.123 86.9459 109.905 88.0725 109.935 88.4684C110.016 88.5802 110.073 88.7073 110.103 88.8418C110.132 88.9763 110.135 89.1156 110.109 89.251C110.083 89.3864 110.03 89.5151 109.953 89.6293C109.876 89.7436 109.777 89.8409 109.661 89.9155C109.545 89.99 109.415 90.0401 109.279 90.0628C109.143 90.0855 109.004 90.0803 108.87 90.0474C108.736 90.0146 108.61 89.9549 108.5 89.8719C108.39 89.7888 108.298 89.6843 108.23 89.5646V89.5646C108.187 89.5077 108.129 89.4636 108.063 89.4368C107.997 89.41 107.925 89.4015 107.855 89.4123C107.788 89.4357 107.728 89.4761 107.682 89.5295C107.636 89.5829 107.604 89.6475 107.591 89.7168C107.575 89.916 107.501 90.1062 107.378 90.2635C107.255 90.4209 107.088 90.5383 106.898 90.6012C106.708 90.664 106.504 90.6695 106.312 90.6169C106.119 90.5643 105.946 90.456 105.814 90.3055C104.211 88.4582 101.409 88.2045 99.5011 88.5496C98.3094 88.7618 97.1692 89.1993 96.1414 89.8386C95.3712 90.4097 94.6388 91.0301 93.949 91.6961C93.9054 91.8514 93.8254 91.994 93.7156 92.1122C93.5254 92.3013 93.2681 92.4074 93 92.4074C92.7318 92.4074 92.4746 92.3013 92.2844 92.1122V92.1122C89.986 90.0967 87.0539 88.9503 83.998 88.8724C80.942 88.7946 77.9553 89.7901 75.5572 91.6859C75.3905 91.8298 75.1815 91.9155 74.9618 91.9301C74.7421 91.9448 74.5236 91.8875 74.3392 91.7671C73.2446 91.0443 72.0122 90.5557 70.7196 90.3321C69.427 90.1085 68.1021 90.1548 66.8282 90.4679C61.875 91.554 57.4192 95.5429 55.2775 97.7759V97.7759ZM230.517 87.9101L230.588 88.0319L230.517 87.9101Z"
        fill="#093F68" />
    <path d="M236.77 64.1897H173.586V70.4725H236.77V64.1897Z" fill="#FA0085" />
    <path
        d="M236.77 71.4874H173.586C173.317 71.4874 173.059 71.3804 172.868 71.1901C172.678 70.9997 172.571 70.7416 172.571 70.4724V64.2098C172.571 63.9406 172.678 63.6825 172.868 63.4921C173.059 63.3018 173.317 63.1948 173.586 63.1948H236.77C237.039 63.1948 237.297 63.3018 237.487 63.4921C237.678 63.6825 237.785 63.9406 237.785 64.2098V70.4927C237.779 70.7583 237.67 71.0113 237.48 71.1973C237.291 71.3833 237.035 71.4874 236.77 71.4874V71.4874ZM174.601 69.4574H235.755V65.2248H174.601V69.4574Z"
        fill="#093F68" />
    <path d="M234.06 70.4724H176.286V98.2225H234.06V70.4724Z" fill="#FA0085" />
    <path
        d="M234.07 99.2376H176.286C176.017 99.2376 175.759 99.1307 175.568 98.9403C175.378 98.75 175.271 98.4918 175.271 98.2226V70.4725C175.271 70.2033 175.378 69.9452 175.568 69.7548C175.759 69.5645 176.017 69.4575 176.286 69.4575H234.07C234.339 69.4575 234.597 69.5645 234.788 69.7548C234.978 69.9452 235.085 70.2033 235.085 70.4725V98.2226C235.085 98.4918 234.978 98.75 234.788 98.9403C234.597 99.1307 234.339 99.2376 234.07 99.2376ZM177.301 97.2076H233.055V71.4875H177.301V97.2076Z"
        fill="#093F68" />
    <path d="M271.807 47.4929H241.611V52.3852H271.807V47.4929Z" fill="#FA0085" />
    <path
        d="M271.807 53.3899H241.611C241.342 53.3899 241.084 53.283 240.893 53.0926C240.703 52.9023 240.596 52.6441 240.596 52.3749V47.4928C240.596 47.2236 240.703 46.9654 240.893 46.7751C241.084 46.5847 241.342 46.4778 241.611 46.4778H271.807C272.077 46.4778 272.335 46.5847 272.525 46.7751C272.716 46.9654 272.822 47.2236 272.822 47.4928V52.3749C272.822 52.6441 272.716 52.9023 272.525 53.0926C272.335 53.283 272.077 53.3899 271.807 53.3899ZM242.626 51.3599H270.792V48.5078H242.626V51.3599Z"
        fill="#093F68" />
    <path d="M269.625 52.375H243.793V98.8011H269.625V52.375Z" fill="#FA0085" />
    <path
        d="M269.625 99.8264H243.793C243.524 99.8264 243.266 99.7194 243.076 99.5291C242.885 99.3387 242.778 99.0806 242.778 98.8114V52.3751C242.778 52.1059 242.885 51.8477 243.076 51.6574C243.266 51.467 243.524 51.3601 243.793 51.3601H269.625C269.894 51.3601 270.153 51.467 270.343 51.6574C270.533 51.8477 270.64 52.1059 270.64 52.3751V98.8114C270.64 99.0806 270.533 99.3387 270.343 99.5291C270.153 99.7194 269.894 99.8264 269.625 99.8264ZM244.808 97.7964H268.61V53.3901H244.808V97.7964Z"
        fill="#093F68" />
    <path
        d="M150.271 74.0452V69.1326H128.104V74.0452H108.027V80.2367H111.427V98.8112H166.938V80.2367H170.338V74.0452H150.271Z"
        fill="#FA0085" />
    <path
        d="M166.938 99.8263H111.427C111.158 99.8263 110.9 99.7193 110.71 99.529C110.519 99.3386 110.412 99.0805 110.412 98.8113V81.2518H108.027C107.758 81.2518 107.5 81.1448 107.309 80.9545C107.119 80.7641 107.012 80.506 107.012 80.2368V74.0453C107.012 73.7761 107.119 73.5179 107.309 73.3276C107.5 73.1372 107.758 73.0303 108.027 73.0303H127.089V69.1327C127.089 68.8635 127.196 68.6053 127.386 68.415C127.576 68.2246 127.835 68.1177 128.104 68.1177H150.261C150.53 68.1177 150.789 68.2246 150.979 68.415C151.169 68.6053 151.276 68.8635 151.276 69.1327V73.0303H170.338C170.607 73.0303 170.865 73.1372 171.056 73.3276C171.246 73.5179 171.353 73.7761 171.353 74.0453V80.2368C171.353 80.506 171.246 80.7641 171.056 80.9545C170.865 81.1448 170.607 81.2518 170.338 81.2518H167.953V98.8113C167.953 99.0805 167.846 99.3386 167.655 99.529C167.465 99.7193 167.207 99.8263 166.938 99.8263ZM112.442 97.7963H165.923V80.2368C165.923 79.9676 166.03 79.7094 166.22 79.519C166.41 79.3287 166.668 79.2218 166.938 79.2218H169.323V75.0603H150.261C149.992 75.0603 149.734 74.9533 149.544 74.763C149.353 74.5726 149.246 74.3145 149.246 74.0453V70.1477H129.119V74.0453C129.119 74.3145 129.012 74.5726 128.821 74.763C128.631 74.9533 128.373 75.0603 128.104 75.0603H109.042V79.2218H111.427C111.697 79.2218 111.955 79.3287 112.145 79.519C112.335 79.7094 112.442 79.9676 112.442 80.2368V97.7963Z"
        fill="#093F68" />
    <path d="M58.018 59.3583V52.03H40.4788V59.3583H32.3588V52.03H14.8196V59.3583H6.9635V98.8114H66.9195V59.3583H58.018Z"
        fill="#FA0085" />
    <path
        d="M66.95 99.8262H6.96349C6.69429 99.8262 6.43612 99.7193 6.24577 99.529C6.05542 99.3386 5.94849 99.0804 5.94849 98.8112V59.3582C5.94849 59.089 6.05542 58.8308 6.24577 58.6405C6.43612 58.4501 6.69429 58.3432 6.96349 58.3432H13.8046V52.0299C13.8046 51.7607 13.9115 51.5025 14.1019 51.3122C14.2922 51.1218 14.5504 51.0149 14.8196 51.0149H32.3588C32.628 51.0149 32.8861 51.1218 33.0765 51.3122C33.2668 51.5025 33.3738 51.7607 33.3738 52.0299V58.3432H39.4638V52.0299C39.4638 51.7607 39.5707 51.5025 39.7611 51.3122C39.9514 51.1218 40.2096 51.0149 40.4788 51.0149H58.018C58.2872 51.0149 58.5453 51.1218 58.7357 51.3122C58.926 51.5025 59.033 51.7607 59.033 52.0299V58.3432H66.95C67.2192 58.3432 67.4773 58.4501 67.6677 58.6405C67.858 58.8308 67.965 59.089 67.965 59.3582V98.8112C67.965 99.0804 67.858 99.3386 67.6677 99.529C67.4773 99.7193 67.2192 99.8262 66.95 99.8262ZM8.00894 97.7962H65.935V60.3732H58.018C57.7488 60.3732 57.4906 60.2663 57.3003 60.0759C57.1099 59.8856 57.003 59.6274 57.003 59.3582V53.0449H41.4938V59.3582C41.4938 59.6274 41.3868 59.8856 41.1965 60.0759C41.0061 60.2663 40.748 60.3732 40.4788 60.3732H32.3588C32.0896 60.3732 31.8314 60.2663 31.6411 60.0759C31.4507 59.8856 31.3438 59.6274 31.3438 59.3582V53.0449H15.8346V59.3582C15.8346 59.6274 15.7276 59.8856 15.5373 60.0759C15.3469 60.2663 15.0888 60.3732 14.8196 60.3732H7.97849L8.00894 97.7962Z"
        fill="#093F68" />
    <path
        d="M101.044 31.0904V24.9902H97.3798V18.8799H95.0148V12.7798H81.1296V18.8799H78.7647V24.9902H75.1107V31.0904H71.4465V98.8112H104.698V31.0904H101.044Z"
        fill="#FA0085" />
    <path
        d="M104.698 99.8262H71.4465C71.1773 99.8262 70.9192 99.7193 70.7288 99.5289C70.5385 99.3386 70.4315 99.0804 70.4315 98.8112V31.0904C70.4315 30.8212 70.5385 30.563 70.7288 30.3727C70.9192 30.1823 71.1773 30.0754 71.4465 30.0754H74.0551V25.0004C74.0551 24.7312 74.162 24.4731 74.3524 24.2827C74.5427 24.0924 74.8009 23.9854 75.0701 23.9854H77.7091V18.9104C77.7091 18.6412 77.816 18.3831 78.0064 18.1927C78.1967 18.0024 78.4549 17.8954 78.7241 17.8954H80.1451V12.8204C80.1451 12.5512 80.252 12.2931 80.4424 12.1027C80.6327 11.9124 80.8909 11.8054 81.1601 11.8054H95.0453C95.3145 11.8054 95.5726 11.9124 95.763 12.1027C95.9533 12.2931 96.0603 12.5512 96.0603 12.8204V17.8954H97.4001C97.6693 17.8954 97.9274 18.0024 98.1178 18.1927C98.3081 18.3831 98.4151 18.6412 98.4151 18.9104V23.9854H101.054C101.323 23.9854 101.581 24.0924 101.772 24.2827C101.962 24.4731 102.069 24.7312 102.069 25.0004V30.0754H104.718C104.987 30.0754 105.246 30.1823 105.436 30.3727C105.626 30.563 105.733 30.8212 105.733 31.0904V98.8112C105.733 98.9462 105.706 99.0799 105.654 99.2044C105.602 99.3289 105.525 99.4417 105.429 99.5362C105.332 99.6307 105.218 99.7051 105.093 99.7549C104.967 99.8047 104.833 99.8289 104.698 99.8262V99.8262ZM72.4615 97.7962H103.683V32.1054H101.034C100.765 32.1054 100.506 31.9985 100.316 31.8081C100.126 31.6178 100.019 31.3596 100.019 31.0904V26.0154H97.4001C97.1309 26.0154 96.8727 25.9085 96.6824 25.7181C96.492 25.5278 96.3851 25.2696 96.3851 25.0004V19.9254H95.0351C94.7659 19.9254 94.5078 19.8185 94.3174 19.6281C94.1271 19.4378 94.0201 19.1796 94.0201 18.9104V13.8354H82.1751V18.9104C82.1751 19.1796 82.0681 19.4378 81.8778 19.6281C81.6874 19.8185 81.4293 19.9254 81.1601 19.9254H79.8101V25.0004C79.8101 25.2696 79.7032 25.5278 79.5128 25.7181C79.3225 25.9085 79.0643 26.0154 78.7951 26.0154H76.0851V31.0904C76.0851 31.3596 75.9781 31.6178 75.7878 31.8081C75.5974 31.9985 75.3393 32.1054 75.0701 32.1054H72.4209L72.4615 97.7962Z"
        fill="#093F68" />
    <path
        d="M88.0721 13.7949C87.8029 13.7949 87.5448 13.6879 87.3544 13.4976C87.1641 13.3072 87.0571 13.0491 87.0571 12.7799V1.18858C87.0571 0.919389 87.1641 0.661219 87.3544 0.47087C87.5448 0.28052 87.8029 0.173584 88.0721 0.173584C88.3413 0.173584 88.5995 0.28052 88.7898 0.47087C88.9802 0.661219 89.0871 0.919389 89.0871 1.18858V12.7799C89.0871 13.0491 88.9802 13.3072 88.7898 13.4976C88.5995 13.6879 88.3413 13.7949 88.0721 13.7949Z"
        fill="#093F68" />
    <path
        d="M79.3736 99.8264C79.1044 99.8264 78.8463 99.7194 78.6559 99.5291C78.4656 99.3387 78.3586 99.0806 78.3586 98.8114V32.9886C78.3586 32.7194 78.4656 32.4613 78.6559 32.2709C78.8463 32.0806 79.1044 31.9736 79.3736 31.9736C79.6428 31.9736 79.901 32.0806 80.0914 32.2709C80.2817 32.4613 80.3886 32.7194 80.3886 32.9886V98.8114C80.3886 99.0806 80.2817 99.3387 80.0914 99.5291C79.901 99.7194 79.6428 99.8264 79.3736 99.8264Z"
        fill="#093F68" />
    <path
        d="M85.2201 99.8264C84.9509 99.8264 84.6927 99.7194 84.5024 99.5291C84.312 99.3387 84.2051 99.0806 84.2051 98.8114V32.9886C84.2051 32.7194 84.312 32.4613 84.5024 32.2709C84.6927 32.0806 84.9509 31.9736 85.2201 31.9736C85.4893 31.9736 85.7474 32.0806 85.9378 32.2709C86.1281 32.4613 86.2351 32.7194 86.2351 32.9886V98.8114C86.2351 99.0806 86.1281 99.3387 85.9378 99.5291C85.7474 99.7194 85.4893 99.8264 85.2201 99.8264Z"
        fill="#093F68" />
    <path
        d="M90.9751 99.8264C90.7059 99.8264 90.4477 99.7194 90.2574 99.5291C90.067 99.3387 89.9601 99.0806 89.9601 98.8114V32.9886C89.9601 32.7194 90.067 32.4613 90.2574 32.2709C90.4477 32.0806 90.7059 31.9736 90.9751 31.9736C91.2443 31.9736 91.5024 32.0806 91.6928 32.2709C91.8831 32.4613 91.9901 32.7194 91.9901 32.9886V98.8114C91.9901 99.0806 91.8831 99.3387 91.6928 99.5291C91.5024 99.7194 91.2443 99.8264 90.9751 99.8264Z"
        fill="#093F68" />
    <path
        d="M96.7707 99.8264C96.5015 99.8264 96.2434 99.7194 96.053 99.5291C95.8627 99.3387 95.7557 99.0806 95.7557 98.8114V32.9886C95.7557 32.7194 95.8627 32.4613 96.053 32.2709C96.2434 32.0806 96.5015 31.9736 96.7707 31.9736C97.0399 31.9736 97.2981 32.0806 97.4885 32.2709C97.6788 32.4613 97.7857 32.7194 97.7857 32.9886V98.8114C97.7857 99.0806 97.6788 99.3387 97.4885 99.5291C97.2981 99.7194 97.0399 99.8264 96.7707 99.8264Z"
        fill="#093F68" />
    <path
        d="M20.7371 65.8948H17.0425C16.6165 65.8948 16.2711 66.2401 16.2711 66.6662V68.9093C16.2711 69.3354 16.6165 69.6807 17.0425 69.6807H20.7371C21.1632 69.6807 21.5085 69.3354 21.5085 68.9093V66.6662C21.5085 66.2401 21.1632 65.8948 20.7371 65.8948Z"
        fill="#093F68" />
    <path
        d="M31.5367 65.8948H27.8421C27.416 65.8948 27.0707 66.2401 27.0707 66.6662V68.9093C27.0707 69.3354 27.416 69.6807 27.8421 69.6807H31.5367C31.9627 69.6807 32.3081 69.3354 32.3081 68.9093V66.6662C32.3081 66.2401 31.9627 65.8948 31.5367 65.8948Z"
        fill="#093F68" />
    <path
        d="M20.7371 73.5784H17.0425C16.6165 73.5784 16.2711 73.9237 16.2711 74.3498V76.5929C16.2711 77.019 16.6165 77.3643 17.0425 77.3643H20.7371C21.1632 77.3643 21.5085 77.019 21.5085 76.5929V74.3498C21.5085 73.9237 21.1632 73.5784 20.7371 73.5784Z"
        fill="#093F68" />
    <path
        d="M31.5367 73.5784H27.8421C27.416 73.5784 27.0707 73.9237 27.0707 74.3498V76.5929C27.0707 77.019 27.416 77.3643 27.8421 77.3643H31.5367C31.9627 77.3643 32.3081 77.019 32.3081 76.5929V74.3498C32.3081 73.9237 31.9627 73.5784 31.5367 73.5784Z"
        fill="#093F68" />
    <path
        d="M20.7371 81.262H17.0425C16.6165 81.262 16.2711 81.6073 16.2711 82.0334V84.2765C16.2711 84.7025 16.6165 85.0479 17.0425 85.0479H20.7371C21.1632 85.0479 21.5085 84.7025 21.5085 84.2765V82.0334C21.5085 81.6073 21.1632 81.262 20.7371 81.262Z"
        fill="#093F68" />
    <path
        d="M31.5367 81.262H27.8421C27.416 81.262 27.0707 81.6073 27.0707 82.0334V84.2765C27.0707 84.7025 27.416 85.0479 27.8421 85.0479H31.5367C31.9627 85.0479 32.3081 84.7025 32.3081 84.2765V82.0334C32.3081 81.6073 31.9627 81.262 31.5367 81.262Z"
        fill="#093F68" />
    <path
        d="M20.7371 88.9353H17.0425C16.6165 88.9353 16.2711 89.2807 16.2711 89.7067V91.9499C16.2711 92.3759 16.6165 92.7212 17.0425 92.7212H20.7371C21.1632 92.7212 21.5085 92.3759 21.5085 91.9499V89.7067C21.5085 89.2807 21.1632 88.9353 20.7371 88.9353Z"
        fill="#093F68" />
    <path
        d="M31.5367 88.9353H27.8421C27.416 88.9353 27.0707 89.2807 27.0707 89.7067V91.9499C27.0707 92.3759 27.416 92.7212 27.8421 92.7212H31.5367C31.9627 92.7212 32.3081 92.3759 32.3081 91.9499V89.7067C32.3081 89.2807 31.9627 88.9353 31.5367 88.9353Z"
        fill="#093F68" />
    <path
        d="M46.0512 65.8948H42.3566C41.9306 65.8948 41.5852 66.2401 41.5852 66.6662V68.9093C41.5852 69.3354 41.9306 69.6807 42.3566 69.6807H46.0512C46.4772 69.6807 46.8226 69.3354 46.8226 68.9093V66.6662C46.8226 66.2401 46.4772 65.8948 46.0512 65.8948Z"
        fill="#093F68" />
    <path
        d="M56.8508 65.8948H53.1562C52.7301 65.8948 52.3848 66.2401 52.3848 66.6662V68.9093C52.3848 69.3354 52.7301 69.6807 53.1562 69.6807H56.8508C57.2768 69.6807 57.6222 69.3354 57.6222 68.9093V66.6662C57.6222 66.2401 57.2768 65.8948 56.8508 65.8948Z"
        fill="#093F68" />
    <path
        d="M46.0512 73.5784H42.3566C41.9306 73.5784 41.5852 73.9237 41.5852 74.3498V76.5929C41.5852 77.019 41.9306 77.3643 42.3566 77.3643H46.0512C46.4772 77.3643 46.8226 77.019 46.8226 76.5929V74.3498C46.8226 73.9237 46.4772 73.5784 46.0512 73.5784Z"
        fill="#093F68" />
    <path
        d="M56.8508 73.5784H53.1562C52.7301 73.5784 52.3848 73.9237 52.3848 74.3498V76.5929C52.3848 77.019 52.7301 77.3643 53.1562 77.3643H56.8508C57.2768 77.3643 57.6222 77.019 57.6222 76.5929V74.3498C57.6222 73.9237 57.2768 73.5784 56.8508 73.5784Z"
        fill="#093F68" />
    <path
        d="M46.0512 81.262H42.3566C41.9306 81.262 41.5852 81.6073 41.5852 82.0334V84.2765C41.5852 84.7025 41.9306 85.0479 42.3566 85.0479H46.0512C46.4772 85.0479 46.8226 84.7025 46.8226 84.2765V82.0334C46.8226 81.6073 46.4772 81.262 46.0512 81.262Z"
        fill="#093F68" />
    <path
        d="M56.8508 81.262H53.1562C52.7301 81.262 52.3848 81.6073 52.3848 82.0334V84.2765C52.3848 84.7025 52.7301 85.0479 53.1562 85.0479H56.8508C57.2768 85.0479 57.6222 84.7025 57.6222 84.2765V82.0334C57.6222 81.6073 57.2768 81.262 56.8508 81.262Z"
        fill="#093F68" />
    <path
        d="M46.0512 88.9353H42.3566C41.9306 88.9353 41.5852 89.2807 41.5852 89.7067V91.9499C41.5852 92.3759 41.9306 92.7212 42.3566 92.7212H46.0512C46.4772 92.7212 46.8226 92.3759 46.8226 91.9499V89.7067C46.8226 89.2807 46.4772 88.9353 46.0512 88.9353Z"
        fill="#093F68" />
    <path
        d="M56.8508 88.9353H53.1562C52.7301 88.9353 52.3848 89.2807 52.3848 89.7067V91.9499C52.3848 92.3759 52.7301 92.7212 53.1562 92.7212H56.8508C57.2768 92.7212 57.6222 92.3759 57.6222 91.9499V89.7067C57.6222 89.2807 57.2768 88.9353 56.8508 88.9353Z"
        fill="#093F68" />
    <path
        d="M274.172 99.8264H1.82762C1.55843 99.8264 1.30027 99.7195 1.10992 99.5291C0.919566 99.3388 0.812622 99.0806 0.812622 98.8114C0.812622 98.5422 0.919566 98.284 1.10992 98.0937C1.30027 97.9033 1.55843 97.7964 1.82762 97.7964H274.172C274.442 97.7964 274.7 97.9033 274.89 98.0937C275.08 98.284 275.187 98.5422 275.187 98.8114C275.187 99.0806 275.08 99.3388 274.89 99.5291C274.7 99.7195 274.442 99.8264 274.172 99.8264Z"
        fill="#093F68" />
    <path
        d="M163.152 49.7564C173.931 49.7564 182.67 41.0177 182.67 30.2379C182.67 19.4582 173.931 10.7195 163.152 10.7195C152.372 10.7195 143.633 19.4582 143.633 30.2379C143.633 41.0177 152.372 49.7564 163.152 49.7564Z"
        fill="#FFBC0E" />
    <path
        d="M163.152 50.7712C159.09 50.7733 155.119 49.5707 151.741 47.3157C148.363 45.0607 145.73 41.8545 144.174 38.1026C142.618 34.3508 142.21 30.2219 143.001 26.2382C143.793 22.2544 145.747 18.5947 148.619 15.7221C151.49 12.8494 155.149 10.8928 159.132 10.0996C163.115 9.30653 167.244 9.71257 170.997 11.2664C174.75 12.8202 177.957 15.452 180.214 18.829C182.471 22.2059 183.675 26.1762 183.675 30.2378C183.67 35.6802 181.506 40.8983 177.659 44.7476C173.811 48.5969 168.594 50.7632 163.152 50.7712V50.7712ZM163.152 11.7344C159.492 11.7324 155.913 12.8158 152.869 14.8478C149.825 16.8798 147.452 19.7689 146.05 23.1498C144.648 26.5307 144.28 30.2514 144.992 33.8414C145.705 37.4314 147.467 40.7294 150.054 43.3181C152.641 45.9069 155.938 47.6702 159.528 48.385C163.118 49.0998 166.839 48.7339 170.22 47.3337C173.602 45.9335 176.492 43.5619 178.526 40.5188C180.56 37.4757 181.645 33.8979 181.645 30.2378C181.637 25.3346 179.686 20.6344 176.22 17.1664C172.754 13.6983 168.055 11.7451 163.152 11.7344V11.7344Z"
        fill="#093F68" />
    <path
        d="M118.959 83.9009C118.689 83.9009 118.431 83.7939 118.241 83.6036C118.051 83.4132 117.944 83.1551 117.944 82.8859V80.9574C117.944 80.6882 118.051 80.43 118.241 80.2397C118.431 80.0493 118.689 79.9424 118.959 79.9424C119.228 79.9424 119.486 80.0493 119.676 80.2397C119.867 80.43 119.974 80.6882 119.974 80.9574V82.8859C119.974 83.1551 119.867 83.4132 119.676 83.6036C119.486 83.7939 119.228 83.9009 118.959 83.9009Z"
        fill="#093F68" />
    <path
        d="M125.82 83.9009C125.551 83.9009 125.293 83.7939 125.102 83.6036C124.912 83.4132 124.805 83.1551 124.805 82.8859V80.9574C124.805 80.6882 124.912 80.43 125.102 80.2397C125.293 80.0493 125.551 79.9424 125.82 79.9424C126.089 79.9424 126.347 80.0493 126.538 80.2397C126.728 80.43 126.835 80.6882 126.835 80.9574V82.8859C126.835 83.1551 126.728 83.4132 126.538 83.6036C126.347 83.7939 126.089 83.9009 125.82 83.9009Z"
        fill="#093F68" />
    <path
        d="M135.767 83.9009C135.498 83.9009 135.24 83.7939 135.049 83.6036C134.859 83.4132 134.752 83.1551 134.752 82.8859V80.9574C134.752 80.6882 134.859 80.43 135.049 80.2397C135.24 80.0493 135.498 79.9424 135.767 79.9424C136.036 79.9424 136.294 80.0493 136.485 80.2397C136.675 80.43 136.782 80.6882 136.782 80.9574V82.8859C136.782 83.1551 136.675 83.4132 136.485 83.6036C136.294 83.7939 136.036 83.9009 135.767 83.9009Z"
        fill="#093F68" />
    <path
        d="M142.598 83.9009C142.329 83.9009 142.071 83.7939 141.88 83.6036C141.69 83.4132 141.583 83.1551 141.583 82.8859V80.9574C141.583 80.6882 141.69 80.43 141.88 80.2397C142.071 80.0493 142.329 79.9424 142.598 79.9424C142.867 79.9424 143.125 80.0493 143.316 80.2397C143.506 80.43 143.613 80.6882 143.613 80.9574V82.8859C143.613 83.1551 143.506 83.4132 143.316 83.6036C143.125 83.7939 142.867 83.9009 142.598 83.9009Z"
        fill="#093F68" />
    <path
        d="M152.575 83.9009C152.306 83.9009 152.048 83.7939 151.858 83.6036C151.667 83.4132 151.56 83.1551 151.56 82.8859V80.9574C151.56 80.6882 151.667 80.43 151.858 80.2397C152.048 80.0493 152.306 79.9424 152.575 79.9424C152.845 79.9424 153.103 80.0493 153.293 80.2397C153.483 80.43 153.59 80.6882 153.59 80.9574V82.8859C153.59 83.1551 153.483 83.4132 153.293 83.6036C153.103 83.7939 152.845 83.9009 152.575 83.9009Z"
        fill="#093F68" />
    <path
        d="M159.406 83.9009C159.137 83.9009 158.879 83.7939 158.689 83.6036C158.498 83.4132 158.391 83.1551 158.391 82.8859V80.9574C158.391 80.6882 158.498 80.43 158.689 80.2397C158.879 80.0493 159.137 79.9424 159.406 79.9424C159.676 79.9424 159.934 80.0493 160.124 80.2397C160.314 80.43 160.421 80.6882 160.421 80.9574V82.8859C160.421 83.1551 160.314 83.4132 160.124 83.6036C159.934 83.7939 159.676 83.9009 159.406 83.9009Z"
        fill="#093F68" />
    <path
        d="M118.959 90.4681C118.689 90.4681 118.431 90.3611 118.241 90.1708C118.051 89.9804 117.944 89.7223 117.944 89.4531V87.555C117.944 87.2858 118.051 87.0277 118.241 86.8373C118.431 86.647 118.689 86.54 118.959 86.54C119.228 86.54 119.486 86.647 119.676 86.8373C119.867 87.0277 119.974 87.2858 119.974 87.555V89.4835C119.966 89.7474 119.855 89.9978 119.666 90.1817C119.476 90.3655 119.223 90.4682 118.959 90.4681V90.4681Z"
        fill="#093F68" />
    <path
        d="M125.82 90.4681C125.551 90.4681 125.293 90.3611 125.102 90.1708C124.912 89.9804 124.805 89.7223 124.805 89.4531V87.555C124.805 87.2858 124.912 87.0277 125.102 86.8373C125.293 86.647 125.551 86.54 125.82 86.54C126.089 86.54 126.347 86.647 126.538 86.8373C126.728 87.0277 126.835 87.2858 126.835 87.555V89.4835C126.827 89.7474 126.717 89.9978 126.527 90.1817C126.338 90.3655 126.084 90.4682 125.82 90.4681V90.4681Z"
        fill="#093F68" />
    <path
        d="M135.767 90.4681C135.498 90.4681 135.24 90.3611 135.049 90.1708C134.859 89.9804 134.752 89.7223 134.752 89.4531V87.555C134.752 87.2858 134.859 87.0277 135.049 86.8373C135.24 86.647 135.498 86.54 135.767 86.54C136.036 86.54 136.294 86.647 136.485 86.8373C136.675 87.0277 136.782 87.2858 136.782 87.555V89.4835C136.774 89.7474 136.664 89.9978 136.474 90.1817C136.285 90.3655 136.031 90.4682 135.767 90.4681V90.4681Z"
        fill="#093F68" />
    <path
        d="M142.598 90.4681C142.329 90.4681 142.071 90.3611 141.88 90.1708C141.69 89.9804 141.583 89.7223 141.583 89.4531V87.555C141.583 87.2858 141.69 87.0277 141.88 86.8373C142.071 86.647 142.329 86.54 142.598 86.54C142.867 86.54 143.125 86.647 143.316 86.8373C143.506 87.0277 143.613 87.2858 143.613 87.555V89.4835C143.605 89.7474 143.495 89.9978 143.305 90.1817C143.116 90.3655 142.862 90.4682 142.598 90.4681V90.4681Z"
        fill="#093F68" />
    <path
        d="M152.575 90.4681C152.306 90.4681 152.048 90.3611 151.858 90.1708C151.667 89.9804 151.56 89.7223 151.56 89.4531V87.555C151.56 87.2858 151.667 87.0277 151.858 86.8373C152.048 86.647 152.306 86.54 152.575 86.54C152.845 86.54 153.103 86.647 153.293 86.8373C153.483 87.0277 153.59 87.2858 153.59 87.555V89.4835C153.583 89.7474 153.472 89.9978 153.283 90.1817C153.093 90.3655 152.839 90.4682 152.575 90.4681V90.4681Z"
        fill="#093F68" />
    <path
        d="M159.406 90.4681C159.137 90.4681 158.879 90.3611 158.689 90.1708C158.498 89.9804 158.391 89.7223 158.391 89.4531V87.555C158.391 87.2858 158.498 87.0277 158.689 86.8373C158.879 86.647 159.137 86.54 159.406 86.54C159.676 86.54 159.934 86.647 160.124 86.8373C160.314 87.0277 160.421 87.2858 160.421 87.555V89.4835C160.413 89.7474 160.303 89.9978 160.114 90.1817C159.924 90.3655 159.67 90.4682 159.406 90.4681V90.4681Z"
        fill="#093F68" />
    <path
        d="M150.261 75.0603H128.104C127.835 75.0603 127.576 74.9533 127.386 74.763C127.196 74.5726 127.089 74.3145 127.089 74.0453C127.089 73.7761 127.196 73.5179 127.386 73.3276C127.576 73.1372 127.835 73.0303 128.104 73.0303H150.261C150.53 73.0303 150.789 73.1372 150.979 73.3276C151.169 73.5179 151.276 73.7761 151.276 74.0453C151.276 74.3145 151.169 74.5726 150.979 74.763C150.789 74.9533 150.53 75.0603 150.261 75.0603V75.0603Z"
        fill="#093F68" />
    <path
        d="M187.867 77.7907H182.66C182.391 77.7907 182.133 77.6838 181.942 77.4935C181.752 77.3031 181.645 77.0449 181.645 76.7757C181.645 76.5065 181.752 76.2484 181.942 76.058C182.133 75.8677 182.391 75.7607 182.66 75.7607H187.857C188.126 75.7607 188.384 75.8677 188.575 76.058C188.765 76.2484 188.872 76.5065 188.872 76.7757C188.872 77.0449 188.765 77.3031 188.575 77.4935C188.384 77.6838 188.126 77.7907 187.857 77.7907H187.867Z"
        fill="#093F68" />
    <path
        d="M197.814 77.7907H192.627C192.358 77.7907 192.1 77.6838 191.91 77.4935C191.719 77.3031 191.612 77.0449 191.612 76.7757C191.612 76.5065 191.719 76.2484 191.91 76.058C192.1 75.8677 192.358 75.7607 192.627 75.7607H197.814C198.083 75.7607 198.341 75.8677 198.532 76.058C198.722 76.2484 198.829 76.5065 198.829 76.7757C198.829 77.0449 198.722 77.3031 198.532 77.4935C198.341 77.6838 198.083 77.7907 197.814 77.7907Z"
        fill="#093F68" />
    <path
        d="M207.771 77.7907H202.584C202.315 77.7907 202.057 77.6838 201.867 77.4935C201.676 77.3031 201.569 77.0449 201.569 76.7757C201.569 76.5065 201.676 76.2484 201.867 76.058C202.057 75.8677 202.315 75.7607 202.584 75.7607H207.771C208.04 75.7607 208.298 75.8677 208.489 76.058C208.679 76.2484 208.786 76.5065 208.786 76.7757C208.786 77.0449 208.679 77.3031 208.489 77.4935C208.298 77.6838 208.04 77.7907 207.771 77.7907Z"
        fill="#093F68" />
    <path
        d="M217.728 77.7907H212.531C212.262 77.7907 212.004 77.6838 211.814 77.4935C211.623 77.3031 211.516 77.0449 211.516 76.7757C211.516 76.5065 211.623 76.2484 211.814 76.058C212.004 75.8677 212.262 75.7607 212.531 75.7607H217.728C217.997 75.7607 218.256 75.8677 218.446 76.058C218.636 76.2484 218.743 76.5065 218.743 76.7757C218.743 77.0449 218.636 77.3031 218.446 77.4935C218.256 77.6838 217.997 77.7907 217.728 77.7907Z"
        fill="#093F68" />
    <path
        d="M227.685 77.7907H222.489C222.219 77.7907 221.961 77.6838 221.771 77.4935C221.581 77.3031 221.474 77.0449 221.474 76.7757C221.474 76.5065 221.581 76.2484 221.771 76.058C221.961 75.8677 222.219 75.7607 222.489 75.7607H227.685C227.955 75.7607 228.213 75.8677 228.403 76.058C228.594 76.2484 228.7 76.5065 228.7 76.7757C228.7 77.0449 228.594 77.3031 228.403 77.4935C228.213 77.6838 227.955 77.7907 227.685 77.7907Z"
        fill="#093F68" />
    <path
        d="M187.867 84.6418H182.66C182.391 84.6418 182.133 84.5349 181.942 84.3445C181.752 84.1542 181.645 83.896 181.645 83.6268C181.645 83.3576 181.752 83.0995 181.942 82.9091C182.133 82.7188 182.391 82.6118 182.66 82.6118H187.857C188.126 82.6118 188.384 82.7188 188.575 82.9091C188.765 83.0995 188.872 83.3576 188.872 83.6268C188.872 83.896 188.765 84.1542 188.575 84.3445C188.384 84.5349 188.126 84.6418 187.857 84.6418H187.867Z"
        fill="#093F68" />
    <path
        d="M197.814 84.6418H192.627C192.358 84.6418 192.1 84.5349 191.91 84.3445C191.719 84.1542 191.612 83.896 191.612 83.6268C191.612 83.3576 191.719 83.0995 191.91 82.9091C192.1 82.7188 192.358 82.6118 192.627 82.6118H197.814C198.083 82.6118 198.341 82.7188 198.532 82.9091C198.722 83.0995 198.829 83.3576 198.829 83.6268C198.829 83.896 198.722 84.1542 198.532 84.3445C198.341 84.5349 198.083 84.6418 197.814 84.6418Z"
        fill="#093F68" />
    <path
        d="M207.771 84.6418H202.584C202.315 84.6418 202.057 84.5349 201.867 84.3445C201.676 84.1542 201.569 83.896 201.569 83.6268C201.569 83.3576 201.676 83.0995 201.867 82.9091C202.057 82.7188 202.315 82.6118 202.584 82.6118H207.771C208.04 82.6118 208.298 82.7188 208.489 82.9091C208.679 83.0995 208.786 83.3576 208.786 83.6268C208.786 83.896 208.679 84.1542 208.489 84.3445C208.298 84.5349 208.04 84.6418 207.771 84.6418Z"
        fill="#093F68" />
    <path
        d="M217.728 84.6418H212.531C212.262 84.6418 212.004 84.5349 211.814 84.3445C211.623 84.1542 211.516 83.896 211.516 83.6268C211.516 83.3576 211.623 83.0995 211.814 82.9091C212.004 82.7188 212.262 82.6118 212.531 82.6118H217.728C217.997 82.6118 218.256 82.7188 218.446 82.9091C218.636 83.0995 218.743 83.3576 218.743 83.6268C218.743 83.896 218.636 84.1542 218.446 84.3445C218.256 84.5349 217.997 84.6418 217.728 84.6418Z"
        fill="#093F68" />
    <path
        d="M227.685 84.6418H222.489C222.219 84.6418 221.961 84.5349 221.771 84.3445C221.581 84.1542 221.474 83.896 221.474 83.6268C221.474 83.3576 221.581 83.0995 221.771 82.9091C221.961 82.7188 222.219 82.6118 222.489 82.6118H227.685C227.955 82.6118 228.213 82.7188 228.403 82.9091C228.594 83.0995 228.7 83.3576 228.7 83.6268C228.7 83.896 228.594 84.1542 228.403 84.3445C228.213 84.5349 227.955 84.6418 227.685 84.6418Z"
        fill="#093F68" />
    <path
        d="M187.867 91.4931H182.66C182.391 91.4931 182.133 91.3862 181.942 91.1958C181.752 91.0055 181.645 90.7473 181.645 90.4781C181.645 90.2089 181.752 89.9508 181.942 89.7604C182.133 89.5701 182.391 89.4631 182.66 89.4631H187.857C188.126 89.4631 188.384 89.5701 188.575 89.7604C188.765 89.9508 188.872 90.2089 188.872 90.4781C188.872 90.7473 188.765 91.0055 188.575 91.1958C188.384 91.3862 188.126 91.4931 187.857 91.4931H187.867Z"
        fill="#093F68" />
    <path
        d="M197.814 91.4931H192.627C192.358 91.4931 192.1 91.3862 191.91 91.1958C191.719 91.0055 191.612 90.7473 191.612 90.4781C191.612 90.2089 191.719 89.9508 191.91 89.7604C192.1 89.5701 192.358 89.4631 192.627 89.4631H197.814C198.083 89.4631 198.341 89.5701 198.532 89.7604C198.722 89.9508 198.829 90.2089 198.829 90.4781C198.829 90.7473 198.722 91.0055 198.532 91.1958C198.341 91.3862 198.083 91.4931 197.814 91.4931Z"
        fill="#093F68" />
    <path
        d="M207.771 91.4931H202.584C202.315 91.4931 202.057 91.3862 201.867 91.1958C201.676 91.0055 201.569 90.7473 201.569 90.4781C201.569 90.2089 201.676 89.9508 201.867 89.7604C202.057 89.5701 202.315 89.4631 202.584 89.4631H207.771C208.04 89.4631 208.298 89.5701 208.489 89.7604C208.679 89.9508 208.786 90.2089 208.786 90.4781C208.786 90.7473 208.679 91.0055 208.489 91.1958C208.298 91.3862 208.04 91.4931 207.771 91.4931Z"
        fill="#093F68" />
    <path
        d="M217.728 91.4931H212.531C212.262 91.4931 212.004 91.3862 211.814 91.1958C211.623 91.0055 211.516 90.7473 211.516 90.4781C211.516 90.2089 211.623 89.9508 211.814 89.7604C212.004 89.5701 212.262 89.4631 212.531 89.4631H217.728C217.997 89.4631 218.256 89.5701 218.446 89.7604C218.636 89.9508 218.743 90.2089 218.743 90.4781C218.743 90.7473 218.636 91.0055 218.446 91.1958C218.256 91.3862 217.997 91.4931 217.728 91.4931Z"
        fill="#093F68" />
    <path
        d="M227.685 91.4931H222.489C222.219 91.4931 221.961 91.3862 221.771 91.1958C221.581 91.0055 221.474 90.7473 221.474 90.4781C221.474 90.2089 221.581 89.9508 221.771 89.7604C221.961 89.5701 222.219 89.4631 222.489 89.4631H227.685C227.955 89.4631 228.213 89.5701 228.403 89.7604C228.594 89.9508 228.7 90.2089 228.7 90.4781C228.7 90.7473 228.594 91.0055 228.403 91.1958C228.213 91.3862 227.955 91.4931 227.685 91.4931Z"
        fill="#093F68" />
    <path
        d="M250.147 94.1119C249.878 94.1119 249.62 94.005 249.43 93.8146C249.239 93.6243 249.132 93.3661 249.132 93.0969V57.8866C249.132 57.6174 249.239 57.3592 249.43 57.1689C249.62 56.9785 249.878 56.8716 250.147 56.8716C250.417 56.8716 250.675 56.9785 250.865 57.1689C251.055 57.3592 251.162 57.6174 251.162 57.8866V93.0969C251.162 93.3661 251.055 93.6243 250.865 93.8146C250.675 94.005 250.417 94.1119 250.147 94.1119Z"
        fill="#093F68" />
    <path
        d="M256.755 94.1119C256.486 94.1119 256.228 94.005 256.037 93.8146C255.847 93.6243 255.74 93.3661 255.74 93.0969V57.8866C255.74 57.6174 255.847 57.3592 256.037 57.1689C256.228 56.9785 256.486 56.8716 256.755 56.8716C257.024 56.8716 257.282 56.9785 257.473 57.1689C257.663 57.3592 257.77 57.6174 257.77 57.8866V93.0969C257.77 93.3661 257.663 93.6243 257.473 93.8146C257.282 94.005 257.024 94.1119 256.755 94.1119Z"
        fill="#093F68" />
    <path
        d="M263.271 94.1119C263.002 94.1119 262.744 94.005 262.554 93.8146C262.363 93.6243 262.256 93.3661 262.256 93.0969V57.8866C262.256 57.6174 262.363 57.3592 262.554 57.1689C262.744 56.9785 263.002 56.8716 263.271 56.8716C263.541 56.8716 263.799 56.9785 263.989 57.1689C264.179 57.3592 264.286 57.6174 264.286 57.8866V93.0969C264.286 93.3661 264.179 93.6243 263.989 93.8146C263.799 94.005 263.541 94.1119 263.271 94.1119Z"
        fill="#093F68" />
    <g class="cloudsSvg">
        <path
            d="M159.386 43.1892C159.386 43.1892 160.32 34.785 166.755 34.2876C171.302 33.9425 172.622 37.3326 172.622 37.3326C172.471 35.7264 172.771 34.11 173.488 32.6649C174.206 31.2198 175.311 30.0032 176.682 29.1517C181.483 26.1067 186.324 27.0507 187.908 31.1208C190.071 29.9047 192.575 29.4375 195.031 29.7918C197.487 30.1461 199.757 31.302 201.488 33.0798C207.883 39.4032 207.832 43.2298 207.832 43.2298L159.386 43.1892Z"
            fill="white" />
        <path
            d="M207.822 44.2042H159.386C159.244 44.2026 159.103 44.1711 158.974 44.1116C158.844 44.0522 158.729 43.9661 158.635 43.8591C158.541 43.7538 158.469 43.6298 158.425 43.4952C158.382 43.3606 158.367 43.2183 158.381 43.0776C158.736 39.8803 160.919 33.7193 166.674 33.2727C168.477 33.0609 170.293 33.5476 171.749 34.6328C172 33.3291 172.519 32.0919 173.274 30.9998C174.029 29.9077 175.003 28.9845 176.134 28.289C179.006 26.4417 182.102 25.853 184.629 26.6752C186.218 27.1847 187.558 28.2712 188.385 29.7202C190.673 28.6728 193.231 28.3603 195.704 28.8256C198.178 29.2909 200.447 30.5112 202.199 32.3186C208.715 38.7638 208.847 42.7426 208.847 43.1689C208.85 43.3048 208.825 43.4398 208.775 43.566C208.724 43.6921 208.649 43.8069 208.553 43.9035C208.458 44 208.344 44.0764 208.218 44.1281C208.092 44.1797 207.958 44.2056 207.822 44.2042V44.2042ZM160.614 42.1742H206.594C206.157 40.7329 204.828 37.8097 200.757 33.8005C199.197 32.1653 197.136 31.0976 194.9 30.7666C192.664 30.4357 190.382 30.8604 188.415 31.9735C188.288 32.05 188.146 32.0978 187.999 32.1136C187.852 32.1294 187.703 32.1128 187.562 32.0648C187.425 32.0164 187.299 31.9387 187.194 31.8371C187.089 31.7354 187.007 31.6123 186.953 31.4761C186.71 30.8049 186.316 30.1981 185.803 29.702C185.289 29.206 184.669 28.8338 183.99 28.6138C182.041 27.9744 179.574 28.4819 177.22 29.9942C176.011 30.7387 175.034 31.8059 174.399 33.0755C173.765 34.3452 173.497 35.7669 173.627 37.1804C173.659 37.4262 173.601 37.6754 173.463 37.8811C173.324 38.0867 173.115 38.2347 172.875 38.2969C172.634 38.3616 172.378 38.3353 172.155 38.223C171.932 38.1106 171.759 37.9202 171.668 37.6879C171.668 37.5864 170.521 35.0286 166.826 35.3027C162.634 35.6173 161.101 40.0427 160.614 42.1742V42.1742Z"
            fill="#093F68" />
    </g>
    <g class="cloudsSvg">
        <path
            d="M8.08008 30.2379C8.08008 30.2379 8.92253 22.6457 14.7283 22.1991C18.7883 21.8845 20.0368 24.9396 20.0368 24.9396C19.9003 23.4902 20.1699 22.0315 20.8152 20.7265C21.4605 19.4215 22.4561 18.3218 23.6908 17.5504C28.035 14.7592 32.4096 15.6524 33.8408 19.3267C35.795 18.2251 38.059 17.8019 40.2792 18.1232C42.4994 18.4446 44.5505 19.4924 46.1121 21.1029C51.8976 26.8174 51.8469 30.2379 51.8469 30.2379H8.08008Z"
            fill="white" />
        <path
            d="M51.8468 31.2529H8.08003C7.93839 31.2526 7.79839 31.2226 7.66903 31.1649C7.53968 31.1072 7.42383 31.0231 7.32893 30.9179C7.23315 30.8114 7.16101 30.6857 7.11728 30.5493C7.07354 30.4128 7.0592 30.2686 7.07518 30.1262C7.39998 27.2132 9.38938 21.5901 14.6572 21.1942C16.2527 21.0067 17.8612 21.4152 19.174 22.3412C19.4218 21.1819 19.901 20.0846 20.5829 19.1149C21.2649 18.1452 22.1355 17.3231 23.1426 16.6978C24.2501 15.8989 25.52 15.3538 26.862 15.1011C28.204 14.8485 29.5852 14.8946 30.9074 15.2362C32.3406 15.6979 33.552 16.6742 34.3076 17.9767C36.3862 17.0422 38.7025 16.7717 40.9404 17.2022C43.1783 17.6327 45.2289 18.7433 46.8124 20.3822C52.7299 26.2286 52.9024 29.8623 52.9024 30.248C52.9012 30.384 52.8726 30.5183 52.8185 30.6429C52.7644 30.7676 52.6858 30.8802 52.5873 30.9739C52.4888 31.0676 52.3726 31.1406 52.2454 31.1885C52.1182 31.2364 51.9827 31.2583 51.8468 31.2529ZM9.31833 29.2229H50.6085C50.1822 27.9034 48.9439 25.3354 45.4016 21.8235C44 20.3726 42.1575 19.4264 40.1616 19.1326C38.1658 18.8388 36.1288 19.214 34.3685 20.1995C34.2417 20.2761 34.0996 20.3239 33.9523 20.3397C33.8051 20.3555 33.6561 20.3388 33.5159 20.2909C33.3751 20.2426 33.2467 20.1639 33.1397 20.0604C33.0327 19.9569 32.9498 19.8312 32.8968 19.692C32.688 19.0972 32.3437 18.5591 31.8909 18.1204C31.4381 17.6817 30.8894 17.3545 30.2882 17.1647C29.2522 16.9186 28.1748 16.902 27.1316 17.1159C26.0885 17.3297 25.1046 17.769 24.249 18.403C23.1725 19.0643 22.3025 20.0137 21.7375 21.1438C21.1724 22.2738 20.9349 23.5395 21.0517 24.7975C21.096 25.0489 21.0439 25.3078 20.9058 25.5225C20.7677 25.7372 20.5538 25.8919 20.3066 25.956C20.0595 26.02 19.7974 25.9885 19.5724 25.8679C19.3474 25.7472 19.1762 25.5463 19.0928 25.305C19.0928 25.2238 18.0778 22.9705 14.8196 23.2141C11.1758 23.4881 9.78523 27.2842 9.31833 29.2229Z"
            fill="#093F68" />
    </g>
    <g class="cloudsSvg">
        <path
            d="M230.426 26.8375C230.426 26.8375 231.258 19.2453 237.074 18.7987C241.185 18.4841 242.372 21.5392 242.372 21.5392C242.239 20.0891 242.512 18.6305 243.158 17.3259C243.805 16.0213 244.802 14.9218 246.037 14.15C250.371 11.3588 254.745 12.2418 256.187 15.9263C258.14 14.8272 260.402 14.4054 262.62 14.7267C264.838 15.048 266.887 16.0943 268.448 17.7025C274.233 23.4068 274.183 26.8375 274.183 26.8375H230.426Z"
            fill="white" />
        <path
            d="M274.172 27.8526H230.426C230.283 27.8534 230.141 27.824 230.01 27.7661C229.879 27.7083 229.762 27.6234 229.666 27.517C229.57 27.4106 229.498 27.2851 229.454 27.1487C229.41 27.0124 229.395 26.8683 229.411 26.7259C229.736 23.8129 231.735 18.1898 236.993 17.7838C238.597 17.5911 240.215 18.0037 241.53 18.9409C241.771 17.7791 242.248 16.679 242.93 15.7084C243.613 14.7378 244.487 13.9173 245.499 13.2975C246.604 12.4977 247.872 11.9512 249.212 11.6968C250.552 11.4424 251.932 11.4865 253.253 11.8257C254.688 12.29 255.9 13.2701 256.654 14.5764C258.733 13.6395 261.052 13.3679 263.292 13.7984C265.532 14.229 267.584 15.3408 269.169 16.9819C275.086 22.8182 275.208 26.4519 275.198 26.8477C275.196 26.981 275.169 27.1127 275.116 27.2354C275.064 27.358 274.988 27.4692 274.893 27.5625C274.798 27.6558 274.685 27.7294 274.562 27.7792C274.438 27.829 274.306 27.8539 274.172 27.8526V27.8526ZM231.644 25.8226H272.934C272.508 24.5031 271.28 21.925 267.727 18.4232C266.327 16.9706 264.485 16.0225 262.489 15.7269C260.493 15.4313 258.455 15.8048 256.694 16.7891C256.568 16.864 256.427 16.9108 256.281 16.926C256.135 16.9413 255.988 16.9247 255.849 16.8774C255.71 16.8301 255.583 16.7533 255.476 16.6522C255.37 16.5511 255.287 16.4281 255.233 16.2917C255.019 15.697 254.671 15.1591 254.218 14.7192C253.764 14.2794 253.215 13.9493 252.614 13.7542C251.579 13.5125 250.503 13.499 249.462 13.7146C248.421 13.9301 247.439 14.3697 246.585 15.0027C245.51 15.6645 244.642 16.6122 244.075 17.7397C243.509 18.8672 243.267 20.1301 243.377 21.387C243.413 21.6343 243.356 21.886 243.217 22.0939C243.079 22.3018 242.868 22.4512 242.626 22.5137C242.387 22.5756 242.133 22.5479 241.912 22.4357C241.692 22.3236 241.52 22.1347 241.429 21.9047C241.429 21.8133 240.414 19.56 237.145 19.8138C233.501 20.0878 232.121 23.8738 231.644 25.8226V25.8226Z"
            fill="#093F68" />
    </g>

</svg>