<svg viewBox="0 0 256 272" fill="none" xmlns="http://www.w3.org/2000/svg">
    <path
        d="M0.100098 45.5218L125.908 0.696777L255.104 44.7248L234.185 211.175L125.908 271.141L19.3251 211.972L0.100098 45.5218Z"
        fill="#13AF01" />
    <path d="M255.104 44.7248L125.908 0.696777V271.141L234.185 211.275L255.104 44.7248V44.7248Z" fill="#248201" />
    <path
        d="M152.798 69H179V162.031C179 172.742 176.713 181.753 172.14 189.065C167.566 196.313 161.341 201.796 153.465 205.516C145.588 209.172 136.632 211 126.595 211C116.432 211 107.38 209.172 99.4401 205.516C91.5 201.796 85.275 196.313 80.765 189.065C76.255 181.753 74 172.742 74 162.031V69H100.202V162.031C100.202 168.573 101.282 173.929 103.442 178.098C105.602 182.202 108.651 185.249 112.589 187.237C116.527 189.225 121.196 190.22 126.595 190.22C132.058 190.22 136.727 189.225 140.602 187.237C144.54 185.249 147.557 182.202 149.653 178.098C151.75 173.929 152.798 168.573 152.798 162.031V69Z"
        fill="white" />
</svg>