<svg width="13" height="10" viewBox="0 0 13 10" fill="none" xmlns="http://www.w3.org/2000/svg">
<path d="M0.9375 10C0.6875 10 0.46875 9.90625 0.28125 9.71875C0.09375 9.53125 0 9.3125 0 9.0625V0.9375C0 0.6875 0.09375 0.46875 0.28125 0.28125C0.46875 0.0937499 0.6875 0 0.9375 0H11.5625C11.8125 0 12.0312 0.0937499 12.2187 0.28125C12.4062 0.46875 12.5 0.6875 12.5 0.9375V9.0625C12.5 9.3125 12.4062 9.53125 12.2187 9.71875C12.0312 9.90625 11.8125 10 11.5625 10H0.9375ZM6.25 5.28125L0.9375 1.79688V9.0625H11.5625V1.79688L6.25 5.28125ZM6.25 4.34375L11.5 0.9375H1.01562L6.25 4.34375ZM0.9375 1.79688V0.9375V9.0625V1.79688Z" fill="white"/>
</svg>