<svg width="15" height="15" viewBox="0 0 15 15" fill="none" xmlns="http://www.w3.org/2000/svg">
<path d="M0 1.74267C0 1.23761 0.168924 0.82094 0.506757 0.492668C0.84459 0.16438 1.28379 0.000244141 1.82432 0.000244141C2.35522 0.000244141 2.78474 0.16185 3.11293 0.485092C3.45077 0.818425 3.61969 1.25276 3.61969 1.78812C3.61969 2.27297 3.4556 2.677 3.12741 3.00024C2.78958 3.33357 2.34556 3.50024 1.79537 3.50024H1.78089C1.25 3.50024 0.820468 3.33357 0.492278 3.00024C0.164088 2.66691 0 2.24771 0 1.74267ZM0.188224 15.0002V4.87902H3.40251V15.0002H0.188224ZM5.1834 15.0002H8.39768V9.34871C8.39768 8.99517 8.4363 8.72244 8.51351 8.53053C8.64864 8.18709 8.85376 7.89669 9.12886 7.65932C9.40396 7.42194 9.74903 7.30326 10.1641 7.30326C11.2452 7.30326 11.7857 8.06588 11.7857 9.59114V15.0002H15V9.1972C15 7.70225 14.6622 6.56842 13.9865 5.79569C13.3108 5.02296 12.418 4.6366 11.3079 4.6366C10.0627 4.6366 9.09266 5.19721 8.39768 6.31842V6.34872H8.3832L8.39768 6.31842V4.87902H5.1834C5.2027 5.20225 5.21236 6.2073 5.21236 7.89417C5.21236 9.58103 5.2027 11.9497 5.1834 15.0002Z" fill="white"/>
</svg>