<svg width="13" height="13" viewBox="0 0 13 13" fill="none" xmlns="http://www.w3.org/2000/svg">
<path d="M6.25 0C5.375 0 4.55729 0.164063 3.79687 0.492188C3.03646 0.820313 2.375 1.26562 1.8125 1.82812C1.25 2.39062 0.807292 3.05469 0.484375 3.82031C0.161458 4.58594 0 5.40625 0 6.28125C0 7.15625 0.161458 7.97135 0.484375 8.72656C0.807292 9.48177 1.25 10.1406 1.8125 10.7031C2.375 11.2656 3.03646 11.7057 3.79687 12.0234C4.55729 12.3411 5.375 12.5 6.25 12.5C7.125 12.5 7.94271 12.3411 8.70313 12.0234C9.46354 11.7057 10.125 11.2656 10.6875 10.7031C11.25 10.1406 11.6927 9.48177 12.0156 8.72656C12.3385 7.97135 12.5 7.15625 12.5 6.28125C12.5 5.40625 12.3385 4.58594 12.0156 3.82031C11.6927 3.05469 11.25 2.39062 10.6875 1.82812C10.125 1.26562 9.46354 0.820313 8.70313 0.492188C7.94271 0.164063 7.125 0 6.25 0ZM6.25 0.90625C6.61458 1.28125 6.91927 1.71094 7.16406 2.19531C7.40885 2.67969 7.60938 3.25521 7.76563 3.92187H4.75C4.89583 3.29687 5.09115 2.73438 5.33594 2.23438C5.58073 1.73438 5.88542 1.29167 6.25 0.90625ZM4.92188 1.09375C4.66146 1.48958 4.4375 1.91667 4.25 2.375C4.0625 2.83333 3.90625 3.34896 3.78125 3.92187H1.4375C1.83333 3.18229 2.29167 2.60156 2.8125 2.17969C3.33333 1.75781 4.03646 1.39583 4.92188 1.09375ZM7.59375 1.10937C8.34375 1.34896 9.01823 1.70833 9.61719 2.1875C10.2161 2.66667 10.6979 3.24479 11.0625 3.92187H8.73438C8.59896 3.35937 8.4401 2.84896 8.25781 2.39063C8.07552 1.93229 7.85417 1.50521 7.59375 1.10937ZM1.125 4.85937H3.60938C3.57813 5.14062 3.5599 5.39323 3.55469 5.61719C3.54948 5.84115 3.54688 6.0625 3.54688 6.28125C3.54688 6.54167 3.55208 6.77344 3.5625 6.97656C3.57292 7.17969 3.59375 7.40625 3.625 7.65625H1.125C1.05208 7.40625 1.0026 7.18229 0.976562 6.98438C0.950521 6.78646 0.9375 6.55208 0.9375 6.28125C0.9375 6.01042 0.950521 5.76823 0.976562 5.55469C1.0026 5.34115 1.05208 5.10937 1.125 4.85937V4.85937ZM4.57812 4.85937H7.9375C7.97917 5.18229 8.00521 5.44531 8.01562 5.64844C8.02604 5.85156 8.03125 6.0625 8.03125 6.28125C8.03125 6.48958 8.02604 6.6901 8.01562 6.88281C8.00521 7.07552 7.97917 7.33333 7.9375 7.65625H4.57812C4.53646 7.33333 4.51042 7.07552 4.5 6.88281C4.48958 6.6901 4.48438 6.48958 4.48438 6.28125C4.48438 6.0625 4.48958 5.85156 4.5 5.64844C4.51042 5.44531 4.53646 5.18229 4.57812 4.85937V4.85937ZM8.875 4.85937H11.375C11.4479 5.10937 11.4974 5.34115 11.5234 5.55469C11.5495 5.76823 11.5625 6.01042 11.5625 6.28125C11.5625 6.55208 11.5495 6.78646 11.5234 6.98438C11.4974 7.18229 11.4479 7.40625 11.375 7.65625H8.89063C8.92188 7.29167 8.94271 7.01302 8.95313 6.82031C8.96354 6.6276 8.96875 6.44792 8.96875 6.28125C8.96875 6.05208 8.96094 5.83594 8.94531 5.63281C8.92969 5.42969 8.90625 5.17187 8.875 4.85937V4.85937ZM8.71875 8.59375H11.0625C10.7188 9.3125 10.2474 9.91146 9.64844 10.3906C9.04948 10.8698 8.35938 11.2083 7.57812 11.4062C7.83854 11.0208 8.0599 10.6042 8.24219 10.1562C8.42448 9.70833 8.58333 9.1875 8.71875 8.59375V8.59375ZM4.75 8.59375H7.78125C7.66667 9.14583 7.47396 9.67969 7.20312 10.1953C6.93229 10.7109 6.61458 11.1667 6.25 11.5625C5.91667 11.2813 5.63542 10.9115 5.40625 10.4531C5.17708 9.99479 4.95833 9.375 4.75 8.59375V8.59375ZM1.4375 8.59375H3.79687C3.91146 9.15625 4.05729 9.65885 4.23437 10.1016C4.41146 10.5443 4.63542 10.974 4.90625 11.3906C4.125 11.1927 3.44271 10.8594 2.85937 10.3906C2.27604 9.92188 1.80208 9.32292 1.4375 8.59375V8.59375Z" fill="white"/>
</svg>