<svg viewBox="0 0 111 192" fill="none" xmlns="http://www.w3.org/2000/svg">
    <path
        d="M93.488 142.093C94.0932 143.76 94.5086 145.49 94.7263 147.25C94.8595 148.259 94.9239 149.276 94.9192 150.295V187.19H24.6812V150.244C24.6764 149.226 24.7408 148.208 24.874 147.199C25.0917 145.439 25.5071 143.709 26.1123 142.043L59.8002 157.166L93.488 142.093Z"
        fill="#093F68" />
    <path
        d="M94.9699 188.154H24.7319C24.4627 188.154 24.2045 188.047 24.0142 187.857C23.8238 187.667 23.7169 187.408 23.7169 187.139V150.244C23.7113 149.198 23.7791 148.154 23.9199 147.118C24.146 145.285 24.5785 143.484 25.2089 141.748C25.2565 141.617 25.3306 141.497 25.4267 141.396C25.5227 141.295 25.6386 141.214 25.7672 141.16C25.8952 141.104 26.0334 141.075 26.1732 141.075C26.3129 141.075 26.4511 141.104 26.5792 141.16L59.8509 156.09L93.1226 141.16C93.2506 141.104 93.3888 141.075 93.5286 141.075C93.6683 141.075 93.8065 141.104 93.9346 141.16C94.0631 141.214 94.179 141.295 94.2751 141.396C94.3711 141.497 94.4452 141.617 94.4928 141.748C95.1233 143.487 95.5557 145.292 95.7819 147.128C95.9178 148.161 95.9856 149.202 95.9849 150.244V187.139C95.9849 187.272 95.9586 187.404 95.9076 187.528C95.8566 187.651 95.7818 187.763 95.6876 187.857C95.5933 187.951 95.4814 188.026 95.3583 188.077C95.2352 188.128 95.1032 188.154 94.9699 188.154ZM25.7469 186.124H93.9549V150.244C93.957 149.287 93.8959 148.331 93.7722 147.382C93.6059 146.06 93.324 144.756 92.9297 143.484L60.267 158.141C60.1362 158.199 59.9943 158.23 59.8509 158.23C59.7074 158.23 59.5656 158.199 59.4347 158.141L26.772 143.474C26.3777 144.749 26.0958 146.057 25.9296 147.382C25.8058 148.331 25.7448 149.287 25.7469 150.244V186.124Z"
        fill="#093F68" />
    <path
        d="M92.2395 139.282L59.7595 155.928L27.2795 139.282C31.6237 133.567 35.0037 126.483 48.3712 126.483H71.0666C83.0944 126.483 87.8649 133.567 92.2395 139.282Z"
        fill="#FA0085" />
    <path
        d="M59.8001 156.943C59.6377 156.943 59.4776 156.905 59.3332 156.831L26.8532 140.185C26.7226 140.116 26.6087 140.02 26.5193 139.902C26.4299 139.785 26.3672 139.649 26.3355 139.505C26.3024 139.362 26.3007 139.214 26.3305 139.07C26.3602 138.926 26.4208 138.791 26.5081 138.673C27.0054 138.023 27.5231 137.353 27.9697 136.643C31.7556 131.385 36.0897 125.427 48.4118 125.427H71.1072C83.0334 125.427 88.2404 132.319 92.4222 137.861L93.0007 138.632C93.0897 138.749 93.1521 138.884 93.1836 139.028C93.2152 139.172 93.2151 139.321 93.1834 139.464C93.1506 139.61 93.0864 139.746 92.9952 139.863C92.904 139.981 92.788 140.077 92.6556 140.145L60.1756 156.79C60.0619 156.866 59.9342 156.918 59.8001 156.943ZM28.8933 138.927L59.8001 154.791L90.6966 138.937C86.6366 133.527 81.9271 127.498 71.1478 127.498H48.4523C37.1351 127.498 33.3288 132.776 29.6545 137.871L28.8933 138.927Z"
        fill="#093F68" />
    <path d="M62.9568 158.364L71.1478 126.483H48.4524L57.0494 158.364H62.9568Z" fill="white" />
    <path
        d="M62.9568 159.379H57.0495C56.8203 159.387 56.5953 159.317 56.411 159.18C56.2267 159.044 56.094 158.849 56.0345 158.628L47.4273 126.747C47.3859 126.593 47.3811 126.432 47.4132 126.277C47.4453 126.121 47.5135 125.975 47.6122 125.851C47.7109 125.727 47.8374 125.627 47.9816 125.561C48.1258 125.494 48.2836 125.462 48.4423 125.468H71.1377C71.2953 125.463 71.4519 125.494 71.5951 125.56C71.7383 125.626 71.8641 125.725 71.9626 125.848C72.0611 125.971 72.1296 126.116 72.1626 126.27C72.1956 126.424 72.1922 126.584 72.1527 126.736L63.9515 158.618C63.8947 158.837 63.7659 159.032 63.5856 159.17C63.4052 159.308 63.1838 159.381 62.9568 159.379ZM57.831 157.349H62.1651L69.8385 127.498H49.7821L57.831 157.349Z"
        fill="#093F68" />
    <path
        d="M58.2269 135.75L59.9828 138.318L55.192 151.442L59.8001 153.461L64.7736 151.289L60.8354 138.145L62.3884 135.648L60.4599 132.999L58.2269 135.75Z"
        fill="#093F68" />
    <path
        d="M59.8001 154.446C59.6609 154.444 59.5232 154.417 59.3941 154.365L54.786 152.335C54.5489 152.231 54.3602 152.042 54.2583 151.804C54.1565 151.566 54.1492 151.299 54.2379 151.056L58.846 138.419L57.4149 136.318C57.297 136.148 57.2338 135.946 57.2338 135.739C57.2338 135.533 57.297 135.331 57.4149 135.161L59.6377 132.41C59.7364 132.288 59.862 132.191 60.0047 132.126C60.1473 132.061 60.3031 132.03 60.4599 132.035C60.6148 132.039 60.7668 132.079 60.904 132.151C61.0413 132.223 61.1601 132.326 61.2516 132.451L63.1801 135.1C63.2935 135.268 63.3541 135.466 63.3541 135.668C63.3541 135.871 63.2935 136.069 63.1801 136.237L61.8707 138.338L65.677 151.046C65.7498 151.284 65.7322 151.542 65.6273 151.768C65.5224 151.995 65.3378 152.175 65.1086 152.274L60.1351 154.446C60.024 154.463 59.9111 154.463 59.8001 154.446ZM56.4709 150.863L59.8001 152.325L63.5455 150.69L60.3888 140.134L56.4709 150.863ZM59.5159 135.77L60.3482 137.008L61.1907 135.658L60.4396 134.643L59.5159 135.77Z"
        fill="#093F68" />
    <path
        d="M58.0239 32.4329C64.4252 32.331 70.8134 33.0438 77.0348 34.5543C83.7643 36.229 90.4125 39.1218 95.6499 43.7502C101.74 49.1094 103.77 56.1433 103.77 64.1415V92.2672H19.9918C19.5249 90.6127 20.2557 88.6639 20.3268 87.0196C20.2828 85.1795 20.01 83.352 19.5148 81.5792C18.5228 76.9961 17.9588 72.3307 17.8299 67.6433C17.753 62.7786 18.7083 57.953 20.6329 53.4846C22.5574 49.0162 25.4074 45.0066 28.9949 41.7202C36.2521 35.1734 47.2649 32.6461 58.0239 32.4329Z"
        fill="#725858" />
    <path
        d="M103.719 93.282H19.9918C19.7653 93.291 19.5423 93.2239 19.3584 93.0915C19.1744 92.959 19.0401 92.7688 18.9768 92.5512C18.7081 91.2592 18.7359 89.9231 19.058 88.6434C19.1633 88.0935 19.2344 87.5376 19.2711 86.9788C19.2725 85.6317 19.095 84.2903 18.7433 82.9899C18.652 82.594 18.5606 82.188 18.4794 81.782C17.4921 77.1369 16.9349 72.4107 16.8149 67.6634C16.7393 62.6599 17.7189 57.6967 19.6899 53.0972C21.6609 48.4977 24.5789 44.3652 28.2539 40.9689C36.7495 33.3259 49.102 31.5497 57.9629 31.4177C64.4563 31.3196 70.9359 32.0426 77.2479 33.5695C84.9924 35.498 91.3971 38.6445 96.2894 42.9887C102.034 48.0637 104.704 54.783 104.704 64.1413V92.267C104.704 92.531 104.601 92.7846 104.417 92.9741C104.233 93.1636 103.983 93.2741 103.719 93.282ZM20.8545 91.252H102.704V64.1109C102.704 55.3717 100.248 49.1396 94.98 44.4808C90.3313 40.4208 84.2108 37.3758 76.7912 35.5082C70.6555 34.0224 64.3564 33.3199 58.0441 33.4173V33.4173C45.9961 33.6 35.9171 36.8074 29.6241 42.4508C26.1543 45.6516 23.4003 49.5497 21.5426 53.8896C19.6849 58.2294 18.7656 62.9129 18.8449 67.6329C18.9621 72.2575 19.5057 76.8615 20.4689 81.3862C20.5501 81.7719 20.6313 82.1677 20.7226 82.5534C21.1147 84.0233 21.3092 85.5388 21.3011 87.06C21.2606 87.7073 21.1793 88.3515 21.0575 88.9885C20.9204 89.7349 20.8592 90.4933 20.8749 91.252H20.8545Z"
        fill="#093F68" />
    <path
        d="M54.2481 119.936H66.1946V126.808C66.1946 128.154 65.6599 129.444 64.7082 130.396C63.7564 131.348 62.4656 131.883 61.1196 131.883H59.3129C57.9669 131.883 56.6761 131.348 55.7244 130.396C54.7726 129.444 54.2379 128.154 54.2379 126.808V119.936H54.2481Z"
        fill="#FFC9B0" />
    <path
        d="M61.1297 132.877H59.323C57.7079 132.877 56.1588 132.236 55.0167 131.093C53.8747 129.951 53.233 128.402 53.233 126.787V119.936C53.233 119.667 53.34 119.409 53.5303 119.218C53.7207 119.028 53.9788 118.921 54.248 118.921H66.2047C66.4739 118.921 66.7321 119.028 66.9224 119.218C67.1128 119.409 67.2197 119.667 67.2197 119.936V126.818C67.2117 128.427 66.5665 129.969 65.4253 131.104C64.2841 132.24 62.7396 132.877 61.1297 132.877V132.877ZM55.263 120.951V126.818C55.263 127.894 55.6908 128.927 56.4522 129.688C57.2136 130.45 58.2463 130.878 59.323 130.878H61.1297C62.2065 130.878 63.2392 130.45 64.0006 129.688C64.762 128.927 65.1897 127.894 65.1897 126.818V120.951H55.263Z"
        fill="#093F68" />
    <path
        d="M26.0818 98.8746C32.4947 98.8746 37.6934 94.3985 37.6934 88.8769C37.6934 83.3553 32.4947 78.8792 26.0818 78.8792C19.6689 78.8792 14.4702 83.3553 14.4702 88.8769C14.4702 94.3985 19.6689 98.8746 26.0818 98.8746Z"
        fill="#FFC9B0" />
    <path
        d="M26.0818 99.8897C19.1189 99.8897 13.4552 94.9466 13.4552 88.8769C13.4552 82.8072 19.1189 77.854 26.0818 77.854C33.0447 77.854 38.7084 82.7971 38.7084 88.8769C38.7084 94.9568 33.0549 99.8897 26.0818 99.8897ZM26.0818 79.884C20.2456 79.884 15.4852 83.944 15.4852 88.8769C15.4852 93.8098 20.2456 97.8597 26.0818 97.8597C31.9181 97.8597 36.6784 93.7997 36.6784 88.8769C36.6784 83.9542 31.9181 79.884 26.0818 79.884Z"
        fill="#093F68" />
    <path
        d="M93.7519 98.8746C100.165 98.8746 105.363 94.3985 105.363 88.8769C105.363 83.3553 100.165 78.8792 93.7519 78.8792C87.339 78.8792 82.1403 83.3553 82.1403 88.8769C82.1403 94.3985 87.339 98.8746 93.7519 98.8746Z"
        fill="#FFC9B0" />
    <path
        d="M93.7518 99.8897C86.7889 99.8897 81.1354 94.9466 81.1354 88.8769C81.1354 82.8072 86.7889 77.854 93.7518 77.854C100.715 77.854 106.378 82.7971 106.378 88.8769C106.378 94.9568 100.715 99.8897 93.7518 99.8897ZM93.7518 79.884C87.9156 79.884 83.1654 83.944 83.1654 88.8769C83.1654 93.8098 87.9156 97.8597 93.7518 97.8597C99.5881 97.8597 104.348 93.7997 104.348 88.8769C104.348 83.9542 99.5982 79.884 93.7518 79.884Z"
        fill="#093F68" />
    <path
        d="M60.2264 121.479C55.6266 121.479 51.0719 120.572 46.8226 118.811C42.5733 117.05 38.7128 114.468 35.4617 111.214C32.2105 107.961 29.6325 104.098 27.875 99.8469C26.1175 95.5961 25.215 91.0407 25.219 86.4409V66.3946C25.2189 65.6177 25.3803 64.8492 25.6931 64.1381C26.0059 63.4269 26.4632 62.7885 27.0359 62.2636C27.6086 61.7386 28.2842 61.3384 29.0198 61.0886C29.7555 60.8387 30.535 60.7446 31.309 60.8121C38.0588 61.4516 49.4471 62.3448 60.744 62.3448C69.9943 62.25 79.2173 61.3226 88.3012 59.5738C89.1059 59.4209 89.9342 59.4463 90.7279 59.6482C91.5217 59.85 92.2615 60.2234 92.8953 60.7421C93.5292 61.2608 94.0416 61.9121 94.3965 62.6502C94.7514 63.3883 94.9402 64.1953 94.9495 65.0142L95.183 86.4713C95.183 95.7471 91.5017 104.644 84.9475 111.207C78.3933 117.771 69.5021 121.465 60.2264 121.479V121.479Z"
        fill="#FFC9B0" />
    <path
        d="M60.2265 122.494C50.6708 122.483 41.51 118.68 34.7559 111.92C28.0019 105.161 24.2068 95.9966 24.2041 86.4409V66.3946C24.2028 65.4717 24.3945 64.5587 24.7669 63.7142C25.1394 62.8698 25.6844 62.1126 26.3669 61.4913C27.0494 60.8699 27.8543 60.3983 28.7299 60.1065C29.6055 59.8147 30.5324 59.7094 31.4512 59.7971C38.7694 60.4975 49.8126 61.3298 60.7949 61.3298C69.9947 61.2429 79.1675 60.3188 88.1999 58.569C89.151 58.3895 90.1299 58.4206 91.0678 58.66C92.0056 58.8994 92.8796 59.3413 93.6284 59.9547C94.3772 60.568 94.9826 61.3379 95.402 62.2103C95.8213 63.0826 96.0446 64.0362 96.056 65.0041L96.2894 86.4612C96.2813 96.0204 92.4783 105.185 85.7161 111.942C78.9538 118.698 69.7857 122.494 60.2265 122.494V122.494ZM30.7915 61.7967C29.5773 61.8047 28.4156 62.2927 27.5599 63.1541C26.7042 64.0155 26.2239 65.1804 26.224 66.3946V86.4409C26.224 95.4589 29.8064 104.108 36.1831 110.484C42.5598 116.861 51.2084 120.443 60.2265 120.443C69.2445 120.443 77.8932 116.861 84.2699 110.484C90.6466 104.108 94.229 95.4589 94.229 86.4409L93.9549 65.0345C93.9488 64.3633 93.7955 63.7017 93.5058 63.0962C93.2161 62.4907 92.797 61.9562 92.2782 61.5303C91.7594 61.1044 91.1535 60.7976 90.5032 60.6314C89.8529 60.4652 89.174 60.4438 88.5145 60.5685C79.3675 62.3337 70.0797 63.2679 60.7644 63.3598C49.7009 63.3598 38.5968 62.5275 31.2279 61.817L30.7915 61.7967Z"
        fill="#093F68" />
    <path
        d="M44.0169 84.6139C45.8051 84.6139 47.2548 83.1642 47.2548 81.376C47.2548 79.5878 45.8051 78.1382 44.0169 78.1382C42.2287 78.1382 40.7791 79.5878 40.7791 81.376C40.7791 83.1642 42.2287 84.6139 44.0169 84.6139Z"
        fill="#093F68" />
    <path
        d="M77.451 84.6139C79.2392 84.6139 80.6888 83.1642 80.6888 81.376C80.6888 79.5878 79.2392 78.1382 77.451 78.1382C75.6628 78.1382 74.2131 79.5878 74.2131 81.376C74.2131 83.1642 75.6628 84.6139 77.451 84.6139Z"
        fill="#093F68" />
    <path
        d="M60.805 96.1444C59.7446 96.1377 58.6861 96.0529 57.6382 95.8906C57.369 95.8435 57.1295 95.6914 56.9725 95.4678C56.8155 95.2441 56.7537 94.9672 56.8008 94.698C56.8479 94.4288 57 94.1894 57.2237 94.0323C57.4474 93.8753 57.7243 93.8135 57.9935 93.8606C59.5839 94.1122 61.204 94.1122 62.7944 93.8606C62.9974 92.9268 61.7794 89.4555 60.0641 86.1974C60.0027 86.0788 59.9654 85.9492 59.9541 85.8162C59.9429 85.6831 59.958 85.5491 59.9985 85.4219C60.039 85.2946 60.1042 85.1766 60.1903 85.0746C60.2765 84.9725 60.3819 84.8885 60.5005 84.8272C60.6191 84.7658 60.7487 84.7285 60.8817 84.7172C61.0148 84.706 61.1488 84.7211 61.276 84.7616C61.4033 84.8021 61.5213 84.8673 61.6233 84.9534C61.7254 85.0396 61.8094 85.145 61.8708 85.2636C62.9974 87.4357 65.545 92.7238 64.6112 94.7944C64.5067 95.0431 64.346 95.2641 64.1418 95.4402C63.9375 95.6163 63.6952 95.7427 63.4338 95.8094C62.5745 96.028 61.6917 96.1405 60.805 96.1444V96.1444Z"
        fill="#093F68" />
    <path
        d="M46.2499 101.087V103.787C46.2499 108.639 52.3906 112.587 59.9727 112.587C67.5446 112.587 73.6853 108.639 73.6853 103.787V101.087H46.2499Z"
        fill="white" />
    <path
        d="M59.9828 113.602C51.8628 113.602 45.245 109.197 45.245 103.787V101.087C45.245 100.818 45.3519 100.56 45.5423 100.37C45.7326 100.179 45.9908 100.072 46.26 100.072H73.665C73.9342 100.072 74.1924 100.179 74.3827 100.37C74.5731 100.56 74.68 100.818 74.68 101.087V103.787C74.6698 109.197 68.1028 113.602 59.9828 113.602ZM47.2649 102.102V103.787C47.2649 108.081 52.9692 111.572 59.9727 111.572C66.9762 111.572 72.6399 108.081 72.6399 103.787V102.102H47.2649Z"
        fill="#093F68" />
    <path
        d="M39.9873 188.154C39.7181 188.154 39.4599 188.047 39.2696 187.857C39.0792 187.667 38.9723 187.408 38.9723 187.139V152.244C38.9723 151.974 39.0792 151.716 39.2696 151.526C39.4599 151.335 39.7181 151.229 39.9873 151.229C40.2565 151.229 40.5147 151.335 40.705 151.526C40.8954 151.716 41.0023 151.974 41.0023 152.244V187.139C41.0023 187.408 40.8954 187.667 40.705 187.857C40.5147 188.047 40.2565 188.154 39.9873 188.154Z"
        fill="#093F68" />
    <path
        d="M79.6129 188.154C79.3437 188.154 79.0855 188.047 78.8952 187.857C78.7048 187.667 78.5979 187.408 78.5979 187.139V152.244C78.5979 151.974 78.7048 151.716 78.8952 151.526C79.0855 151.335 79.3437 151.229 79.6129 151.229C79.8821 151.229 80.1403 151.335 80.3306 151.526C80.521 151.716 80.6279 151.974 80.6279 152.244V187.139C80.6279 187.408 80.521 187.667 80.3306 187.857C80.1403 188.047 79.8821 188.154 79.6129 188.154Z"
        fill="#093F68" />
    <path
        d="M43.7732 95.9718C41.4341 95.9718 39.1475 95.278 37.2027 93.9782C35.2579 92.6785 33.7423 90.8311 32.8476 88.6698C31.9529 86.5085 31.7194 84.1304 32.1764 81.8364C32.6335 79.5423 33.7607 77.4354 35.4155 75.7821C37.0702 74.1288 39.1781 73.0034 41.4726 72.5482C43.767 72.0931 46.1449 72.3288 48.3054 73.2253C50.4659 74.1218 52.312 75.639 53.6101 77.5849C54.9082 79.5308 55.6 81.818 55.598 84.1572C55.5926 87.2907 54.3447 90.2942 52.128 92.509C49.9113 94.7238 46.9068 95.9691 43.7732 95.9718V95.9718ZM43.7732 74.3624C41.836 74.3624 39.9423 74.9369 38.3316 76.0131C36.7208 77.0894 35.4654 78.6191 34.7241 80.4089C33.9827 82.1986 33.7888 84.168 34.1667 86.068C34.5446 87.968 35.4775 89.7133 36.8473 91.0831C38.2171 92.4529 39.9624 93.3858 41.8624 93.7637C43.7624 94.1417 45.7318 93.9477 47.5215 93.2063C49.3113 92.465 50.841 91.2096 51.9173 89.5988C52.9935 87.9881 53.568 86.0944 53.568 84.1572C53.5653 81.5603 52.5325 79.0705 50.6962 77.2342C48.8599 75.3979 46.3701 74.3651 43.7732 74.3624V74.3624Z"
        fill="#093F68" />
    <path
        d="M77.451 95.9718C75.1118 95.9718 72.8252 95.278 70.8804 93.9782C68.9357 92.6785 67.42 90.8311 66.5254 88.6698C65.6307 86.5085 65.3971 84.1304 65.8542 81.8364C66.3113 79.5423 67.4385 77.4354 69.0932 75.7821C70.7479 74.1288 72.8559 73.0034 75.1503 72.5482C77.4447 72.0931 79.8226 72.3288 81.9831 73.2253C84.1437 74.1218 85.9897 75.639 87.2878 77.5849C88.5859 79.5308 89.2777 81.818 89.2757 84.1572C89.2703 87.2907 88.0225 90.2942 85.8058 92.509C83.5891 94.7238 80.5845 95.9691 77.451 95.9718V95.9718ZM77.451 74.3624C75.5138 74.3624 73.62 74.9369 72.0093 76.0131C70.3986 77.0894 69.1432 78.6191 68.4018 80.4089C67.6605 82.1986 67.4665 84.168 67.8444 86.068C68.2224 87.968 69.1552 89.7133 70.525 91.0831C71.8949 92.4529 73.6401 93.3858 75.5401 93.7637C77.4401 94.1417 79.4095 93.9477 81.1993 93.2063C82.989 92.465 84.5188 91.2096 85.595 89.5988C86.6713 87.9881 87.2457 86.0944 87.2457 84.1572C87.243 81.5603 86.2102 79.0705 84.3739 77.2342C82.5376 75.3979 80.0479 74.3651 77.451 74.3624V74.3624Z"
        fill="#093F68" />
    <path
        d="M67.2299 81.6907C66.9797 81.6929 66.7375 81.6025 66.5499 81.437C60.3482 75.9154 55.1717 80.6554 54.9484 80.8584C54.7532 81.0442 54.4923 81.1448 54.2229 81.1381C53.9536 81.1315 53.6979 81.0181 53.5122 80.8229C53.3264 80.6277 53.2258 80.3668 53.2325 80.0974C53.2392 79.8281 53.3525 79.5724 53.5477 79.3867C53.6188 79.3258 60.2772 73.1343 67.8998 79.9145C68.0004 80.0034 68.0825 80.1113 68.1411 80.2321C68.1997 80.3529 68.2338 80.4841 68.2413 80.6182C68.2489 80.7522 68.2298 80.8864 68.1851 81.0131C68.1404 81.1397 68.071 81.2562 67.981 81.3558C67.8861 81.4609 67.7703 81.545 67.6409 81.6027C67.5115 81.6604 67.3715 81.6904 67.2299 81.6907Z"
        fill="#093F68" />
    <path
        d="M49.6298 71.0029H34.1714C33.633 71.0029 33.1166 70.789 32.7359 70.4083C32.3552 70.0276 32.1414 69.5113 32.1414 68.9729C32.1414 68.4345 32.3552 67.9181 32.7359 67.5374C33.1166 67.1567 33.633 66.9429 34.1714 66.9429H49.6298C50.1682 66.9429 50.6845 67.1567 51.0652 67.5374C51.4459 67.9181 51.6598 68.4345 51.6598 68.9729C51.6598 69.5113 51.4459 70.0276 51.0652 70.4083C50.6845 70.789 50.1682 71.0029 49.6298 71.0029Z"
        fill="#093F68" />
    <path
        d="M73.6549 71.3884C73.1165 71.4019 72.5948 71.2009 72.2046 70.8297C71.8144 70.4585 71.5876 69.9476 71.5741 69.4092C71.5607 68.8708 71.7616 68.3491 72.1328 67.9589C72.504 67.5687 73.015 67.3419 73.5534 67.3284L88.9915 66.5367C89.2581 66.5234 89.5247 66.5627 89.7761 66.6524C90.0275 66.7421 90.2587 66.8804 90.4567 67.0595C90.6546 67.2386 90.8153 67.4549 90.9297 67.6961C91.044 67.9373 91.1097 68.1986 91.123 68.4652C91.1364 68.7318 91.097 68.9984 91.0073 69.2498C90.9176 69.5012 90.7793 69.7324 90.6002 69.9304C90.4212 70.1283 90.2048 70.289 89.9636 70.4034C89.7224 70.5177 89.4611 70.5834 89.1945 70.5967L73.7564 71.3884H73.6549Z"
        fill="#093F68" />
    <path
        d="M37.1149 22.2219L60.4599 25.1045L83.8049 22.2219V47.6883C68.6166 52.3844 52.3641 52.3844 37.1758 47.6883L37.1149 22.2219Z"
        fill="#FA0085" />
    <path
        d="M60.4598 52.2254C52.4336 52.2875 44.4481 51.0783 36.8002 48.6424C36.604 48.5715 36.4345 48.4419 36.3146 48.2712C36.1947 48.1004 36.1304 47.8969 36.1303 47.6883V22.222C36.1292 22.0787 36.1585 21.9367 36.2162 21.8055C36.2739 21.6743 36.3588 21.5568 36.4652 21.4607C36.5738 21.3654 36.7016 21.2943 36.8398 21.2523C36.9781 21.2103 37.1238 21.1983 37.2671 21.2171L60.4598 24.0896L83.6526 21.2171C83.7959 21.1983 83.9415 21.2103 84.0798 21.2523C84.2181 21.2943 84.3458 21.3654 84.4544 21.4607C84.5609 21.5568 84.6457 21.6743 84.7035 21.8055C84.7612 21.9367 84.7905 22.0787 84.7894 22.222V47.6883C84.7893 47.8969 84.7249 48.1004 84.6051 48.2712C84.4852 48.4419 84.3156 48.5715 84.1195 48.6424C76.4715 51.0783 68.4861 52.2875 60.4598 52.2254V52.2254ZM38.1298 46.9474C52.6806 51.2792 68.1781 51.2792 82.7289 46.9474V23.3689L60.5512 26.1196C60.4703 26.1294 60.3885 26.1294 60.3076 26.1196L38.1298 23.3689V46.9474Z"
        fill="#093F68" />
    <path d="M60.4599 43.4253L11.9327 22.2219L60.4599 1.01855L108.987 22.2219L60.4599 43.4253Z" fill="#FA0085" />
    <path
        d="M60.4599 44.4402C60.3207 44.4387 60.183 44.4112 60.0539 44.359L11.5267 23.1557C11.3436 23.0777 11.1875 22.9476 11.0778 22.7816C10.9681 22.6155 10.9095 22.4209 10.9095 22.2219C10.9095 22.0229 10.9681 21.8282 11.0778 21.6622C11.1875 21.4962 11.3436 21.3661 11.5267 21.2881L60.0539 0.0847369C60.182 0.0288477 60.3202 0 60.4599 0C60.5996 0 60.7378 0.0288477 60.8659 0.0847369L109.393 21.2881C109.576 21.3661 109.732 21.4962 109.842 21.6622C109.952 21.8282 110.01 22.0229 110.01 22.2219C110.01 22.4209 109.952 22.6155 109.842 22.7816C109.732 22.9476 109.576 23.0777 109.393 23.1557L60.8659 44.359C60.7368 44.4112 60.5991 44.4387 60.4599 44.4402V44.4402ZM14.4703 22.2219L60.4599 42.3189L106.45 22.2219L60.4599 2.12489L14.4703 22.2219Z"
        fill="#093F68" />
    <path
        d="M11.9327 57.3408C11.6635 57.3408 11.4054 57.2338 11.215 57.0435C11.0247 56.8531 10.9177 56.595 10.9177 56.3258V22.2218C10.9177 21.9526 11.0247 21.6944 11.215 21.5041C11.4054 21.3137 11.6635 21.2068 11.9327 21.2068C12.2019 21.2068 12.4601 21.3137 12.6504 21.5041C12.8408 21.6944 12.9477 21.9526 12.9477 22.2218V56.3258C12.9477 56.595 12.8408 56.8531 12.6504 57.0435C12.4601 57.2338 12.2019 57.3408 11.9327 57.3408V57.3408Z"
        fill="#093F68" />
    <path d="M11.9327 53.1794L6.30957 70.3735H14.6935L11.9327 53.1794Z" fill="#FA0085" />
    <path
        d="M14.6935 71.3885H6.30955C6.14511 71.3967 5.98116 71.3648 5.83182 71.2954C5.68248 71.2261 5.55226 71.1215 5.45236 70.9907C5.35246 70.8598 5.28588 70.7066 5.25839 70.5443C5.2309 70.3819 5.24331 70.2153 5.29455 70.0589L10.9177 52.8648C10.9874 52.6473 11.1285 52.4597 11.3181 52.3324C11.5077 52.205 11.7347 52.1453 11.9624 52.1629C12.1901 52.1805 12.4052 52.2744 12.5729 52.4294C12.7407 52.5844 12.8512 52.7914 12.8868 53.017L15.6983 70.201C15.722 70.3472 15.7134 70.4969 15.6732 70.6394C15.6329 70.782 15.5619 70.914 15.4652 71.0262C15.3684 71.1384 15.2483 71.2281 15.1133 71.2889C14.9782 71.3497 14.8314 71.3803 14.6833 71.3784L14.6935 71.3885ZM7.71026 69.3585H13.5059L11.5977 57.4729L7.71026 69.3585Z"
        fill="#093F68" />
    <path
        d="M94.7262 147.249L59.8001 162.474L24.8739 147.249C25.0916 145.49 25.507 143.76 26.1122 142.093C26.4657 141.13 26.8828 140.19 27.3606 139.282L59.8406 153.492L92.3206 139.282C92.7985 140.19 93.2156 141.13 93.5691 142.093C94.1466 143.763 94.5348 145.493 94.7262 147.249Z"
        fill="#FFBC0E" />
    <path
        d="M59.8001 163.52C59.6609 163.519 59.5232 163.491 59.3941 163.439L24.468 148.214C24.275 148.128 24.1135 147.984 24.0062 147.802C23.8988 147.62 23.8509 147.409 23.8691 147.199C24.0941 145.363 24.5266 143.558 25.1582 141.819C25.5287 140.81 25.9661 139.827 26.4675 138.876C26.5887 138.652 26.7895 138.482 27.0301 138.399C27.2707 138.317 27.5336 138.327 27.7667 138.429L59.8001 152.426L91.8335 138.429C92.0667 138.327 92.3296 138.317 92.5702 138.399C92.8108 138.482 93.0116 138.652 93.1327 138.876C93.6318 139.828 94.0692 140.811 94.4421 141.819C95.0725 143.558 95.505 145.363 95.7311 147.199C95.7494 147.409 95.7014 147.62 95.5941 147.802C95.4868 147.984 95.3253 148.128 95.1323 148.214L60.2061 163.439C60.0771 163.491 59.9394 163.519 59.8001 163.52V163.52ZM25.9499 146.63L59.7595 161.399L93.5692 146.63C93.3462 145.202 92.9859 143.798 92.4933 142.439C92.2598 141.809 92.0061 141.19 91.7219 140.601L60.2061 154.446C60.0781 154.502 59.9399 154.531 59.8001 154.531C59.6604 154.531 59.5222 154.502 59.3941 154.446L27.8378 140.652C27.5536 141.241 27.2998 141.86 27.0664 142.499C26.5619 143.837 26.188 145.221 25.9499 146.63V146.63Z"
        fill="#093F68" />
    <path d="M10.6538 162.759L1.73193 164.9L5.52804 166.423L3.29503 170.239L13.1811 168.148L10.6538 162.759Z"
        fill="#F56132" />
    <path
        d="M3.29509 171.254C3.13323 171.256 2.97323 171.22 2.82845 171.147C2.68366 171.075 2.55829 170.969 2.4628 170.838C2.3481 170.679 2.28224 170.489 2.27323 170.293C2.26422 170.096 2.31244 169.901 2.41204 169.732L4.05634 166.931L1.35645 165.844C1.15774 165.764 0.989786 165.622 0.876721 165.439C0.763656 165.257 0.711285 165.043 0.727141 164.829C0.744538 164.617 0.828424 164.415 0.96689 164.253C1.10536 164.091 1.29138 163.977 1.49855 163.926L10.4102 161.784C10.6367 161.729 10.8754 161.753 11.0861 161.853C11.2968 161.953 11.4668 162.122 11.5673 162.333L14.1048 167.722C14.1714 167.86 14.2059 168.011 14.2059 168.164C14.2059 168.317 14.1714 168.468 14.1048 168.605C14.0362 168.742 13.9375 168.861 13.8162 168.954C13.695 169.048 13.5542 169.112 13.4045 169.143L3.50825 171.244C3.43809 171.258 3.36625 171.262 3.29509 171.254ZM5.0612 165.164L5.90365 165.51C6.03796 165.564 6.15908 165.646 6.25887 165.751C6.35866 165.856 6.43482 165.982 6.4822 166.119C6.53008 166.257 6.54761 166.403 6.53359 166.549C6.51958 166.694 6.47436 166.835 6.401 166.961L5.32509 168.798L11.7196 167.438L10.0854 163.957L5.0612 165.164Z"
        fill="#093F68" />
    <path
        d="M1.58984 141.413L21.0372 187.271C21.8898 189.301 26.1934 189.382 30.6493 187.494C35.1051 185.607 38.0283 182.419 37.1757 180.389L17.7283 134.532L1.58984 141.413Z"
        fill="white" />
    <path
        d="M24.6608 189.859H24.4172C22.1842 189.859 20.6312 189.027 20.0527 187.667L0.574834 141.809C0.470057 141.562 0.467854 141.282 0.568716 141.033C0.669578 140.784 0.865259 140.585 1.11278 140.48L17.2411 133.639C17.3649 133.587 17.4978 133.56 17.6319 133.56C17.766 133.56 17.8989 133.587 18.0227 133.639C18.1474 133.688 18.2609 133.763 18.3567 133.857C18.4526 133.951 18.5288 134.063 18.5809 134.187L38.0283 180.044C39.1347 182.653 36.0998 186.256 30.9233 188.438C28.9461 189.309 26.82 189.791 24.6608 189.859ZM2.86873 141.951L21.8898 186.926C22.1334 187.484 23.1078 187.85 24.4375 187.88C26.4155 187.843 28.3658 187.408 30.1722 186.601C34.5266 184.764 36.6276 181.973 36.1607 180.877L17.099 135.953L2.86873 141.951Z"
        fill="#093F68" />
    <path
        d="M26.3355 155.004L28.4569 159.998C29.3095 162.028 26.4269 165.174 21.9406 167.103C17.4543 169.031 13.171 168.889 12.3184 166.88L10.197 161.886C11.0496 163.916 15.3634 163.997 19.8192 162.109C24.2751 160.221 27.1881 157.014 26.3355 155.004Z"
        fill="#F56132" />
    <path
        d="M15.9927 169.437H15.7998C13.5668 169.437 12.0138 168.615 11.4353 167.255L9.31395 162.251C9.25581 162.128 9.22321 161.994 9.21811 161.857C9.21302 161.721 9.23554 161.584 9.28431 161.457C9.33308 161.329 9.4071 161.213 9.50194 161.115C9.59678 161.016 9.71049 160.938 9.83626 160.885C9.96202 160.831 10.0973 160.804 10.2339 160.804C10.3705 160.804 10.5056 160.832 10.6312 160.886C10.7569 160.94 10.8703 161.018 10.9649 161.117C11.0595 161.215 11.1331 161.332 11.1815 161.46C11.6586 162.566 15.1096 162.992 19.4741 161.135C21.3144 160.406 22.9837 159.303 24.3765 157.897C25.29 156.882 25.696 155.979 25.4524 155.41C25.3943 155.287 25.3617 155.153 25.3566 155.016C25.3515 154.879 25.374 154.743 25.4228 154.616C25.4716 154.488 25.5456 154.372 25.6404 154.273C25.7353 154.175 25.849 154.097 25.9748 154.044C26.1005 153.99 26.2358 153.963 26.3724 153.963C26.509 153.963 26.6441 153.991 26.7697 154.045C26.8953 154.098 27.0088 154.177 27.1034 154.276C27.198 154.374 27.2717 154.491 27.3201 154.618V154.618L29.4414 159.612C30.5478 162.221 27.5129 165.834 22.3872 168.006C20.3707 168.9 18.1976 169.386 15.9927 169.437V169.437ZM12.3488 164.312L13.2522 166.443C13.4856 167.001 14.46 167.367 15.7998 167.397C17.7823 167.38 19.7392 166.948 21.5447 166.129C25.8889 164.281 27.99 161.5 27.5231 160.394L26.6197 158.262C26.3748 158.618 26.1069 158.957 25.8178 159.277C24.2253 160.892 22.3184 162.164 20.2151 163.013C17.7629 164.163 15.0405 164.612 12.3488 164.312V164.312Z"
        fill="#093F68" />
    <path
        d="M11.1559 141.627C15.6093 139.738 18.5274 136.574 17.6735 134.562C16.8196 132.549 12.5172 132.449 8.0637 134.339C3.61024 136.228 0.692198 139.392 1.54607 141.404C2.39994 143.417 6.70239 143.516 11.1559 141.627Z"
        fill="white" />
    <path
        d="M5.2438 144.012C2.9499 144.012 1.18379 143.261 0.605241 141.809C-0.501109 139.201 2.53374 135.597 7.65949 133.415C9.73011 132.491 11.9692 132.003 14.2367 131.984C16.4798 131.984 18.0328 132.816 18.6113 134.176C19.1797 135.536 18.6113 137.221 17.1497 138.835C15.56 140.454 13.6523 141.725 11.5469 142.57C9.56063 143.459 7.41899 143.949 5.2438 144.012ZM13.9931 134.014C12.0843 134.074 10.2055 134.505 8.46135 135.283C4.107 137.13 2.00594 139.921 2.47284 141.017C2.93974 142.114 6.40089 142.55 10.7552 140.703C12.5917 139.966 14.2595 138.865 15.6577 137.465C16.561 136.45 16.9772 135.526 16.7336 134.968C16.5001 134.41 15.5257 134.044 14.1961 134.014H13.9931Z"
        fill="#093F68" />
    <path
        d="M26.3964 165.621C29.4571 165.621 31.9383 163.14 31.9383 160.079C31.9383 157.019 29.4571 154.537 26.3964 154.537C23.3357 154.537 20.8545 157.019 20.8545 160.079C20.8545 163.14 23.3357 165.621 26.3964 165.621Z"
        fill="#F56132" />
    <path
        d="M26.3965 166.626C25.5517 166.623 24.715 166.461 23.93 166.149C23.131 165.828 22.4038 165.351 21.7905 164.746C21.1772 164.142 20.69 163.421 20.3572 162.627C19.9792 161.827 19.7671 160.958 19.7337 160.074C19.7003 159.189 19.8463 158.307 20.1629 157.48C20.4796 156.654 20.9603 155.9 21.5761 155.264C22.1919 154.629 22.93 154.124 23.746 153.781C24.562 153.438 25.4389 153.264 26.324 153.269C27.2091 153.275 28.084 153.459 28.8959 153.811C29.7079 154.163 30.4401 154.677 31.0485 155.319C31.6568 155.962 32.1287 156.722 32.4357 157.552V157.552C32.8625 158.55 33.0349 159.638 32.9373 160.719C32.8397 161.801 32.4752 162.841 31.8766 163.746C31.278 164.652 30.4639 165.394 29.5074 165.908C28.5509 166.421 27.482 166.689 26.3965 166.687V166.626ZM26.3965 155.532C25.6491 155.535 24.9141 155.722 24.2566 156.078C23.5991 156.433 23.0397 156.946 22.6279 157.569C22.2161 158.193 21.9648 158.909 21.8962 159.653C21.8277 160.397 21.9441 161.147 22.235 161.835C22.4675 162.382 22.8056 162.878 23.2298 163.295C23.6541 163.711 24.1563 164.04 24.7077 164.263C25.2591 164.485 25.8489 164.597 26.4434 164.591C27.038 164.586 27.6256 164.463 28.1727 164.231C29.2779 163.761 30.1517 162.872 30.6026 161.759C31.0535 160.646 31.0448 159.399 30.5783 158.293V158.293C30.2261 157.474 29.641 156.777 28.8957 156.288C28.1504 155.798 27.2777 155.539 26.3863 155.542L26.3965 155.532Z"
        fill="#093F68" />
    <path
        d="M10.9178 183.79C10.9178 183.79 7.69006 177.7 14.8864 172.168L16.2262 175.325C16.2262 175.325 19.4539 171.204 22.641 172.401C25.8281 173.599 30.761 177.659 27.6145 182.704C24.1432 188.296 15.3026 194.133 10.9178 183.79Z"
        fill="#FFC9B0" />
    <path
        d="M17.7283 190.499C17.539 190.509 17.3492 190.509 17.1599 190.499C15.0386 190.336 12.0849 189.118 9.99401 184.226C9.66921 183.536 6.86781 177.04 14.2672 171.386C14.39 171.293 14.5324 171.229 14.6837 171.199C14.8349 171.169 14.991 171.174 15.1401 171.214C15.29 171.252 15.4292 171.324 15.5471 171.424C15.665 171.524 15.7584 171.65 15.8201 171.792L16.5509 173.518C17.9313 172.229 20.4079 170.473 22.9962 171.488C25.422 172.401 28.2945 174.594 29.2689 177.456C29.5894 178.423 29.6847 179.451 29.5475 180.461C29.4103 181.47 29.0442 182.435 28.4772 183.282C26.2645 186.814 22.0116 190.499 17.7283 190.499ZM14.4803 173.822C9.40531 178.44 11.7094 183.109 11.821 183.323V183.394C13.171 186.581 15.0081 188.286 17.2919 188.469C20.7226 188.733 24.7115 185.424 26.7212 182.186C27.1223 181.599 27.3846 180.928 27.4884 180.225C27.5921 179.521 27.5346 178.804 27.3201 178.126C26.5588 175.903 24.1634 174.127 22.2451 173.406C19.8294 172.503 17.0077 175.974 16.9874 176.015C16.8778 176.153 16.734 176.26 16.5703 176.326C16.4065 176.392 16.2284 176.414 16.0536 176.39C15.8785 176.367 15.7124 176.299 15.5718 176.192C15.4312 176.085 15.3208 175.944 15.2517 175.781L14.4803 173.822Z"
        fill="#093F68" />
    <path
        d="M33.745 81.1325H26.0818C25.8126 81.1325 25.5544 81.0256 25.3641 80.8353C25.1737 80.6449 25.0668 80.3867 25.0668 80.1175C25.0668 79.8483 25.1737 79.5902 25.3641 79.3998C25.5544 79.2095 25.8126 79.1025 26.0818 79.1025H33.745C34.0142 79.1025 34.2724 79.2095 34.4627 79.3998C34.6531 79.5902 34.76 79.8483 34.76 80.1175C34.76 80.3867 34.6531 80.6449 34.4627 80.8353C34.2724 81.0256 34.0142 81.1325 33.745 81.1325Z"
        fill="#093F68" />
    <path
        d="M94.6653 81.1325H87.0021C86.7329 81.1325 86.4747 81.0256 86.2843 80.8353C86.094 80.6449 85.9871 80.3867 85.9871 80.1175C85.9871 79.8483 86.094 79.5902 86.2843 79.3998C86.4747 79.2095 86.7329 79.1025 87.0021 79.1025H94.6653C94.9345 79.1025 95.1927 79.2095 95.383 79.3998C95.5734 79.5902 95.6803 79.8483 95.6803 80.1175C95.6803 80.3867 95.5734 80.6449 95.383 80.8353C95.1927 81.0256 94.9345 81.1325 94.6653 81.1325Z"
        fill="#093F68" />
    <path
        d="M101.557 174.553C102.917 172.472 104.602 169.915 105.13 169.255C107.657 166.047 104.409 162.627 101.862 165.692C100.263 167.697 98.7949 169.802 97.4668 171.995L96.1574 171.417C97.9032 160.678 96.2285 159.612 93.3459 160.201C91.3768 160.617 90.2298 166.372 89.631 170.787C87.9447 171.455 86.5861 172.756 85.845 174.411L84.0079 178.542C83.2627 180.219 83.2141 182.124 83.8727 183.837C84.5312 185.55 85.843 186.931 87.5198 187.677L91.6508 189.524C93.3283 190.267 95.2316 190.314 96.9439 189.656C98.6561 188.997 100.038 187.687 100.786 186.012L102.633 181.881C103.166 180.683 103.348 179.359 103.158 178.061C102.967 176.764 102.412 175.547 101.557 174.553V174.553Z"
        fill="#FFC9B0" />
    <path
        d="M94.4623 191.148C93.3501 191.145 92.2508 190.91 91.2347 190.458L87.1036 188.621C86.1471 188.199 85.2831 187.593 84.5611 186.837C83.8391 186.082 83.2734 185.191 82.8963 184.216C82.5191 183.241 82.338 182.201 82.3633 181.156C82.3886 180.111 82.6198 179.081 83.0436 178.126L84.8807 173.995C85.6392 172.284 86.9811 170.899 88.6667 170.087C89.976 160.952 91.8132 159.48 93.1023 159.216C93.6855 159.029 94.306 158.99 94.9083 159.102C95.5105 159.213 96.0757 159.472 96.5532 159.856C97.9641 161.206 98.2077 164.261 97.3247 170.249C98.4599 168.446 99.7004 166.711 101.04 165.053C102.664 163.094 104.633 163.205 105.79 164.129C107.16 165.235 107.657 167.631 105.881 169.884C105.455 170.432 104.064 172.503 102.765 174.502C103.551 175.629 104.033 176.939 104.166 178.305C104.3 179.672 104.079 181.051 103.526 182.308L101.689 186.439C101.062 187.842 100.042 189.033 98.7522 189.869C97.4626 190.704 95.9585 191.149 94.4218 191.148H94.4623ZM94.4623 161.094C94.1622 161.102 93.8633 161.135 93.5691 161.196C93.5691 161.196 91.9147 161.642 90.6561 170.93C90.6312 171.107 90.5599 171.274 90.4494 171.415C90.3389 171.556 90.1931 171.665 90.0268 171.731C88.5856 172.299 87.4259 173.411 86.7991 174.827L84.9518 178.948C84.6353 179.658 84.4625 180.423 84.4433 181.2C84.4241 181.977 84.559 182.75 84.8402 183.475C85.1126 184.204 85.5289 184.871 86.0642 185.436C86.5995 186.001 87.2429 186.452 87.9562 186.764L92.0771 188.601C92.7899 188.916 93.558 189.087 94.3372 189.104C95.1164 189.122 95.8913 188.985 96.6175 188.702C97.3437 188.419 98.0069 187.996 98.5689 187.456C99.131 186.916 99.5808 186.27 99.8926 185.556L101.73 181.425C102.182 180.4 102.336 179.268 102.172 178.16C102.009 177.052 101.535 176.013 100.806 175.162C100.665 174.996 100.58 174.789 100.566 174.572C100.551 174.354 100.607 174.138 100.725 173.954C101.212 173.213 103.648 169.468 104.348 168.575C105.363 167.347 105.191 166.159 104.572 165.662C103.953 165.164 103.333 165.489 102.664 166.291C101.091 168.258 99.6505 170.326 98.3498 172.482C98.221 172.692 98.0202 172.848 97.7849 172.921C97.5496 172.994 97.2958 172.979 97.0709 172.878L95.7717 172.29C95.5677 172.199 95.3995 172.043 95.2931 171.846C95.1867 171.65 95.148 171.424 95.183 171.204C96.33 164.099 95.8326 161.866 95.183 161.267C94.9677 161.115 94.7021 161.053 94.442 161.094H94.4623Z"
        fill="#093F68" />
    <path
        d="M88.1288 184.409C87.8596 184.44 87.5891 184.362 87.3769 184.194C87.1646 184.025 87.028 183.78 86.997 183.51C86.9661 183.241 87.0433 182.971 87.2118 182.759C87.3803 182.546 87.6261 182.41 87.8953 182.379C90.1791 181.82 89.7528 178.217 89.7528 178.177C89.7358 178.038 89.7479 177.897 89.788 177.763C89.8282 177.628 89.8957 177.504 89.9863 177.397C90.0768 177.291 90.1885 177.204 90.3143 177.142C90.44 177.081 90.5771 177.046 90.717 177.04C92.5814 177.047 94.4247 176.645 96.1168 175.862C95.1932 175.223 91.8944 174.279 88.5551 173.721C88.2859 173.676 88.0454 173.527 87.8864 173.305C87.7275 173.083 87.6631 172.807 87.7075 172.538C87.752 172.269 87.9015 172.029 88.1233 171.87C88.345 171.711 88.6208 171.646 88.89 171.691C91.3159 172.097 97.0608 173.213 98.0859 175C98.2053 175.202 98.2773 175.428 98.2967 175.662C98.316 175.896 98.2821 176.131 98.1976 176.35C97.4972 178.197 94.0361 178.786 91.8234 178.968C91.8234 180.948 91.0621 183.668 88.3724 184.317L88.1288 184.409Z"
        fill="#093F68" />
    <path
        d="M72.6398 107.137H46.7573C46.4881 107.137 46.2299 107.03 46.0396 106.839C45.8492 106.649 45.7423 106.391 45.7423 106.122C45.7423 105.852 45.8492 105.594 46.0396 105.404C46.2299 105.214 46.4881 105.107 46.7573 105.107H72.6398C72.909 105.107 73.1672 105.214 73.3575 105.404C73.5479 105.594 73.6548 105.852 73.6548 106.122C73.6548 106.391 73.5479 106.649 73.3575 106.839C73.1672 107.03 72.909 107.137 72.6398 107.137Z"
        fill="#093F68" />
</svg>