<svg viewBox="0 0 153 152" fill="none" xmlns="http://www.w3.org/2000/svg" class="mapSVG">
    <path
        d="M59.6516 85.9197C59.2963 85.6457 58.941 85.3514 58.5756 85.0875C58.2268 84.7987 57.9591 84.4241 57.7989 84.0006C57.6388 83.577 57.5916 83.1191 57.6621 82.6717L58.6771 82.4789L58.4234 81.9714C58.5959 81.9714 58.7685 81.9714 58.8192 81.9714C58.947 82.1423 59.0623 82.322 59.1643 82.5093L60.7376 81.8395C60.7376 81.6974 60.7376 81.3624 60.9 81.2406C61.7221 80.6011 61.2248 79.9921 60.9 79.373C60.5276 78.7155 60.3086 77.9824 60.2594 77.2284C60.2102 76.4743 60.332 75.719 60.6158 75.0187C59.6008 74.6837 59.4891 73.4454 60.2808 71.8823L59.4181 71.4763V71.6793C58.873 71.7579 58.3385 71.8975 57.8246 72.0954C57.0813 72.4434 56.3827 72.8796 55.7438 73.3946C55.3658 73.708 54.9232 73.9342 54.4478 74.057C53.9723 74.1798 53.4757 74.1962 52.9931 74.1051C52.5364 74.0442 51.9173 74.0138 52.1812 73.212C52.1812 73.1612 51.968 73.0394 51.8868 72.9277C51.4981 72.4231 51.1583 71.8828 50.8718 71.3139C50.6282 70.715 50.7297 70.7353 51.4199 70.4004C51.765 70.238 51.9781 69.8219 52.1913 69.5783L50.8515 68.685L50.9225 68.3095L52.2319 68.005V67.4264L53.0033 67.0306L52.9322 66.858L52.2928 67.1727L51.7447 65.9851L52.8916 65.3457C51.9984 65.2645 51.8766 64.7976 52.0796 64.1886C52.2826 63.5796 52.9322 62.8792 52.8104 62.3514C52.5973 61.3364 53.6428 61.0624 53.592 60.3214C54.8405 60.6056 55.5408 60.2504 55.622 59.2252C56.1701 59.2963 56.9821 59.7429 56.7487 58.4335C57.1039 58.4335 57.3779 58.4944 57.6621 58.4944C58.2914 58.4944 59.0019 58.6873 59.3572 57.8651C59.3984 57.7954 59.4559 57.7367 59.5249 57.6943C59.5939 57.6518 59.6722 57.6268 59.753 57.6215C60.8492 57.6723 61.2045 56.7486 61.783 56.1295C62.2239 55.653 62.7139 55.2244 63.2446 54.8506C63.4375 54.7288 63.8131 54.8506 64.1379 54.8506C63.874 53.998 64.3916 53.7544 65.2746 53.5717C65.5293 53.4768 65.7558 53.3191 65.9332 53.1133C66.1107 52.9074 66.2333 52.6601 66.2896 52.3943C66.1983 51.3793 66.8783 50.8413 67.3046 50.1308C67.4873 49.8466 67.3046 49.329 67.5381 49.1158C67.9892 48.5367 68.5606 48.0622 69.2129 47.7253C69.7407 47.502 69.9842 46.6494 70.4105 46.1114C70.7473 45.7124 71.1065 45.3328 71.4864 44.9746C71.3465 44.909 71.2109 44.8344 71.0804 44.7513L73.6281 43.7363L72.745 43.3202L72.9683 43.1273C73.3236 42.8939 73.8412 42.7416 73.9833 42.4067C74.7409 41.0963 75.9223 40.0832 77.3329 39.5342C77.4953 39.453 77.7591 39.5951 77.9723 39.5342C78.3478 39.5342 78.7132 39.3718 79.2918 39.2399L78.4392 38.4888C78.8467 38.3789 79.2748 38.3695 79.6867 38.4614C80.0986 38.5534 80.4821 38.7439 80.8041 39.0166C81.1797 38.6512 81.5857 38.2655 81.9714 37.8595C82.0932 37.7275 82.2657 37.423 82.215 37.3723C82.1456 37.285 82.098 37.1823 82.0762 37.0729C82.0545 36.9634 82.0592 36.8504 82.09 36.7431C82.1208 36.6359 82.1767 36.5376 82.2532 36.4563C82.3297 36.3751 82.4245 36.3133 82.5296 36.2761C82.8747 36.1238 83.3721 36.2761 83.9608 36.3877C83.6756 36.7894 83.4178 37.2099 83.1894 37.6463C83.0504 38.0331 82.9418 38.4302 82.8646 38.8339L83.0879 38.9354L84.5393 36.4689L84.6713 37.9305H84.8641L85.5239 35.728L85.8893 35.6468L86.6201 36.8648L87.0667 36.3979L89.5941 37.8595V38.1843L87.8787 38.9963L88.1933 40.1838L88.8226 39.4327C89.4925 39.5241 90.2741 40.2549 90.7512 38.9151L91.8879 39.8184L90.741 40.1534C91.562 40.4562 92.4247 40.6308 93.2988 40.671C94.8314 40.468 95.9276 41.209 97.1355 41.889C98.092 42.487 99.1136 42.974 100.18 43.3405C101.815 43.7871 103.002 44.731 103.225 46.1622C103.267 46.6904 103.197 47.2215 103.019 47.7207C102.842 48.22 102.561 48.6761 102.195 49.0593C101.829 49.4425 101.386 49.7442 100.896 49.9446C100.405 50.1449 99.8778 50.2395 99.3482 50.2222C98.1651 50.1132 96.9892 49.9369 95.8262 49.6944C94.7465 49.3892 93.6828 49.0301 92.6391 48.6185L92.3853 48.791C92.6419 48.8717 92.8875 48.9842 93.1161 49.126C93.989 49.9076 94.8619 50.7094 95.6942 51.5315C95.7725 51.6272 95.8308 51.7375 95.8657 51.8561C95.9005 51.9746 95.9112 52.099 95.8972 52.2217C95.8388 53.2084 96.1259 54.1846 96.7092 54.9825C96.8208 55.1855 96.7092 55.5205 96.7092 55.7235C97.7689 56.2644 98.8565 56.7489 99.9674 57.175C100.891 57.4795 101.236 57.0531 101.094 56.0077C100.539 56.0066 99.9972 55.8449 99.5325 55.5424C99.0678 55.2398 98.7006 54.8092 98.4753 54.3025L99.0945 53.3788C99.9572 53.5615 100.779 53.7747 101.622 53.9269C102.464 54.0792 103.266 54.1401 104.098 54.2416L104.261 53.9168C103.845 53.3991 103.439 52.9018 102.992 52.3537C102.855 52.2365 102.745 52.091 102.669 51.9271C102.594 51.7633 102.555 51.5851 102.555 51.4047C102.555 51.2243 102.594 51.046 102.669 50.8822C102.745 50.7184 102.855 50.5729 102.992 50.4556C103.6 49.6543 104.159 48.8171 104.667 47.9486C104.893 47.6901 105.206 47.5235 105.546 47.4805C105.887 47.4375 106.231 47.521 106.514 47.7151L107.285 48.1821C107.499 45.7258 107.285 45.3299 106.108 45.1371C105.347 43.777 106.402 41.6657 104.078 40.8537C107.732 40.468 107.732 40.468 108.818 42.3153C108.489 42.4553 108.17 42.6181 107.864 42.8025C107.103 43.3405 107.143 43.9596 107.925 44.4164C108.483 44.7412 108.94 45.269 109.722 45.1371C110.503 45.0051 110.828 44.863 110.737 44.122C110.715 43.9598 110.678 43.8 110.625 43.645C110.31 42.8025 110.259 42.0819 111.498 41.8586L110.868 41.1684L111 41.0567C111.325 40.836 111.624 40.5808 111.894 40.2955C112.503 39.5444 113.071 38.7425 113.629 37.9508C113.853 37.6362 113.995 37.2708 114.218 36.9358C114.441 36.6009 114.888 36.0934 115.304 35.5757L116.004 37.6768L117.101 37.2708C117.04 35.7686 117.101 35.8092 118.552 35.2408C118.857 35.1291 119.09 34.6622 119.222 34.307C119.618 33.292 120.156 32.9773 120.805 33.4645C121.079 33.6675 121.181 34.104 121.364 34.4795H121.526C121.571 34.0372 121.667 33.6013 121.81 33.1803C122.104 32.5815 122.013 32.2871 121.414 31.9319C120.815 31.5766 120.044 31.13 120.227 30.1556C120.338 29.9831 120.409 29.6786 120.552 29.6481C121.851 29.3132 123.16 29.0188 124.48 28.7448C124.693 28.7448 124.946 28.8158 125.16 28.7448C128.032 28.0038 129.128 30.3992 130.671 31.9319C130.965 32.2161 130.935 32.9469 130.905 33.4138C130.837 34.8274 130.698 36.2367 130.488 37.6362C130.285 38.7933 129.879 39.9199 129.565 41.0567C129.262 41.9638 129.018 42.8894 128.834 43.8277C128.786 44.3693 128.918 44.9117 129.21 45.3705C131.361 48.7707 132.194 52.7191 133.878 56.3122C134.518 57.6824 134.965 59.144 135.543 60.5346C136.233 62.2093 136.903 63.8333 136.365 65.7517C136.03 66.9697 136.426 67.396 137.654 67.7817L138.507 68.0558C138.684 68.1088 138.845 68.2037 138.978 68.3325C139.11 68.4612 139.209 68.6201 139.267 68.7955C139.325 68.9708 139.339 69.1576 139.31 69.3398C139.28 69.522 139.206 69.6944 139.096 69.8421C138.487 70.6744 137.857 71.4763 137.248 72.2984C136.934 72.7146 136.66 73.151 136.325 73.6281C137.472 74.3589 138.497 75.0592 139.562 75.6581C139.915 75.8368 140.324 75.8721 140.702 75.7567C141.08 75.6413 141.399 75.3841 141.592 75.0389C141.892 74.4711 142.231 73.925 142.607 73.4048C142.738 73.2712 142.897 73.1696 143.073 73.108C143.249 73.0463 143.437 73.0263 143.622 73.0495C143.897 73.1206 144.16 73.5266 144.272 73.8412C144.402 74.2508 144.447 74.6825 144.404 75.11C144.282 76.3889 145.054 77.2923 145.683 78.2362C145.886 78.438 146.15 78.5665 146.434 78.6016C147.145 78.7539 147.875 78.8249 148.576 79.0076C148.88 79.0732 149.146 79.2555 149.317 79.5151C149.369 79.6855 149.457 79.8429 149.574 79.9768C149.692 80.1108 149.836 80.2183 149.998 80.2921C150.16 80.366 150.336 80.4046 150.515 80.4054C150.693 80.4062 150.869 80.3691 151.032 80.2966C151.458 80.185 152.047 79.9718 152.291 80.6722C152.534 81.3725 152.869 81.9004 152.199 82.4586C151.803 82.7936 151.377 83.0981 150.981 83.4736C150.585 83.8492 150.372 84.1942 149.966 84.2856C149.274 84.4229 148.571 84.4942 147.865 84.4987C147.52 84.4987 147.175 84.4988 146.85 84.5495C145.906 84.7018 144.972 84.8946 144.028 85.0367C141.129 85.3886 138.374 86.4984 136.04 88.2542C134.498 89.4519 133.726 90.5887 134.284 92.4766C134.347 92.7906 134.46 93.0922 134.619 93.3699C134.983 93.8828 135.376 94.3742 135.797 94.8416C136.294 95.41 136.812 95.9479 137.34 96.5062C137.438 96.6419 137.513 96.7927 137.563 96.9528C138.162 98.6478 138.761 100.353 139.309 101.936C138.639 102.688 138.081 103.317 137.512 103.966C136.944 104.616 136.497 104.981 136 105.58C135.878 105.712 135.939 105.996 135.858 106.179C135.711 106.465 135.537 106.737 135.34 106.991C134.527 107.912 133.793 108.9 133.148 109.945C132.716 111.02 132.393 112.135 132.183 113.274L134.802 114.857C134.802 114.959 134.863 115.182 134.873 115.405C134.831 116.266 135.057 117.118 135.518 117.844C135.98 118.571 136.655 119.138 137.451 119.465C138.369 120.051 139.223 120.731 139.999 121.495C140.791 122.074 141.4 123.038 142.668 122.734C142.993 122.653 143.44 123.048 144.059 123.322C142.029 123.789 141.917 123.942 142.171 125.789C142.313 126.804 141.978 127.078 141.095 126.581C139.753 125.874 138.209 125.648 136.721 125.941C136.423 125.958 136.126 125.898 135.858 125.769C134.051 125.078 132.265 124.358 130.448 123.678C130.134 123.59 129.808 123.559 129.484 123.586C127.342 123.586 125.19 123.586 123.038 123.586C122.683 123.586 122.348 123.17 122.023 122.957C121.232 122.48 120.47 121.942 119.638 121.536C118.623 121.029 117.476 120.633 116.39 120.176L113.71 119.009C113.476 118.906 113.255 118.777 113.051 118.623C112.888 118.511 112.716 118.227 112.614 118.247C111.315 118.603 110.797 116.857 109.366 117.385L109.732 116.248H111.853C110.939 114.827 111.853 114.096 112.523 113.325L111.274 112.168L114.451 109.803L114.34 109.488C113.994 109.501 113.652 109.566 113.325 109.681C112.31 110.199 111.295 110.767 110.33 111.345C110.006 111.528 109.762 111.843 109.437 112.015C108.818 112.34 108.169 112.604 107.529 112.888C107.346 112.959 107.093 112.888 106.961 113.03C106.382 113.538 105.834 114.045 105.266 114.614C105.793 116.806 107.235 117.111 109.184 116.096C109.133 117.933 108.656 118.258 107.428 117.852C106.473 118.42 105.743 118.867 105.012 119.313C104.852 119.411 104.722 119.552 104.636 119.719C104.149 120.612 103.418 120.562 102.535 120.349C102.608 120.089 102.659 119.825 102.688 119.557C102.688 118.887 102.576 118.319 101.673 118.247C101.073 118.137 100.482 117.981 99.9064 117.781L102.251 115.598L101.297 114.959C100.971 115.284 100.547 115.493 100.09 115.554C99.6333 115.614 99.1694 115.523 98.7696 115.294C98.4175 115.034 98.0787 114.756 97.7546 114.462C97.5955 114.35 97.4139 114.275 97.2225 114.241C97.0311 114.207 96.8346 114.216 96.6469 114.266C96.4592 114.316 96.2848 114.407 96.1359 114.532C95.9871 114.657 95.8675 114.813 95.7855 114.989C95.3795 115.771 95.2374 116.684 94.2935 117.151C94.0543 117.293 93.8712 117.512 93.7751 117.773C93.679 118.034 93.6756 118.32 93.7657 118.582C93.9484 119.506 93.7657 120.308 92.6391 120.612C91.7865 120.846 91.7966 121.759 91.6241 122.47C91.5784 122.861 91.5784 123.256 91.6241 123.647C91.6241 124.916 91.624 124.957 90.3756 125.139L89.8072 127.748L89.523 127.687C89.736 127.976 89.9196 128.285 90.0711 128.611C90.5786 129.9 91.1673 131.077 92.7608 131.29C92.9334 131.29 93.1263 131.717 93.1466 131.97C93.1669 132.224 92.8218 132.315 92.6086 132.366C92.1915 132.462 91.7671 132.524 91.3399 132.549C90.3756 132.64 89.4418 132.447 88.6907 133.503C87.916 134.283 86.9857 134.892 85.9604 135.289L86.9754 133.889C86.3258 134.081 85.9603 133.747 85.4325 133.269C85.1064 132.963 84.6943 132.764 84.2515 132.699C83.8088 132.633 83.3567 132.705 82.9559 132.904C82.0395 133.269 81.1004 133.574 80.1444 133.818L80.6621 134.67L80.2154 134.802L80.7737 135.756L80.6113 135.868L79.5963 135.107L79.4441 135.269L79.8805 135.858L79.6674 136.061L77.5866 134.031C76.7036 135.878 78.6016 136.832 79.1801 138.416L77.9317 137.685L78.2565 138.903L77.5866 139.248L77.8505 139.38C78.8029 139.88 79.7068 140.468 80.5504 141.136C80.8853 141.43 80.7432 142.242 80.8447 143.024C80.0023 142.587 79.7079 141.339 78.6117 142.344L79.4745 143.724L77.5562 143.592L78.5712 146.637L78.3783 146.759L77.0182 145.683L76.4904 146.81L75.5972 144.881L74.8562 145.987C74.6228 145.5 74.2777 145.125 74.3386 144.83C74.4703 144.307 74.4144 143.755 74.1807 143.269C73.947 142.783 73.5503 142.395 73.0597 142.171L74.227 140.638C73.3135 140.902 73.212 140.334 72.9582 139.776C72.331 138.688 71.6361 137.64 70.8775 136.639C70.2796 135.833 69.724 134.996 69.2129 134.132C69.0858 133.681 69.0858 133.203 69.2129 132.752C69.2969 132.112 69.4223 131.478 69.5884 130.854C69.7038 130.539 69.8429 130.234 70.0046 129.94C69.0606 129.017 68.1167 128.113 67.1829 127.19C66.2491 126.266 65.2138 125.078 64.1379 124.145C63.465 123.759 62.7403 123.472 61.986 123.292C62.1992 122.165 60.017 121.891 60.5549 120.552C60.3418 119.973 60.1489 119.537 60.017 119.039C59.9617 118.615 59.8665 118.197 59.7328 117.791C59.4587 117.243 59.0223 117.09 58.5858 117.669C58.3457 118.031 58.074 118.37 57.7738 118.684C57.6621 117.75 56.637 116.958 57.52 115.893C56.3934 115.101 55.4393 116.461 54.3938 116.035C54.3329 116.197 54.2619 116.299 54.2822 116.37C54.5156 117.121 55.1145 117.831 54.0893 118.572C53.9168 118.694 54.3025 119.78 54.607 120.318C54.9396 120.772 55.3401 121.173 55.7946 121.506C56.1461 121.823 56.4305 122.207 56.631 122.636C56.8315 123.065 56.944 123.529 56.9618 124.003C57.0609 124.818 57.3458 125.6 57.7945 126.288C58.2432 126.976 58.8438 127.552 59.55 127.971C59.8139 128.154 60.2402 128.103 60.565 128.184C60.8898 128.266 61.5293 128.418 62.25 128.6L61.1334 129.494C61.509 129.788 61.8135 130.072 62.1484 130.296C63.3055 131.047 64.4829 131.777 65.6502 132.508C66.1604 132.819 66.543 133.301 66.7291 133.869C66.9152 134.436 66.8925 135.052 66.6652 135.604L63.539 132.945L61.9759 135.411C62.4379 135.642 62.8678 135.932 63.2548 136.274C63.525 136.574 63.6702 136.966 63.6608 137.37C63.6045 137.548 63.5057 137.709 63.3731 137.84C63.2404 137.971 63.0779 138.067 62.8996 138.121C62.1891 138.243 61.9759 138.629 61.7729 139.248C61.3364 140.567 60.291 140.943 58.9309 140.344C58.3016 141.065 57.5606 141.694 58.1087 142.892C58.1195 143.136 58.0661 143.379 57.954 143.596C57.8418 143.813 57.6747 143.997 57.4693 144.13C57.1896 144.174 56.9036 144.154 56.6328 144.072C56.362 143.989 56.1135 143.846 55.9062 143.653C54.9826 142.333 53.5412 141.795 52.2826 141.014C51.024 140.232 50.9632 139.806 51.7549 138.923C52.3334 138.923 52.7698 138.923 53.2164 138.923C53.4338 138.906 53.6509 138.959 53.8356 139.075C54.1331 139.334 54.4904 139.513 54.875 139.598C55.2597 139.684 55.6595 139.671 56.0381 139.562C57.0531 139.451 58.0681 139.562 59.0831 139.491C59.6272 139.324 60.091 138.963 60.3866 138.477C60.6822 137.99 60.789 137.412 60.6868 136.852C60.5473 136.482 60.4354 136.102 60.3519 135.716C60.2098 134.802 59.885 134.132 58.87 133.919C58.7531 133.913 58.6394 133.878 58.5389 133.818C58.4383 133.758 58.3539 133.675 58.293 133.575C58.232 133.475 58.1963 133.361 58.189 133.245C58.1816 133.128 58.2029 133.011 58.2508 132.904C58.3523 132.498 58.19 131.94 57.3678 131.889C56.9517 131.889 56.3528 131.27 56.16 130.803C56.0367 130.432 55.8019 130.108 55.4876 129.876C55.1733 129.643 54.7949 129.513 54.404 129.504C54.2116 129.492 54.0306 129.409 53.8965 129.27C53.0338 128.154 52.2015 127.007 51.359 125.87C51.2372 125.718 51.156 125.444 51.0139 125.413C49.7451 125.099 49.938 123.576 48.9839 122.988C48.9128 122.937 48.9839 122.622 48.9839 122.429C49.061 121.438 48.8176 120.448 48.2895 119.606C47.7613 118.763 46.9764 118.113 46.0505 117.75C45.8093 117.733 45.5685 117.789 45.3604 117.913C44.5788 118.237 43.8074 118.582 43.0258 118.928C42.8736 118.988 42.6097 118.928 42.5792 119.07C42.1935 120.085 41.5643 119.8 41.0162 119.303C39.8489 120.602 38.4482 120.318 37.3114 119.009C36.4841 118.206 35.4515 117.648 34.3273 117.395C33.7792 117.243 32.9164 117.77 32.3988 118.237C32.0943 118.511 32.0943 119.252 32.145 119.77C32.1965 120.279 32.082 120.792 31.8186 121.231C31.5552 121.67 31.1571 122.012 30.6834 122.206C29.3502 122.709 27.922 122.91 26.5017 122.795C26.0449 122.795 25.3547 122.622 25.4867 123.231C24.6544 123.84 23.9235 124.337 23.2333 124.896C21.5484 126.286 21.4266 126.824 22.2183 128.793C21.1221 129.534 19.3053 129.362 19.0312 131.371C17.7726 130.722 16.7881 131.371 15.6716 132.062C15.0931 132.447 13.9867 132.062 13.1341 131.94C12.65 131.828 12.1984 131.606 11.8146 131.29C10.6879 130.427 9.338 130.6 8.06925 130.438C7.8561 130.438 7.58204 130.63 7.39934 130.793C6.68884 131.402 6.14075 131.138 5.83625 130.417C5.5642 129.821 5.42233 129.174 5.4201 128.519C5.4201 126.956 4.9532 126.134 3.3901 125.819C2.64056 125.734 1.93367 125.426 1.3601 124.936C0.942825 124.668 0.482899 124.472 0 124.358C0.243645 124.07 0.461044 123.761 0.649599 123.434C1.015 122.602 1.3398 121.759 1.6646 120.897C1.68976 120.771 1.68737 120.642 1.65758 120.517C1.62778 120.393 1.5713 120.276 1.49205 120.176C1.25841 119.959 1.08665 119.684 0.994401 119.379C0.902156 119.074 0.892742 118.75 0.967128 118.44C1.04151 118.13 1.19702 117.845 1.41769 117.615C1.63837 117.385 1.91626 117.218 2.22285 117.131C2.85215 116.877 3.3292 116.116 3.7758 115.527C4.22328 114.89 4.60743 114.21 4.92276 113.497C5.22726 112.827 5.43026 112.107 5.68401 111.467C5.93776 110.828 6.2321 110.077 6.5975 109.133C6.39535 108.556 6.29907 107.947 6.3133 107.336C6.3133 107.022 7.23695 106.626 7.72415 106.636C8.41435 106.636 9.03349 106.94 9.65264 106.331C9.77444 106.199 10.6677 106.473 10.7895 106.758C11.0492 107.189 11.4051 107.555 11.8295 107.826C12.2538 108.097 12.735 108.266 13.2356 108.321C13.8027 108.453 14.3246 108.733 14.7479 109.133C15.6209 110.091 16.7701 110.754 18.0366 111.031C18.3614 111.031 18.6354 111.386 18.95 111.548C19.2647 111.711 19.7113 111.853 20.0767 112.036C20.3277 112.165 20.5572 112.333 20.7567 112.533C21.7108 113.548 22.7157 113.416 23.3653 112.168C23.7307 111.457 24.2991 110.828 24.5934 110.138C25.0197 109.062 25.0604 107.773 25.6795 106.859C26.5727 105.55 26.0956 104.829 25.2126 103.885C24.9588 103.611 25.2126 102.87 25.2126 102.383C25.2551 101.997 25.2186 101.606 25.1052 101.234C24.9917 100.862 24.8038 100.518 24.5529 100.221C23.9642 99.5918 23.5379 98.8407 22.9187 98.1911C22.5276 97.9163 22.0961 97.704 21.6398 97.5618C21.6398 97.3892 21.8022 97.0137 21.8631 96.628C21.8614 96.4681 21.8305 96.3098 21.7717 96.1611C21.7717 95.9073 21.5891 95.5216 21.7007 95.4303C21.9413 95.3046 22.211 95.245 22.4822 95.2577C23.2435 95.1664 23.9438 96.0088 24.766 95.4404C24.8167 95.4404 25.1415 95.6739 25.243 95.8566C25.446 96.222 25.5882 96.628 25.7404 96.9731L28.2779 97.3791C28.2779 96.6584 28.2069 95.9987 28.2779 95.3491C28.3519 94.9194 28.4675 94.4979 28.623 94.0905C29.3741 94.4863 30.3891 94.5675 29.6887 95.887L31.9421 96.7193C32.3684 96.293 32.5714 95.9378 32.8657 95.816C33.3807 95.5879 33.9367 95.4671 34.4999 95.4607C35.6468 95.4607 36.1035 94.8923 36.1746 93.8773C36.1746 93.1871 36.5603 93.0146 37.1896 93.0247C37.8189 93.0349 38.702 92.8623 39.4632 92.8725C40.205 92.9148 40.9438 92.9995 41.6759 93.1262L40.4883 92.3954L41.5033 92.5883C41.1481 91.7154 41.8484 91.4109 42.295 90.9947C42.5082 90.8019 42.9345 90.741 43.0258 90.5279C43.1801 89.9787 43.4855 89.484 43.9072 89.1C44.3289 88.7159 44.85 88.4581 45.4111 88.3558C46.3992 88.0253 47.468 88.0253 48.4561 88.3558C49.4204 87.3408 49.4711 87.4017 51.3996 88.5486C51.8517 88.234 52.2641 87.866 52.6278 87.4524C52.7082 87.2594 52.7496 87.0524 52.7496 86.8434C52.7496 86.6343 52.7082 86.4274 52.6278 86.2344C52.7479 85.9346 52.8298 85.6209 52.8713 85.3006C52.836 84.7497 52.836 84.1971 52.8713 83.6462C52.9728 83.1082 53.1149 82.692 52.4856 82.4281C52.4223 82.3801 52.3722 82.3166 52.3402 82.2438C52.3083 82.171 52.2954 82.0912 52.3029 82.012C52.5668 80.997 52.8612 79.982 53.186 78.967C53.186 78.8655 53.5311 78.8553 53.7341 78.8046C53.5819 77.7896 54.0183 77.3329 55.1653 77.4445C55.5656 77.4279 55.9544 77.3053 56.2919 77.0892C56.8704 76.7746 57.4084 76.3889 57.9666 76.0742L58.3117 76.3483L56.911 79.7181L58.3321 80.5808L56.8806 81.4436L56.7182 81.1899L56.1092 82.5905C57.4997 82.8646 57.1242 83.8187 56.84 84.925L55.145 84.0116L54.7796 84.1942L55.3784 86.275C55.7234 86.3893 56.0621 86.5214 56.3934 86.6708C56.6776 86.7926 57.1851 86.9855 57.175 87.1276C57.0801 87.4925 56.9184 87.8367 56.6979 88.1426C57.197 88.3038 57.7321 88.3167 58.2384 88.1798C58.7446 88.0428 59.2003 87.762 59.55 87.3712C59.6746 87.282 59.8232 87.2325 59.9763 87.2291C60.5244 87.1682 61.0827 87.1276 61.712 87.0768C61.7932 87.4219 62.727 87.97 61.4684 88.4065C61.8027 88.7823 62.2364 89.056 62.7194 89.196C63.2025 89.3361 63.7153 89.3369 64.1987 89.1982C65.1814 89.0193 66.139 88.7228 67.0509 88.3151C68.1939 87.8457 69.4096 87.5779 70.644 87.5234C70.7354 87.5234 71.0094 87.8584 71.0094 88.0411C71.0094 88.5791 71.1819 89.0561 71.7402 88.9952C72.2732 88.994 72.7868 88.7951 73.1815 88.437C73.4253 87.9372 73.8539 87.5518 74.3768 87.3624C74.8996 87.173 75.4755 87.1944 75.9829 87.422C76.0436 87.2871 76.0813 87.143 76.0946 86.9956C76.0896 85.7612 76.0185 84.5279 75.8814 83.301C75.6479 81.6466 76.5818 80.459 77.3836 79.241C77.9622 78.3783 78.9162 78.561 79.4643 79.4339C79.8196 80.0124 80.2662 80.5301 80.6316 81.0376C81.7989 80.6316 82.1744 80.0226 81.8699 78.9162C81.8509 78.2253 81.961 77.5368 82.1947 76.8862C81.8293 76.8862 81.4233 77.1095 81.1797 76.9776C81.0271 76.8754 80.8964 76.7437 80.7953 76.5903C80.6942 76.437 80.6248 76.265 80.591 76.0844C80.4996 75.3637 80.2662 74.3894 80.591 73.9732C80.9158 73.5571 82.0018 73.3541 82.7529 73.1003C83.2851 72.9656 83.7947 72.7536 84.2653 72.471C85.0773 72.6131 85.8791 72.7653 86.7013 72.8871C87.0188 72.9127 87.3379 72.9127 87.6554 72.8871C88.0442 72.2651 88.6154 71.7783 89.2912 71.4931C89.967 71.2079 90.7143 71.1382 91.4312 71.2936C90.6598 70.3395 88.6298 71.2936 88.6501 69.1824L80.0835 71.7605C79.7993 71.3342 79.5963 70.9891 79.3629 70.6643C79.2517 70.5356 79.1175 70.4289 78.967 70.3496C78.7843 70.2177 78.5914 70.0147 78.3884 70.0045C77.3734 69.9335 77.0182 69.3651 77.1501 68.4313C77.2618 67.6802 77.4242 66.9494 77.5967 66.0054C77.4749 64.9904 77.2923 63.8232 77.1603 62.595C77.1603 62.4123 77.3633 62.2093 77.475 62.0266L78.1651 60.8492H78.9061C78.9396 60.5137 79.0628 60.1934 79.2629 59.9219C79.4629 59.6504 79.7323 59.4378 80.0429 59.3064C80.8244 58.8395 81.2203 57.7129 81.809 56.9009C82.2512 56.2774 82.7582 55.7024 83.3213 55.1855C83.3213 52.5364 81.5045 52.5567 79.6775 52.8916L78.0028 54.2213L78.3884 54.9216C78.2176 54.9735 78.0634 55.0695 77.9414 55.1999C77.8195 55.3304 77.7341 55.4907 77.694 55.6647C77.6538 55.8387 77.6603 56.0203 77.7127 56.191C77.7652 56.3617 77.8617 56.5155 77.9926 56.637C78.3174 57.114 77.3735 58.8091 76.5716 59.1745C74.9566 59.9142 73.5815 61.0923 72.6029 62.5748C72.4608 62.7879 72.0954 62.8386 71.8518 62.9706C71.9131 63.4289 71.878 63.895 71.7487 64.339C71.6193 64.783 71.3986 65.195 71.1008 65.5487C70.7557 65.9953 70.9485 66.8175 70.7861 67.4366C70.5628 68.2486 70.9586 68.5937 71.6285 68.8271C71.7533 68.8638 71.8657 68.934 71.9533 69.0301C72.4811 69.7914 72.9683 70.5526 73.5469 71.3646C72.8364 71.3646 72.9481 71.73 73.2729 72.0142C72.9988 72.4507 72.1564 72.2477 72.4812 73.151C72.5725 73.4048 71.6793 74.0138 71.2124 74.4908L70.9383 74.1458L69.4463 75.1608L68.0151 80.6925L68.1572 80.7534L69.1012 79.5557L69.2331 79.6267L67.7716 82.8747L67.6193 81.8597C67.5584 81.8597 67.467 81.8597 67.4569 81.8597C67.0306 82.8037 66.4419 83.3112 65.3153 82.824C65.1342 82.763 64.9412 82.7458 64.7522 82.7738C64.5633 82.8019 64.3836 82.8743 64.2281 82.9853C64.0725 83.0963 63.9455 83.2425 63.8575 83.4121C63.7695 83.5817 63.7229 83.7697 63.7217 83.9608C63.7217 84.7626 63.3766 85.0367 62.6154 84.9047C62.0673 84.8134 61.5191 84.7525 61.103 84.6916V82.3672L59.9154 84.113L60.088 84.6814L59.2455 85.1077L60.0779 85.6863L59.6414 85.9705L59.6516 85.9197ZM94.9735 69.6797C95.2722 69.3098 95.4176 68.8394 95.3799 68.3655C95.3421 67.8915 95.124 67.4501 94.7705 67.1321C93.9494 66.5004 93.069 65.9498 92.1417 65.4878L90.8831 67.1625L93.0958 70.7861L94.9735 69.6797ZM98.8712 62.8792C98.658 63.4679 98.1809 63.539 97.4704 62.8792L97.7343 64.7468C98.6174 65.2036 99.7643 65.5487 99.7643 66.9291C100.779 66.381 100.85 66.0866 100.312 65.2543C99.7745 64.422 99.2975 63.6405 98.8712 62.9097V62.8792ZM86.2851 74.9882C86.8434 75.9525 86.9855 77.0182 87.8888 77.6475L88.2644 77.3329L87.5641 76.9268V74.572L86.2851 74.9882ZM103.906 74.0442C104.454 74.4121 105.035 74.7281 105.641 74.9882C105.875 75.0593 106.26 74.8055 106.504 74.6025C106.557 74.5115 106.584 74.4082 106.584 74.3031C106.584 74.198 106.557 74.0947 106.504 74.0037C106.007 73.6383 105.489 73.3541 104.91 72.9887L104.829 73.2525L105.225 73.9529L103.906 74.0442ZM78.4392 141.258L76.1758 140.628L76.1047 140.902C77.749 141.897 77.749 141.897 78.4392 141.258ZM120.115 106.748C121.698 105.55 121.901 105.124 121.384 104.718L120.115 106.748ZM129.25 84.113C127.86 84.2856 127.707 84.1131 127.9 82.9661L127.281 83.0676C128.052 84.7829 128.57 85.0469 129.189 84.1537L129.25 84.113Z"
        fill="#FA0085" />
    <path
        d="M34.8551 68.6952L38.2757 70.2989L35.2307 73.5875C35.2307 73.5063 35.2307 73.7194 35.2916 73.9935H33.5661C33.9725 74.3047 34.3961 74.5927 34.8348 74.8563C35.3067 75.0663 35.6868 75.4398 35.905 75.908C36.1233 76.3762 36.165 76.9074 36.0224 77.4039C35.9412 77.9215 35.8397 78.4189 35.7382 78.9568C35.6442 79.2368 35.6438 79.5398 35.7372 79.8199C35.8306 80.1001 36.0127 80.3422 36.2558 80.5098C36.4323 80.6739 36.5743 80.8716 36.6736 81.0911C36.7729 81.3107 36.8276 81.5478 36.8344 81.7887C36.7922 82.5131 36.6904 83.2328 36.5299 83.9405C36.4997 84.0328 36.4997 84.1324 36.5299 84.2247C36.6276 84.3917 36.6871 84.5782 36.7041 84.7709C36.7211 84.9636 36.6951 85.1577 36.6282 85.3392C36.5612 85.5207 36.4548 85.6851 36.3168 85.8206C36.1787 85.9561 36.0123 86.0592 35.8295 86.1227C36.063 86.2344 36.1949 86.3562 36.2761 86.3359C36.6467 86.203 37.052 86.2033 37.4224 86.3366C37.7928 86.47 38.1053 86.7281 38.3061 87.0667C38.4401 87.2811 38.5222 87.5237 38.5458 87.7754C38.5695 88.027 38.5341 88.2807 38.4424 88.5163C38.3508 88.7519 38.2054 88.9628 38.0178 89.1323C37.8303 89.3018 37.6058 89.4251 37.3622 89.4925C36.9399 89.6343 36.55 89.8585 36.2152 90.1523C35.4743 90.9744 36.5502 90.944 36.8141 91.2992C36.4182 92.233 34.4187 92.8522 33.4544 92.4259C32.4904 92.0307 31.5042 91.6918 30.5008 91.4109C30.2775 91.3398 29.9527 91.5936 29.6989 91.5631C29.2831 91.5338 28.8782 91.4162 28.5114 91.218C28.0408 90.865 27.5964 90.4783 27.1817 90.0609L26.1667 91.2485C25.1517 90.7004 24.2382 89.4215 22.8984 90.8526L22.3503 90.0204C23.3905 89.5378 24.3857 88.9637 25.3243 88.305C26.1972 87.5945 26.8468 88.1629 27.6182 88.305C28.0796 88.376 28.5514 88.3271 28.9884 88.1629C28.1663 88.508 27.9734 87.8482 27.6182 87.4118C27.0679 86.9332 26.4731 86.5083 25.8419 86.143C25.5882 85.9603 25.375 85.7269 25.1416 85.5239C25.375 85.3006 25.5679 84.986 25.8419 84.8845C26.5727 84.6206 27.3543 84.4886 28.0749 84.2044C28.2881 84.113 28.3591 83.6867 28.4911 83.4127C28.2637 83.3243 28.0432 83.2191 27.8313 83.098C27.6145 82.9275 27.4078 82.7445 27.2122 82.55C28.4302 82.215 29.4147 81.2812 30.4196 82.4891C31.2519 82.0019 31.9421 80.6316 31.5767 79.8906C31.4406 79.6769 31.3511 79.4369 31.3138 79.1863C31.2765 78.9357 31.2924 78.68 31.3604 78.436C31.4283 78.1919 31.5469 77.9648 31.7083 77.7695C31.8697 77.5742 32.0704 77.4151 32.2973 77.3024C32.0156 77.3963 31.7214 77.4476 31.4244 77.4546C31.139 77.3733 30.8659 77.2538 30.6124 77.0994L30.3688 77.3633C30.0237 77.2212 29.6888 77.1806 29.5365 76.9979C29.3843 76.8152 29.364 76.3483 29.4756 76.2671C29.969 75.9848 30.358 75.5507 30.5848 75.0295C30.8115 74.5083 30.864 73.9278 30.7342 73.3743L29.0189 74.6735L28.7956 74.3893L29.8106 73.486L29.5974 73.3743L30.785 71.2327C30.641 71.1319 30.5141 71.0085 30.4094 70.8673C29.9019 70.1466 30.7139 69.9335 30.9981 69.6087C31.2823 69.2839 32.0131 68.9084 31.7188 68.0558C31.6376 67.8528 31.9624 67.3554 32.2263 67.1524C33.018 66.5637 33.8706 66.0461 34.6217 65.5386L37.555 66.5536C37.2099 68.0152 35.3728 67.6396 34.8551 68.6952Z"
        fill="#FA0085" />
    <path
        d="M27.1716 34.2461L28.1866 34.784L29.2016 33.2311L29.7091 34.3882C30.0237 34.3882 30.582 34.2765 30.8966 34.4897C31.2113 34.7028 31.4548 35.3118 31.7289 35.7584H32.9875L33.9112 35.2306L34.4592 36.6922L35.393 36.8039V36.9663L34.378 37.3824C34.4694 38.1335 34.5709 38.9151 34.6521 39.7068C34.407 40.2169 34.0618 40.6725 33.6371 41.0466C33.4138 41.1988 33.2311 41.4221 33.0179 41.5947C31.8304 42.5488 30.3891 41.9195 29.0797 42.1834C28.7448 42.2443 28.3489 41.9093 27.9734 41.8992C27.2452 41.9195 26.5218 41.7748 25.8574 41.476C25.193 41.1771 24.6047 40.732 24.1367 40.1737C24.0758 40.1026 23.954 40.0011 23.9743 39.9402C24.3803 38.3873 22.9593 37.9813 22.1371 37.149L22.4924 36.54C22.8984 36.7024 23.2943 36.9967 23.5074 36.8952C23.7206 36.7937 23.8931 36.337 24.0149 36.0122C24.1367 35.6874 24.1874 35.2712 24.2788 34.8957C23.0303 33.8807 23.0303 33.8807 23.345 33.3021L25.2329 34.3171L25.172 33.7792H26.0855L26.2783 33.1702C25.5881 32.551 24.3295 32.7033 24.1468 31.4041L25.2735 31.3229L25.3851 31.7086L26.6641 30.4906L27.0295 31.9014H27.1918L27.3137 30.45C28.6129 30.8661 27.7907 31.8608 28.0749 32.48C28.7042 33.6675 27.1614 33.5254 27.1716 34.2461Z"
        fill="#FA0085" />
    <path
        d="M20.3812 75.5464C20.4234 75.0709 20.5506 74.6068 20.7567 74.1762C21.1018 73.7397 21.4875 74.0239 21.8225 74.369C22.4924 75.0694 22.5025 75.0592 23.8525 74.501L23.4059 74.0239L24.8472 73.0089L24.9081 72.7044C25.9231 73.1916 26.999 73.7194 28.0241 74.1762C28.1179 74.2296 28.1991 74.3025 28.2622 74.3901C28.3252 74.4777 28.3687 74.5778 28.3895 74.6837C28.4958 75.4025 28.5366 76.1296 28.5113 76.8558C28.5113 77.3024 28.3286 77.8708 27.6181 77.8708C26.6742 77.8708 26.2986 78.3377 26.1362 79.3628C25.8559 80.3 25.4051 81.1774 24.8066 81.9511C24.4933 82.387 24.1543 82.8038 23.7916 83.1995C23.1875 82.9255 22.5541 82.7211 21.9037 82.5905C21.2138 82.5761 20.5268 82.6825 19.8737 82.9052C18.3207 83.3416 17.4072 82.9052 16.9302 81.3827C16.8176 81.1059 16.6782 80.8407 16.514 80.591L17.8944 80.1647L17.1535 79.7688C18.0406 79.3448 18.9046 78.8738 19.7417 78.358C20.4928 77.8606 19.9955 77.2009 19.7417 76.6223C19.6268 76.3947 19.498 76.1744 19.356 75.9626C19.6098 75.8509 19.8534 75.719 20.1173 75.6276C20.2 75.5857 20.2892 75.5582 20.3812 75.5464V75.5464Z"
        fill="#FA0085" />
    <path
        d="M108.382 27.9734C108.544 27.8526 108.677 27.6967 108.77 27.5173C108.863 27.3379 108.915 27.1397 108.921 26.9376C108.927 26.7355 108.887 26.5346 108.804 26.3502C108.721 26.1657 108.598 26.0023 108.443 25.8723C108.331 25.7505 108.179 25.5577 108.199 25.4257C108.311 24.5427 108.483 23.68 108.625 22.8071C108.026 22.5736 107.407 22.4924 107.955 21.5281C108.177 20.9194 108.147 20.2478 107.874 19.6605C107.651 19.0921 108.148 18.2294 107.235 17.935C107.255 17.8353 107.283 17.737 107.316 17.6407C107.793 16.311 108.27 14.9712 108.727 13.6314C108.763 13.379 108.763 13.1226 108.727 12.8702C109.924 12.7179 110.229 11.6522 110.757 10.8402C110.858 10.6879 110.757 10.4037 110.757 10.2007C110.594 9.55114 110.544 8.90155 111.295 8.6275C111.599 8.51585 112.259 8.55645 112.31 8.729C112.584 9.30755 112.959 10.0789 112.777 10.5966C112.229 12.0214 111.609 13.4171 110.919 14.7784C110.798 14.9734 110.735 15.1986 110.737 15.428C111.153 17.458 110.645 19.488 110.96 21.518C111.152 22.7522 111.281 23.9956 111.345 25.243C111.491 26.0014 111.919 26.6763 112.543 27.1309C113.46 27.7619 114.424 28.3218 115.426 28.8057C115.68 28.9478 115.923 29.1102 116.238 29.303C115.314 29.8207 114.604 30.2369 113.883 30.6327C113.483 30.7478 113.058 30.7428 112.661 30.6183C112.264 30.4938 111.912 30.2552 111.65 29.9323C111.619 29.809 111.564 29.6929 111.488 29.5911C111.412 29.4893 111.316 29.4037 111.207 29.3394C111.097 29.2751 110.975 29.2334 110.849 29.2167C110.723 29.2 110.595 29.2086 110.473 29.2421C109.153 29.506 108.889 29.3233 108.382 27.9734Z"
        fill="#FA0085" />
    <path
        d="M79.17 8.23165L79.9718 7.46025L81.2812 8.37375L81.5451 7.4704L84.2348 8.5869C83.9445 9.34831 83.5554 10.0683 83.0777 10.7285C82.7123 11.1041 82.0627 11.7435 81.3218 10.8605C81.1391 10.6067 80.591 10.6575 80.2357 10.5255C79.8805 10.3936 79.4136 10.0891 80.1748 9.51054H79.0685C78.4189 11.033 80.2053 11.2665 80.5199 12.3931C80.2593 12.5964 79.9726 12.7637 79.6673 12.8905C79.0786 13.063 79.1091 13.5198 78.8959 13.9055C78.5001 14.7175 78.561 15.7528 77.7185 16.4125C77.3937 16.6663 77.3836 17.2956 77.1907 17.7422C76.9979 18.1888 76.7746 18.473 76.5716 18.8384L76.1453 18.747L75.9017 17.6305L74.8867 15.5092L75.9017 15.631C75.6198 15.2817 75.3748 14.9042 75.1709 14.5043C75.7494 13.9664 76.4295 13.4893 76.7543 13.5807L76.0742 12.789L76.3483 12.4337L76.2569 13.2559L74.7953 13.601C74.9983 12.6469 73.9224 11.9668 74.6126 10.9518C74.7852 10.6981 74.4604 10.1399 74.4807 9.7237C74.4807 9.00305 74.8461 8.60719 75.6682 8.78989C76.0133 8.79367 76.3566 8.73876 76.6832 8.6275L76.1148 9.81505L76.3178 9.93685L76.9065 9.14514L77.2618 9.55114L77.9012 8.2012L78.8249 9.2162L79.17 8.23165Z"
        fill="#FA0085" />
    <path
        d="M42.6097 127.667C43.2898 128.59 43.9394 128.164 44.5484 127.88C45.6446 127.372 45.8476 127.555 46.0404 128.732C46.3449 130.762 45.0254 132.336 45.0254 134.406L43.7465 133.675L43.1781 134.619L41.8383 133.939C42.6544 131.956 42.9208 129.789 42.6097 127.667V127.667Z"
        fill="#FA0085" />
    <path
        d="M79.3527 150.149V149.134C80.0733 149.134 80.7737 148.921 81.3827 149.631C81.4842 149.763 81.7988 149.753 82.0221 149.773C83.0371 149.844 84.0014 149.885 84.9859 149.997C85.2918 150.08 85.5829 150.21 85.8487 150.382L86.9246 149.936C86.681 150.403 86.5795 150.849 86.4171 150.88C85.1889 151.062 83.707 151.651 82.7834 151.184C81.6263 150.575 80.4692 150.727 79.3527 150.149Z"
        fill="#FA0085" />
    <path
        d="M47.0453 122.389L45.5634 127.352C44.3657 126.469 43.8886 124.48 44.4875 123.525C44.6552 123.332 44.8729 123.188 45.1168 123.109C45.6852 122.876 46.2637 122.683 47.0453 122.389Z"
        fill="#FA0085" />
    <path
        d="M80.6214 13.0224L82.55 15.8543L81.0173 17.2245V16.3516L79.7485 16.4836C80.7635 15.3569 80.0124 14.4536 79.4339 13.3675L80.6214 13.0224Z"
        fill="#FA0085" />
    <path
        d="M111.427 36.7937C110.99 37.4332 110.676 37.961 110.29 38.438C110.199 38.5093 110.094 38.5592 109.981 38.5838C109.869 38.6084 109.752 38.6071 109.64 38.5801C109.454 38.4615 109.295 38.3062 109.171 38.1238C109.047 37.9413 108.961 37.7356 108.92 37.519C108.878 37.3025 108.881 37.0797 108.928 36.8643C108.975 36.6488 109.065 36.4453 109.194 36.2659C109.296 36.1994 109.411 36.155 109.532 36.1358C109.653 36.1166 109.776 36.1229 109.894 36.1543C110.416 36.3389 110.928 36.5524 111.427 36.7937V36.7937Z"
        fill="#FA0085" />
    <path
        d="M94.263 5.99865L95.1765 4.8923L95.0141 4.6893L93.6642 5.77535L93.1161 5.5013C93.449 5.13308 93.8123 4.79354 94.2021 4.4863C94.6452 4.24947 95.1069 4.0492 95.5825 3.88745L96.1306 4.1818C96.0216 4.84662 95.8378 5.49697 95.5825 6.12045C95.4709 6.32345 94.8314 6.2524 94.4254 6.3133L94.263 5.99865Z"
        fill="#FA0085" />
    <path
        d="M120.206 30.044C120.035 30.2628 119.814 30.4365 119.56 30.55C119.307 30.6635 119.029 30.7135 118.752 30.6955C118.475 30.6775 118.207 30.5921 117.97 30.4467C117.734 30.3013 117.536 30.1004 117.395 29.8613C117.324 29.6989 117.77 29.1 117.831 29.1203C118.643 29.3944 119.435 29.7496 120.227 30.0744L120.206 30.044Z"
        fill="#FA0085" />
    <path
        d="M99.8963 0.92365L100.16 1.5225L100.414 1.6037L101.033 0L101.774 0.365397L100.84 2.75065C100.718 2.75065 100.049 2.89275 99.9674 2.75065C99.7415 2.19049 99.588 1.60383 99.5106 1.00485L99.8963 0.92365Z"
        fill="#FA0085" />
    <path d="M30.0542 127.494L30.8053 128.641L29.5061 129.758L28.2881 127.92L30.0542 127.494Z" fill="#FA0085" />
    <path
        d="M71.0906 80.7026C71.2834 79.6876 70.7658 78.5001 71.9127 77.8099C72.1157 77.6881 72.4405 77.8099 72.9785 77.8099L71.3748 80.8549L71.0906 80.7026Z"
        fill="#FA0085" />
    <path
        d="M80.0633 75.516C80.3069 76.2671 80.3069 76.2671 78.2566 77.3633L77.7389 76.602L78.5001 76.2468L80.0633 75.516Z"
        fill="#FA0085" />
    <path
        d="M30.3688 66.4723C30.5616 65.031 31.4853 64.7164 32.6322 64.6758C32.7642 65.4675 32.348 65.7821 30.3688 66.4723Z"
        fill="#FA0085" />
    <path d="M73.0394 43.1578L72.8161 43.3506L71.2429 44.0916L71.0602 43.8175L72.268 41.7875L73.0394 43.1578Z"
        fill="#FA0085" />
    <path
        d="M97.6329 2.0909L99.3584 2.2127C98.8306 2.75065 98.5261 3.31905 98.1404 3.37995C97.7547 3.44085 97.3994 2.9232 96.9934 2.639L97.6735 2.06045L97.6329 2.0909Z"
        fill="#FA0085" />
    <path
        d="M59.6516 85.9197C59.2456 86.0923 58.8497 86.2547 58.4538 86.4374C57.6114 86.8231 57.4896 86.1431 57.2663 85.4224L59.6516 85.94V85.9197Z"
        fill="#FA0085" />
    <path
        d="M100.353 3.35965C100.353 4.29345 99.7237 4.45585 99.1147 4.63855C99.0538 4.63855 98.8001 4.3645 98.8204 4.263C98.9929 3.46115 99.5106 3.21755 100.353 3.35965Z"
        fill="#FA0085" />
    <path d="M79.0381 75.6682L78.1347 74.8359C78.8757 73.9529 79.373 74.3893 79.9008 75.1404L79.0381 75.6682Z"
        fill="#FA0085" />
    <path
        d="M97.7242 2.06045L96.9528 1.9894C97.0372 1.68071 97.1528 1.38143 97.2979 1.0962C97.4663 0.920848 97.6616 0.77351 97.8765 0.659748C97.8917 0.845521 97.8917 1.03222 97.8765 1.218C97.8765 1.51235 97.7547 1.79655 97.6836 2.0909L97.7242 2.06045Z"
        fill="#FA0085" />
    <path d="M42.0413 63.4476C41.4222 62.5037 41.6861 61.8744 42.7823 61.6612L42.0413 63.4476Z" fill="#FA0085" />
    <path class="pinMap"
        d="M83.5 66C82.837 66 82.2011 66.2642 81.7322 66.7344C81.2634 67.2046 81 67.8423 81 68.5073C81 69.8919 83.6194 75 83.6194 75C83.6194 75 86 69.8926 86 68.5077C86 68.1784 85.9354 67.8523 85.8098 67.5481C85.6842 67.2439 85.5001 66.9675 85.268 66.7346C85.0359 66.5018 84.7603 66.317 84.4571 66.191C84.1538 66.065 83.8283 66 83.5 66ZM83.5 70.1793C83.241 70.1793 82.9877 70.1023 82.7724 69.9579C82.557 69.8136 82.3891 69.6085 82.29 69.3684C82.1909 69.1284 82.1649 68.8643 82.2155 68.6095C82.266 68.3547 82.3907 68.1207 82.5739 67.937C82.7571 67.7533 82.9904 67.6282 83.2445 67.5775C83.4985 67.5268 83.7619 67.5528 84.0012 67.6523C84.2405 67.7517 84.4451 67.92 84.589 68.136C84.7329 68.352 84.8097 68.606 84.8097 68.8658C84.8097 69.2141 84.6717 69.5482 84.4261 69.7946C84.1805 70.0409 83.8474 70.1793 83.5 70.1793Z"
        fill="#00E1FF" />
</svg>