<svg viewBox="0 0 1023 1025" fill="none" xmlns="http://www.w3.org/2000/svg">
    <path
        d="M478 0.800236C475.8 1.00024 468.8 1.70024 462.5 2.20024C317.2 15.3002 181.1 93.7002 94.9 214.2C46.9 281.2 16.2 357.2 4.6 437.7C0.5 465.8 0 474.1 0 512.2C0 550.3 0.5 558.6 4.6 586.7C32.4 778.8 169.1 940.2 354.5 1000C387.7 1010.7 422.7 1018 462.5 1022.4C478 1024.1 545 1024.1 560.5 1022.4C629.2 1014.8 687.4 997.8 744.8 968.5C753.6 964 755.3 962.8 754.1 961.8C753.3 961.2 715.8 910.9 670.8 850.1L589 739.6L486.5 587.9C430.1 504.5 383.7 436.3 383.3 436.3C382.9 436.2 382.5 503.6 382.3 585.9C382 730 381.9 735.8 380.1 739.2C377.5 744.1 375.5 746.1 371.3 748.3C368.1 749.9 365.3 750.2 350.2 750.2H332.9L328.3 747.3C325.3 745.4 323.1 742.9 321.6 740L319.5 735.5L319.7 535L320 334.4L323.1 330.5C324.7 328.4 328.1 325.7 330.5 324.4C334.6 322.4 336.2 322.2 353.5 322.2C373.9 322.2 377.3 323 382.6 328.8C384.1 330.4 439.6 414 506 514.7C572.4 615.4 663.2 752.9 707.8 820.4L788.8 943.1L792.9 940.4C829.2 916.8 867.6 883.2 898 848.2C962.7 773.9 1004.4 683.3 1018.4 586.7C1022.5 558.6 1023 550.3 1023 512.2C1023 474.1 1022.5 465.8 1018.4 437.7C990.6 245.6 853.9 84.2002 668.5 24.4002C635.8 13.8002 601 6.50024 562 2.10024C552.4 1.10024 486.3 0.000235766 478 0.800236V0.800236ZM687.4 310.2C692.2 312.6 696.1 317.2 697.5 322C698.3 324.6 698.5 380.2 698.3 505.5L698 685.3L666.3 636.7L634.5 588.1V457.4C634.5 372.9 634.9 325.4 635.5 323.1C637.1 317.5 640.6 313.1 645.4 310.5C649.5 308.4 651 308.2 666.7 308.2C681.5 308.2 684.1 308.4 687.4 310.2V310.2Z"
        fill="#00E1FF" />
    <path
        d="M783.8 945.3C780.3 947.5 779.2 949 782.3 947.3C784.5 946 788.1 943.3 787.5 943.2C787.2 943.2 785.5 944.2 783.8 945.3ZM776.9 949.8C775.1 951.2 775.1 951.3 777.3 950.2C778.5 949.6 779.5 948.9 779.5 948.7C779.5 947.9 779 948.1 776.9 949.8ZM771.9 952.8C770.1 954.2 770.1 954.3 772.3 953.2C773.5 952.6 774.5 951.9 774.5 951.7C774.5 950.9 774 951.1 771.9 952.8ZM766.9 955.8C765.1 957.2 765.1 957.3 767.3 956.2C768.5 955.6 769.5 954.9 769.5 954.7C769.5 953.9 769 954.1 766.9 955.8ZM759.3 959.8C755.5 961.8 755.7 962.6 759.5 960.7C761.2 959.8 762.5 958.9 762.5 958.7C762.5 958 762.4 958.1 759.3 959.8Z"
        fill="#00E1FF" />
</svg>