<svg width="252" height="231" fill="none" xmlns="http://www.w3.org/2000/svg"><path d="M77.133 95.359a.599.599 0 01-.223 0L13.188 64.026a.507.507 0 11.447-.904l63.732 31.272a.509.509 0 01.233.68.528.528 0 01-.467.285z" fill="#E6E7E8"/><path d="M193.858 76.55s3.045-5.968 2.568-8.393c-.477-2.426-1.259-9.714-1.259-9.714l20.006 1.858-6.435 23.213" fill="#fff"/><path d="M208.718 84.041h-.142a.525.525 0 01-.366-.639l6.263-22.624-18.717-1.736c.223 1.827.843 7.105 1.188 9.044.456 2.568-2.487 8.465-2.619 8.719a.528.528 0 01-.862.109.51.51 0 01-.072-.576c.812-1.624 2.852-6.222 2.528-8.12-.427-2.416-1.239-9.45-1.269-9.755a.529.529 0 01.142-.426.544.544 0 01.426-.152l19.955 1.878a.558.558 0 01.386.223.518.518 0 01.071.436l-6.425 23.224a.52.52 0 01-.487.395z" fill="#231F20"/><path d="M53.97 105.783s.183-11.815 0-14.474c-.182-2.66 3.807-17.458 2.853-19.782-.954-2.325-3.614-3.228-4.568-.488-.954 2.74-2.67 8.83-2.67 8.83s-10.474-6.455-12.575-2.03c-2.101 4.426-4.06 12.658-1.847 14.759a8.414 8.414 0 004.892 2.213l-.568 14.991 14.484-4.019z" fill="#fff"/><path d="M39.487 110.36a.545.545 0 01-.325-.111.5.5 0 01-.193-.427l.548-14.504a9.024 9.024 0 01-4.71-2.294c-2.659-2.497-.142-11.378 1.726-15.367a3.045 3.045 0 012.03-1.675c3.238-1.015 8.891 2.03 10.749 3.045.467-1.654 1.725-6.019 2.487-8.211a2.66 2.66 0 012.354-2.03 3.653 3.653 0 013.198 2.497c.568 1.4-.234 5.735-1.543 12.18a53.79 53.79 0 00-1.279 7.744c.193 2.66 0 14.038 0 14.525a.507.507 0 01-.376.497l-14.484 4.06a.34.34 0 01-.182.071zm.507-33.495a4.223 4.223 0 00-1.167.153 2.031 2.031 0 00-1.34 1.126c-2.03 4.415-3.918 12.312-1.969 14.15a7.877 7.877 0 004.568 2.03.527.527 0 01.497.547l-.548 14.271 13.418-3.755c0-2.03.162-11.703 0-14.048.216-2.707.65-5.391 1.3-8.028.882-4.385 2.09-10.384 1.603-11.592a2.669 2.669 0 00-2.203-1.847c-.781 0-1.187.741-1.39 1.34-.944 2.69-2.65 8.739-2.66 8.8a.538.538 0 01-.314.345.508.508 0 01-.467 0c-.071-.081-5.684-3.532-9.328-3.532v.04zM94.368 176.741l-14.14 53.968 35.384-2.335 7.835-26.643L135.8 227.38h31.698l-19.345-73.628-53.785 22.989z" fill="#231F20"/><path d="M144.61 169.748l-52.455 9.785 13.043-77.475s26.704-5.36 33.16-5.36c5.44-.04 6.252 73.05 6.252 73.05z" fill="#fff"/><path d="M92.155 180a.511.511 0 01-.507-.589l13.042-77.485a.517.517 0 01.406-.406c1.086-.224 26.827-5.37 33.262-5.37 1.157 0 3.877.061 5.664 37.028.872 18.067 1.086 36.377 1.096 36.54a.52.52 0 01-.416.507l-52.466 9.744-.08.031zm13.479-77.557l-12.86 76.42 51.329-9.541c-.467-40.499-2.984-72.157-5.745-72.157-5.938 0-29.587 4.649-32.724 5.278z" fill="#231F20"/><path d="M114.079 96.658c-.781.507 1.502 11.784 1.634 12.799a269.813 269.813 0 011.665 30.805 91.022 91.022 0 01-6.648 33.495c-1.939 4.923-4.192 9.734-6.557 14.464s-7.014 5.542-11.967 5.187a71.06 71.06 0 01-15.621-2.913 9.345 9.345 0 01-4.78-2.66c-2.03-2.588.182-6.09 1.34-8.566a253.963 253.963 0 004.688-10.678c2.345-5.775 8.668-19.62 10.282-25.639 2.101-7.826-1.015-7.846-.65-15.936.153-3.268.194-6.536.326-9.804.07-1.959-.518-8.12.76-9.602 9.775-11.257 25.528-10.952 25.528-10.952zM153.258 94.851c.325.061-1.269 26.309-1.157 27.618.842 9.957 15.428 49.116 15.428 49.116 0 3.603-36.367 25.172-38.692 18.707 10.779-56.84 3.35-93.614 3.096-93.634.01 0 12.951-3.4 21.325-1.807z" fill="#ffbb00"/><path d="M126.604 110.513l-3.989 3.877 3.228 2.233s-3.4 25.294-15.357 28.887c-11.957 3.593-16.606 2.355-16.606 2.355l-6.597 8.576s10.251 2.934 10.982 3.177c.731.244 22.452-4.821 25.873-18.27a139.872 139.872 0 003.999-24.197l2.162-2.72-3.695-3.918z" fill="#231F20"/><path d="M111.643 135.593a.505.505 0 01-.406-.203l-10.13-13.712a.498.498 0 010-.65l6.303-6.516-7.906-2.03a.488.488 0 01-.355-.345.508.508 0 01.121-.488l9.247-9.916a.513.513 0 01.356-.16.512.512 0 01.385.86l-8.668 9.287 7.927 2.03a.528.528 0 01.355.356.493.493 0 01-.122.487l-6.618 6.831 9.856 13.408a.505.505 0 01-.112.7.474.474 0 01-.233.061zM137.018 134.111a.69.69 0 01-.203 0 .514.514 0 01-.264-.67l7.44-17.356-7.633-3.827a.552.552 0 01-.253-.314.506.506 0 01.05-.406l5.705-9.267-7.491-3.461a.527.527 0 01-.254-.68.512.512 0 01.487-.293c.067.003.133.02.193.049l8.009 3.705a.497.497 0 01.274.314.552.552 0 01-.051.417l-5.745 9.206 7.562 3.796a.509.509 0 01.243.649l-7.633 17.793a.515.515 0 01-.436.345z" fill="#231F20"/><path class="teamLeadStar" d="M199.857.466L211.966 25l27.07 3.938-19.59 19.092 4.629 26.969-24.218-12.728-24.218 12.728 4.628-26.969-19.589-19.092L187.748 25 199.857.466z" fill="#fff"/><path class="teamLeadStar" d="M224.075 75.505a.468.468 0 01-.234-.06l-23.984-12.637-23.985 12.606a.476.476 0 01-.528 0 .503.503 0 01-.203-.497l4.578-26.695-19.356-18.91a.493.493 0 01-.132-.517.52.52 0 01.406-.345l26.816-3.898L199.441.263a.519.519 0 01.456-.263.528.528 0 01.457.263l11.987 24.29 26.816 3.897a.514.514 0 01.416.623.501.501 0 01-.141.24l-19.438 18.899 4.578 26.694a.5.5 0 01-.203.498.456.456 0 01-.294.101zm-24.218-13.712a.464.464 0 01.233 0l23.345 12.26-4.456-25.953a.536.536 0 01.142-.456l18.829-18.331-26.055-3.786a.525.525 0 01-.386-.285L199.857 1.613l-11.653 23.64a.523.523 0 01-.385.284l-26.055 3.776 18.899 18.35a.55.55 0 01.142.457l-4.456 25.954 23.345-12.261a.472.472 0 01.163-.02z" fill="#231F20"/><path d="M153.258 94.851s19.031 6.395 23.913 4.963c4.883-1.43 14.759-24.826 14.759-24.826l20.005 2.486s-8.343 49.492-24.218 52.151c-15.874 2.659-36.976-4.415-36.976-4.415l2.517-30.359z" fill="#ffbb00"/><path d="M106.954 76.55c-.812-3.674-1.908-7.307-2.233-11.053-.325-3.745.182-7.714 2.304-10.81 2.284-3.329 5.197-2.943 8.708-3.4 4.659-.609 8.821-2.943 13.145-4.628.822-.325 2.101-.396 2.253.477.025.273-.028.547-.152.792a13.85 13.85 0 01-2.304 3.796 34.037 34.037 0 009.622-3.796 11.228 11.228 0 01-2.487 9.419l5.715-2.862a9.633 9.633 0 01-7.207 11.033" fill="#fff"/><path d="M106.954 77.068a.51.51 0 01-.508-.406c-.213-.954-.446-1.908-.68-2.872a55.478 55.478 0 01-1.563-8.242c-.274-3.106-.081-7.552 2.395-11.165 2.03-2.943 4.588-3.187 7.319-3.43l1.756-.183a35.954 35.954 0 009.51-3.137c1.147-.497 2.324-1.015 3.502-1.461a2.912 2.912 0 012.314 0 1.248 1.248 0 01.65.903 1.87 1.87 0 01-.183 1.076c-.388.96-.878 1.875-1.462 2.73a33.572 33.572 0 008.029-3.4.497.497 0 01.477 0 .528.528 0 01.294.376 11.737 11.737 0 01-1.36 8.12l3.837-1.919a.539.539 0 01.652.15.524.524 0 01.099.216 10.154 10.154 0 01-7.612 11.652.518.518 0 01-.62-.406.537.537 0 01.417-.62 8.741 8.741 0 005.45-3.856 8.9 8.9 0 001.411-5.928l-5.075 2.548a.527.527 0 01-.629-.812 10.75 10.75 0 002.486-8.242 34.424 34.424 0 01-9.135 3.471.525.525 0 01-.562-.242.527.527 0 01.045-.61 13.22 13.22 0 002.233-3.644c.075-.159.113-.332.111-.508a.213.213 0 00-.121-.173 2.03 2.03 0 00-1.421.092c-1.157.447-2.335 1.015-3.461 1.452a37.174 37.174 0 01-9.805 3.207c-.62.081-1.218.132-1.797.193-2.68.244-4.801.436-6.547 2.984-2.294 3.35-2.476 7.541-2.223 10.475.314 2.74.83 5.455 1.543 8.12.234 1.015.467 1.928.69 2.892a.523.523 0 01-.406.62l-.05-.02z" fill="#231F20"/><path d="M131.943 92.243l1.208 7.876s-1.238 11.459-9.896 9.45c-8.658-2.01-12.109-9.815-12.109-9.815l-1.107-20.808s6.385-3.481 4.365-17.377a42.792 42.792 0 0022.482 2.913s3.045 14.312 2.111 21.01a7.4 7.4 0 01-7.054 6.75z" fill="#fff"/><path d="M125.173 110.36a9.443 9.443 0 01-2.03-.243 19.062 19.062 0 01-12.464-10.15.403.403 0 010-.183l-1.188-20.736a.505.505 0 01.274-.488c.061 0 6.019-3.532 4.06-16.838a.558.558 0 01.213-.498.5.5 0 01.538-.05 42.713 42.713 0 0022.188 2.862.527.527 0 01.579.416c.122.579 3.096 14.474 2.111 21.193a7.909 7.909 0 01-6.973 7.105l1.127 7.318a.674.674 0 010 .142c0 .244-.721 6.232-4.487 8.902a6.72 6.72 0 01-3.948 1.248zm-13.53-10.708c.396.832 3.888 7.623 11.703 9.44a6.212 6.212 0 005.217-.833c3.187-2.253 3.959-7.46 4.06-8.12l-1.198-7.805a.52.52 0 01.122-.416.468.468 0 01.386-.183 6.851 6.851 0 006.547-6.303c.852-5.857-1.482-17.834-2.03-20.3a44.752 44.752 0 01-21.427-2.65c1.451 11.846-3.228 15.936-4.466 16.8l1.086 20.37z" fill="#231F20"/><path d="M127.467 72.897s4.06 7.541 2.872 8.678c-1.187 1.137-4.344 0-4.344 0" fill="#fff"/><path d="M128.614 82.59a9.034 9.034 0 01-2.761-.497.506.506 0 01-.353-.66.518.518 0 01.279-.299.512.512 0 01.409.004c.731.264 3.045.833 3.827.082.497-.457-.924-4.294-2.974-8.06a.49.49 0 01-.042-.387.51.51 0 01.935-.1c1.299 2.376 4.151 8.03 2.761 9.298a3.046 3.046 0 01-2.081.619zM120.161 73.499c.471-.02.815-.908.77-1.983-.045-1.075-.463-1.931-.934-1.911-.47.02-.815.907-.77 1.983.046 1.075.464 1.93.934 1.91zM133.75 73.496c.471-.02.815-.908.77-1.983-.045-1.076-.463-1.931-.934-1.911-.47.02-.815.907-.77 1.983.046 1.075.464 1.93.934 1.91z" fill="#231F20"/><path d="M115.571 75.394a12.033 12.033 0 00-2.984-3.38 4.06 4.06 0 00-2.213-1.015 3.613 3.613 0 00-1.908.568 7.003 7.003 0 00-3.329 4.67 5.576 5.576 0 00.101 2.71 6.185 6.185 0 002.7 3.247 18.637 18.637 0 003.938 1.705" fill="#fff"/><path d="M111.876 84.458h-.172a18.8 18.8 0 01-4.06-1.766 6.646 6.646 0 01-2.913-3.523 6.09 6.09 0 01-.122-2.974 7.615 7.615 0 013.593-5.074 4.06 4.06 0 012.182-.64c.93.098 1.808.477 2.518 1.086a12.624 12.624 0 013.106 3.532c.07.12.091.263.057.398a.532.532 0 01-.24.323.527.527 0 01-.721-.193 11.214 11.214 0 00-2.842-3.228 3.6 3.6 0 00-1.918-.862 3.095 3.095 0 00-1.624.487 6.53 6.53 0 00-3.045 4.324 5.233 5.233 0 00.091 2.456 5.641 5.641 0 002.477 2.954c1.21.7 2.497 1.254 3.836 1.654a.524.524 0 01.3.262.517.517 0 01.025.398.508.508 0 01-.528.386zM131.943 92.243a23.67 23.67 0 01-14.535-2.396s7.41 11.389 15.672 9.785l-1.137-7.39z" fill="#231F20"/><path d="M131.415 100.363c-7.754 0-14.21-9.724-14.463-10.15a.517.517 0 01.335-.782.496.496 0 01.324.05 23.346 23.346 0 0014.21 2.346.548.548 0 01.396.08.522.522 0 01.213.346l1.137 7.379a.494.494 0 01-.396.578 9.231 9.231 0 01-1.756.153zm-12.474-9.135c2.284 2.913 7.724 8.85 13.53 8.12l-1.015-6.385a24.117 24.117 0 01-12.515-1.806v.07zM120.92 78.408a6.882 6.882 0 116.882-6.882 6.894 6.894 0 01-6.882 6.882zm0-12.718a5.834 5.834 0 00-5.392 3.603 5.836 5.836 0 1011.228 2.233 5.843 5.843 0 00-5.836-5.836z" fill="#231F20"/><path d="M134.643 78.408a6.88 6.88 0 01-6.358-4.248 6.885 6.885 0 011.492-7.5 6.877 6.877 0 017.499-1.491 6.88 6.88 0 014.249 6.358 6.894 6.894 0 01-6.882 6.881zm0-12.718a5.84 5.84 0 00-5.392 3.603 5.836 5.836 0 1011.228 2.233 5.843 5.843 0 00-5.836-5.836zM127.507 86.792c-3.207 0-6.303-1.949-9.216-5.735a.516.516 0 01-.144-.392.511.511 0 01.803-.375.513.513 0 01.143.158c2.71 3.512 5.542 5.309 8.414 5.33 3.969 0 6.72-3.432 6.75-3.462a.507.507 0 01.802.62c-.142.172-3.116 3.856-7.552 3.856z" fill="#231F20"/><path d="M92.155 104.159c-3.603 3.461-30.288 30.45-32.287 25.476-2-4.973-3.42-27.801-3.42-27.801l-18.27 2.71s-10.536 51.4 7.784 57.064c18.321 5.663 46.193-21.315 46.193-21.315v-36.134z" fill="#ffbb00"/><path d="M77.133 170.733a.483.483 0 01-.254-.071.5.5 0 01-.182-.691c.111-.203 11.804-21.071 15.6-54.221a.527.527 0 01.569-.447.51.51 0 01.446.559c-3.826 33.373-15.62 54.404-15.742 54.617a.51.51 0 01-.437.254zM183.81 130.153c-13.652 0-39.047-5.715-39.301-5.775a.51.51 0 01-.164-.93.478.478 0 01.387-.055c.254.051 25.537 5.745 39.067 5.745h1.015a.515.515 0 01.518.497.5.5 0 01-.141.362.508.508 0 01-.356.156h-1.025z" fill="#231F20"/><path d="M45.76 77.88s3.207 3.42 1.634 9.42c-1.574 5.998-4.223 7.105-8.72 4.435" fill="#fff"/><path d="M42.623 93.643a8.475 8.475 0 01-4.222-1.461.522.522 0 01.538-.894c2.03 1.229 3.593 1.584 4.77 1.107 1.36-.548 2.395-2.253 3.167-5.227 1.472-5.624-1.39-8.79-1.512-8.922a.528.528 0 01.365-.896.509.509 0 01.365.155c.142.152 3.39 3.705 1.766 9.906-.883 3.36-2.03 5.248-3.785 5.938a3.97 3.97 0 01-1.452.294z" fill="#231F20"/><path d="M196.426 68.157s-5.857-9.856-4.425-10.86c1.431-1.006 4.76 2.831 6.597 5.43 0 0 5.633 1.014 4.689 7.287" fill="#fff"/><path d="M203.287 70.542h-.081a.528.528 0 01-.436-.599c.862-5.704-4.06-6.658-4.263-6.689a.536.536 0 01-.335-.213c-2.416-3.42-5.075-5.846-5.867-5.308-.375.68 1.715 5.349 4.578 10.15a.531.531 0 01-.183.71.52.52 0 01-.721-.183c-2.781-4.689-5.785-10.495-4.273-11.55 2.03-1.442 5.897 3.552 7.207 5.39 1.086.284 5.795 1.867 4.892 7.835a.528.528 0 01-.518.457z" fill="#231F20"/><path d="M16.862 218.793a.512.512 0 01-.472-.334.509.509 0 01.148-.559l49.735-41.544a.51.51 0 01.561-.059.497.497 0 01.249.299.507.507 0 01-.16.541l-49.736 41.544a.51.51 0 01-.325.112zM245.674 201.213a.501.501 0 01-.305-.101l-76.206-57.754a.515.515 0 01-.244-.339.514.514 0 01.093-.408.52.52 0 01.368-.199.504.504 0 01.392.144l76.206 57.744a.505.505 0 01-.078.858.51.51 0 01-.226.055zM85 73.404a.508.508 0 01-.376-.172l-37.18-41.565a.517.517 0 010-.72.506.506 0 01.72 0l37.17 41.564a.506.506 0 010 .72.518.518 0 01-.335.173zM211.956 104.818a.513.513 0 01-.599-.416.516.516 0 01.416-.599l39.24-15.306a.506.506 0 01.659.284.508.508 0 01-.284.66l-39.26 15.337a.398.398 0 01-.172.04zM150.741 69.852a.446.446 0 01-.223 0 .493.493 0 01-.158-.12.506.506 0 01-.076-.56l13.997-28.298a.507.507 0 01.68-.234.51.51 0 01.233.68l-13.966 28.258a.516.516 0 01-.487.274zM245.674 138.577h-.051l-45.817-5.968a.512.512 0 11.122-1.015l45.827 5.968a.51.51 0 01-.081 1.015zM160.678 86.792a.487.487 0 01-.396-.193.501.501 0 01-.095-.173c-.02-.064-.027-.13-.02-.197a.502.502 0 01.186-.34l6.831-5.532a.507.507 0 01.821.451.507.507 0 01-.182.34l-6.831 5.532a.515.515 0 01-.314.112zM204.505 218.793a.503.503 0 01-.436-.244l-26.278-44.457a.505.505 0 01.182-.69.52.52 0 01.701.173l26.268 44.457a.494.494 0 01-.033.561.517.517 0 01-.15.129.456.456 0 01-.254.071zM60.294 221.32a.456.456 0 01-.233-.061.506.506 0 01-.213-.68l10.667-20.117a.504.504 0 01.69-.203.5.5 0 01.204.68L60.75 221.056a.526.526 0 01-.457.264zM.5 157.974a.495.495 0 01-.487-.386.508.508 0 01.376-.609l32.713-7.44a.524.524 0 01.62.396.52.52 0 01-.396.619l-32.714 7.43-.111-.01zM104.629 38.234a.5.5 0 01-.487-.365L96.418 10.89a.518.518 0 01.55-.646.494.494 0 01.424.362l7.755 26.989a.495.495 0 01-.345.62.348.348 0 01-.173.02zM139.16 29.546h-.112a.51.51 0 01-.386-.609l5.461-23.984a.522.522 0 01.619-.396.518.518 0 01.396.619l-5.481 23.974a.518.518 0 01-.497.396zM30.382 108.046H10.194a.508.508 0 110-1.015h20.188a.509.509 0 010 1.015z" fill="#E6E7E8"/></svg>